<svg width="971" height="671" viewBox="0 0 971 671" fill="none" xmlns="http://www.w3.org/2000/svg">
<g style="mix-blend-mode:multiply">
<path fill-rule="evenodd" clip-rule="evenodd" d="M362.904 0C377.122 20.4732 379.986 44.9829 367.442 74.2997C320.888 183.073 226.294 245.865 144.865 299.919C68.9125 350.337 4.41324 393.152 1.03465 458.586C-6.2935 600.967 191.265 671 471.749 671H971V0H362.904Z" fill="url(#paint0_linear_1_194)" fill-opacity="0.8"/>
</g>
<g style="mix-blend-mode:lighten" opacity="0.51">
<path d="M403.504 520.189L434.002 489.71V442.298L356.111 520.189H403.504Z" fill="white"/>
</g>
<path d="M435.575 541.738L405.847 541.422H404.763L375.035 541.106C379.553 570.811 372.302 597.466 356.263 621.84L403.927 622.337H405.011L452.675 622.857C437.134 598.167 430.47 571.353 435.597 541.761L435.575 541.738Z" fill="#ABAEAF"/>
<path d="M461.072 607.148L348.221 605.966C343.78 605.92 340.142 609.482 340.095 613.923L340.072 616.137C340.026 620.578 343.588 624.216 348.029 624.262L460.88 625.444C465.321 625.491 468.959 621.928 469.006 617.487L469.029 615.273C469.075 610.832 465.513 607.194 461.072 607.148Z" fill="#BEC1C3"/>
<path d="M576.737 548.334L235.658 544.742C226.352 544.652 218.874 537.017 218.987 527.71L221.269 311.71C221.359 302.403 228.995 294.926 238.301 295.039L579.38 298.63C588.686 298.721 596.164 306.356 596.051 315.663L593.769 531.663C593.679 540.97 586.043 548.447 576.737 548.334Z" fill="#BEC1C3"/>
<path d="M574.297 503.359L238.527 499.812L240.741 314.601L576.511 318.125L574.297 503.359Z" fill="#FFFCFA"/>
<path d="M574.297 503.359L238.527 499.812L238.731 490.257L574.5 493.803L574.297 503.359Z" fill="#B6A6D2"/>
<path d="M576.532 318.076L240.758 314.56L240.653 324.544L576.427 328.06L576.532 318.076Z" fill="#B6A6D2"/>
<path d="M417.91 524.344C417.843 530.714 412.624 535.82 406.254 535.752C399.884 535.684 394.779 530.466 394.847 524.096C394.914 517.725 400.132 512.62 406.503 512.688C412.873 512.756 417.978 517.974 417.91 524.344Z" fill="#7F7493"/>
<path d="M345.036 404.472V366.672H353.784V397.344H372.738V404.472H345.036ZM377.626 404.472V366.672H384.862L400.954 393.348H397.12L412.942 366.672H420.124L420.232 404.472H412.024L411.97 379.254H413.482L400.846 400.476H396.904L383.998 379.254H385.834V404.472H377.626ZM441.62 405.12C438.596 405.12 435.698 404.724 432.926 403.932C430.154 403.104 427.922 402.042 426.23 400.746L429.2 394.158C430.82 395.31 432.728 396.264 434.924 397.02C437.156 397.74 439.406 398.1 441.674 398.1C443.402 398.1 444.788 397.938 445.832 397.614C446.912 397.254 447.704 396.768 448.208 396.156C448.712 395.544 448.964 394.842 448.964 394.05C448.964 393.042 448.568 392.25 447.776 391.674C446.984 391.062 445.94 390.576 444.644 390.216C443.348 389.82 441.908 389.46 440.324 389.136C438.776 388.776 437.21 388.344 435.626 387.84C434.078 387.336 432.656 386.688 431.36 385.896C430.064 385.104 429.002 384.06 428.174 382.764C427.382 381.468 426.986 379.812 426.986 377.796C426.986 375.636 427.562 373.674 428.714 371.91C429.902 370.11 431.666 368.688 434.006 367.644C436.382 366.564 439.352 366.024 442.916 366.024C445.292 366.024 447.632 366.312 449.936 366.888C452.24 367.428 454.274 368.256 456.038 369.372L453.338 376.014C451.574 375.006 449.81 374.268 448.046 373.8C446.282 373.296 444.554 373.044 442.862 373.044C441.17 373.044 439.784 373.242 438.704 373.638C437.624 374.034 436.85 374.556 436.382 375.204C435.914 375.816 435.68 376.536 435.68 377.364C435.68 378.336 436.076 379.128 436.868 379.74C437.66 380.316 438.704 380.784 440 381.144C441.296 381.504 442.718 381.864 444.266 382.224C445.85 382.584 447.416 382.998 448.964 383.466C450.548 383.934 451.988 384.564 453.284 385.356C454.58 386.148 455.624 387.192 456.416 388.488C457.244 389.784 457.658 391.422 457.658 393.402C457.658 395.526 457.064 397.47 455.876 399.234C454.688 400.998 452.906 402.42 450.53 403.5C448.19 404.58 445.22 405.12 441.62 405.12ZM283.917 448.472V410.672H291.153L307.245 437.348H303.411L319.233 410.672H326.415L326.523 448.472H318.315L318.261 423.254H319.773L307.137 444.476H303.195L290.289 423.254H292.125V448.472H283.917ZM353.851 449.12C350.863 449.12 348.091 448.634 345.535 447.662C343.015 446.69 340.819 445.322 338.947 443.558C337.111 441.794 335.671 439.724 334.627 437.348C333.619 434.972 333.115 432.38 333.115 429.572C333.115 426.764 333.619 424.172 334.627 421.796C335.671 419.42 337.129 417.35 339.001 415.586C340.873 413.822 343.069 412.454 345.589 411.482C348.109 410.51 350.845 410.024 353.797 410.024C356.785 410.024 359.521 410.51 362.005 411.482C364.525 412.454 366.703 413.822 368.539 415.586C370.411 417.35 371.869 419.42 372.913 421.796C373.957 424.136 374.479 426.728 374.479 429.572C374.479 432.38 373.957 434.99 372.913 437.402C371.869 439.778 370.411 441.848 368.539 443.612C366.703 445.34 364.525 446.69 362.005 447.662C359.521 448.634 356.803 449.12 353.851 449.12ZM353.797 441.668C355.489 441.668 357.037 441.38 358.441 440.804C359.881 440.228 361.141 439.4 362.221 438.32C363.301 437.24 364.129 435.962 364.705 434.486C365.317 433.01 365.623 431.372 365.623 429.572C365.623 427.772 365.317 426.134 364.705 424.658C364.129 423.182 363.301 421.904 362.221 420.824C361.177 419.744 359.935 418.916 358.495 418.34C357.055 417.764 355.489 417.476 353.797 417.476C352.105 417.476 350.539 417.764 349.099 418.34C347.695 418.916 346.453 419.744 345.373 420.824C344.293 421.904 343.447 423.182 342.835 424.658C342.259 426.134 341.971 427.772 341.971 429.572C341.971 431.336 342.259 432.974 342.835 434.486C343.447 435.962 344.275 437.24 345.319 438.32C346.399 439.4 347.659 440.228 349.099 440.804C350.539 441.38 352.105 441.668 353.797 441.668ZM399.413 449.12C396.425 449.12 393.653 448.634 391.097 447.662C388.577 446.69 386.381 445.322 384.509 443.558C382.673 441.794 381.233 439.724 380.189 437.348C379.181 434.972 378.677 432.38 378.677 429.572C378.677 426.764 379.181 424.172 380.189 421.796C381.233 419.42 382.691 417.35 384.563 415.586C386.435 413.822 388.631 412.454 391.151 411.482C393.671 410.51 396.407 410.024 399.359 410.024C402.347 410.024 405.083 410.51 407.567 411.482C410.087 412.454 412.265 413.822 414.101 415.586C415.973 417.35 417.431 419.42 418.475 421.796C419.519 424.136 420.041 426.728 420.041 429.572C420.041 432.38 419.519 434.99 418.475 437.402C417.431 439.778 415.973 441.848 414.101 443.612C412.265 445.34 410.087 446.69 407.567 447.662C405.083 448.634 402.365 449.12 399.413 449.12ZM399.359 441.668C401.051 441.668 402.599 441.38 404.003 440.804C405.443 440.228 406.703 439.4 407.783 438.32C408.863 437.24 409.691 435.962 410.267 434.486C410.879 433.01 411.185 431.372 411.185 429.572C411.185 427.772 410.879 426.134 410.267 424.658C409.691 423.182 408.863 421.904 407.783 420.824C406.739 419.744 405.497 418.916 404.057 418.34C402.617 417.764 401.051 417.476 399.359 417.476C397.667 417.476 396.101 417.764 394.661 418.34C393.257 418.916 392.015 419.744 390.935 420.824C389.855 421.904 389.009 423.182 388.397 424.658C387.821 426.134 387.533 427.772 387.533 429.572C387.533 431.336 387.821 432.974 388.397 434.486C389.009 435.962 389.837 437.24 390.881 438.32C391.961 439.4 393.221 440.228 394.661 440.804C396.101 441.38 397.667 441.668 399.359 441.668ZM426.616 448.472V410.672H443.788C447.892 410.672 451.51 411.464 454.642 413.048C457.774 414.596 460.222 416.774 461.986 419.582C463.75 422.39 464.632 425.72 464.632 429.572C464.632 433.388 463.75 436.718 461.986 439.562C460.222 442.37 457.774 444.566 454.642 446.15C451.51 447.698 447.892 448.472 443.788 448.472H426.616ZM435.364 441.29H443.356C445.876 441.29 448.054 440.822 449.89 439.886C451.762 438.914 453.202 437.546 454.21 435.782C455.254 434.018 455.776 431.948 455.776 429.572C455.776 427.16 455.254 425.09 454.21 423.362C453.202 421.598 451.762 420.248 449.89 419.312C448.054 418.34 445.876 417.854 443.356 417.854H435.364V441.29ZM471.229 448.472V410.672H479.977V441.344H498.931V448.472H471.229ZM511.865 425.9H530.063V432.704H511.865V425.9ZM512.513 441.452H533.087V448.472H503.819V410.672H532.385V417.692H512.513V441.452Z" fill="#F27F22"/>
<g opacity="0.4">
<path d="M259.953 614.229C257.566 614.229 255.623 612.286 255.623 609.898C255.623 592.67 241.614 578.661 224.385 578.661C221.998 578.661 220.054 576.718 220.054 574.33C220.054 571.943 221.998 570 224.385 570C246.388 570 264.302 587.914 264.302 609.917C264.302 612.304 262.359 614.247 259.971 614.247L259.953 614.229Z" fill="white"/>
<path d="M243.39 614.229C241.003 614.229 239.06 612.286 239.06 609.898C239.06 601.811 232.472 595.223 224.385 595.223C221.998 595.223 220.054 593.28 220.054 590.893C220.054 588.506 221.998 586.563 224.385 586.563C237.265 586.563 247.739 597.037 247.739 609.917C247.739 612.304 245.796 614.247 243.409 614.247L243.39 614.229Z" fill="white"/>
<path d="M224.366 616.246C220.85 616.246 218 613.396 218 609.88C218 606.364 220.85 603.514 224.366 603.514C227.882 603.514 230.732 606.364 230.732 609.88C230.732 613.396 227.882 616.246 224.366 616.246Z" fill="white"/>
</g>
<path d="M604.703 426.135L672.054 425.671" stroke="#FF8906" stroke-width="2.7" stroke-miterlimit="10"/>
<path d="M671.726 425.672C670.854 424.814 670.434 423.101 670.384 421.914C671.577 423.502 673.132 424.884 675.009 425.647C673.145 426.405 671.679 427.894 670.439 429.443C670.532 428.174 670.83 426.625 671.726 425.672Z" fill="#FF8906"/>
<path d="M675.098 437.806L607.736 438.273" stroke="#BC91F4" stroke-width="2.7" stroke-miterlimit="10"/>
<path d="M608.069 438.266C608.94 439.123 609.361 440.836 609.41 442.024C608.217 440.436 606.663 439.054 604.786 438.29C606.65 437.533 608.115 436.044 609.356 434.494C609.263 435.764 608.965 437.313 608.069 438.266Z" fill="#BC91F4"/>
<path d="M140.703 418.135L208.054 417.671" stroke="#FF8906" stroke-width="2.7" stroke-miterlimit="10"/>
<path d="M207.726 417.672C206.854 416.814 206.434 415.101 206.384 413.914C207.577 415.502 209.132 416.884 211.009 417.647C209.145 418.405 207.68 419.894 206.439 421.443C206.532 420.174 206.83 418.625 207.726 417.672Z" fill="#FF8906"/>
<path d="M211.098 429.806L143.736 430.273" stroke="#BC91F4" stroke-width="2.7" stroke-miterlimit="10"/>
<path d="M144.069 430.266C144.94 431.123 145.361 432.836 145.41 434.024C144.217 432.436 142.663 431.054 140.786 430.29C142.65 429.533 144.115 428.044 145.356 426.494C145.263 427.764 144.965 429.313 144.069 430.266Z" fill="#BC91F4"/>
<path d="M412.725 227.896L413.125 286.569" stroke="#FF8906" stroke-width="2.7" stroke-miterlimit="10"/>
<path d="M413.125 286.283C413.872 285.524 415.364 285.157 416.399 285.114C415.015 286.153 413.811 287.508 413.146 289.142C412.487 287.519 411.19 286.242 409.84 285.162C410.946 285.243 412.295 285.502 413.125 286.283Z" fill="#FF8906"/>
<path d="M402.558 289.214L402.152 230.538" stroke="#BC91F4" stroke-width="2.7" stroke-miterlimit="10"/>
<path d="M402.155 230.834C401.408 231.592 399.916 231.959 398.882 232.002C400.265 230.963 401.469 229.609 402.134 227.974C402.793 229.598 404.09 230.874 405.44 231.954C404.334 231.873 402.985 231.614 402.155 230.834Z" fill="#BC91F4"/>
<g opacity="0.4">
<path d="M660.45 204.793L661.357 206.459C663.559 210.493 666.89 213.824 670.924 216.026L672.59 216.933C674.2 217.803 674.2 220.116 672.59 220.986L670.924 221.892C666.89 224.095 663.559 227.426 661.357 231.46L660.45 233.125C659.58 234.735 657.267 234.735 656.397 233.125L655.491 231.46C653.288 227.426 649.957 224.095 645.923 221.892L644.258 220.986C642.648 220.116 642.648 217.803 644.258 216.933L645.923 216.026C649.957 213.824 653.288 210.493 655.491 206.459L656.397 204.793C657.267 203.183 659.58 203.183 660.45 204.793Z" fill="white"/>
<path d="M668.413 249.307L668.95 250.288C670.264 252.694 672.244 254.674 674.65 255.988L675.631 256.524C676.593 257.043 676.593 258.412 675.631 258.949L674.65 259.485C672.244 260.799 670.264 262.779 668.95 265.185L668.413 266.166C667.895 267.128 666.526 267.128 665.989 266.166L665.452 265.185C664.139 262.779 662.158 260.799 659.753 259.485L658.772 258.949C657.81 258.431 657.81 257.061 658.772 256.524L659.753 255.988C662.158 254.674 664.139 252.694 665.452 250.288L665.989 249.307C666.507 248.345 667.877 248.345 668.413 249.307Z" fill="white"/>
<path d="M291.167 332.59L291.482 333.182C292.259 334.607 293.443 335.792 294.868 336.569L295.46 336.884C296.034 337.198 296.034 338.012 295.46 338.327L294.868 338.642C293.443 339.419 292.259 340.603 291.482 342.028L291.167 342.62C290.852 343.194 290.038 343.194 289.724 342.62L289.409 342.028C288.632 340.603 287.447 339.419 286.022 338.642L285.43 338.327C284.857 338.012 284.857 337.198 285.43 336.884L286.022 336.569C287.447 335.792 288.632 334.607 289.409 333.182L289.724 332.59C290.038 332.017 290.852 332.017 291.167 332.59Z" fill="white"/>
<path d="M402.072 109.429L402.794 110.762C404.57 114 407.235 116.665 410.455 118.423L411.787 119.145C413.064 119.848 413.064 121.699 411.787 122.402L410.455 123.123C407.217 124.9 404.552 127.565 402.794 130.785L402.072 132.117C401.369 133.394 399.518 133.394 398.815 132.117L398.093 130.785C396.317 127.546 393.652 124.882 390.432 123.123L389.099 122.402C387.822 121.699 387.822 119.848 389.099 119.145L390.432 118.423C393.67 116.646 396.335 113.982 398.093 110.762L398.815 109.429C399.518 108.152 401.369 108.152 402.072 109.429Z" fill="white"/>
<path d="M556.91 559.508L557.631 560.841C559.408 564.079 562.073 566.744 565.293 568.502L566.625 569.224C567.902 569.927 567.902 571.777 566.625 572.481L565.293 573.202C562.054 574.979 559.389 577.644 557.631 580.864L556.91 582.196C556.206 583.473 554.356 583.473 553.653 582.196L552.931 580.864C551.154 577.625 548.489 574.96 545.269 573.202L543.937 572.481C542.66 571.777 542.66 569.927 543.937 569.224L545.269 568.502C548.508 566.725 551.173 564.061 552.931 560.841L553.653 559.508C554.356 558.231 556.206 558.231 556.91 559.508Z" fill="white"/>
<path d="M588.925 580.568L589.35 581.363C590.405 583.288 591.997 584.88 593.921 585.934L594.717 586.36C595.476 586.786 595.476 587.877 594.717 588.303L593.921 588.729C591.997 589.784 590.405 591.375 589.35 593.3L588.925 594.095C588.499 594.854 587.407 594.854 586.982 594.095L586.556 593.3C585.501 591.375 583.91 589.784 581.985 588.729L581.189 588.303C580.431 587.877 580.431 586.786 581.189 586.36L581.985 585.934C583.91 584.88 585.501 583.288 586.556 581.363L586.982 580.568C587.407 579.809 588.499 579.809 588.925 580.568Z" fill="white"/>
<path d="M548.009 603.311L548.434 604.107C549.489 606.032 551.081 607.623 553.005 608.678L553.801 609.104C554.56 609.529 554.56 610.621 553.801 611.047L553.005 611.472C551.081 612.527 549.489 614.119 548.434 616.043L548.009 616.839C547.583 617.598 546.491 617.598 546.065 616.839L545.64 616.043C544.585 614.119 542.994 612.527 541.069 611.472L540.273 611.047C539.514 610.621 539.514 609.529 540.273 609.104L541.069 608.678C542.994 607.623 544.585 606.032 545.64 604.107L546.065 603.311C546.491 602.553 547.583 602.553 548.009 603.311Z" fill="white"/>
<path d="M421.17 140.278L421.596 141.074C422.651 142.999 424.242 144.59 426.167 145.645L426.962 146.071C427.721 146.496 427.721 147.588 426.962 148.014L426.167 148.439C424.242 149.494 422.651 151.086 421.596 153.01L421.17 153.806C420.744 154.565 419.653 154.565 419.227 153.806L418.801 153.01C417.747 151.086 416.155 149.494 414.23 148.439L413.435 148.014C412.676 147.588 412.676 146.496 413.435 146.071L414.23 145.645C416.155 144.59 417.747 142.999 418.801 141.074L419.227 140.278C419.653 139.52 420.744 139.52 421.17 140.278Z" fill="white"/>
<path d="M401.405 172.849L401.831 173.644C402.886 175.569 404.477 177.16 406.402 178.215L407.198 178.641C407.957 179.066 407.957 180.158 407.198 180.584L406.402 181.01C404.477 182.064 402.886 183.656 401.831 185.58L401.405 186.376C400.98 187.135 399.888 187.135 399.462 186.376L399.037 185.58C397.982 183.656 396.39 182.064 394.466 181.01L393.67 180.584C392.911 180.158 392.911 179.066 393.67 178.641L394.466 178.215C396.39 177.16 397.982 175.569 399.037 173.644L399.462 172.849C399.888 172.09 400.98 172.09 401.405 172.849Z" fill="white"/>
<path d="M636.355 295.523L636.892 296.504C638.206 298.91 640.186 300.89 642.592 302.204L643.572 302.741C644.535 303.259 644.535 304.628 643.572 305.165L642.592 305.701C640.186 307.015 638.206 308.995 636.892 311.401L636.355 312.382C635.837 313.344 634.468 313.344 633.931 312.382L633.394 311.401C632.08 308.995 630.1 307.015 627.695 305.701L626.714 305.165C625.751 304.647 625.751 303.277 626.714 302.741L627.695 302.204C630.1 300.89 632.08 298.91 633.394 296.504L633.931 295.523C634.449 294.561 635.819 294.561 636.355 295.523Z" fill="white"/>
<path d="M606.098 327.427L606.413 328.019C607.19 329.444 608.374 330.629 609.799 331.406L610.391 331.721C610.965 332.035 610.965 332.849 610.391 333.164L609.799 333.479C608.374 334.256 607.19 335.44 606.413 336.865L606.098 337.457C605.783 338.031 604.969 338.031 604.655 337.457L604.34 336.865C603.563 335.44 602.378 334.256 600.953 333.479L600.361 333.164C599.788 332.849 599.788 332.035 600.361 331.721L600.953 331.406C602.378 330.629 603.563 329.444 604.34 328.019L604.655 327.427C604.969 326.854 605.783 326.854 606.098 327.427Z" fill="white"/>
</g>
<path d="M689.74 437.383V459.743C689.74 467.543 708.25 473.863 731.09 473.863C753.93 473.863 772.44 467.543 772.44 459.743V437.383H689.74Z" fill="#FF8906"/>
<path d="M689.74 415.223V437.583C689.74 445.383 708.25 451.703 731.09 451.703C753.93 451.703 772.44 445.383 772.44 437.583V415.223H689.74Z" fill="#FF8906"/>
<path d="M689.74 393.063V415.423C689.74 423.223 708.25 429.543 731.09 429.543C753.93 429.543 772.44 423.223 772.44 415.423V393.063H689.74Z" fill="#BC91F4"/>
<path d="M772.44 393.063C772.44 400.863 753.93 407.183 731.09 407.183C708.25 407.183 689.74 400.863 689.74 393.063C689.74 385.263 708.25 378.943 731.09 378.943C753.93 378.943 772.44 385.263 772.44 393.063Z" fill="#F5CFAA"/>
<path d="M730.04 421.093C718.81 421.093 708.24 419.593 700.25 416.863C689.3 413.123 687 408.503 687 405.283C687 404.353 687.75 403.593 688.69 403.593C689.63 403.593 690.38 404.343 690.38 405.283C690.38 411.163 706.67 417.723 730.05 417.723C730.98 417.723 731.74 418.473 731.74 419.413C731.74 420.353 730.99 421.103 730.05 421.103L730.04 421.093Z" fill="white"/>
<path d="M738.79 419.403C738.79 420.423 737.96 421.263 736.93 421.263C735.9 421.263 735.07 420.433 735.07 419.403C735.07 418.373 735.9 417.543 736.93 417.543C737.96 417.543 738.79 418.373 738.79 419.403Z" fill="white"/>
<path d="M730.04 442.543C718.81 442.543 708.24 441.043 700.25 438.313C689.3 434.573 687 429.953 687 426.733C687 425.803 687.75 425.043 688.69 425.043C689.63 425.043 690.38 425.793 690.38 426.733C690.38 432.613 706.67 439.173 730.05 439.173C730.98 439.173 731.74 439.923 731.74 440.863C731.74 441.803 730.99 442.553 730.05 442.553L730.04 442.543Z" fill="white"/>
<path d="M738.79 440.863C738.79 441.883 737.96 442.723 736.93 442.723C735.9 442.723 735.07 441.893 735.07 440.863C735.07 439.833 735.9 439.003 736.93 439.003C737.96 439.003 738.79 439.833 738.79 440.863Z" fill="white"/>
<path d="M730.04 464.003C718.81 464.003 708.24 462.503 700.25 459.773C689.3 456.033 687 451.413 687 448.193C687 447.263 687.75 446.503 688.69 446.503C689.63 446.503 690.38 447.253 690.38 448.193C690.38 454.073 706.67 460.633 730.05 460.633C730.98 460.633 731.74 461.383 731.74 462.323C731.74 463.263 730.99 464.013 730.05 464.013L730.04 464.003Z" fill="white"/>
<path d="M738.79 462.323C738.79 463.353 737.96 464.183 736.93 464.183C735.9 464.183 735.07 463.353 735.07 462.323C735.07 461.293 735.9 460.463 736.93 460.463C737.96 460.463 738.79 461.293 738.79 462.323Z" fill="white"/>
<path d="M125.98 386.943H10.26C7.35498 386.943 5 389.298 5 392.203V403.323C5 406.228 7.35498 408.583 10.26 408.583H125.98C128.885 408.583 131.24 406.228 131.24 403.323V392.203C131.24 389.298 128.885 386.943 125.98 386.943Z" fill="#FF8906"/>
<path d="M23.88 397.763C23.88 400.313 21.82 402.373 19.27 402.373C16.72 402.373 14.66 400.313 14.66 397.763C14.66 395.213 16.72 393.153 19.27 393.153C21.82 393.153 23.88 395.213 23.88 397.763Z" fill="#FF8906"/>
<path d="M39.5 397.763C39.5 400.313 37.44 402.373 34.89 402.373C32.34 402.373 30.28 400.313 30.28 397.763C30.28 395.213 32.34 393.153 34.89 393.153C37.44 393.153 39.5 395.213 39.5 397.763Z" fill="#F5CFAA"/>
<path d="M72.2 397.763H108.01" stroke="white" stroke-width="2.63" stroke-miterlimit="10" stroke-linecap="round"/>
<path d="M115.39 397.763C115.39 398.883 114.48 399.783 113.36 399.783C112.24 399.783 111.34 398.873 111.34 397.763C111.34 396.653 112.25 395.743 113.36 395.743C114.47 395.743 115.39 396.653 115.39 397.763Z" fill="white"/>
<path d="M121.58 397.763C121.58 398.883 120.67 399.783 119.55 399.783C118.43 399.783 117.53 398.873 117.53 397.763C117.53 396.653 118.44 395.743 119.55 395.743C120.66 395.743 121.58 396.653 121.58 397.763Z" fill="white"/>
<path d="M20.28 406.613V472.373" stroke="#FF8906" stroke-width="3.51" stroke-miterlimit="10"/>
<path d="M115.96 406.613V472.373" stroke="#FF8906" stroke-width="3.51" stroke-miterlimit="10"/>
<path d="M16.02 472.373H24.54" stroke="#FF8906" stroke-width="3.51" stroke-miterlimit="10" stroke-linecap="round"/>
<path d="M111.7 472.373H120.22" stroke="#FF8906" stroke-width="3.51" stroke-miterlimit="10" stroke-linecap="round"/>
<path d="M125.98 413.833H10.26C7.35498 413.833 5 416.188 5 419.093V430.213C5 433.118 7.35498 435.473 10.26 435.473H125.98C128.885 435.473 131.24 433.118 131.24 430.213V419.093C131.24 416.188 128.885 413.833 125.98 413.833Z" fill="#BC91F4"/>
<path d="M23.88 424.653C23.88 427.203 21.82 429.263 19.27 429.263C16.72 429.263 14.66 427.203 14.66 424.653C14.66 422.103 16.72 420.043 19.27 420.043C21.82 420.043 23.88 422.103 23.88 424.653Z" fill="#FF8906"/>
<path d="M39.5 424.653C39.5 427.203 37.44 429.263 34.89 429.263C32.34 429.263 30.28 427.203 30.28 424.653C30.28 422.103 32.34 420.043 34.89 420.043C37.44 420.043 39.5 422.103 39.5 424.653Z" fill="#F5CFAA"/>
<path d="M72.2 424.653H108.01" stroke="white" stroke-width="2.63" stroke-miterlimit="10" stroke-linecap="round"/>
<path d="M115.39 424.653C115.39 425.773 114.48 426.673 113.36 426.673C112.24 426.673 111.34 425.763 111.34 424.653C111.34 423.543 112.25 422.633 113.36 422.633C114.47 422.633 115.39 423.543 115.39 424.653Z" fill="white"/>
<path d="M121.58 424.653C121.58 425.773 120.67 426.673 119.55 426.673C118.43 426.673 117.53 425.763 117.53 424.653C117.53 423.543 118.44 422.633 119.55 422.633C120.66 422.633 121.58 423.543 121.58 424.653Z" fill="white"/>
<path d="M125.98 440.733H10.26C7.35498 440.733 5 443.088 5 445.993V457.113C5 460.018 7.35498 462.373 10.26 462.373H125.98C128.885 462.373 131.24 460.018 131.24 457.113V445.993C131.24 443.088 128.885 440.733 125.98 440.733Z" fill="#F5CFAA"/>
<path d="M23.88 451.553C23.88 454.103 21.82 456.163 19.27 456.163C16.72 456.163 14.66 454.103 14.66 451.553C14.66 449.003 16.72 446.943 19.27 446.943C21.82 446.943 23.88 449.003 23.88 451.553Z" fill="#FF8906"/>
<path d="M39.5 451.553C39.5 454.103 37.44 456.163 34.89 456.163C32.34 456.163 30.28 454.103 30.28 451.553C30.28 449.003 32.34 446.943 34.89 446.943C37.44 446.943 39.5 449.003 39.5 451.553Z" fill="#FF8906"/>
<path d="M72.2 451.553H108.01" stroke="white" stroke-width="2.63" stroke-miterlimit="10" stroke-linecap="round"/>
<path d="M115.39 451.553C115.39 452.673 114.48 453.573 113.36 453.573C112.24 453.573 111.34 452.663 111.34 451.553C111.34 450.443 112.25 449.523 113.36 449.523C114.47 449.523 115.39 450.433 115.39 451.553Z" fill="white"/>
<path d="M121.58 451.553C121.58 452.673 120.67 453.573 119.55 453.573C118.43 453.573 117.53 452.663 117.53 451.553C117.53 450.443 118.44 449.523 119.55 449.523C120.66 449.523 121.58 450.433 121.58 451.553Z" fill="white"/>
<path d="M481.119 143.756V215.307C481.119 217.352 479.463 219 477.425 219H336.693C334.656 219 333 217.344 333 215.307V143.756H481.119Z" fill="#FFFAF5"/>
<path d="M481.119 137.637V143.756H333V137.637C333 135.599 334.656 133.943 336.693 133.943H477.434C479.471 133.943 481.127 135.599 481.127 137.637H481.119Z" fill="#FF8906"/>
<path d="M344.652 139.094C344.652 140.104 343.832 140.916 342.822 140.916C341.811 140.916 340.991 140.096 340.991 139.094C340.991 138.092 341.811 137.264 342.822 137.264C343.832 137.264 344.652 138.084 344.652 139.094Z" fill="#FF8906"/>
<path d="M354.945 139.094C354.945 140.104 354.126 140.916 353.124 140.916C352.122 140.916 351.302 140.096 351.302 139.094C351.302 138.092 352.122 137.264 353.124 137.264C354.126 137.264 354.945 138.084 354.945 139.094Z" fill="#F5CFAA"/>
<path d="M365.173 139.094C365.173 140.104 364.353 140.916 363.351 140.916C362.349 140.916 361.521 140.096 361.521 139.094C361.521 138.092 362.34 137.264 363.351 137.264C364.361 137.264 365.173 138.084 365.173 139.094Z" fill="#EDBA2C"/>
<path d="M369.893 148.949H342.374C341.355 148.949 340.528 149.776 340.528 150.795V210.826C340.528 211.846 341.355 212.673 342.374 212.673H369.893C370.913 212.673 371.74 211.846 371.74 210.826V150.795C371.74 149.776 370.913 148.949 369.893 148.949Z" fill="#F2B36D"/>
<path d="M471.744 148.949H376.518C375.498 148.949 374.671 149.776 374.671 150.795V174.19C374.671 175.21 375.498 176.037 376.518 176.037H471.744C472.764 176.037 473.591 175.21 473.591 174.19V150.795C473.591 149.776 472.764 148.949 471.744 148.949Z" fill="#BC91F4"/>
<path d="M377.595 153.793C377.396 153.619 377.379 153.313 377.553 153.114L378.1 152.493C378.274 152.294 378.58 152.278 378.779 152.452C378.978 152.626 378.994 152.932 378.82 153.131L378.274 153.752C378.1 153.951 377.793 153.967 377.595 153.793Z" fill="#FFFAF5"/>
<path d="M400.294 153.744C400.203 153.992 399.929 154.125 399.681 154.042L398.902 153.768C398.654 153.677 398.522 153.404 398.604 153.156C398.695 152.907 398.969 152.775 399.217 152.857L399.996 153.131C400.244 153.222 400.377 153.495 400.294 153.744Z" fill="#FFFAF5"/>
<path d="M384.526 171.739C384.435 171.987 384.162 172.12 383.913 172.037L383.135 171.764C382.886 171.673 382.754 171.399 382.837 171.151C382.928 170.902 383.201 170.77 383.45 170.853L384.228 171.126C384.476 171.217 384.609 171.49 384.526 171.739Z" fill="#FFFAF5"/>
<path d="M384.551 156.352C384.534 156.087 384.741 155.855 385.006 155.847L385.835 155.806C386.1 155.789 386.331 155.996 386.34 156.261C386.356 156.526 386.149 156.758 385.884 156.766L385.056 156.808C384.791 156.824 384.559 156.617 384.551 156.352Z" fill="#FFFAF5"/>
<path d="M402.919 159.416C402.902 159.151 403.109 158.919 403.374 158.911L404.202 158.87C404.467 158.853 404.699 159.06 404.708 159.325C404.724 159.59 404.517 159.822 404.252 159.83L403.424 159.872C403.159 159.888 402.927 159.681 402.919 159.416Z" fill="#FFFAF5"/>
<path d="M391.557 169.61C391.54 169.345 391.747 169.114 392.012 169.105L392.84 169.064C393.105 169.047 393.337 169.254 393.346 169.519C393.362 169.784 393.155 170.016 392.89 170.025L392.062 170.066C391.797 170.083 391.565 169.875 391.557 169.61Z" fill="#FFFAF5"/>
<path d="M397.064 163.201C397.047 162.936 397.255 162.704 397.52 162.696L398.348 162.654C398.613 162.638 398.845 162.845 398.853 163.11C398.869 163.375 398.662 163.607 398.397 163.615L397.569 163.656C397.304 163.673 397.072 163.466 397.064 163.201Z" fill="#FFFAF5"/>
<path d="M377.413 159.805C377.545 159.574 377.843 159.491 378.075 159.632L378.796 160.046C379.027 160.178 379.11 160.476 378.969 160.708C378.837 160.94 378.539 161.023 378.307 160.882L377.586 160.468C377.355 160.335 377.272 160.037 377.413 159.805Z" fill="#FFFAF5"/>
<path d="M391.681 151.88C391.814 151.648 392.112 151.566 392.344 151.706L393.064 152.12C393.296 152.253 393.379 152.551 393.238 152.783C393.106 153.015 392.807 153.098 392.576 152.957L391.855 152.543C391.623 152.41 391.54 152.112 391.681 151.88Z" fill="#FFFAF5"/>
<path d="M384.791 163.764C384.609 163.565 384.626 163.259 384.816 163.077L385.429 162.513C385.628 162.331 385.934 162.348 386.116 162.538C386.298 162.737 386.282 163.043 386.091 163.226L385.479 163.789C385.28 163.971 384.973 163.954 384.791 163.764Z" fill="#FFFAF5"/>
<path d="M392.683 158.936C392.94 159.002 393.097 159.267 393.031 159.524L392.824 160.327C392.758 160.584 392.493 160.741 392.236 160.675C391.979 160.609 391.822 160.344 391.888 160.087L392.095 159.284C392.161 159.027 392.426 158.87 392.683 158.936Z" fill="#FFFAF5"/>
<path d="M404.832 165.876C405.022 165.685 405.329 165.685 405.519 165.876L406.107 166.464C406.298 166.654 406.298 166.961 406.107 167.151C405.917 167.341 405.61 167.341 405.42 167.151L404.832 166.563C404.641 166.373 404.641 166.066 404.832 165.876Z" fill="#FFFAF5"/>
<path d="M411.904 153.561C412.161 153.628 412.318 153.893 412.252 154.149L412.045 154.953C411.978 155.209 411.713 155.367 411.457 155.3C411.2 155.234 411.043 154.969 411.109 154.712L411.316 153.909C411.382 153.652 411.647 153.495 411.904 153.561Z" fill="#FFFAF5"/>
<path d="M399.672 170.571C399.929 170.637 400.087 170.902 400.02 171.159L399.813 171.962C399.747 172.219 399.482 172.376 399.225 172.31C398.969 172.244 398.811 171.979 398.877 171.722L399.085 170.919C399.151 170.662 399.416 170.505 399.672 170.571Z" fill="#FFFAF5"/>
<path d="M377.835 167.35C378.092 167.416 378.249 167.681 378.183 167.938L377.976 168.741C377.909 168.998 377.644 169.155 377.388 169.089C377.131 169.023 376.974 168.758 377.04 168.501L377.247 167.698C377.313 167.441 377.578 167.283 377.835 167.35Z" fill="#FFFAF5"/>
<path d="M445.244 172.774C445.443 172.948 445.46 173.254 445.286 173.453L444.739 174.074C444.565 174.273 444.259 174.289 444.06 174.116C443.861 173.942 443.845 173.635 444.019 173.436L444.565 172.815C444.739 172.617 445.046 172.6 445.244 172.774Z" fill="#FFFAF5"/>
<path d="M422.554 172.832C422.645 172.583 422.918 172.451 423.167 172.534L423.945 172.807C424.193 172.898 424.326 173.171 424.243 173.42C424.152 173.668 423.879 173.801 423.63 173.718L422.852 173.445C422.603 173.354 422.471 173.08 422.554 172.832Z" fill="#FFFAF5"/>
<path d="M438.321 154.837C438.412 154.588 438.686 154.456 438.934 154.539L439.713 154.812C439.961 154.903 440.093 155.176 440.011 155.425C439.92 155.673 439.646 155.806 439.39 155.723L438.611 155.45C438.363 155.358 438.23 155.085 438.313 154.837H438.321Z" fill="#FFFAF5"/>
<path d="M438.288 170.215C438.305 170.48 438.098 170.712 437.833 170.72L437.005 170.762C436.74 170.778 436.508 170.571 436.499 170.306C436.483 170.041 436.69 169.809 436.955 169.801L437.783 169.76C438.048 169.743 438.28 169.95 438.288 170.215Z" fill="#FFFAF5"/>
<path d="M419.929 167.151C419.945 167.416 419.738 167.648 419.473 167.656L418.645 167.698C418.38 167.714 418.148 167.507 418.14 167.242C418.123 166.977 418.33 166.745 418.595 166.737L419.423 166.695C419.688 166.679 419.92 166.886 419.929 167.151Z" fill="#FFFAF5"/>
<path d="M431.282 156.957C431.299 157.222 431.092 157.454 430.827 157.462L429.999 157.503C429.734 157.52 429.502 157.313 429.493 157.048C429.477 156.783 429.684 156.551 429.949 156.543L430.777 156.501C431.042 156.485 431.274 156.692 431.282 156.957Z" fill="#FFFAF5"/>
<path d="M425.784 163.375C425.8 163.64 425.593 163.872 425.328 163.88L424.5 163.921C424.235 163.938 424.003 163.731 423.995 163.466C423.978 163.201 424.185 162.969 424.45 162.961L425.278 162.919C425.543 162.903 425.775 163.11 425.784 163.375Z" fill="#FFFAF5"/>
<path d="M445.427 166.77C445.294 167.002 444.996 167.085 444.764 166.944L444.044 166.53C443.812 166.397 443.729 166.099 443.87 165.867C444.002 165.635 444.3 165.553 444.532 165.693L445.253 166.108C445.485 166.24 445.567 166.538 445.427 166.77Z" fill="#FFFAF5"/>
<path d="M431.166 174.687C431.034 174.919 430.736 175.002 430.504 174.861L429.783 174.447C429.551 174.314 429.469 174.016 429.609 173.784C429.742 173.552 430.04 173.47 430.272 173.61L430.992 174.024C431.224 174.157 431.307 174.455 431.166 174.687Z" fill="#FFFAF5"/>
<path d="M438.056 162.812C438.239 163.01 438.222 163.317 438.032 163.499L437.419 164.062C437.22 164.244 436.914 164.228 436.731 164.037C436.549 163.838 436.566 163.532 436.756 163.35L437.369 162.787C437.568 162.605 437.874 162.621 438.056 162.812Z" fill="#FFFAF5"/>
<path d="M430.164 167.631C429.907 167.565 429.75 167.3 429.816 167.043L430.023 166.24C430.09 165.983 430.355 165.826 430.611 165.892C430.868 165.958 431.025 166.223 430.959 166.48L430.752 167.283C430.686 167.54 430.421 167.698 430.164 167.631Z" fill="#FFFAF5"/>
<path d="M409.867 163.259C409.61 163.193 409.453 162.928 409.519 162.671L409.726 161.868C409.792 161.611 410.057 161.453 410.314 161.52C410.571 161.586 410.728 161.851 410.662 162.108L410.455 162.911C410.389 163.168 410.124 163.325 409.867 163.259Z" fill="#FFFAF5"/>
<path d="M418.016 160.692C417.825 160.882 417.519 160.882 417.328 160.692L416.74 160.104C416.55 159.913 416.55 159.607 416.74 159.416C416.931 159.226 417.237 159.226 417.428 159.416L418.016 160.004C418.206 160.195 418.206 160.501 418.016 160.692Z" fill="#FFFAF5"/>
<path d="M410.943 173.006C410.687 172.94 410.529 172.675 410.596 172.418L410.803 171.615C410.869 171.358 411.134 171.201 411.391 171.267C411.647 171.333 411.805 171.598 411.738 171.855L411.531 172.658C411.465 172.915 411.2 173.072 410.943 173.006Z" fill="#FFFAF5"/>
<path d="M423.167 156.004C422.91 155.938 422.753 155.673 422.819 155.416L423.026 154.613C423.092 154.356 423.357 154.199 423.614 154.265C423.87 154.332 424.028 154.597 423.962 154.853L423.755 155.657C423.688 155.913 423.423 156.071 423.167 156.004Z" fill="#FFFAF5"/>
<path d="M445.012 159.217C444.756 159.151 444.598 158.886 444.665 158.63L444.872 157.826C444.938 157.57 445.203 157.412 445.46 157.478C445.716 157.545 445.874 157.81 445.807 158.066L445.6 158.87C445.534 159.126 445.269 159.284 445.012 159.217Z" fill="#FFFAF5"/>
<path d="M451.414 154.34C451.215 154.166 451.199 153.86 451.373 153.661L451.919 153.04C452.093 152.841 452.399 152.824 452.598 152.998C452.797 153.172 452.814 153.479 452.64 153.677L452.093 154.298C451.919 154.497 451.613 154.514 451.414 154.34Z" fill="#FFFAF5"/>
<path d="M458.345 172.277C458.254 172.526 457.981 172.658 457.732 172.575L456.954 172.302C456.706 172.211 456.573 171.938 456.656 171.689C456.747 171.441 457.02 171.308 457.269 171.391L458.047 171.664C458.296 171.755 458.428 172.029 458.345 172.277Z" fill="#FFFAF5"/>
<path d="M458.37 156.89C458.354 156.625 458.561 156.394 458.826 156.385L459.654 156.344C459.919 156.327 460.151 156.534 460.159 156.799C460.176 157.064 459.969 157.296 459.704 157.305L458.876 157.346C458.611 157.362 458.379 157.155 458.37 156.89Z" fill="#FFFAF5"/>
<path d="M467.173 167.242C467.157 166.977 467.364 166.745 467.629 166.737L468.457 166.695C468.722 166.679 468.954 166.886 468.962 167.151C468.979 167.416 468.772 167.648 468.507 167.656L467.678 167.698C467.413 167.714 467.182 167.507 467.173 167.242Z" fill="#FFFAF5"/>
<path d="M451.232 160.344C451.364 160.112 451.662 160.029 451.894 160.17L452.615 160.584C452.847 160.716 452.929 161.015 452.789 161.246C452.656 161.478 452.358 161.561 452.126 161.42L451.406 161.006C451.174 160.874 451.091 160.576 451.232 160.344Z" fill="#FFFAF5"/>
<path d="M465.5 152.419C465.633 152.187 465.931 152.104 466.163 152.245L466.883 152.659C467.115 152.791 467.198 153.089 467.057 153.321C466.925 153.553 466.627 153.636 466.395 153.495L465.674 153.081C465.442 152.949 465.36 152.65 465.5 152.419Z" fill="#FFFAF5"/>
<path d="M465.5 172.575C465.633 172.343 465.931 172.261 466.163 172.401L466.883 172.815C467.115 172.948 467.198 173.246 467.057 173.478C466.925 173.71 466.627 173.793 466.395 173.652L465.674 173.238C465.442 173.105 465.36 172.807 465.5 172.575Z" fill="#FFFAF5"/>
<path d="M458.61 164.302C458.428 164.103 458.445 163.797 458.635 163.615L459.248 163.052C459.447 162.87 459.753 162.886 459.935 163.077C460.118 163.275 460.101 163.582 459.911 163.764L459.298 164.327C459.099 164.509 458.793 164.493 458.61 164.302Z" fill="#FFFAF5"/>
<path d="M466.503 159.474C466.759 159.54 466.917 159.805 466.85 160.062L466.643 160.865C466.577 161.122 466.312 161.28 466.055 161.213C465.799 161.147 465.641 160.882 465.708 160.625L465.915 159.822C465.981 159.565 466.246 159.408 466.503 159.474Z" fill="#FFFAF5"/>
<path d="M451.654 167.888C451.911 167.954 452.068 168.219 452.002 168.476L451.795 169.279C451.729 169.536 451.464 169.693 451.207 169.627C450.95 169.561 450.793 169.296 450.859 169.039L451.066 168.236C451.132 167.979 451.397 167.822 451.654 167.888Z" fill="#FFFAF5"/>
<path d="M471.744 178.96H376.518C375.498 178.96 374.671 179.787 374.671 180.807V210.826C374.671 211.846 375.498 212.673 376.518 212.673H471.744C472.764 212.673 473.591 211.846 473.591 210.826V180.807C473.591 179.787 472.764 178.96 471.744 178.96Z" fill="#F5CFAA"/>
<mask id="mask0_1_194" style="mask-type:luminance" maskUnits="userSpaceOnUse" x="374" y="178" width="100" height="35">
<path d="M471.744 178.96H376.518C375.498 178.96 374.671 179.787 374.671 180.807V210.826C374.671 211.846 375.498 212.673 376.518 212.673H471.744C472.764 212.673 473.591 211.846 473.591 210.826V180.807C473.591 179.787 472.764 178.96 471.744 178.96Z" fill="white"/>
</mask>
<g mask="url(#mask0_1_194)">
<path d="M373.189 182.057C377.86 177.676 384.352 175.763 390.721 174.985C397.081 174.207 403.54 174.405 409.883 173.536C416.235 172.666 422.695 170.555 427.166 165.967" stroke="#FFFAF5" stroke-width="1.09" stroke-miterlimit="10"/>
<path d="M373.479 189.328C384.087 192.98 396.07 192.425 406.298 187.829C416.914 183.051 425.312 174.298 435.812 169.279C444.367 165.188 454.163 163.747 463.538 165.197" stroke="#FFFAF5" stroke-width="1.09" stroke-miterlimit="10"/>
<path d="M469.691 174.207C462.561 181.478 452.043 184.136 442.007 185.825C431.97 187.515 421.494 188.649 412.724 193.825C406.745 197.353 401.884 202.595 395.739 205.816C388.129 209.816 378.779 210.363 370.754 207.265" stroke="#FFFAF5" stroke-width="1.09" stroke-miterlimit="10"/>
<path d="M395.449 216.317C398.654 210.901 404.559 207.539 410.629 205.891C416.707 204.251 423.067 204.094 429.353 203.647C435.638 203.199 442.031 202.404 447.679 199.622C452.325 197.328 456.234 193.808 460.573 190.976C464.913 188.144 470.072 185.958 475.173 186.869" stroke="#FFFAF5" stroke-width="1.09" stroke-miterlimit="10"/>
<path d="M417.022 217.617C425.792 217.054 434.396 214.056 441.609 209.029C445.435 206.363 448.913 203.125 453.128 201.112C459.405 198.123 466.643 198.164 473.591 198.264" stroke="#FFFAF5" stroke-width="1.09" stroke-miterlimit="10"/>
<path d="M475.173 203.945C469.004 201.667 462.18 204.491 456.507 207.82C450.834 211.149 445.112 215.157 438.537 215.398" stroke="#FFFAF5" stroke-width="1.09" stroke-miterlimit="10"/>
<path d="M459.836 216.135C463.256 211.307 469.269 208.441 475.173 208.806" stroke="#FFFAF5" stroke-width="1.09" stroke-miterlimit="10"/>
<path d="M455.24 166.969C448.822 172.981 440.359 176.169 432.392 179.879C422.396 184.525 412.856 190.189 402.497 193.957C392.145 197.725 380.601 199.506 370.117 196.119" stroke="#FFFAF5" stroke-width="1.09" stroke-miterlimit="10"/>
</g>
<path d="M363.972 161.503V163.805C363.856 164.045 363.666 164.137 363.401 164.161C363.02 164.186 362.647 164.253 362.274 164.294C362.183 164.302 362.15 164.344 362.117 164.426C361.943 164.865 361.761 165.296 361.579 165.735C361.546 165.818 361.546 165.867 361.604 165.942C361.86 166.265 362.117 166.596 362.374 166.919C362.556 167.151 362.548 167.391 362.341 167.606C361.877 168.07 361.413 168.534 360.949 168.998C360.742 169.205 360.502 169.221 360.27 169.039C359.939 168.782 359.616 168.526 359.293 168.269C359.227 168.211 359.169 168.203 359.086 168.244C358.647 168.435 358.208 168.617 357.769 168.791C357.687 168.824 357.653 168.857 357.645 168.94C357.604 169.345 357.546 169.751 357.496 170.157C357.463 170.472 357.281 170.637 356.966 170.637C356.328 170.637 355.691 170.637 355.053 170.637C354.722 170.637 354.548 170.472 354.507 170.149C354.457 169.743 354.407 169.337 354.358 168.931C354.349 168.84 354.308 168.815 354.233 168.782C353.794 168.608 353.364 168.426 352.933 168.244C352.842 168.203 352.784 168.211 352.71 168.269C352.387 168.526 352.064 168.782 351.741 169.031C351.5 169.221 351.26 169.205 351.045 168.989C350.581 168.534 350.126 168.07 349.67 167.615C349.455 167.399 349.447 167.159 349.629 166.919C349.886 166.588 350.142 166.265 350.399 165.942C350.449 165.876 350.457 165.826 350.424 165.751C350.233 165.313 350.051 164.874 349.877 164.435C349.844 164.36 349.819 164.319 349.728 164.31C349.322 164.269 348.917 164.211 348.511 164.17C348.188 164.137 348.022 163.954 348.022 163.64C348.022 162.994 348.022 162.348 348.022 161.71C348.022 161.395 348.188 161.213 348.511 161.18C348.917 161.139 349.314 161.081 349.72 161.039C349.819 161.031 349.853 160.99 349.894 160.899C350.068 160.468 350.242 160.037 350.424 159.607C350.465 159.516 350.465 159.466 350.399 159.383C350.142 159.068 349.886 158.737 349.637 158.414C349.438 158.166 349.455 157.934 349.679 157.71C350.134 157.255 350.59 156.799 351.045 156.344C351.26 156.129 351.5 156.112 351.741 156.302C352.072 156.559 352.395 156.816 352.718 157.073C352.792 157.131 352.842 157.131 352.925 157.089C353.355 156.907 353.794 156.725 354.233 156.551C354.316 156.518 354.349 156.476 354.366 156.394C354.407 156.021 354.473 155.64 354.498 155.267C354.515 155.002 354.614 154.812 354.854 154.696H357.157C357.388 154.812 357.488 155.002 357.513 155.267C357.538 155.648 357.604 156.021 357.645 156.394C357.653 156.485 357.687 156.518 357.778 156.551C358.217 156.725 358.647 156.899 359.078 157.089C359.169 157.131 359.227 157.122 359.301 157.064C359.624 156.808 359.947 156.559 360.27 156.302C360.511 156.112 360.751 156.129 360.966 156.344C361.43 156.799 361.885 157.263 362.341 157.719C362.556 157.934 362.573 158.174 362.382 158.414C362.134 158.737 361.877 159.06 361.62 159.383C361.562 159.458 361.554 159.516 361.595 159.607C361.786 160.037 361.96 160.476 362.134 160.907C362.167 160.99 362.208 161.023 362.291 161.039C362.664 161.081 363.045 161.147 363.417 161.172C363.682 161.188 363.873 161.288 363.989 161.528L363.972 161.503ZM359.98 162.679C360.005 160.493 358.233 158.704 356.022 158.671C353.836 158.638 352.03 160.427 352.006 162.638C351.981 164.816 353.761 166.621 355.964 166.646C358.15 166.671 359.956 164.89 359.98 162.679Z" fill="#FFFAF5"/>
<path d="M344.205 175.838H368.063" stroke="#FFFAF5" stroke-width="1.11" stroke-miterlimit="10" stroke-linecap="round"/>
<path d="M344.205 179.78H368.063" stroke="#FFFAF5" stroke-width="1.11" stroke-miterlimit="10" stroke-linecap="round"/>
<path d="M344.205 183.722H368.063" stroke="#FFFAF5" stroke-width="1.11" stroke-miterlimit="10" stroke-linecap="round"/>
<path d="M344.205 187.655H368.063" stroke="#FFFAF5" stroke-width="1.11" stroke-miterlimit="10" stroke-linecap="round"/>
<path d="M344.205 191.597H368.063" stroke="#FFFAF5" stroke-width="1.11" stroke-miterlimit="10" stroke-linecap="round"/>
<path d="M344.205 195.539H368.063" stroke="#FFFAF5" stroke-width="1.11" stroke-miterlimit="10" stroke-linecap="round"/>
<path d="M344.205 199.481H368.063" stroke="#FFFAF5" stroke-width="1.11" stroke-miterlimit="10" stroke-linecap="round"/>
<path d="M344.205 203.423H368.063" stroke="#FFFAF5" stroke-width="1.11" stroke-miterlimit="10" stroke-linecap="round"/>
<path d="M344.205 207.357H368.063" stroke="#FFFAF5" stroke-width="1.11" stroke-miterlimit="10" stroke-linecap="round"/>
<defs>
<linearGradient id="paint0_linear_1_194" x1="1077.27" y1="638.689" x2="66.6879" y2="110.914" gradientUnits="userSpaceOnUse">
<stop offset="0.434825" stop-color="#E4D6FF" stop-opacity="0.25"/>
<stop offset="0.772986" stop-color="#BDA0F1" stop-opacity="0.5"/>
<stop offset="0.986684" stop-color="#8BC7FF" stop-opacity="0.7"/>
</linearGradient>
</defs>
</svg>
