<svg width="896" height="801" viewBox="0 0 896 801" fill="none" xmlns="http://www.w3.org/2000/svg">
<g clip-path="url(#clip0_15_203)">
<path d="M785 872C957.5 690.5 862 571.489 768.549 523.191C669.5 472 502.975 483.01 442.065 394.983C381.156 306.937 447.391 160.162 240.855 91.5773C-255.5 -7.49981 -200.414 458.509 -174 754.5C-158.334 929.914 270 924.5 785 872Z" fill="url(#paint0_linear_15_203)"/>
<g clip-path="url(#clip1_15_203)">
<path d="M687.508 663.249C687.637 663.406 688.679 662.777 689.835 661.85C690.991 660.922 691.833 660.037 691.719 659.88C691.591 659.723 690.549 660.351 689.392 661.279C688.236 662.207 687.394 663.092 687.508 663.249Z" fill="#7454AE"/>
<path d="M655.805 615.89C655.619 611.465 655.491 606.926 656.889 602.715C658.288 598.505 661.529 594.651 665.868 593.752C670.821 592.724 675.889 595.85 678.672 600.075C681.441 604.3 682.398 609.438 683.226 614.419C688.878 648.804 690.963 683.759 689.435 718.572L669.18 721.412C660.287 685.058 657.446 653.271 655.819 615.89H655.805Z" fill="#F67E3E"/>
<path d="M668.68 593.595C668.68 593.595 668.694 593.709 668.766 593.923C668.851 594.166 668.966 594.465 669.094 594.837C669.422 595.693 669.879 596.863 670.45 598.334C670.736 599.09 671.107 599.918 671.407 600.86C671.706 601.802 672.035 602.83 672.391 603.929C672.748 605.028 673.119 606.212 673.533 607.454C673.862 608.724 674.219 610.066 674.575 611.465C676.103 617.074 677.373 623.911 678.487 631.519C679.586 639.141 680.3 647.576 680.87 656.44C681.913 674.196 682.07 690.311 682.526 701.958C682.74 707.781 682.94 712.506 683.169 715.746C683.269 717.33 683.354 718.572 683.426 719.485C683.454 719.871 683.483 720.199 683.511 720.456C683.54 720.67 683.554 720.784 683.568 720.784C683.568 720.784 683.583 720.67 683.583 720.456C683.583 720.199 683.583 719.871 683.583 719.485C683.554 718.572 683.511 717.316 683.468 715.731C683.326 712.477 683.212 707.767 683.054 701.929C682.726 690.282 682.655 674.168 681.613 656.383C681.042 647.505 680.3 639.041 679.172 631.405C678.016 623.783 676.688 616.932 675.089 611.322C674.704 609.909 674.333 608.582 673.99 607.311C673.562 606.07 673.177 604.899 672.791 603.786C672.42 602.687 672.063 601.673 671.749 600.731C671.421 599.789 671.035 598.976 670.721 598.219C670.093 596.763 669.608 595.607 669.237 594.765C669.08 594.408 668.937 594.109 668.837 593.88C668.737 593.68 668.694 593.58 668.68 593.58V593.595Z" fill="#7454AE"/>
<path d="M666.796 593.595C666.796 593.595 665.554 594.865 664.326 597.791C663.056 600.689 662.257 605.285 662.485 610.894C663.027 622.084 664.027 637.514 665.354 654.542C666.696 671.57 668.181 686.971 669.38 698.104C669.979 703.67 670.493 708.167 670.878 711.278C671.078 712.777 671.221 713.976 671.335 714.861C671.392 715.232 671.435 715.532 671.478 715.788C671.506 716.003 671.535 716.102 671.549 716.102C671.549 716.102 671.549 715.988 671.549 715.774C671.535 715.517 671.506 715.218 671.478 714.832C671.392 713.947 671.292 712.748 671.15 711.235C670.85 708.052 670.407 703.556 669.879 698.047C668.809 686.899 667.41 671.513 666.068 654.47C664.74 637.457 663.656 622.013 662.985 610.851C662.699 605.27 663.413 600.76 664.583 597.862C665.711 594.951 666.882 593.623 666.796 593.566V593.595Z" fill="#7454AE"/>
<path d="M652.75 646.035C652.821 646.22 654.534 645.778 656.59 645.036C658.645 644.294 660.258 643.551 660.187 643.366C660.115 643.18 658.402 643.623 656.347 644.365C654.291 645.107 652.678 645.849 652.75 646.035Z" fill="#7454AE"/>
<path d="M650.309 625.396C650.223 625.581 651.865 626.48 653.963 627.422C656.062 628.365 657.832 628.978 657.917 628.793C658.003 628.607 656.361 627.708 654.263 626.766C652.165 625.824 650.395 625.21 650.309 625.396Z" fill="#7454AE"/>
<path d="M651.579 608.539C651.579 608.739 652.95 608.81 654.606 608.696C656.261 608.582 657.589 608.325 657.575 608.125C657.575 607.925 656.204 607.854 654.548 607.968C652.893 608.082 651.565 608.339 651.579 608.539Z" fill="#7454AE"/>
<path d="M672.491 597.734C672.663 597.834 673.548 596.735 674.476 595.265C675.403 593.795 676.017 592.51 675.846 592.41C675.675 592.31 674.79 593.409 673.862 594.879C672.934 596.35 672.32 597.634 672.491 597.734Z" fill="#7454AE"/>
<path d="M679.4 607.925C679.4 608.125 680.699 608.253 682.284 608.225C683.868 608.196 685.153 607.997 685.153 607.797C685.153 607.597 683.854 607.468 682.269 607.497C680.685 607.526 679.4 607.725 679.4 607.925Z" fill="#7454AE"/>
<path d="M684.353 628.322C684.425 628.507 685.781 628.136 687.38 627.494C688.978 626.852 690.206 626.181 690.135 625.995C690.063 625.81 688.707 626.181 687.108 626.823C685.51 627.465 684.282 628.136 684.353 628.322Z" fill="#7454AE"/>
<path d="M684.882 645.464C684.839 645.664 685.995 646.063 687.465 646.377C688.936 646.691 690.149 646.777 690.192 646.577C690.235 646.377 689.078 645.978 687.608 645.664C686.138 645.35 684.924 645.264 684.882 645.464Z" fill="#7454AE"/>
<path d="M687.223 673.511C687.194 673.711 688.407 674.096 689.963 674.367C691.505 674.639 692.79 674.71 692.833 674.51C692.861 674.31 691.648 673.925 690.092 673.654C688.55 673.383 687.265 673.311 687.223 673.511Z" fill="#7454AE"/>
<path d="M688.779 688.997C688.679 689.169 689.706 689.897 691.062 690.61C692.419 691.324 693.589 691.767 693.689 691.581C693.789 691.41 692.761 690.682 691.405 689.968C690.049 689.254 688.878 688.812 688.779 688.997Z" fill="#7454AE"/>
<path d="M676.131 706.568C676.303 706.668 677.202 705.44 678.116 703.827C679.043 702.215 679.657 700.816 679.472 700.716C679.3 700.616 678.401 701.843 677.488 703.456C676.56 705.069 675.96 706.468 676.131 706.568Z" fill="#7454AE"/>
<path d="M672.477 677.365C672.334 677.507 673.334 678.706 674.69 680.048C676.06 681.39 677.273 682.346 677.416 682.203C677.559 682.061 676.56 680.862 675.204 679.52C673.847 678.178 672.62 677.222 672.477 677.365Z" fill="#7454AE"/>
<path d="M673.291 662.05C673.434 662.192 674.361 661.436 675.346 660.365C676.331 659.295 677.016 658.324 676.874 658.181C676.731 658.039 675.803 658.795 674.818 659.866C673.833 660.936 673.148 661.907 673.291 662.05Z" fill="#7454AE"/>
<path d="M670.779 642.467C670.636 642.595 671.449 643.765 672.62 645.064C673.79 646.363 674.861 647.319 675.004 647.191C675.147 647.063 674.333 645.892 673.162 644.593C671.992 643.294 670.921 642.338 670.779 642.467Z" fill="#7454AE"/>
<path d="M669.365 628.25C669.508 628.393 670.664 627.48 671.935 626.224C673.219 624.967 674.147 623.826 674.005 623.683C673.862 623.54 672.706 624.439 671.421 625.71C670.136 626.966 669.208 628.108 669.351 628.25H669.365Z" fill="#7454AE"/>
<path d="M666.596 609.053C666.425 609.153 667.01 610.437 667.895 611.922C668.78 613.406 669.637 614.534 669.808 614.42C669.979 614.32 669.394 613.035 668.509 611.551C667.624 610.066 666.767 608.939 666.596 609.053Z" fill="#7454AE"/>
<path d="M661.372 591.254C661.2 591.354 661.714 592.638 662.514 594.137C663.327 595.636 664.112 596.763 664.298 596.678C664.469 596.578 663.955 595.293 663.156 593.795C662.342 592.296 661.557 591.168 661.372 591.254Z" fill="#7454AE"/>
<path d="M655.448 599.333C655.362 599.518 656.176 600.075 657.261 600.603C658.345 601.117 659.302 601.402 659.387 601.217C659.473 601.031 658.659 600.475 657.575 599.946C656.49 599.433 655.533 599.147 655.448 599.333Z" fill="#7454AE"/>
<path d="M655.305 663.263C655.348 663.448 657.189 663.191 659.273 662.306C661.357 661.422 662.813 660.265 662.713 660.108C662.599 659.937 661.015 660.779 658.988 661.636C656.975 662.506 655.262 663.063 655.305 663.263Z" fill="#7454AE"/>
<path d="M657.732 676.794C657.689 676.994 658.916 677.393 660.458 677.693C662 677.993 663.284 678.078 663.327 677.879C663.37 677.679 662.143 677.279 660.601 676.979C659.059 676.68 657.775 676.594 657.732 676.794Z" fill="#7454AE"/>
<path d="M660.701 700.016C660.815 700.173 662.371 699.103 663.784 697.305C665.211 695.506 665.897 693.765 665.725 693.679C665.54 693.579 664.598 695.121 663.227 696.848C661.857 698.575 660.572 699.845 660.715 700.002L660.701 700.016Z" fill="#7454AE"/>
<path d="M693.275 710.622C693.404 710.465 692.576 709.551 691.434 708.566C690.292 707.581 689.25 706.91 689.121 707.067C688.993 707.225 689.821 708.138 690.963 709.123C692.105 710.108 693.147 710.779 693.275 710.622Z" fill="#7454AE"/>
<path d="M702.639 659.966C703.952 655.855 706.436 651.045 710.761 650.988C713.331 650.945 715.629 652.786 716.842 655.056C718.055 657.325 718.555 659.951 718.484 662.506C717.984 679.449 715.058 698.818 709.191 716.474H693.375C693.575 696.876 696.672 678.635 702.653 659.966H702.639Z" fill="#F67E3E"/>
<path d="M731.245 634.045C733.458 625.196 740.052 620.429 747.718 619.986C754.712 621.214 757.424 628.093 758.252 635.144C759.08 642.195 756.896 649.218 754.726 655.969C747.789 677.679 740.837 699.388 733.9 721.098C727.334 720.384 720.782 719.671 714.216 718.943C720.439 689.854 724.022 662.892 731.231 634.045H731.245Z" fill="#F67E3E"/>
<path d="M710.761 650.973C710.761 650.973 711.404 651.687 712.103 653.214C712.788 654.756 713.116 657.197 712.845 660.208C712.546 663.22 712.189 666.831 711.689 670.799C711.175 674.781 710.461 679.12 709.562 683.674C707.778 692.766 705.765 700.916 704.48 706.853C703.838 709.822 703.338 712.234 703.039 713.904C702.91 714.675 702.796 715.317 702.71 715.831C702.639 716.274 702.625 716.502 702.639 716.516C702.668 716.516 702.739 716.302 702.853 715.86C702.982 715.346 703.139 714.718 703.31 713.962C703.724 712.206 704.295 709.837 704.98 706.968C706.379 701.058 708.477 692.923 710.276 683.802C711.161 679.249 711.86 674.867 712.346 670.87C712.603 668.872 712.76 666.974 712.931 665.19C713.074 663.42 713.274 661.764 713.359 660.237C713.573 657.182 713.159 654.642 712.36 653.086C711.561 651.544 710.761 650.959 710.761 650.959V650.973Z" fill="#7454AE"/>
<path d="M747.432 619.415C747.432 619.415 748.474 620.414 749.816 622.612C751.144 624.782 752.557 628.322 752.814 632.903C753.113 637.485 752.1 642.923 750.373 648.747C748.646 654.599 746.747 661.036 744.763 667.773C740.837 681.261 737.283 693.465 734.685 702.4C733.443 706.782 732.43 710.35 731.716 712.92C731.402 714.104 731.145 715.061 730.945 715.788C730.774 716.445 730.703 716.802 730.717 716.802C730.745 716.802 730.86 716.474 731.074 715.831C731.302 715.118 731.602 714.176 731.973 713.005C732.744 710.465 733.829 706.91 735.17 702.557C737.826 693.651 741.437 681.461 745.448 668.001C747.418 661.25 749.302 654.813 751.015 648.947C752.699 643.08 753.699 637.557 753.313 632.889C752.985 628.222 751.472 624.639 750.044 622.47C748.617 620.286 747.432 619.429 747.432 619.429V619.415Z" fill="#7454AE"/>
<path d="M718.512 716.845C718.512 716.845 718.683 716.531 718.955 715.903C719.212 715.275 719.626 714.347 720.082 713.134C721.025 710.721 722.224 707.153 723.465 702.686C724.722 698.218 725.949 692.823 727.134 686.814C728.276 680.79 729.532 674.182 730.845 667.231C732.216 660.308 733.743 653.742 735.513 647.905C737.283 642.053 739.253 636.914 741.251 632.746C743.236 628.579 745.134 625.339 746.561 623.183C747.232 622.084 747.86 621.285 748.217 620.714C748.603 620.143 748.788 619.843 748.774 619.829C748.76 619.815 748.531 620.086 748.103 620.628C747.703 621.171 747.047 621.956 746.333 623.026C744.834 625.139 742.85 628.35 740.795 632.518C738.725 636.686 736.684 641.839 734.885 647.705C733.072 653.571 731.53 660.151 730.146 667.088C728.847 674.039 727.619 680.648 726.492 686.671C725.335 692.68 724.165 698.061 722.98 702.543C721.81 707.01 720.682 710.593 719.825 713.034C719.426 714.261 719.055 715.203 718.841 715.846C718.612 716.488 718.512 716.83 718.526 716.845H718.512Z" fill="#7454AE"/>
<path d="M754.384 652.715C754.341 652.915 755.412 653.329 756.782 653.671C758.152 653.999 759.294 654.114 759.337 653.914C759.38 653.714 758.309 653.3 756.939 652.957C755.569 652.629 754.427 652.515 754.384 652.715Z" fill="#7454AE"/>
<path d="M756.468 639.284C756.468 639.483 757.967 639.569 759.794 639.64C761.621 639.712 763.106 639.74 763.134 639.541C763.163 639.341 761.678 638.984 759.822 638.912C757.967 638.841 756.468 639.084 756.468 639.284Z" fill="#7454AE"/>
<path d="M754.241 627.023C754.37 627.18 755.44 626.48 756.625 625.467C757.81 624.454 758.681 623.512 758.538 623.369C758.395 623.226 757.339 623.911 756.154 624.925C754.969 625.938 754.098 626.88 754.241 627.023Z" fill="#7454AE"/>
<path d="M748.246 615.661C748.046 615.704 748.103 616.66 748.132 617.817C748.175 618.973 748.175 619.929 748.374 619.958C748.56 620 748.903 619.03 748.86 617.788C748.831 616.546 748.446 615.604 748.246 615.647V615.661Z" fill="#7454AE"/>
<path d="M735.97 621.014C735.813 621.128 736.284 622.099 737.04 623.183C737.797 624.268 738.539 625.053 738.711 624.939C738.868 624.825 738.397 623.854 737.64 622.769C736.883 621.685 736.141 620.9 735.97 621.014Z" fill="#7454AE"/>
<path d="M728.019 634.845C727.948 635.03 728.961 635.615 730.289 636.158C731.616 636.7 732.758 636.986 732.844 636.8C732.915 636.615 731.902 636.029 730.574 635.487C729.247 634.945 728.105 634.659 728.019 634.845Z" fill="#7454AE"/>
<path d="M723.18 649.075C723.094 649.246 724.45 650.017 726.306 650.431C728.162 650.859 729.703 650.745 729.703 650.545C729.703 650.345 728.233 650.131 726.463 649.717C724.693 649.318 723.266 648.875 723.18 649.061V649.075Z" fill="#7454AE"/>
<path d="M745.362 645.036C745.548 644.979 745.42 643.994 745.048 642.838C744.692 641.682 744.235 640.797 744.049 640.854C743.864 640.911 743.992 641.896 744.363 643.052C744.72 644.208 745.177 645.093 745.362 645.036Z" fill="#7454AE"/>
<path d="M742.265 662.892C742.45 662.806 742.051 661.493 741.38 659.937C740.709 658.381 740.009 657.182 739.824 657.268C739.638 657.354 740.038 658.667 740.709 660.223C741.38 661.778 742.079 662.977 742.265 662.892Z" fill="#7454AE"/>
<path d="M749.902 667.787C749.973 667.973 751.229 667.63 752.742 667.159C754.255 666.688 755.469 666.26 755.426 666.06C755.383 665.861 754.07 665.989 752.528 666.474C750.987 666.96 749.83 667.602 749.916 667.787H749.902Z" fill="#7454AE"/>
<path d="M745.505 682.346C745.391 682.503 746.233 683.302 747.389 684.13C748.546 684.958 749.573 685.486 749.688 685.329C749.802 685.172 748.96 684.373 747.803 683.545C746.647 682.717 745.619 682.189 745.505 682.346Z" fill="#7454AE"/>
<path d="M741.965 696.876C741.922 697.076 742.964 697.49 744.292 697.818C745.619 698.147 746.747 698.247 746.79 698.061C746.833 697.861 745.791 697.447 744.463 697.119C743.136 696.791 742.008 696.691 741.965 696.876Z" fill="#7454AE"/>
<path d="M722.795 661.207C722.695 661.379 723.58 662.092 724.879 662.578C726.178 663.063 727.32 663.12 727.348 662.934C727.391 662.735 726.363 662.378 725.136 661.907C723.908 661.45 722.894 661.036 722.795 661.222V661.207Z" fill="#7454AE"/>
<path d="M720.054 683.802C720.139 683.988 721.196 683.659 722.423 683.088C723.651 682.517 724.579 681.904 724.493 681.718C724.408 681.533 723.351 681.861 722.124 682.432C720.896 683.003 719.968 683.616 720.054 683.802Z" fill="#7454AE"/>
<path d="M715.215 699.959C715.286 700.145 716.685 699.774 718.355 699.117C720.011 698.461 721.296 697.79 721.224 697.604C721.153 697.419 719.754 697.79 718.084 698.446C716.428 699.089 715.143 699.774 715.215 699.959Z" fill="#7454AE"/>
<path d="M741.194 712.634C741.294 712.449 739.995 711.578 738.511 710.407C737.012 709.237 735.87 708.195 735.713 708.324C735.57 708.452 736.512 709.751 738.068 710.978C739.61 712.206 741.109 712.805 741.194 712.634Z" fill="#7454AE"/>
<path d="M728.404 704.413C728.604 704.441 728.89 703.356 729.375 702.086C729.86 700.816 730.389 699.831 730.217 699.702C730.06 699.588 729.232 700.459 728.704 701.815C728.176 703.171 728.205 704.384 728.404 704.398V704.413Z" fill="#7454AE"/>
<path d="M731.802 684.958C731.916 685.115 732.744 684.73 733.643 684.073C734.542 683.431 735.185 682.774 735.071 682.603C734.956 682.446 734.128 682.831 733.229 683.488C732.33 684.13 731.688 684.787 731.802 684.958Z" fill="#7454AE"/>
<path d="M701.997 654.499C701.883 654.656 702.682 655.455 703.795 656.269C704.909 657.082 705.908 657.625 706.022 657.468C706.136 657.311 705.337 656.511 704.224 655.698C703.11 654.884 702.111 654.342 701.997 654.499Z" fill="#7454AE"/>
<path d="M697.5 666.774C697.486 666.974 698.742 667.231 700.298 667.059C701.854 666.888 703.024 666.36 702.967 666.189C702.91 665.989 701.697 666.189 700.212 666.346C698.728 666.517 697.5 666.574 697.486 666.774H697.5Z" fill="#7454AE"/>
<path d="M716.814 669.529C716.771 669.714 717.941 670.142 719.44 670.242C720.953 670.342 722.152 670.085 722.138 669.886C722.124 669.686 720.939 669.614 719.483 669.514C718.041 669.415 716.842 669.329 716.799 669.529H716.814Z" fill="#7454AE"/>
<path d="M715.158 657.91C715.158 658.096 716.357 658.139 717.641 657.539C718.94 656.954 719.683 656.04 719.54 655.898C719.397 655.741 718.512 656.34 717.342 656.883C716.171 657.425 715.129 657.71 715.158 657.91Z" fill="#7454AE"/>
<path d="M695.844 679.948C695.944 680.12 697.158 679.549 698.542 678.678C699.927 677.807 700.955 676.965 700.855 676.794C700.755 676.623 699.541 677.193 698.157 678.064C696.772 678.935 695.744 679.777 695.844 679.948Z" fill="#7454AE"/>
<path d="M648.739 714.404H751.743V732.66H648.739V714.404Z" fill="#7454AE"/>
<path d="M744.049 729.034L731.531 783.587H670.136L656.433 729.034H744.049Z" fill="#7454AE"/>
<path d="M648.796 732.674C648.796 732.874 672.035 733.031 700.683 733.031C729.332 733.031 752.571 732.874 752.571 732.674C752.571 732.474 729.347 732.317 700.683 732.317C672.02 732.317 648.796 732.474 648.796 732.674Z" fill="#F67E3E"/>
<path d="M706.079 669.928C706.25 670.028 706.95 669.215 707.649 668.101C708.349 666.988 708.777 665.989 708.606 665.889C708.434 665.789 707.735 666.603 707.036 667.716C706.336 668.829 705.908 669.828 706.079 669.928Z" fill="#7454AE"/>
<path d="M706.051 684.616C706.236 684.559 705.994 683.317 705.508 681.847C705.023 680.376 704.466 679.235 704.281 679.306C704.095 679.377 704.338 680.605 704.823 682.075C705.308 683.545 705.865 684.687 706.051 684.616Z" fill="#7454AE"/>
<path d="M701.012 700.031C701.197 700.116 701.968 698.889 702.725 697.276C703.496 695.663 703.967 694.293 703.795 694.207C703.61 694.122 702.839 695.349 702.082 696.962C701.312 698.575 700.841 699.945 701.012 700.031Z" fill="#7454AE"/>
<path d="M711.889 712.434C712.046 712.306 711.432 711.35 710.518 710.308C709.605 709.266 708.748 708.523 708.606 708.652C708.449 708.78 709.062 709.737 709.976 710.779C710.89 711.821 711.746 712.563 711.889 712.434Z" fill="#7454AE"/>
<path d="M714.173 689.911C714.201 690.111 715.201 690.097 716.385 689.882C717.57 689.668 718.512 689.34 718.469 689.14C718.441 688.94 717.442 688.955 716.257 689.169C715.072 689.383 714.13 689.711 714.173 689.911Z" fill="#7454AE"/>
<g opacity="0.7">
<path d="M693.477 427.361H592.702C578.164 427.361 566.395 439.152 566.395 453.684V503.467C566.395 518.013 578.179 529.789 592.702 529.789H667.651L680.594 551.262L692.71 529.789H693.477C708 529.789 719.785 517.998 719.785 503.467V453.684C719.785 439.137 708 427.361 693.477 427.361Z" fill="white" fill-opacity="0.9"/>
<path d="M693.477 427.362C693.477 427.362 693.688 427.362 694.094 427.362C694.531 427.377 695.133 427.392 695.93 427.422C696.743 427.497 697.736 427.648 698.925 427.843C700.084 428.13 701.454 428.431 702.929 429.018C705.848 430.147 709.37 432.03 712.546 435.342C714.156 436.969 715.601 438.987 716.88 441.275C718.114 443.594 719.047 446.245 719.574 449.151C720.146 452.057 719.98 455.174 720.01 458.382C720.01 461.604 720.01 464.977 720.026 468.501C720.026 475.533 720.056 483.123 720.071 491.239C720.071 495.29 720.071 499.476 720.071 503.783C719.995 508.12 718.912 512.607 716.624 516.598C715.495 518.6 714.066 520.453 712.44 522.154C710.74 523.781 708.934 525.362 706.812 526.521C704.735 527.726 702.477 528.705 700.069 529.277C698.88 529.638 697.646 529.774 696.427 529.97C695.193 530.06 693.929 530.15 692.695 530.15L692.996 529.97C689.173 536.761 685.094 544.004 680.895 551.458L680.594 552L680.263 551.458C676.17 544.667 671.79 537.408 667.305 529.985L667.636 530.165C647.921 530.165 626.806 530.165 605.028 530.165C600.784 530.165 596.57 530.165 592.386 530.15C588.142 530.09 583.943 529.006 580.241 527.078C572.821 523.163 567.523 515.724 566.365 507.668L566.139 506.162L566.064 504.641C565.988 503.632 566.003 502.639 566.003 501.645C566.003 499.657 566.003 497.684 566.003 495.727C566.003 491.796 566.003 487.911 566.003 484.072C566.003 476.377 566.003 468.847 566.003 461.499C566.003 459.662 566.003 457.84 566.003 456.018C565.988 454.211 566.018 452.389 566.199 450.582C566.605 446.983 567.779 443.519 569.525 440.462C573.017 434.319 578.871 429.906 585.222 428.084C586.02 427.889 586.818 427.648 587.615 427.497C588.428 427.377 589.226 427.256 590.038 427.136C591.664 427.03 593.274 426.97 594.839 427.015C597.985 427.015 601.085 427.015 604.11 427.015C610.175 427.015 615.985 427.03 621.538 427.045C643.737 427.09 661.707 427.136 674.153 427.166C680.354 427.196 685.17 427.226 688.451 427.241C690.076 427.256 691.31 427.271 692.168 427.286C693.011 427.286 693.432 427.331 693.432 427.331C693.432 427.331 692.996 427.362 692.168 427.377C691.31 427.377 690.061 427.392 688.451 427.422C685.155 427.437 680.339 427.467 674.153 427.497C661.707 427.527 643.737 427.572 621.538 427.618C615.985 427.618 610.16 427.633 604.11 427.648C601.085 427.648 597.985 427.648 594.839 427.648C594.057 427.648 593.259 427.648 592.461 427.648C591.679 427.693 590.896 427.723 590.099 427.768C589.316 427.889 588.533 428.009 587.736 428.129C586.953 428.265 586.185 428.521 585.403 428.702C579.217 430.494 573.513 434.815 570.112 440.809C568.411 443.79 567.283 447.163 566.891 450.672C566.726 452.419 566.696 454.211 566.711 456.033C566.711 457.84 566.711 459.677 566.711 461.514C566.711 468.863 566.711 476.392 566.711 484.087C566.711 487.926 566.711 491.827 566.711 495.742C566.711 497.699 566.711 499.672 566.711 501.66C566.711 502.654 566.711 503.647 566.771 504.626L566.846 506.102L567.072 507.563C568.216 515.378 573.348 522.606 580.557 526.401C584.169 528.283 588.232 529.322 592.356 529.382C596.54 529.382 600.754 529.382 604.983 529.382C626.76 529.382 647.876 529.382 667.591 529.382H667.802L667.907 529.563C672.377 536.987 676.757 544.26 680.835 551.051H680.203C684.417 543.612 688.496 536.369 692.333 529.593L692.439 529.412H692.634C693.884 529.412 695.088 529.337 696.292 529.247C697.481 529.051 698.685 528.931 699.843 528.584C702.176 528.027 704.373 527.078 706.405 525.904C708.482 524.774 710.243 523.238 711.898 521.657C713.479 520.001 714.878 518.194 715.992 516.236C718.235 512.351 719.288 507.969 719.378 503.723C719.378 499.416 719.393 495.245 719.408 491.194C719.408 483.093 719.439 475.488 719.454 468.456C719.454 464.947 719.454 461.574 719.469 458.337C719.454 455.114 719.634 452.027 719.077 449.166C718.581 446.32 717.678 443.685 716.474 441.396C715.225 439.137 713.825 437.134 712.23 435.523C709.114 432.225 705.653 430.328 702.763 429.184C701.318 428.581 699.964 428.28 698.805 427.964C697.631 427.753 696.638 427.587 695.84 427.497C695.042 427.452 694.44 427.407 694.004 427.377C693.598 427.346 693.387 427.316 693.387 427.316L693.477 427.362Z" fill="#263238" fill-opacity="0.5"/>
<path d="M698.7 454.407C698.7 454.617 673.777 454.798 643.044 454.798C612.312 454.798 587.374 454.617 587.374 454.407C587.374 454.196 612.297 454.015 643.044 454.015C673.792 454.015 698.7 454.196 698.7 454.407Z" fill="#263238" fill-opacity="0.5"/>
<path d="M698.7 466.498C698.7 466.709 673.777 466.89 643.044 466.89C612.312 466.89 587.374 466.709 587.374 466.498C587.374 466.288 612.297 466.107 643.044 466.107C673.792 466.107 698.7 466.288 698.7 466.498Z" fill="#263238" fill-opacity="0.5"/>
<path d="M698.7 478.59C698.7 478.801 673.777 478.982 643.044 478.982C612.312 478.982 587.374 478.801 587.374 478.59C587.374 478.38 612.297 478.199 643.044 478.199C673.792 478.199 698.7 478.38 698.7 478.59Z" fill="#263238" fill-opacity="0.5"/>
<path d="M698.7 490.667C698.7 490.878 673.777 491.059 643.044 491.059C612.312 491.059 587.374 490.878 587.374 490.667C587.374 490.456 612.297 490.275 643.044 490.275C673.792 490.275 698.7 490.456 698.7 490.667Z" fill="#263238" fill-opacity="0.5"/>
<path d="M698.7 502.759C698.7 502.97 673.777 503.15 643.044 503.15C612.312 503.15 587.374 502.97 587.374 502.759C587.374 502.548 612.297 502.367 643.044 502.367C673.792 502.367 698.7 502.548 698.7 502.759Z" fill="#263238" fill-opacity="0.5"/>
<path d="M630.142 242.483H480.656C466.256 242.483 454.585 254.16 454.585 268.569V321.176C454.585 335.585 466.256 347.262 480.656 347.262H587.692L604.703 375.486L620.627 347.262H630.142C644.543 347.262 656.214 335.585 656.214 321.176V268.569C656.214 254.16 644.543 242.483 630.142 242.483Z" fill="white" fill-opacity="0.9"/>
<path d="M630.142 242.483C630.142 242.483 631.032 242.483 632.773 242.542C634.494 242.78 637.105 243.057 640.23 244.363C643.356 245.61 646.976 247.926 650.22 251.647C651.783 253.547 653.246 255.763 654.374 258.356C655.462 260.969 656.194 263.918 656.372 267.084C656.55 279.692 656.49 294.971 656.55 312.547C656.55 314.744 656.55 316.98 656.55 319.237C656.589 321.493 656.49 323.848 656.075 326.184C655.165 330.815 653.009 335.407 649.567 339.068C647.886 340.909 645.927 342.571 643.692 343.858C641.496 345.184 639.083 346.233 636.511 346.827C635.245 347.203 633.92 347.322 632.615 347.519C631.289 347.599 629.944 347.678 628.619 347.658C625.968 347.658 623.298 347.658 620.588 347.658L620.964 347.44C615.939 356.386 610.598 365.867 605.06 375.684L604.664 376.376L604.249 375.684C598.848 366.757 593.112 357.237 587.217 347.46L587.632 347.698C559.405 347.698 528.685 347.698 496.817 347.717C491.635 347.717 486.492 347.717 481.368 347.717C476.186 347.816 470.944 346.471 466.592 343.7C462.22 341.008 458.679 337.01 456.563 332.418C454.268 327.866 453.873 322.601 454.031 317.792C454.031 308.014 454.031 298.415 454.031 289.014C454.031 284.304 454.031 279.652 454.031 275.061C454.031 272.765 454.031 270.469 454.051 268.193C454.13 265.877 454.387 263.581 455.04 261.384C456.207 256.951 458.699 253.012 461.785 249.806C464.97 246.698 468.827 244.343 472.981 243.116C475.058 242.562 477.175 242.107 479.311 242.067C481.447 241.948 483.505 242.028 485.562 242.008C489.696 242.008 493.751 242.008 497.747 242.008C513.71 242.028 528.586 242.047 542.175 242.067C569.315 242.127 591.272 242.186 606.504 242.225C614.08 242.265 619.955 242.305 623.99 242.324C625.968 242.344 627.491 242.364 628.54 242.384C629.568 242.384 630.083 242.443 630.083 242.443C630.083 242.443 629.549 242.483 628.54 242.503C627.491 242.503 625.968 242.522 623.99 242.562C619.955 242.582 614.08 242.621 606.504 242.661C591.292 242.7 569.315 242.76 542.175 242.819C528.586 242.819 513.73 242.859 497.747 242.879C493.751 242.879 489.696 242.879 485.562 242.879C481.428 242.879 477.234 242.72 473.218 243.967C469.203 245.155 465.484 247.431 462.418 250.439C459.451 253.527 457.057 257.327 455.93 261.602C454.664 265.837 455.02 270.409 454.98 275.021C454.98 279.613 454.98 284.284 454.98 288.974C454.98 298.376 454.98 307.975 454.98 317.752C454.98 320.206 454.901 322.641 455.317 325.016C455.653 327.411 456.385 329.746 457.433 331.943C459.49 336.357 462.873 340.196 467.086 342.789C471.28 345.441 476.284 346.728 481.309 346.649C486.432 346.649 491.575 346.649 496.758 346.649C528.625 346.649 559.345 346.649 587.573 346.668H587.85L587.988 346.906C593.863 356.683 599.6 366.203 604.98 375.149H604.169C609.708 365.352 615.069 355.872 620.113 346.946L620.232 346.728H620.489C623.199 346.728 625.869 346.728 628.52 346.728C629.845 346.748 631.151 346.668 632.437 346.609C633.703 346.431 634.988 346.312 636.215 345.956C638.707 345.382 641.041 344.373 643.178 343.086C645.334 341.839 647.233 340.236 648.875 338.455C652.218 334.912 654.314 330.478 655.224 325.966C655.64 323.69 655.739 321.453 655.719 319.157C655.719 316.901 655.719 314.665 655.719 312.468C655.719 294.912 655.857 279.593 655.758 267.025C655.6 263.918 654.888 261.008 653.84 258.435C652.752 255.882 651.328 253.665 649.804 251.785C646.639 248.104 643.099 245.788 640.013 244.502C633.742 241.988 629.964 242.562 630.023 242.364L630.142 242.483Z" fill="#263238" fill-opacity="0.5"/>
<path d="M632.753 279.355C632.753 279.633 599.996 279.87 559.603 279.87C519.21 279.87 486.432 279.633 486.432 279.355C486.432 279.078 519.19 278.841 559.603 278.841C600.015 278.841 632.753 279.078 632.753 279.355Z" fill="#263238" fill-opacity="0.5"/>
<path d="M632.753 295.249C632.753 295.526 599.996 295.763 559.603 295.763C519.21 295.763 486.432 295.526 486.432 295.249C486.432 294.971 519.19 294.734 559.603 294.734C600.015 294.734 632.753 294.971 632.753 295.249Z" fill="#263238" fill-opacity="0.5"/>
<path d="M632.753 311.122C632.753 311.399 599.996 311.636 559.603 311.636C519.21 311.636 486.432 311.399 486.432 311.122C486.432 310.845 519.19 310.607 559.603 310.607C600.015 310.607 632.753 310.845 632.753 311.122Z" fill="#263238" fill-opacity="0.5"/>
<g opacity="0.5">
<path d="M331.438 220.357H220.74C210.076 220.357 201.433 229.005 201.433 239.675V278.632C201.433 289.302 210.076 297.95 220.74 297.95H300.003L312.6 318.85L324.392 297.95H331.438C342.102 297.95 350.745 289.302 350.745 278.632V239.675C350.745 229.005 342.102 220.357 331.438 220.357Z" fill="white" fill-opacity="0.9"/>
<path d="M331.438 220.358C331.438 220.358 332.097 220.358 333.387 220.401C334.661 220.577 336.595 220.783 338.909 221.75C341.224 222.673 343.904 224.388 346.307 227.144C347.464 228.551 348.548 230.192 349.383 232.112C350.188 234.047 350.73 236.231 350.862 238.576C350.994 247.912 350.95 259.227 350.994 272.242C350.994 273.869 350.994 275.525 350.994 277.196C351.023 278.867 350.95 280.611 350.642 282.34C349.969 285.77 348.372 289.17 345.823 291.882C344.578 293.245 343.128 294.476 341.473 295.429C339.847 296.411 338.059 297.188 336.155 297.627C335.218 297.906 334.236 297.994 333.269 298.14C332.288 298.199 331.292 298.258 330.31 298.243C328.347 298.243 326.37 298.243 324.363 298.243L324.641 298.082C320.921 304.706 316.966 311.727 312.864 318.997L312.571 319.51L312.263 318.997C308.264 312.387 304.016 305.337 299.651 298.096L299.959 298.272C279.055 298.272 256.306 298.272 232.707 298.287C228.87 298.287 225.061 298.287 221.267 298.287C217.429 298.36 213.547 297.363 210.325 295.312C207.087 293.318 204.465 290.358 202.898 286.957C201.199 283.586 200.906 279.688 201.023 276.126C201.023 268.886 201.023 261.777 201.023 254.815C201.023 251.327 201.023 247.883 201.023 244.482C201.023 242.782 201.023 241.082 201.037 239.396C201.096 237.682 201.286 235.981 201.77 234.355C202.634 231.072 204.48 228.155 206.765 225.78C209.123 223.479 211.98 221.735 215.056 220.827C216.594 220.416 218.162 220.079 219.744 220.05C221.326 219.962 222.849 220.02 224.372 220.006C227.434 220.006 230.437 220.006 233.396 220.006C245.217 220.02 256.233 220.035 266.296 220.05C286.394 220.094 302.654 220.138 313.933 220.167C319.544 220.196 323.894 220.226 326.883 220.24C328.347 220.255 329.475 220.27 330.252 220.284C331.014 220.284 331.394 220.328 331.394 220.328C331.394 220.328 330.999 220.358 330.252 220.372C329.475 220.372 328.347 220.387 326.883 220.416C323.894 220.431 319.544 220.46 313.933 220.489C302.669 220.519 286.394 220.563 266.296 220.607C256.233 220.607 245.232 220.636 233.396 220.651C230.437 220.651 227.434 220.651 224.372 220.651C221.311 220.651 218.205 220.533 215.232 221.457C212.258 222.336 209.504 224.022 207.234 226.249C205.036 228.536 203.264 231.35 202.429 234.516C201.492 237.652 201.755 241.038 201.726 244.453C201.726 247.853 201.726 251.312 201.726 254.786C201.726 261.748 201.726 268.856 201.726 276.097C201.726 277.914 201.667 279.717 201.975 281.476C202.224 283.249 202.766 284.979 203.542 286.606C205.066 289.874 207.571 292.717 210.691 294.637C213.796 296.601 217.502 297.554 221.223 297.495C225.017 297.495 228.826 297.495 232.664 297.495C256.262 297.495 279.011 297.495 299.915 297.51H300.12L300.222 297.686C304.573 304.926 308.821 311.976 312.805 318.601H312.205C316.306 311.346 320.276 304.325 324.012 297.715L324.099 297.554H324.29C326.297 297.554 328.274 297.554 330.237 297.554C331.219 297.569 332.185 297.51 333.138 297.466C334.075 297.334 335.027 297.246 335.935 296.982C337.781 296.557 339.51 295.81 341.092 294.857C342.688 293.934 344.095 292.747 345.31 291.428C347.786 288.804 349.339 285.521 350.013 282.179C350.32 280.494 350.393 278.838 350.379 277.137C350.379 275.466 350.379 273.81 350.379 272.183C350.379 259.183 350.481 247.839 350.408 238.532C350.291 236.231 349.764 234.076 348.987 232.171C348.182 230.28 347.127 228.639 345.999 227.246C343.655 224.52 341.033 222.805 338.748 221.852C334.104 219.991 331.306 220.416 331.35 220.27L331.438 220.358Z" fill="#263238" fill-opacity="0.5"/>
<path d="M333.372 247.663C333.372 247.868 309.114 248.044 279.202 248.044C249.29 248.044 225.017 247.868 225.017 247.663C225.017 247.458 249.275 247.282 279.202 247.282C309.129 247.282 333.372 247.458 333.372 247.663Z" fill="#263238" fill-opacity="0.5"/>
<path d="M333.372 259.432C333.372 259.637 309.114 259.813 279.202 259.813C249.29 259.813 225.017 259.637 225.017 259.432C225.017 259.227 249.275 259.051 279.202 259.051C309.129 259.051 333.372 259.227 333.372 259.432Z" fill="#263238" fill-opacity="0.5"/>
<path d="M333.372 271.187C333.372 271.392 309.114 271.568 279.202 271.568C249.29 271.568 225.017 271.392 225.017 271.187C225.017 270.982 249.275 270.806 279.202 270.806C309.129 270.806 333.372 270.982 333.372 271.187Z" fill="#263238" fill-opacity="0.5"/>
</g>
</g>
<path d="M582.034 711.806L571.699 783.744H534.101L524.665 711.806H582.034Z" fill="#6740AE"/>
<path d="M586.174 711.806C585.988 706.967 584.889 702.657 581.178 699.802H524.651C521.553 702.143 520.597 706.711 520.183 711.806H586.16H586.174Z" fill="#6740AE"/>
<path d="M577.552 699.802L572.77 692.78H533.601L529.433 699.802H577.552Z" fill="#6740AE"/>
<path d="M524.908 699.56C524.908 699.759 537.055 699.931 552.029 699.931C567.003 699.931 579.151 699.759 579.151 699.56C579.151 699.36 567.017 699.189 552.029 699.189C537.041 699.189 524.908 699.36 524.908 699.56Z" fill="#263238"/>
<path d="M520.197 711.806C520.197 712.006 534.843 712.177 552.886 712.177C570.929 712.177 585.589 712.006 585.589 711.806C585.589 711.606 570.957 711.435 552.886 711.435C534.814 711.435 520.197 711.606 520.197 711.806Z" fill="#263238"/>
<path d="M579.693 728.049H526.792L529.89 751.629H576.31L579.693 728.049Z" fill="#263238"/>
<path d="M552.929 548.534L526.549 554.843L503.296 577.038L512.56 588.071L533.487 564.477C533.487 564.477 556.597 558.625 552.929 548.52V548.534Z" fill="#FFCDB3"/>
<path d="M497.415 594.665C497.415 594.665 497.372 594.537 497.358 594.465L503.311 577.052L524.622 567.118C525.721 568.103 526.592 569.287 527.334 570.543C529.861 567.232 533.001 564.392 536.584 562.151L540.852 559.482C543.907 558.354 547.661 559.553 549.517 562.236C551.373 564.92 551.158 568.845 549.017 571.3C550.987 572.142 552.429 574.126 552.614 576.267C552.8 578.408 551.729 580.606 549.945 581.791C553.885 584.303 554.342 590.797 550.802 593.837C552.415 595.136 552.843 597.52 552.3 599.518C551.744 601.574 550.373 603.301 548.946 604.885C546.548 607.54 543.879 609.938 540.938 611.979C539.924 612.692 538.84 613.32 537.626 613.592C536.242 613.891 535.242 613.121 534.286 612.05C533.387 611.051 532.673 610.08 533.044 608.767L520.083 618.102L508.606 642.21L479.287 624.354L497.429 594.665H497.415Z" fill="#FFCDB3"/>
<path d="M516.757 600.717C516.757 600.717 517 600.632 517.414 600.403C517.842 600.189 518.427 599.804 519.169 599.261C520.611 598.176 522.495 596.221 523.937 593.281C525.35 590.369 526.264 586.358 525.336 582.062C525.093 581.006 524.708 579.935 524.365 578.922C524.037 577.908 523.88 576.795 524.451 575.939C525.008 575.068 526.078 574.554 527.106 573.883C528.134 573.212 529.076 572.385 529.918 571.443C530.76 570.501 531.46 569.459 532.002 568.36C532.545 567.261 532.93 566.147 533.515 565.205C534.072 564.249 534.9 563.578 535.899 563.207C536.884 562.822 537.983 562.607 538.997 562.308C543.108 561.137 546.748 559.681 549.374 557.697C552.044 555.785 553.385 553.159 553.371 551.317C553.371 550.875 553.357 550.475 553.342 550.104C553.271 549.79 553.2 549.505 553.143 549.233C553.028 548.762 552.957 548.534 552.929 548.534C552.9 548.534 552.929 548.791 552.986 549.262C553.028 549.519 553.057 549.804 553.114 550.118C553.114 550.475 553.086 550.861 553.071 551.289C552.986 553.059 551.672 555.471 549.046 557.269C546.476 559.139 542.865 560.524 538.797 561.637C537.783 561.937 536.713 562.122 535.614 562.536C534.515 562.921 533.472 563.749 532.859 564.806C532.216 565.847 531.831 566.975 531.303 568.017C530.789 569.059 530.118 570.044 529.319 570.943C528.519 571.842 527.62 572.613 526.664 573.255C525.721 573.898 524.551 574.426 523.809 575.539C523.066 576.695 523.309 578.08 523.652 579.136C524.037 580.221 524.394 581.206 524.637 582.219C525.564 586.301 524.737 590.198 523.423 593.052C522.081 595.936 520.311 597.891 518.941 599.033C517.571 600.175 516.671 600.631 516.714 600.703L516.757 600.717Z" fill="#EB996E"/>
<path d="M529.975 571.114C529.975 571.114 529.59 571.471 529.033 572.242C528.476 572.998 527.663 574.112 526.963 575.682C526.635 576.453 526.278 577.409 526.435 578.494C526.578 579.536 527.006 580.578 527.648 581.534C528.305 582.462 529.176 583.475 530.575 583.76C531.931 583.989 533.23 583.475 534.386 582.947C539.097 580.763 542.822 577.808 545.192 575.411C546.391 574.212 547.276 573.17 547.847 572.427C548.418 571.685 548.703 571.243 548.66 571.214C548.561 571.129 547.276 572.77 544.821 575.039C542.38 577.309 538.683 580.135 534.058 582.276C532.93 582.804 531.76 583.232 530.675 583.047C529.633 582.861 528.79 581.991 528.191 581.148C527.577 580.278 527.163 579.321 527.02 578.408C526.863 577.509 527.135 576.638 527.434 575.882C528.048 574.354 528.79 573.198 529.262 572.399C529.747 571.6 530.018 571.143 529.975 571.114Z" fill="#EB996E"/>
<path d="M533.487 582.561C533.487 582.561 532.944 582.847 532.045 583.518C531.16 584.189 529.861 585.173 528.605 586.786C527.991 587.6 527.42 588.571 527.063 589.727C526.706 590.869 526.564 592.239 526.978 593.58C527.392 594.894 528.277 596.207 529.69 596.892C531.117 597.591 532.844 597.363 534.272 596.749C539.853 594.066 543.907 590.183 546.505 587.172C547.804 585.659 548.732 584.331 549.317 583.389C549.917 582.447 550.202 581.905 550.159 581.876C550.045 581.805 548.76 583.903 546.105 586.815C543.465 589.698 539.354 593.481 533.986 596.05C532.659 596.606 531.189 596.792 530.004 596.221C528.819 595.664 528.005 594.522 527.634 593.366C527.263 592.196 527.349 590.968 527.649 589.898C527.948 588.813 528.476 587.885 529.033 587.086C530.175 585.516 531.403 584.474 532.231 583.732C533.059 583.004 533.53 582.59 533.487 582.547V582.561Z" fill="#EB996E"/>
<path d="M529.147 595.365C529.147 595.365 528.762 595.679 528.248 596.407C527.763 597.135 527.049 598.276 526.849 599.904C526.763 600.717 526.849 601.645 527.235 602.544C527.606 603.429 528.334 604.343 529.404 604.771C530.461 605.228 531.688 605.17 532.816 604.885C533.958 604.599 535.043 604.1 536.113 603.572C540.438 601.474 544.078 599.061 546.562 597.149C547.804 596.192 548.775 595.365 549.431 594.779C550.074 594.194 550.416 593.837 550.388 593.795C550.316 593.709 548.818 594.936 546.262 596.721C543.707 598.505 540.082 600.831 535.799 602.901C534.729 603.429 533.701 603.9 532.645 604.171C531.603 604.442 530.546 604.485 529.675 604.128C528.79 603.786 528.177 603.058 527.82 602.287C527.463 601.502 527.349 600.674 527.392 599.932C527.506 598.433 528.105 597.292 528.519 596.535C528.947 595.779 529.219 595.379 529.176 595.336L529.147 595.365Z" fill="#EB996E"/>
<path d="M535.128 603.343C535.043 603.315 534.7 604.014 534.101 605.156C533.815 605.727 533.472 606.412 533.173 607.24C532.859 608.068 532.73 609.11 532.959 610.137C533.158 611.165 533.701 612.093 534.429 612.678C535.157 613.278 535.999 613.492 536.684 613.506C538.112 613.52 538.74 612.778 538.668 612.735C538.611 612.621 537.926 613.135 536.713 612.978C536.128 612.907 535.442 612.65 534.871 612.15C534.3 611.636 533.858 610.865 533.687 609.981C533.273 608.182 534.172 606.569 534.586 605.356C535.057 604.171 535.243 603.358 535.128 603.329V603.343Z" fill="#EB996E"/>
<path d="M281.857 396.366L418.535 420.117C418.092 422.272 417.664 424.399 417.221 426.512L417.55 425.641C411.983 451.162 406.544 478.495 416.179 502.759C419.363 510.753 424.187 518.503 424.145 527.11C424.13 531.163 423.017 535.131 422.803 539.185C422.589 543.239 423.516 547.692 426.671 550.232C430.068 552.959 435.792 553.415 437.034 557.597C437.891 560.466 435.949 563.364 433.965 565.605C428.57 571.685 421.932 576.638 414.609 580.192C413.624 585.445 411.612 590.412 408.171 594.48C399.35 590.326 390.514 586.187 381.692 582.033C382.235 579.164 382.777 576.295 383.32 573.427C381.906 577.009 378.252 579.75 374.384 580.649C369.402 581.819 364.192 580.649 359.239 579.393C330.49 572.142 302.498 561.922 275.847 548.919C272.307 547.192 254.379 545.865 254.379 545.865C251.338 500.504 264.985 438.558 281.843 396.338L281.857 396.366Z" fill="#263238"/>
<path d="M285.525 388.644C295.018 368.805 304.81 348.151 324.923 339.23C342.837 331.294 360.695 332.336 379.466 337.931C388.715 340.686 398.179 347.666 405.145 354.331C414.709 363.466 416.194 377.483 418.635 390.471C423.531 416.52 414.167 447.736 404.646 454.673L294.19 481.478C279.216 468.147 268.739 461.039 268.953 440.985C269.096 427.325 279.63 400.962 285.525 388.644Z" fill="#263238"/>
<path d="M322.168 359.013L388.073 356.43C408.557 358.542 416.65 386.032 413.667 406.4C410.355 429.038 405.402 456.528 399.236 472.643C386.831 505.029 360.238 503.859 360.238 503.859C360.252 503.744 360.052 504.344 357.754 514.264L353.044 536.687C338.869 562.037 312.076 552.745 280.801 531.135L309.093 368.748C310.263 362.61 315.944 358.385 322.168 359.027V359.013Z" fill="#FFCDB3"/>
<path d="M400.435 431.036C400.035 433.32 397.765 434.876 395.367 434.49C392.983 434.119 391.356 431.964 391.756 429.68C392.156 427.396 394.425 425.841 396.809 426.212C399.207 426.583 400.82 428.738 400.42 431.022L400.435 431.036Z" fill="#263238"/>
<path d="M403.975 422.829C403.318 423.272 400.577 420.174 395.953 419.218C391.342 418.19 387.445 419.846 387.06 419.175C386.86 418.875 387.63 417.976 389.329 417.205C391.014 416.449 393.711 415.921 396.595 416.549C399.478 417.177 401.677 418.747 402.833 420.131C404.018 421.516 404.289 422.643 403.975 422.829Z" fill="#263238"/>
<path d="M357.326 420.631C356.926 422.915 354.657 424.47 352.258 424.085C349.875 423.714 348.247 421.559 348.647 419.275C349.047 416.991 351.316 415.435 353.7 415.807C356.098 416.178 357.711 418.333 357.312 420.617L357.326 420.631Z" fill="#263238"/>
<path d="M359.096 412.038C358.439 412.481 355.699 409.384 351.074 408.427C346.463 407.4 342.566 409.055 342.181 408.384C341.995 408.085 342.737 407.185 344.45 406.415C346.135 405.644 348.833 405.13 351.716 405.758C354.599 406.386 356.798 407.956 357.954 409.341C359.139 410.725 359.41 411.853 359.096 412.038Z" fill="#263238"/>
<path d="M368.617 448.464C368.645 448.193 371.629 448.307 376.411 448.692C377.624 448.821 378.78 448.821 379.151 448.064C379.608 447.265 379.38 445.895 379.109 444.396C378.609 441.299 378.081 438.059 377.524 434.662C375.383 420.831 374.098 409.569 374.655 409.483C375.212 409.398 377.396 420.545 379.537 434.376C380.036 437.773 380.522 441.027 380.964 444.125C381.121 445.566 381.578 447.251 380.593 448.892C380.094 449.706 379.08 450.162 378.281 450.205C377.481 450.277 376.81 450.148 376.211 450.062C371.472 449.32 368.56 448.735 368.588 448.464H368.617Z" fill="#263238"/>
<path d="M360.238 503.859C360.238 503.859 337.384 500.547 317.886 482.392C317.886 482.392 324.024 508.183 358.225 512.151L360.238 503.859Z" fill="#EB996E"/>
<path d="M351.331 453.859C352.801 452.303 354.999 451.79 357.04 452.146C359.995 452.675 362.236 454.202 363.578 457.313C364.063 458.227 363.535 460.425 363.136 460.982C362.736 461.538 363.007 461.281 362.45 461.595C360.409 462.751 358.282 463.879 355.97 463.936C353.657 463.993 351.102 462.709 350.117 460.254C349.247 458.07 349.86 455.415 351.331 453.859Z" fill="#EB996E"/>
<path d="M353.457 448.778C354.214 448.892 353.2 453.916 356.769 458.37C360.323 462.837 365.805 463.365 365.691 464.079C365.691 464.407 364.292 464.807 362.022 464.407C359.781 464.022 356.698 462.652 354.514 459.925C352.344 457.199 351.816 454.045 352.059 451.947C352.301 449.806 353.115 448.678 353.457 448.778Z" fill="#263238"/>
<path d="M364.263 397.936C363.607 399.135 359.039 397.822 353.458 397.651C347.876 397.365 343.208 398.293 342.652 397.051C342.409 396.452 343.365 395.381 345.335 394.425C347.291 393.469 350.303 392.727 353.643 392.869C356.983 393.012 359.924 393.983 361.794 395.11C363.678 396.224 364.549 397.38 364.249 397.951L364.263 397.936Z" fill="#263238"/>
<path d="M406.216 412.695C404.945 413.337 402.005 410.911 397.994 409.198C394.025 407.357 390.257 406.786 389.886 405.416C389.743 404.773 390.699 404.003 392.584 403.674C394.439 403.346 397.223 403.603 399.978 404.816C402.719 406.044 404.76 407.928 405.745 409.526C406.758 411.139 406.801 412.352 406.216 412.681V412.695Z" fill="#263238"/>
<path d="M389.558 352.719C388.13 366.549 382.806 379.952 374.341 390.985C371.971 394.068 369.302 397.023 365.891 398.878C362.479 400.734 358.182 401.319 354.699 399.621C362.151 393.654 367.675 385.305 370.259 376.113C363.949 384.562 357.497 393.155 348.875 399.235C340.254 405.316 328.948 408.556 318.985 405.102L321.369 398.436C318.671 402.961 315.016 407.2 310.12 409.141C305.224 411.082 298.929 410.169 295.775 405.944C303.34 390.157 297.63 369.561 307.936 355.416C315.074 345.61 328.006 341.899 340.097 341.129C357.112 340.058 374.412 343.612 389.615 351.32" fill="#263238"/>
<path d="M388.116 352.633C388.116 352.89 388.102 353.133 388.087 353.389H387.959C388.016 353.147 388.059 352.89 388.116 352.633Z" fill="#263238"/>
<path d="M388.087 353.404L390.314 353.061C397.38 351.377 402.405 348.722 410.013 359.755C414.138 365.736 417.122 373.9 418.735 381.893C420.176 389.016 421.732 396.752 421.09 403.988C420.248 413.466 418.92 420.188 415.48 429.666C410.769 424.542 409.528 417.134 409.342 410.169C409.156 403.203 409.77 396.109 407.943 389.387C407.515 395.196 407.072 401.119 404.788 406.472C404.16 407.942 403.332 409.426 401.934 410.183C400.535 410.939 398.451 410.625 397.808 409.169C401.462 403.246 402.79 396.124 402.719 389.158C402.647 382.193 401.263 375.327 399.835 368.519C398.565 380.123 395.282 391.513 390.186 402.019C389.458 403.532 388.615 405.087 387.188 405.972C385.047 407.285 382.278 406.657 379.951 405.701C377.624 404.745 375.312 403.474 372.799 403.603C382.32 388.673 387.659 371.117 388.087 353.418V353.404Z" fill="#263238"/>
<path d="M358.225 512.151L254.907 517.461L321.311 600.546L348.59 613.378L372.799 607.597L378.366 589.984L358.225 512.151Z" fill="#FFCDB3"/>
<path d="M238.805 532.519C238.805 532.519 239.562 532.634 240.932 532.748C242.302 532.862 244.287 533.005 246.67 533.461C249.054 533.918 251.866 534.746 254.664 536.316C257.448 537.886 260.445 539.899 263.029 542.525C265.57 545.223 267.525 548.206 269.081 551.032C270.637 553.858 271.836 556.527 272.764 558.782C273.692 561.052 274.363 562.921 274.834 564.206C275.291 565.505 275.562 566.219 275.605 566.204C275.648 566.204 275.476 565.448 275.105 564.12C274.72 562.793 274.12 560.895 273.249 558.597C272.379 556.299 271.223 553.587 269.681 550.704C268.139 547.82 266.184 544.766 263.571 542.011C260.888 539.285 257.862 537.301 254.992 535.717C252.095 534.146 249.197 533.347 246.756 532.948C244.315 532.562 242.317 532.491 240.932 532.462C239.562 532.448 238.791 532.476 238.791 532.534L238.805 532.519Z" fill="#263238"/>
<path d="M513.931 638.998C513.931 638.998 475.575 713.376 469.138 721.683C453.921 741.281 419.248 735.043 414.267 724.295C405.688 705.769 378.366 643.78 378.366 643.78L387.402 621.513L417.807 558.654L447.626 661.807L486.253 612.921L513.931 638.998Z" fill="#9A429E"/>
<path d="M199.194 678.007C199.194 678.007 202.648 573.155 207.059 558.668C211.47 544.181 216.865 536.216 227.771 529.165C240.19 521.129 253.408 518.803 254.907 517.475C254.907 517.475 292.677 559.41 311.576 583.347C330.476 607.283 355.056 608.553 360.095 602.244C365.134 595.95 368.917 583.075 364.506 562.736C360.095 542.396 358.225 512.166 358.225 512.166L362.622 512.651C387.531 515.406 409.071 532.077 416.936 555.885C417.236 556.798 417.521 557.726 417.807 558.682C426.657 588.984 391.941 632.561 391.941 630.634C391.856 639.683 391.256 648.347 389.715 654.542C384.676 674.71 340.568 708.552 338.055 718.4C335.529 728.249 333.445 791.38 333.445 791.38C333.445 791.38 256.977 791.537 226.144 791.38C201.092 791.251 146.064 791.38 146.064 791.38L199.208 678.021L199.194 678.007Z" fill="#9A429E"/>
<path d="M394.454 553.672C394.454 553.672 394.297 554.072 394.054 554.871C393.826 555.671 393.426 556.827 393.126 558.368C392.413 561.423 391.713 565.947 391.542 571.585C391.342 577.209 391.613 583.903 392.241 591.311C392.826 598.705 393.712 606.826 394.14 615.362C394.597 623.897 394.425 632.061 393.34 639.369C392.298 646.691 390.257 653.086 387.959 658.167C385.661 663.263 383.106 667.031 381.307 669.586C380.379 670.842 379.594 671.784 379.109 672.44C378.609 673.097 378.352 673.454 378.366 673.468C378.381 673.482 378.681 673.168 379.223 672.54C379.751 671.912 380.565 670.999 381.535 669.757C383.42 667.245 386.046 663.491 388.43 658.381C390.8 653.286 392.912 646.834 394.011 639.455C395.139 632.09 395.325 623.868 394.882 615.304C394.454 606.74 393.54 598.619 392.926 591.24C392.27 583.86 391.941 577.195 392.07 571.585C392.17 565.99 392.784 561.48 393.412 558.425C393.669 556.884 394.026 555.713 394.197 554.914C394.397 554.115 394.482 553.687 394.454 553.672Z" fill="#263238"/>
<g opacity="0.3">
<path d="M385.618 662.064C394.725 656.012 399.692 645.121 401.077 634.288C402.476 623.44 400.749 612.478 399.036 601.673C397.137 589.684 393.968 578.836 392.055 566.861C390.813 583.461 392.683 597.977 393.882 614.12C395.082 630.263 394.482 647.548 385.618 661.107" fill="black"/>
</g>
<path d="M421.775 693.993C421.932 694.122 436.306 676.38 453.878 654.385C471.45 632.375 485.568 614.434 485.396 614.305C485.239 614.177 470.865 631.904 453.293 653.928C435.721 675.937 421.618 693.879 421.775 694.007V693.993Z" fill="#263238"/>
<g opacity="0.3">
<path d="M299.786 570.9C297.73 573.626 295.618 576.395 292.734 578.237C289.865 580.064 286.025 580.777 283.027 579.136C279.459 577.166 278.274 572.713 277.146 568.788C272.008 550.903 261.059 534.732 246.342 523.327C257.262 527.738 268.282 532.22 277.889 539.014C287.495 545.808 295.717 555.242 298.758 566.618" fill="black"/>
</g>
<path d="M289.508 650.131C289.508 650.131 289.851 650.245 290.536 650.374C291.278 650.517 292.263 650.688 293.491 650.916C294.775 651.159 296.346 651.416 298.187 651.673C300.028 651.93 302.112 652.272 304.425 652.515C309.05 653.1 314.588 653.6 320.755 653.971C326.921 654.299 333.702 654.456 340.825 654.313C347.948 654.142 354.728 653.671 360.866 653.072C367.004 652.429 372.514 651.673 377.11 650.874C379.423 650.517 381.478 650.088 383.305 649.746C385.133 649.403 386.688 649.075 387.959 648.775C389.172 648.49 390.143 648.261 390.885 648.09C391.556 647.933 391.899 647.833 391.899 647.805C391.899 647.776 391.542 647.833 390.857 647.948C390.114 648.09 389.129 648.261 387.902 648.49C386.617 648.747 385.061 649.032 383.234 649.332C381.407 649.632 379.337 650.031 377.025 650.345C372.428 651.073 366.918 651.773 360.795 652.372C354.657 652.929 347.905 653.386 340.796 653.557C333.687 653.7 326.921 653.557 320.769 653.286C314.617 652.957 309.093 652.515 304.468 652.001C302.155 651.787 300.057 651.487 298.23 651.259C296.388 651.045 294.818 650.816 293.519 650.631C292.292 650.46 291.292 650.331 290.55 650.217C289.865 650.131 289.508 650.103 289.508 650.131Z" fill="white"/>
<path d="M282.185 594.037C282.185 594.037 282.485 594.308 283.113 594.794C283.798 595.308 284.712 595.978 285.854 596.835C286.453 597.277 287.124 597.763 287.852 598.291C288.594 598.805 289.451 599.29 290.35 599.846C292.163 600.931 294.161 602.287 296.56 603.415C297.744 604.014 298.986 604.657 300.285 605.313C301.584 605.955 303.012 606.484 304.439 607.097C307.294 608.396 310.491 609.367 313.832 610.494C320.583 612.464 328.192 614.02 336.3 614.662C344.408 615.205 352.173 614.762 359.139 613.806C362.607 613.192 365.905 612.678 368.917 611.807C370.43 611.408 371.914 611.094 373.285 610.637C374.655 610.18 375.983 609.724 377.239 609.31C379.794 608.539 381.964 607.483 383.905 606.669C384.876 606.241 385.789 605.884 386.603 605.484C387.402 605.07 388.13 604.685 388.787 604.328C390.043 603.643 391.056 603.115 391.799 602.701C392.484 602.33 392.841 602.116 392.826 602.087C392.826 602.059 392.441 602.23 391.727 602.558C390.971 602.929 389.943 603.429 388.658 604.057C387.987 604.385 387.259 604.756 386.446 605.156C385.632 605.527 384.704 605.87 383.734 606.269C381.778 607.04 379.608 608.054 377.053 608.782C375.797 609.195 374.469 609.609 373.099 610.066C371.729 610.494 370.244 610.794 368.745 611.179C365.748 612.022 362.45 612.493 359.01 613.092C352.087 614.006 344.379 614.419 336.328 613.891C328.277 613.249 320.726 611.722 314.003 609.809C310.691 608.71 307.494 607.768 304.653 606.498C303.226 605.898 301.798 605.384 300.499 604.756C299.2 604.114 297.973 603.5 296.774 602.915C294.361 601.816 292.363 600.489 290.536 599.447C289.636 598.904 288.78 598.433 288.023 597.948C287.295 597.434 286.61 596.963 285.997 596.549C284.812 595.75 283.884 595.108 283.184 594.622C282.528 594.194 282.185 593.966 282.171 593.994L282.185 594.037Z" fill="white"/>
<path d="M465.369 647.633C465.369 647.633 465.683 648.09 466.354 648.832C467.025 649.575 468.038 650.617 469.323 651.873C471.893 654.37 475.604 657.653 480 660.922C484.397 664.176 488.622 666.788 491.763 668.515C493.333 669.386 494.617 670.043 495.531 670.471C496.43 670.899 496.944 671.113 496.973 671.07C497.03 670.97 495.089 669.9 492.034 668.059C488.979 666.217 484.825 663.562 480.443 660.337C476.075 657.097 472.321 653.899 469.68 651.502C467.025 649.104 465.441 647.562 465.369 647.648V647.633Z" fill="white"/>
<path d="M432.98 681.247C432.98 681.247 433.152 681.961 433.609 683.203C433.823 683.831 434.108 684.587 434.494 685.443C434.865 686.3 435.264 687.299 435.807 688.355C436.82 690.496 438.205 692.965 439.918 695.592C441.659 698.204 443.729 700.973 446.127 703.67C448.554 706.354 451.08 708.723 453.479 710.736C455.905 712.72 458.203 714.361 460.216 715.617C461.201 716.274 462.143 716.773 462.971 717.244C463.785 717.715 464.498 718.086 465.098 718.372C466.283 718.957 466.954 719.257 466.982 719.2C467.011 719.143 466.383 718.772 465.241 718.115C464.67 717.787 463.97 717.387 463.185 716.887C462.4 716.388 461.472 715.86 460.516 715.175C458.546 713.876 456.305 712.206 453.921 710.208C451.566 708.181 449.082 705.84 446.684 703.171C444.3 700.488 442.245 697.761 440.489 695.206C438.776 692.623 437.348 690.211 436.278 688.113C435.707 687.085 435.279 686.114 434.865 685.272C434.451 684.43 434.122 683.702 433.865 683.088C433.337 681.875 433.023 681.219 432.98 681.233V681.247Z" fill="white"/>
<path d="M396.623 685.715C396.623 685.715 397.152 685.044 397.98 683.745C398.793 682.446 400.035 680.605 401.619 678.392C403.204 676.166 405.202 673.582 407.529 670.828C409.884 668.087 412.597 665.175 415.608 662.306C418.649 659.452 421.689 656.897 424.544 654.685C427.428 652.501 430.097 650.645 432.409 649.175C434.708 647.705 436.62 646.563 437.948 645.821C439.275 645.064 440.003 644.622 439.975 644.579C439.946 644.536 439.176 644.893 437.805 645.578C436.421 646.249 434.479 647.319 432.124 648.747C429.769 650.16 427.042 651.987 424.13 654.156C421.233 656.354 418.149 658.909 415.095 661.778C412.054 664.676 409.356 667.63 407.001 670.399C404.688 673.197 402.719 675.823 401.191 678.107C399.65 680.376 398.479 682.275 397.737 683.616C396.98 684.958 396.581 685.7 396.623 685.729V685.715Z" fill="white"/>
<path d="M394.211 618.202C394.297 618.288 395.995 616.846 398.865 614.705C401.748 612.564 405.845 609.781 410.669 607.183C415.494 604.599 420.076 602.701 423.459 601.474C426.828 600.246 428.969 599.632 428.941 599.518C428.941 599.475 428.384 599.575 427.399 599.804C426.414 600.032 425.015 600.432 423.288 600.974C419.848 602.073 415.18 603.914 410.327 606.526C405.474 609.153 401.363 612.022 398.55 614.291C397.137 615.419 396.038 616.375 395.31 617.074C394.568 617.759 394.183 618.159 394.225 618.202H394.211Z" fill="white"/>
<path d="M392.027 573.84C392.084 573.94 393.497 573.127 395.81 571.899C398.122 570.658 401.334 569.016 404.988 567.418C408.643 565.819 412.04 564.563 414.509 563.706C416.979 562.85 418.535 562.35 418.506 562.251C418.478 562.165 416.879 562.479 414.352 563.207C411.826 563.935 408.371 565.119 404.688 566.732C401.006 568.345 397.794 570.087 395.553 571.443C393.298 572.799 391.984 573.769 392.027 573.84Z" fill="white"/>
<path d="M364.406 541.64C364.463 541.74 366.262 540.898 369.245 539.67C372.214 538.443 376.397 536.901 381.121 535.588C385.846 534.275 390.214 533.461 393.397 532.976C396.581 532.491 398.565 532.277 398.551 532.162C398.551 532.105 398.051 532.105 397.137 532.148C396.238 532.177 394.925 532.277 393.326 532.462C390.114 532.819 385.689 533.561 380.922 534.889C376.154 536.216 371.986 537.843 369.045 539.199C367.575 539.87 366.404 540.455 365.619 540.898C364.82 541.34 364.406 541.597 364.42 541.64H364.406Z" fill="white"/>
<path d="M299.928 699.46C299.928 699.46 300.671 699.617 302.027 699.745C303.383 699.888 305.338 700.031 307.765 700.159C312.618 700.43 319.327 700.545 326.736 700.202C334.144 699.845 340.825 699.103 345.635 698.375C348.033 698.018 349.975 697.69 351.302 697.419C352.63 697.162 353.372 696.991 353.358 696.933C353.358 696.876 352.601 696.962 351.259 697.133C349.775 697.319 347.862 697.562 345.564 697.861C340.753 698.446 334.087 699.117 326.707 699.46C319.327 699.802 312.633 699.774 307.779 699.631C305.467 699.56 303.54 699.503 302.041 699.446C300.685 699.403 299.928 699.403 299.928 699.446V699.46Z" fill="white"/>
<path d="M163.222 758.252C163.222 758.252 163.351 758.323 163.622 758.409C163.936 758.508 164.336 758.651 164.835 758.808C165.949 759.165 167.519 759.665 169.517 760.293C171.544 760.935 174.042 761.706 176.954 762.505C179.866 763.319 183.178 764.303 186.875 765.203C190.572 766.159 194.612 767.172 198.994 768.129C203.362 769.171 208.058 770.07 212.997 771.055C222.904 772.91 233.852 774.637 245.415 775.95C256.977 777.221 268.054 777.934 278.117 778.32C283.156 778.448 287.938 778.591 292.42 778.548C296.902 778.591 301.071 778.477 304.882 778.363C308.693 778.306 312.133 778.063 315.159 777.92C318.186 777.792 320.784 777.592 322.91 777.406C324.995 777.235 326.636 777.092 327.792 776.992C328.321 776.935 328.734 776.892 329.063 776.864C329.348 776.835 329.491 776.807 329.491 776.793C329.491 776.793 329.348 776.778 329.049 776.793C328.72 776.793 328.306 776.821 327.778 776.85C326.608 776.921 324.966 777.007 322.882 777.121C320.755 777.264 318.157 777.421 315.131 777.506C312.105 777.62 308.665 777.806 304.868 777.835C301.056 777.92 296.888 777.992 292.42 777.92C287.938 777.949 283.17 777.763 278.132 777.62C268.082 777.206 257.034 776.464 245.486 775.194C233.952 773.881 223.018 772.168 213.112 770.37C208.173 769.399 203.476 768.514 199.108 767.515C194.726 766.587 190.686 765.602 186.989 764.675C183.278 763.804 179.966 762.862 177.04 762.091C174.114 761.335 171.616 760.607 169.574 760.007C167.562 759.436 165.992 758.979 164.864 758.651C164.35 758.508 163.95 758.409 163.636 758.323C163.351 758.252 163.208 758.223 163.208 758.237L163.222 758.252Z" fill="white"/>
<path d="M178.31 720.313C178.296 720.513 192.713 722.197 210.528 724.067C228.342 725.937 242.802 727.293 242.816 727.093C242.845 726.893 228.413 725.209 210.599 723.339C192.784 721.469 178.324 720.113 178.31 720.313Z" fill="white"/>
<path d="M200.564 678.821C200.507 679.02 207.759 681.061 216.752 683.374C225.744 685.686 233.081 687.399 233.124 687.199C233.181 686.999 225.93 684.958 216.937 682.646C207.944 680.334 200.607 678.621 200.564 678.821Z" fill="white"/>
<path d="M205.003 641.039C204.961 641.239 209.557 642.566 215.295 643.994C221.034 645.421 225.716 646.435 225.773 646.235C225.83 646.035 221.219 644.707 215.481 643.28C209.742 641.853 205.06 640.839 205.003 641.039Z" fill="white"/>
<g opacity="0.3">
<path d="M334.244 770.355C316.515 773.909 300.314 779.904 282.328 777.92C264.356 775.936 246.157 767.486 236.878 751.971C229.984 740.438 228.727 726.522 227.643 713.134C225.259 684.03 222.889 654.941 220.505 625.838L257.262 727.778L274.891 754.669L334.23 770.341L334.244 770.355Z" fill="black"/>
</g>
<path d="M401.777 732.545L299.886 715.146C299.886 715.146 278.588 586.23 277.989 583.946C277.389 581.648 270.266 541.512 250.068 538.072C229.869 534.632 211.455 542.653 210.271 562.151C209.314 577.751 231.954 689.74 246.214 741.595C250.311 756.51 266.669 769.713 282.642 770.013C324.309 770.798 401.363 770.013 401.363 770.013L401.777 732.545Z" fill="#9A429E"/>
<path d="M277.989 583.932C278.388 586.401 286.496 635.672 299.586 715.189L299.614 715.403L299.828 715.446C329.848 720.599 364.42 726.508 401.705 732.902L401.405 732.545C401.277 744.478 401.134 757.124 400.977 770.013L401.348 769.642C389.015 769.727 375.983 769.813 362.779 769.913C341.21 770.013 320.141 770.041 299.8 769.87C294.718 769.813 289.679 769.742 284.683 769.684C279.716 769.713 274.82 768.899 270.352 766.973C261.43 763.219 253.879 756.582 249.411 748.46L248.583 746.933L247.898 745.348C247.398 744.307 247.084 743.207 246.728 742.123C246.071 739.925 245.529 737.698 244.929 735.5C243.73 731.104 242.659 726.75 241.575 722.454C239.433 713.862 237.449 705.497 235.579 697.404C231.839 681.204 228.571 666.075 225.659 652.244C219.92 624.568 215.652 602.087 213.154 586.487C212.526 582.59 211.969 579.122 211.584 576.096C211.384 574.597 211.184 573.198 211.013 571.928C210.884 570.658 210.756 569.501 210.656 568.459C210.385 566.39 210.371 564.806 210.342 563.749C210.299 562.679 210.271 562.136 210.271 562.136C210.271 562.136 210.271 562.679 210.271 563.749C210.271 564.82 210.271 566.404 210.513 568.474C210.613 569.516 210.713 570.672 210.842 571.956C210.999 573.227 211.184 574.626 211.37 576.139C211.741 579.164 212.269 582.633 212.869 586.544C215.281 602.173 219.463 624.668 225.145 652.372C228.014 666.217 231.268 681.361 234.98 697.561C236.835 705.669 238.805 714.033 240.946 722.625C242.031 726.922 243.088 731.289 244.287 735.685C244.886 737.884 245.414 740.11 246.085 742.337C246.456 743.436 246.77 744.578 247.284 745.634L247.984 747.247L248.826 748.803C253.365 757.081 261.002 763.804 270.095 767.643C274.62 769.613 279.687 770.455 284.683 770.427C289.679 770.498 294.718 770.555 299.8 770.626C320.141 770.798 341.21 770.783 362.793 770.684C376.011 770.584 389.029 770.498 401.363 770.412H401.719V770.041C401.862 757.152 401.991 744.506 402.119 732.574V732.26L401.819 732.203C364.52 725.851 329.948 719.971 299.914 714.861L300.157 715.118C293.491 675.295 288.009 642.509 284.184 619.644C282.228 608.239 280.715 599.318 279.673 593.224C279.131 590.198 278.717 587.885 278.445 586.301C278.16 584.745 277.974 583.946 277.974 583.946L277.989 583.932Z" fill="#263238"/>
<path d="M225.03 634.459C225.03 634.459 225.873 634.431 227.386 634.231C229.027 634.031 231.183 633.76 233.795 633.432C239.205 632.775 246.699 632.033 254.993 631.576C263.286 631.134 270.823 631.091 276.261 631.148C278.888 631.191 281.058 631.233 282.713 631.262C284.241 631.291 285.083 631.291 285.083 631.233C285.083 631.176 284.241 631.091 282.728 630.977C281.2 630.848 279.002 630.734 276.276 630.634C270.823 630.434 263.272 630.391 254.95 630.834C246.628 631.276 239.134 632.118 233.724 632.903C231.026 633.289 228.842 633.646 227.343 633.931C225.844 634.217 225.016 634.388 225.03 634.445V634.459Z" fill="white"/>
<path d="M214.753 580.635C214.753 580.635 215.581 580.52 217.051 580.192C218.507 579.85 220.648 579.407 223.289 578.922C228.571 577.951 235.95 577.052 244.144 577.052C252.337 577.081 259.717 577.994 264.985 578.979C267.625 579.464 269.752 579.921 271.208 580.264C272.679 580.606 273.492 580.763 273.506 580.72C273.506 580.677 272.736 580.406 271.28 579.992C269.838 579.55 267.725 579.022 265.085 578.465C259.817 577.352 252.38 576.324 244.144 576.31C235.893 576.31 228.471 577.295 223.189 578.408C220.548 578.95 218.421 579.478 216.98 579.907C215.538 580.321 214.739 580.578 214.753 580.635Z" fill="white"/>
<path d="M238.82 700.188C238.82 700.188 239.533 699.774 240.747 698.932C241.346 698.503 242.088 697.975 242.988 697.433C243.873 696.876 244.858 696.191 246.014 695.563C248.283 694.207 251.081 692.794 254.279 691.41C257.491 690.082 261.116 688.812 265.013 687.813C268.924 686.856 272.707 686.286 276.176 685.957C279.644 685.672 282.799 685.615 285.426 685.743C286.739 685.743 287.938 685.9 288.98 685.972C290.022 686.043 290.921 686.143 291.649 686.243C293.12 686.428 293.933 686.5 293.947 686.457C293.947 686.4 293.162 686.228 291.692 685.957C290.964 685.814 290.065 685.657 289.023 685.558C287.981 685.443 286.782 685.258 285.454 685.215C282.799 685.015 279.63 685.029 276.119 685.272C272.607 685.572 268.782 686.129 264.828 687.099C260.888 688.098 257.234 689.397 254.008 690.782C250.796 692.209 247.984 693.693 245.743 695.106C244.586 695.763 243.616 696.491 242.745 697.076C241.86 697.661 241.146 698.218 240.575 698.689C239.419 699.617 238.791 700.145 238.82 700.188Z" fill="white"/>
<path d="M262.501 760.992C262.501 760.992 262.972 760.321 263.714 759.037C264.442 757.752 265.527 755.911 266.912 753.656C269.667 749.145 273.692 743.036 278.674 736.699C283.67 730.361 288.637 725.009 292.377 721.269C294.247 719.4 295.774 717.915 296.859 716.887C297.93 715.86 298.501 715.289 298.472 715.246C298.444 715.203 297.801 715.717 296.66 716.673C295.518 717.63 293.933 719.057 292.006 720.884C288.166 724.538 283.099 729.862 278.088 736.228C273.092 742.594 269.11 748.774 266.469 753.37C265.142 755.668 264.128 757.552 263.471 758.894C262.815 760.221 262.458 760.963 262.515 760.992H262.501Z" fill="white"/>
<path d="M349.575 770.07C349.575 770.07 349.675 769.456 349.703 768.343C349.732 767.072 349.789 765.502 349.832 763.633C349.946 759.65 350.16 754.169 350.603 748.117C351.059 742.066 351.659 736.599 352.13 732.659C352.358 730.804 352.544 729.234 352.701 727.978C352.83 726.879 352.872 726.251 352.83 726.251C352.772 726.251 352.63 726.836 352.416 727.935C352.201 729.034 351.916 730.618 351.616 732.588C351.002 736.528 350.317 741.994 349.86 748.06C349.404 754.127 349.275 759.636 349.304 763.618C349.304 765.617 349.347 767.229 349.404 768.343C349.461 769.456 349.518 770.07 349.561 770.07H349.575Z" fill="white"/>
<path d="M216.865 543.995C216.865 544.195 227.343 543.795 240.233 543.082C253.137 542.368 263.571 541.64 263.557 541.426C263.557 541.226 253.08 541.626 240.19 542.339C227.3 543.039 216.851 543.781 216.865 543.995Z" fill="white"/>
<g opacity="0.3">
<path d="M299.886 715.132C311.162 709.494 321.911 702.586 330.404 693.265C326.051 693.265 321.94 695.092 317.743 696.234C313.546 697.376 308.679 697.733 305.181 695.149C302.74 693.351 301.399 690.439 300.171 687.656C296.916 680.305 293.947 672.897 291.492 664.49C293.933 680.676 296.617 699.032 299.871 715.132" fill="black"/>
</g>
<g opacity="0.3">
<path d="M447.369 660.95C435.379 668.558 424.944 678.607 416.893 690.311C416.365 691.081 415.837 692.109 416.365 692.88C417.007 693.822 418.549 693.522 419.448 692.837C428.955 685.715 439.975 671.27 447.369 660.95Z" fill="black"/>
</g>
<path d="M270.038 432.149L298.572 380.266L328.377 383.535C330.504 406.657 309.021 426.54 309.464 449.748C309.649 459.312 313.618 468.718 312.361 478.209C311.177 487.159 305.467 495.009 304.196 503.944C302.698 514.506 307.565 524.783 311.405 534.746C315.245 544.709 318.043 556.356 312.847 565.676C301.798 570.658 297.231 570.929 286.767 573.084C278.788 565.633 275.833 548.934 264.128 537.287C264.128 537.287 249.354 519.188 236.65 524.797C236.65 524.797 222.047 516.519 252.951 473.214C260.017 463.308 266.255 445.01 270.038 432.149Z" fill="#263238"/>
<path d="M507.464 736.328L486.096 720.37C483.969 718.843 481.356 718.129 478.744 718.343L461.615 719.785L421.589 737.127L402.076 734.515L401.776 768.514C401.776 768.514 419.12 769.456 425.986 768.314C432.852 767.172 442.373 761.078 442.373 761.078C442.373 761.078 440.089 764.503 441.231 767.172C442.373 769.841 451.523 774.038 451.523 774.038C451.523 774.038 458.003 776.322 459.145 771.754C459.145 771.754 470.579 773.281 471.721 764.132C471.721 764.132 489.193 761.163 486.709 753.127C484.868 747.147 482.969 742.794 482.969 742.794L477.816 731.361L483.612 730.361C483.612 730.361 494.089 738.183 498.657 738.94C503.225 739.696 507.45 736.356 507.45 736.356L507.464 736.328Z" fill="#FFCDB3"/>
<path d="M464.256 737.684C464.184 737.812 465.854 738.64 467.967 740.681C470.037 742.694 472.563 746.105 473.434 750.458C473.791 752.628 473.591 754.783 473.334 756.696C473.049 758.623 472.663 760.335 472.321 761.777C471.621 764.646 471.136 766.43 471.236 766.459C471.279 766.473 471.464 766.045 471.75 765.274C472.035 764.489 472.406 763.347 472.82 761.92C473.234 760.492 473.677 758.765 473.991 756.81C474.291 754.854 474.519 752.656 474.148 750.344C473.22 745.734 470.522 742.28 468.31 740.296C467.182 739.297 466.168 738.626 465.426 738.226C464.698 737.812 464.256 737.655 464.241 737.698L464.256 737.684Z" fill="#EB996E"/>
<path d="M455.006 747.247C455.006 747.247 455.448 747.233 456.219 747.275C456.976 747.332 458.089 747.589 459.217 748.346C460.345 749.074 461.515 750.301 462.214 751.943C462.914 753.598 463.128 755.625 462.914 757.709C462.714 759.807 462.157 761.748 461.658 763.547C461.172 765.331 460.701 766.944 460.259 768.271C459.388 770.926 458.646 772.496 458.746 772.553C458.789 772.568 459.031 772.211 459.402 771.511C459.774 770.812 460.259 769.77 460.758 768.457C461.272 767.144 461.786 765.531 462.314 763.747C462.843 761.977 463.442 759.964 463.642 757.795C463.856 755.625 463.613 753.456 462.828 751.686C462.029 749.916 460.73 748.646 459.474 747.918C458.218 747.175 457.004 746.976 456.205 747.004C455.391 747.047 454.977 747.233 454.992 747.261L455.006 747.247Z" fill="#EB996E"/>
<path d="M448.211 761.534C448.283 761.492 448.154 761.078 447.64 760.635C447.155 760.193 446.313 759.75 445.313 759.622C444.314 759.479 443.329 759.707 442.787 760.178C442.244 760.635 442.187 761.092 442.259 761.12C442.359 761.178 442.587 760.864 443.087 760.621C443.572 760.364 444.357 760.25 445.214 760.364C447.012 760.578 448.068 761.649 448.211 761.549V761.534Z" fill="#EB996E"/>
<path d="M447.155 754.683C447.084 754.626 446.741 754.912 446.513 755.54C446.284 756.153 446.141 757.067 446.213 758.066C446.284 759.065 446.584 759.964 446.998 760.507C447.398 761.063 447.826 761.22 447.869 761.149C447.94 761.049 447.683 760.778 447.455 760.25C447.212 759.722 447.026 758.922 446.955 758.009C446.884 757.095 446.941 756.268 447.026 755.682C447.112 755.097 447.255 754.755 447.169 754.683H447.155Z" fill="#EB996E"/>
<path d="M486.724 753.113C486.724 753.113 486.624 752.599 486.31 751.729C485.996 750.858 485.525 749.588 484.939 748.046C483.755 744.949 482.056 740.681 480.143 735.999C479.458 734.315 478.787 732.702 478.173 731.189L478.145 731.132L478.102 731.089C476.774 729.619 475.147 728.649 473.591 728.149C472.035 727.621 470.579 727.521 469.394 727.592C468.21 727.678 467.282 727.935 466.682 728.163C466.083 728.406 465.783 728.592 465.797 728.62C465.84 728.749 467.111 728.078 469.409 728.035C471.636 727.964 475.09 728.749 477.559 731.546L477.502 731.446C478.116 732.959 478.773 734.586 479.444 736.271C481.356 740.967 483.126 745.191 484.44 748.246C485.096 749.773 485.639 751.001 486.038 751.843C486.424 752.685 486.667 753.142 486.709 753.127L486.724 753.113Z" fill="#EB996E"/>
<path d="M673.291 625.895L602.475 784.343H437.52C438.833 777.749 444.586 772.996 451.295 772.939L592.997 771.911L661.201 620.471C662.685 617.188 666.511 615.69 669.822 617.103C673.234 618.544 674.79 622.512 673.277 625.895H673.291Z" fill="#E0E0E0"/>
<path d="M673.291 625.895C673.291 625.895 673.434 625.638 673.619 625.082C673.805 624.539 673.99 623.654 673.89 622.512C673.776 621.385 673.348 619.929 672.178 618.659C671.05 617.403 669.137 616.361 666.882 616.489C664.655 616.56 662.143 617.988 661.043 620.557C659.93 623.026 658.702 625.71 657.389 628.621C654.748 634.445 651.737 641.11 648.353 648.59C634.85 678.492 615.622 721.069 592.726 771.783L593.026 771.583C569.887 771.74 544.964 771.911 518.742 772.097C505.638 772.196 492.205 772.282 478.502 772.382C471.65 772.425 464.741 772.482 457.775 772.525C456.034 772.525 454.292 772.553 452.537 772.568C450.81 772.539 448.94 772.653 447.227 773.21C443.772 774.252 440.718 776.621 438.89 779.761C438.405 780.632 437.963 781.517 437.663 782.473C437.491 782.944 437.377 783.43 437.263 783.901L437.177 784.257C437.905 785.157 437.406 784.5 437.577 784.7H438.619C440.546 784.7 442.473 784.7 444.4 784.7C448.254 784.7 452.08 784.7 455.891 784.7C463.514 784.7 471.079 784.7 478.559 784.7C493.519 784.7 508.15 784.7 522.396 784.7C550.888 784.7 577.781 784.671 602.49 784.657H602.704L602.789 784.471C623.958 736.97 641.616 697.347 653.992 669.571C660.158 655.698 664.997 644.779 668.309 637.328C669.951 633.617 671.207 630.762 672.063 628.821C672.477 627.865 672.791 627.137 673.02 626.637C673.234 626.152 673.319 625.895 673.319 625.895C673.319 625.895 673.191 626.138 672.963 626.623C672.734 627.123 672.406 627.836 671.963 628.793C671.093 630.72 669.808 633.56 668.124 637.257C664.783 644.693 659.873 655.584 653.649 669.429C641.216 697.162 623.473 736.756 602.204 784.215L602.504 784.029C577.795 784.029 550.888 784 522.41 783.986C508.164 783.986 493.533 783.986 478.573 783.986C471.094 783.986 463.542 783.986 455.906 783.986C452.094 783.986 448.254 783.986 444.415 783.986C442.488 783.986 440.56 783.986 438.633 783.986H437.591C437.734 784.186 437.192 783.544 437.92 784.429L438.005 784.086C438.12 783.629 438.219 783.173 438.391 782.73C438.662 781.831 439.09 780.974 439.547 780.161C441.274 777.178 444.186 774.923 447.455 773.938C449.111 773.41 450.781 773.31 452.551 773.324C454.307 773.324 456.048 773.295 457.79 773.281C464.756 773.224 471.679 773.181 478.516 773.124C492.205 773.024 505.638 772.924 518.756 772.824C544.978 772.625 569.901 772.425 593.04 772.254H593.254L593.34 772.054C616.136 721.298 635.278 678.692 648.725 648.761C652.079 641.282 655.077 634.588 657.689 628.764C658.988 625.852 660.201 623.155 661.3 620.685C662.342 618.188 664.769 616.803 666.925 616.717C669.123 616.575 670.978 617.574 672.092 618.787C673.234 620.015 673.676 621.428 673.805 622.541C673.933 623.668 673.762 624.539 673.591 625.082C673.434 625.638 673.305 625.909 673.319 625.909L673.291 625.895Z" fill="#263238"/>
<path d="M593.011 771.911C592.826 772.039 594.796 774.837 597.636 777.877C600.477 780.917 602.661 783.458 602.804 783.344C602.989 783.215 601.019 780.418 598.179 777.378C595.338 774.337 593.154 771.797 593.011 771.911Z" fill="#263238"/>
<path d="M585.36 776.55C585.36 776.55 585.203 776.407 584.861 776.407C584.518 776.407 584.018 776.536 583.547 776.935C583.105 777.335 582.634 778.02 582.719 778.919C582.791 779.833 583.619 780.618 584.575 780.789C585.517 781.003 586.602 780.603 587.016 779.804C587.444 779.019 587.301 778.205 587.045 777.663C586.773 777.106 586.359 776.778 586.045 776.664C585.731 776.536 585.531 776.564 585.531 776.607C585.489 776.721 586.217 776.907 586.559 777.877C586.716 778.334 586.745 778.976 586.431 779.462C586.131 779.961 585.432 780.218 584.732 780.075C584.033 779.933 583.476 779.419 583.405 778.848C583.305 778.263 583.59 777.692 583.918 777.335C584.604 776.578 585.36 776.693 585.36 776.578V776.55Z" fill="#263238"/>
<path d="M577.795 776.55C577.795 776.55 577.638 776.407 577.295 776.407C576.953 776.407 576.453 776.536 575.982 776.935C575.54 777.335 575.069 778.02 575.154 778.919C575.226 779.833 576.053 780.618 577.01 780.789C577.952 781.003 579.023 780.603 579.451 779.804C579.879 779.019 579.736 778.205 579.479 777.663C579.208 777.106 578.794 776.778 578.48 776.664C578.166 776.536 577.966 776.564 577.966 776.607C577.923 776.721 578.651 776.907 578.994 777.877C579.151 778.334 579.18 778.976 578.866 779.462C578.566 779.961 577.866 780.218 577.167 780.075C576.467 779.933 575.911 779.419 575.839 778.848C575.739 778.263 576.025 777.692 576.353 777.335C577.038 776.578 577.795 776.693 577.795 776.578V776.55Z" fill="#263238"/>
<path d="M137 783.315H788.186V801H137V783.315Z" fill="#263238"/>
</g>
</g>
<defs>
<linearGradient id="paint0_linear_15_203" x1="836" y1="707" x2="-112.5" y2="45" gradientUnits="userSpaceOnUse">
<stop stop-color="#FF9E41" stop-opacity="0.1"/>
<stop offset="0.369483" stop-color="#FF993B" stop-opacity="0.2"/>
<stop offset="0.843914" stop-color="#FF9900" stop-opacity="0.5"/>
</linearGradient>
<clipPath id="clip0_15_203">
<rect width="896" height="801" fill="white"/>
</clipPath>
<clipPath id="clip1_15_203">
<rect width="670" height="624" fill="white" transform="matrix(-1 0 0 1 807 177)"/>
</clipPath>
</defs>
</svg>
