<svg width="242" height="241" viewBox="0 0 242 241" fill="none" xmlns="http://www.w3.org/2000/svg">
<path fill-rule="evenodd" clip-rule="evenodd" d="M183.074 182.568H204.98V204.474H183.074V182.568ZM212.284 182.568H219.588V197.176H212.284V182.568ZM190.378 160.663H212.284V175.27H204.98V167.966H190.372V160.663H190.378ZM226.892 153.359H219.588V146.055H226.892V153.359ZM204.986 138.751V146.055H212.29V153.359H190.385V160.663H183.081V167.966H175.777V182.574H161.169V189.878H168.473V204.486H175.777V211.79H183.081V219.094H190.385V211.79H197.689V241H204.992V233.696H212.296V241H234.202V233.696H226.898V226.392H219.594V204.486H226.898V189.878H241.506V175.27H226.898V167.966H234.202V160.663H226.898V153.359H241.506V146.055H234.202V138.751H226.898V124.143H212.29V138.751H204.986Z" fill="#263238"/>
<path fill-rule="evenodd" clip-rule="evenodd" d="M66.2296 167.96V175.264H58.9256V167.96H66.2296ZM80.8375 146.054H88.1415V167.96H80.8375V146.054ZM66.2296 167.96V153.352H73.5336V167.96H66.2296ZM110.047 153.352H117.351V160.656H110.047V153.352ZM102.743 146.048V153.352H95.4393V146.048H102.743ZM102.743 146.048V138.744H117.351V146.048H102.743ZM139.257 138.744H124.649V131.44H139.257V138.744ZM102.743 124.136V131.44H95.4393V124.136H88.1353V138.744H80.8314V146.048H66.2234V153.352H58.9195V160.656H44.3115V167.96H51.6155V175.264H44.3115V182.568H58.9195V189.872H73.5274V175.264H95.4331V160.656H102.737V175.264H110.041V167.96H131.947V160.656H139.251V153.352H124.643V146.048H139.251V138.744H146.555V102.23H139.251V116.838H124.643V124.142H102.737L102.743 124.136Z" fill="#263238"/>
<path fill-rule="evenodd" clip-rule="evenodd" d="M197.677 124.143H190.373V109.535H197.677V124.143ZM212.285 73.0274H219.588V80.3314H212.285V73.0274ZM197.677 80.3314V87.6353H190.373V94.9393H197.677V102.243H183.069V116.851H175.765V109.547H168.461V116.851H161.157V131.459H168.461V138.763H161.157V153.371H168.461V146.067H175.765V131.459H190.373V138.763H204.981V131.459H197.677V124.155H212.285V116.851H226.892V109.547H204.987V87.6415H226.892V80.3376H234.196V73.0336H241.5V65.7296H234.196V58.4257H212.291V65.7296H204.987V80.3376H197.683L197.677 80.3314Z" fill="#263238"/>
<path fill-rule="evenodd" clip-rule="evenodd" d="M95.4394 43.8175H102.743V58.4193H95.4394V65.7232H110.047V80.3312H102.743V87.6289H95.4394V73.0272H88.1354V65.7232H80.8376V94.9329H88.1354V102.237H95.4394V109.541H110.047V94.9329H117.351V102.237H131.953V94.9329H139.257V87.6289H117.351V80.3312H124.649V73.0272H117.351V58.4193H110.047V36.5136H102.743V29.2096H88.1354V36.5136H95.4394V43.8175Z" fill="#263238"/>
<path fill-rule="evenodd" clip-rule="evenodd" d="M15.1145 153.359H22.4185V160.662H15.1145V153.359ZM7.81055 138.751H15.1145V153.359H7.81055V175.264H29.7163V182.568H37.0202V175.264H44.3242V167.96H29.7163V153.352H37.0202V146.048H44.3242V138.744H51.6282V146.048H58.9321V138.744H66.2361V124.136H58.9321V131.44H37.0264V138.744H22.4185V131.44H7.81055V138.744V138.751Z" fill="#263238"/>
<path fill-rule="evenodd" clip-rule="evenodd" d="M7.81056 7.30412H44.3242V43.8178H7.81056V7.30412ZM0.506592 51.1217H51.622V0.00634766H0.506592V51.1217Z" fill="#263238"/>
<path fill-rule="evenodd" clip-rule="evenodd" d="M7.81007 197.17H44.3237V233.684H7.81007V197.17ZM0.506104 240.988H51.6215V189.872H0.506104V240.988Z" fill="#263238"/>
<path fill-rule="evenodd" clip-rule="evenodd" d="M197.677 7.30388H234.19V43.8175H197.677V7.30388ZM190.373 51.1215H241.488V0.00610352H190.373V51.1215Z" fill="#263238"/>
<path fill-rule="evenodd" clip-rule="evenodd" d="M44.3239 80.3312H51.6278V87.6352H44.3239V80.3312ZM7.81024 80.3312V73.0272H15.1142V80.3312H7.81024ZM7.81024 80.3312V87.6352H29.716V80.3312H37.0199V94.9391H58.9256V87.6352H66.2296V80.3312H58.9256V73.0272H44.3177V65.7233H29.7098V73.0272H22.4058V65.7233H7.79786V58.4193H0.493896V80.325H7.79786L7.81024 80.3312Z" fill="#263238"/>
<path fill-rule="evenodd" clip-rule="evenodd" d="M161.162 65.7233H168.466V58.4193H175.77V51.1154H168.466V36.5136H175.77V21.9057H161.162V14.6079H153.865V29.2097H161.162V36.5136H146.561V51.1154H153.865V43.8176H161.162V65.7233Z" fill="#263238"/>
<path fill-rule="evenodd" clip-rule="evenodd" d="M66.2299 43.8179H73.5341V58.4262H66.2299V43.8179ZM58.9258 73.0283H73.5341V65.7242H80.8382V58.42H88.1424V51.1159H80.8382V36.5076H66.2299V43.8117H58.9258V73.0221V73.0283Z" fill="#263238"/>
<path fill-rule="evenodd" clip-rule="evenodd" d="M175.77 87.6291V94.933H168.466V87.6291H175.77ZM153.865 102.237V109.541H168.472V102.237H183.08V87.6291H175.776V80.3251H168.472V73.0211H161.168V65.7172H153.865V80.3251H161.168V102.231H153.865V102.237Z" fill="#263238"/>
<path fill-rule="evenodd" clip-rule="evenodd" d="M88.1355 189.866H95.4396V197.17H117.352V204.475H124.65V182.568H117.352V175.264H110.048V189.866H102.744V175.264H95.4396V182.568H88.1355V189.866Z" fill="#263238"/>
<path fill-rule="evenodd" clip-rule="evenodd" d="M22.4124 109.541V116.846H15.1144V109.541H7.81025V102.237H15.1144V94.9331H0.506104V116.846H7.81025V124.144H29.7165V109.541H22.4124Z" fill="#263238"/>
<path fill-rule="evenodd" clip-rule="evenodd" d="M15.1143 226.38H37.0205V204.474H15.1143V226.38Z" fill="#263238"/>
<path fill-rule="evenodd" clip-rule="evenodd" d="M15.1143 36.5142H37.0205V14.6079H15.1143V36.5142Z" fill="#263238"/>
<path fill-rule="evenodd" clip-rule="evenodd" d="M204.98 36.5142H226.886V14.6079H204.98V36.5142Z" fill="#263238"/>
<path fill-rule="evenodd" clip-rule="evenodd" d="M161.163 226.38V240.988H183.075V233.684H190.373V226.38H183.075V219.082H175.771V226.38H161.163Z" fill="#263238"/>
<path fill-rule="evenodd" clip-rule="evenodd" d="M88.1356 21.9063H102.744V14.6083H110.048V7.30415H95.4398V0H88.1356V7.30415H80.8376V14.6083H88.1356V21.9063Z" fill="#263238"/>
<path fill-rule="evenodd" clip-rule="evenodd" d="M102.743 226.38V233.684H95.4392V240.988H110.048V233.684H124.65V211.778H117.352V226.38H102.743Z" fill="#263238"/>
<path fill-rule="evenodd" clip-rule="evenodd" d="M161.163 226.38V219.082H153.865V211.778H146.561V226.38H139.257V240.988H146.561V233.684H153.865V226.38H161.163Z" fill="#263238"/>
<path fill-rule="evenodd" clip-rule="evenodd" d="M168.467 160.657H153.865V138.751H146.561V167.961H168.467V160.657Z" fill="#263238"/>
<path fill-rule="evenodd" clip-rule="evenodd" d="M66.2295 124.143H73.5336V138.751H80.8378V124.143H88.1358V116.845H80.8378V109.541H73.5336V116.845H66.2295V124.143Z" fill="#263238"/>
<path fill-rule="evenodd" clip-rule="evenodd" d="M226.886 204.474V226.38H241.494V211.778H234.19V204.474H226.886Z" fill="#263238"/>
<path fill-rule="evenodd" clip-rule="evenodd" d="M226.886 109.542H234.19V102.237H241.494V94.9333H234.19V87.6292H226.886V94.9333H219.588V102.237H226.886V109.542Z" fill="#263238"/>
<path fill-rule="evenodd" clip-rule="evenodd" d="M117.351 36.5137V51.1159H124.649V43.8179H131.953V36.5137H139.257V29.2096H124.649V36.5137H117.351Z" fill="#263238"/>
<path fill-rule="evenodd" clip-rule="evenodd" d="M139.257 189.866H153.865V175.264H139.257V189.866Z" fill="#263238"/>
<path fill-rule="evenodd" clip-rule="evenodd" d="M146.561 102.238H153.865V80.3314H139.257V87.6294H146.561V102.238Z" fill="#263238"/>
<path fill-rule="evenodd" clip-rule="evenodd" d="M58.9258 29.2101H73.5341V21.9059H66.2299V7.30383H58.9258V29.2101Z" fill="#263238"/>
<path fill-rule="evenodd" clip-rule="evenodd" d="M58.9263 124.143V109.541H51.6221V116.845H37.02V124.143H58.9263Z" fill="#263238"/>
<path fill-rule="evenodd" clip-rule="evenodd" d="M146.561 14.608H131.953V7.30383H124.649V21.9059H146.561V14.608Z" fill="#263238"/>
<path fill-rule="evenodd" clip-rule="evenodd" d="M117.352 36.5142V14.6079H110.047V36.5142H117.352Z" fill="#263238"/>
<path fill-rule="evenodd" clip-rule="evenodd" d="M161.162 14.6083H168.467V0H153.865V7.30415H161.162V14.6083Z" fill="#263238"/>
<path fill-rule="evenodd" clip-rule="evenodd" d="M139.257 80.3317V73.0275H146.561V65.7234H131.953V80.3317H139.257Z" fill="#263238"/>
<path fill-rule="evenodd" clip-rule="evenodd" d="M88.1356 219.082H73.5334V226.38H80.8376V233.684H88.1356V219.082Z" fill="#263238"/>
<path fill-rule="evenodd" clip-rule="evenodd" d="M80.8376 204.474V197.17H88.1356V189.866H73.5334V204.474H80.8376Z" fill="#263238"/>
<path fill-rule="evenodd" clip-rule="evenodd" d="M190.373 153.359V146.055H175.771V153.359H190.373Z" fill="#263238"/>
<path fill-rule="evenodd" clip-rule="evenodd" d="M66.2295 87.6292V102.237H73.5336V87.6292H66.2295Z" fill="#263238"/>
<path fill-rule="evenodd" clip-rule="evenodd" d="M153.865 204.474V197.17H139.257V204.474H153.865Z" fill="#263238"/>
<path fill-rule="evenodd" clip-rule="evenodd" d="M234.19 109.541V124.143H241.494V109.541H234.19Z" fill="#263238"/>
<path fill-rule="evenodd" clip-rule="evenodd" d="M183.074 65.7235H197.677V58.4193H183.074V65.7235Z" fill="#263238"/>
<path fill-rule="evenodd" clip-rule="evenodd" d="M175.771 36.5137V51.1158H183.075V36.5137H175.771Z" fill="#263238"/>
<path fill-rule="evenodd" clip-rule="evenodd" d="M51.6221 109.541V102.237H37.02V109.541H51.6221Z" fill="#263238"/>
<path fill-rule="evenodd" clip-rule="evenodd" d="M95.4396 116.845V109.541H88.1355V116.845H95.4396Z" fill="#263238"/>
<path fill-rule="evenodd" clip-rule="evenodd" d="M95.4396 197.17H88.1355V204.474H95.4396V197.17Z" fill="#263238"/>
<path fill-rule="evenodd" clip-rule="evenodd" d="M131.953 65.7235V58.4193H124.649V65.7235H131.953Z" fill="#263238"/>
<path fill-rule="evenodd" clip-rule="evenodd" d="M88.1356 211.778V204.474H80.8376V211.778H88.1356Z" fill="#263238"/>
<path fill-rule="evenodd" clip-rule="evenodd" d="M117.352 211.778V204.474H110.047V211.778H117.352Z" fill="#263238"/>
<path fill-rule="evenodd" clip-rule="evenodd" d="M7.81025 138.751H0.506104V146.055H7.81025V138.751Z" fill="#263238"/>
<path fill-rule="evenodd" clip-rule="evenodd" d="M153.865 204.474V211.778H161.162V204.474H153.865Z" fill="#263238"/>
<path fill-rule="evenodd" clip-rule="evenodd" d="M73.5336 219.082V211.778H66.2295V219.082H73.5336Z" fill="#263238"/>
<path fill-rule="evenodd" clip-rule="evenodd" d="M175.771 219.082V211.778H168.467V219.082H175.771Z" fill="#263238"/>
<path fill-rule="evenodd" clip-rule="evenodd" d="M37.02 102.237V94.9331H29.7158V102.237H37.02Z" fill="#263238"/>
<path fill-rule="evenodd" clip-rule="evenodd" d="M88.1356 29.2099V21.9058H80.8376V29.2099H88.1356Z" fill="#263238"/>
<path fill-rule="evenodd" clip-rule="evenodd" d="M153.865 14.608V7.30383H146.561V14.608H153.865Z" fill="#263238"/>
<path fill-rule="evenodd" clip-rule="evenodd" d="M175.771 153.358H168.467V160.656H175.771V153.358Z" fill="#263238"/>
<path fill-rule="evenodd" clip-rule="evenodd" d="M234.19 80.3314V87.6294H241.494V80.3314H234.19Z" fill="#263238"/>
<path fill-rule="evenodd" clip-rule="evenodd" d="M124.649 7.30415V0H117.351V7.30415H124.649Z" fill="#263238"/>
<path fill-rule="evenodd" clip-rule="evenodd" d="M190.372 87.6294V80.3314H183.074V87.6294H190.372Z" fill="#263238"/>
<path fill-rule="evenodd" clip-rule="evenodd" d="M66.2299 233.684H58.9258V240.988H66.2299V233.684Z" fill="#263238"/>
<path fill-rule="evenodd" clip-rule="evenodd" d="M124.649 233.684V240.988H131.953V233.684H124.649Z" fill="#263238"/>
<path fill-rule="evenodd" clip-rule="evenodd" d="M110.047 109.541V116.845H117.352V109.541H110.047Z" fill="#263238"/>
<path fill-rule="evenodd" clip-rule="evenodd" d="M102.743 124.143V116.845H95.4392V124.143H102.743Z" fill="#263238"/>
<path fill-rule="evenodd" clip-rule="evenodd" d="M95.4396 219.082V211.778H88.1355V219.082H95.4396Z" fill="#263238"/>
<path fill-rule="evenodd" clip-rule="evenodd" d="M73.5336 226.379H66.2295V233.684H73.5336V226.379Z" fill="#263238"/>
<path fill-rule="evenodd" clip-rule="evenodd" d="M175.771 73.0275V65.7234H168.467V73.0275H175.771Z" fill="#263238"/>
<path fill-rule="evenodd" clip-rule="evenodd" d="M161.162 138.751V131.447H153.865V138.751H161.162Z" fill="#263238"/>
<path fill-rule="evenodd" clip-rule="evenodd" d="M234.19 138.751H241.494V131.447H234.19V138.751Z" fill="#263238"/>
<path fill-rule="evenodd" clip-rule="evenodd" d="M66.2299 102.237H58.9258V109.541H66.2299V102.237Z" fill="#263238"/>
<path fill-rule="evenodd" clip-rule="evenodd" d="M51.6219 146.055H44.324V153.359H51.6219V146.055Z" fill="#263238"/>
<path fill-rule="evenodd" clip-rule="evenodd" d="M183.075 80.3315V73.0273H175.771V80.3315H183.075Z" fill="#263238"/>
<path fill-rule="evenodd" clip-rule="evenodd" d="M131.953 7.30415H139.257V0H131.953V7.30415Z" fill="#263238"/>
<path fill-rule="evenodd" clip-rule="evenodd" d="M44.324 65.7235H51.6219V58.4193H44.324V65.7235Z" fill="#263238"/>
<path fill-rule="evenodd" clip-rule="evenodd" d="M95.4396 43.8175H88.1355V51.1155H95.4396V43.8175Z" fill="#263238"/>
<path fill-rule="evenodd" clip-rule="evenodd" d="M102.743 226.38V219.082H95.4392V226.38H102.743Z" fill="#263238"/>
<path fill-rule="evenodd" clip-rule="evenodd" d="M175.771 21.9059H183.075V14.6079H175.771V21.9059Z" fill="#263238"/>
<path fill-rule="evenodd" clip-rule="evenodd" d="M139.257 204.474H131.953V211.778H139.257V204.474Z" fill="#263238"/>
<path fill-rule="evenodd" clip-rule="evenodd" d="M22.4122 109.541V102.237H15.1143V109.541H22.4122Z" fill="#263238"/>
<path fill-rule="evenodd" clip-rule="evenodd" d="M197.677 80.3315V73.0273H190.373V80.3315H197.677Z" fill="#263238"/>
<path fill-rule="evenodd" clip-rule="evenodd" d="M131.953 43.8175V51.1155H139.257V43.8175H131.953Z" fill="#263238"/>
<path fill-rule="evenodd" clip-rule="evenodd" d="M190.373 197.17H197.677V189.866H190.373V197.17Z" fill="#263238"/>
<path fill-rule="evenodd" clip-rule="evenodd" d="M139.257 197.17V189.866H131.953V197.17H139.257Z" fill="#263238"/>
</svg>
