<svg width="35" height="35" viewBox="0 0 35 35" fill="none" xmlns="http://www.w3.org/2000/svg">
<path d="M23.231 16.7081L11.0401 5.09249C10.8367 4.89858 10.5664 4.79041 10.2854 4.79041C10.0044 4.79041 9.73413 4.89858 9.53072 5.09249L9.51759 5.10561C9.41864 5.19962 9.33985 5.31277 9.28601 5.43819C9.23216 5.5636 9.2044 5.69866 9.2044 5.83514C9.2044 5.97163 9.23216 6.10669 9.28601 6.2321C9.33985 6.35752 9.41864 6.47067 9.51759 6.56468L20.9976 17.5022L9.51759 28.4353C9.41864 28.5293 9.33985 28.6425 9.28601 28.7679C9.23216 28.8933 9.2044 29.0283 9.2044 29.1648C9.2044 29.3013 9.23216 29.4364 9.28601 29.5618C9.33985 29.6872 9.41864 29.8004 9.51759 29.8944L9.53072 29.9075C9.73413 30.1014 10.0044 30.2096 10.2854 30.2096C10.5664 30.2096 10.8367 30.1014 11.0401 29.9075L23.231 18.2919C23.3382 18.1897 23.4236 18.0669 23.4819 17.9307C23.5402 17.7946 23.5703 17.6481 23.5703 17.5C23.5703 17.3519 23.5402 17.2054 23.4819 17.0692C23.4236 16.9331 23.3382 16.8103 23.231 16.7081Z" fill="white"/>
</svg>
