<svg width="35" height="35" viewBox="0 0 35 35" fill="none" xmlns="http://www.w3.org/2000/svg">
<path d="M11.769 18.2919L23.9599 29.9075C24.1633 30.1014 24.4336 30.2096 24.7146 30.2096C24.9956 30.2096 25.2659 30.1014 25.4693 29.9075L25.4824 29.8944C25.5814 29.8004 25.6602 29.6872 25.714 29.5618C25.7678 29.4364 25.7956 29.3013 25.7956 29.1649C25.7956 29.0284 25.7678 28.8933 25.714 28.7679C25.6602 28.6425 25.5814 28.5293 25.4824 28.4353L14.0024 17.4978L25.4824 6.5647C25.5814 6.4707 25.6602 6.35754 25.714 6.23213C25.7678 6.10671 25.7956 5.97165 25.7956 5.83517C25.7956 5.69868 25.7678 5.56363 25.714 5.43821C25.6602 5.31279 25.5814 5.19964 25.4824 5.10564L25.4693 5.09251C25.2659 4.8986 24.9956 4.79043 24.7146 4.79043C24.4336 4.79043 24.1633 4.8986 23.9599 5.09251L11.769 16.7081C11.6618 16.8103 11.5764 16.9331 11.5181 17.0693C11.4598 17.2054 11.4297 17.3519 11.4297 17.5C11.4297 17.6481 11.4598 17.7946 11.5181 17.9308C11.5764 18.0669 11.6618 18.1897 11.769 18.2919Z" fill="white"/>
</svg>
