<svg width="39" height="39" viewBox="0 0 39 39" fill="none" xmlns="http://www.w3.org/2000/svg">
<path fill-rule="evenodd" clip-rule="evenodd" d="M8.22776 6.24883C9.79582 6.24883 11.1146 6.16279 12.6161 6.16279C12.9665 5.63961 15.1831 2.54883 15.3696 2.54883C16.0676 2.54883 19.0177 4.41123 19.5003 4.40327C19.7619 4.39895 20.2265 4.07142 20.4762 3.95544C21.2414 3.60014 22.9802 2.60291 23.6301 2.54883C23.8982 2.80314 24.1032 3.09987 24.3191 3.40868C24.6712 3.91241 26.1617 5.65394 26.2975 6.16279C27.6868 6.16279 28.8243 6.24826 30.2621 6.24246C31.103 6.23904 31.0132 6.64257 31.1124 7.37119C31.1987 8.00579 31.4293 10.4255 31.7036 10.8241C31.8422 11.0256 32.1601 11.0917 32.3459 11.2144L33.5872 11.9522C34.9552 12.9407 35.7732 12.6712 35.3832 13.6996L34.4838 16.5002C34.1349 17.4517 33.917 17.2447 34.7797 18.5039C35.0761 18.9365 36.451 20.9189 36.451 21.307C36.451 21.6273 34.1793 23.6387 33.7176 24.0805C33.0224 24.7458 33.4496 25.1951 33.4391 26.384C33.434 26.9592 33.4951 27.1843 33.5254 27.6744C33.547 28.0237 33.5713 28.0367 33.6021 28.2924C33.6102 28.3593 33.6228 28.5593 33.6181 28.6207C33.5982 28.8859 33.5454 29.0368 33.3602 29.144C33.2672 29.1978 33.2175 29.1976 33.1008 29.2288C32.8881 29.2856 32.7517 29.322 32.5677 29.3841C32.3708 29.4505 32.2116 29.499 32.0442 29.549L29.2231 30.3418C29.1857 30.7918 28.8138 31.4732 28.6241 31.894L27.7176 33.9991C27.6792 34.1154 27.6842 34.172 27.6373 34.263C27.3605 34.7999 26.2245 34.2876 25.6589 34.1642L23.3496 33.7071C22.7524 33.5744 22.6698 33.9974 21.7124 34.7056C20.6105 35.5207 19.8073 36.7465 19.1067 36.2485L18.2616 35.5382C18.2491 35.5257 18.2318 35.507 18.2195 35.4943C17.6324 34.8968 16.3754 34.2141 15.9719 33.6116C15.5538 33.8123 12.9359 34.2529 12.0788 34.461L11.6375 34.4924C11.2688 34.415 11.2217 33.8488 11.0614 33.5315C10.9668 33.3443 10.936 33.3372 10.8314 33.0731C10.7432 32.8502 10.718 32.6907 10.6364 32.4937L9.74318 30.4613C9.49957 30.1529 5.38822 29.2594 5.38822 28.9651C5.38822 28.4094 5.43613 28.0958 5.4686 27.6687C5.535 26.7959 5.50827 25.8543 5.62555 25.0668C5.72574 24.394 5.61572 24.4008 5.28213 24.0805L3.17284 22.0596C2.28889 21.1715 2.37673 21.2747 3.04813 20.3436L3.91176 18.884C4.84637 17.5423 4.95568 17.8372 4.45239 16.3916L3.6165 13.7857C3.21579 12.7287 4.01502 12.8929 5.35397 11.9797C5.54459 11.8497 5.65917 11.7702 5.83454 11.6858L7.3673 10.8093C7.3673 10.0608 7.62148 9.18668 7.74948 8.4357C7.86762 7.74256 7.8384 6.83026 8.22775 6.2488L8.22776 6.24883ZM15.1698 1H15.6956C15.962 1.03988 16.262 1.13905 16.6044 1.31405L19.4999 2.72093L21.454 1.74953C22.4052 1.34479 23.5756 0.477787 24.725 1.45388L26.1775 3.27114C27.2169 4.86033 27.1367 4.57357 27.9552 4.67717C28.4499 4.7398 28.9784 4.70001 29.4813 4.69998C30.7797 4.69993 31.357 4.64453 31.9996 5.36536C32.6472 6.09187 32.5288 6.77929 32.7114 7.92331C33.0658 10.1434 32.8731 9.79013 34.1769 10.502L34.6927 10.7607C34.8554 10.861 34.958 10.976 35.1411 11.0867C35.3387 11.2062 35.4566 11.2338 35.6599 11.3423C37.7359 12.4508 36.9991 13.8724 36.3976 15.5745L36.0716 16.6265C35.8406 17.219 35.7205 17.0157 36.3143 18.0018C36.9818 19.1105 37.905 20.1451 37.9998 21.1724V21.5086C37.9725 21.7925 37.873 22.0764 37.6778 22.3617C37.3124 22.896 34.9725 24.8859 34.9222 25.1139C34.7953 25.6888 35.4158 28.7876 34.977 29.7283C34.6783 30.3688 33.9243 30.6555 33.2167 30.8076L31.0065 31.4369C30.7736 31.506 30.5901 31.5747 30.3417 31.6326C30.3355 31.9109 29.0106 35.1728 28.583 35.553C28.3294 35.7785 27.752 36.107 27.3301 36.107L23.7475 35.3763C23.3073 35.2867 23.0967 35.5187 22.8524 35.7596C22.6704 35.939 22.6902 35.9417 22.4541 36.1356C22.2975 36.2642 22.2166 36.3231 22.07 36.4399C21.8079 36.6485 21.5646 36.8582 21.3078 37.0544C21.0491 37.2521 20.7914 37.4673 20.5354 37.6588C19.9624 38.0874 18.9755 38.0608 18.403 37.6341L16.8121 36.3854C15.9846 35.6416 15.751 35.2528 15.1154 35.4142C14.7252 35.5132 14.3587 35.5155 13.9405 35.6244L11.6696 36.107C10.5559 36.107 10.0145 35.168 9.70148 34.2891C9.60444 34.0166 9.53433 33.8971 9.40292 33.6411C9.24396 33.3316 9.25133 33.3221 9.13366 32.9639L8.57998 31.7106C8.45787 31.5719 8.14406 31.4967 7.91315 31.424L6.56273 31.0604C5.24952 30.6696 4.97241 30.744 4.23323 30.0341C3.46813 29.2993 4.01149 27.4199 4.01149 25.7814C4.01149 24.7779 4.06542 25.104 3.21555 24.2541C2.07393 23.1125 0.999847 22.524 0.999847 21.4791V21.0755C1.00497 20.655 1.05029 20.5713 1.37081 20.043L2.4355 18.3543C2.60756 18.0431 2.74085 17.8803 2.928 17.5496C3.24595 16.9878 3.09183 17.3737 2.77009 16.0949C2.70766 15.8468 2.66841 15.8036 2.58552 15.5911C2.42481 15.179 2.36607 15.0116 2.252 14.5479C2.01714 13.5931 1.94637 14.2752 1.94637 12.9605C1.94637 12.2333 2.89055 11.5393 3.44515 11.2755C3.6957 11.1564 3.80803 11.1077 4.0076 10.9775C6.13973 9.58615 5.85912 10.5442 6.30131 7.76427C6.48707 6.59645 6.32446 6.03019 7.04073 5.31998C8.0976 4.27203 9.24799 4.87427 11.1795 4.64016C11.9881 4.54217 11.8207 4.69693 12.2036 4.11542C12.6373 3.45687 13.1002 2.91211 13.5754 2.30352C14.0149 1.74087 14.448 1.12011 15.1698 1.00001V1Z" fill="white" stroke="white" stroke-width="0.3" stroke-linejoin="round"/>
<path fill-rule="evenodd" clip-rule="evenodd" d="M23.6302 22.6837H24.9209L25.6211 20.2863C25.7473 19.9138 25.8276 19.4806 25.964 19.0803L26.2922 18.0317C26.3915 17.7999 26.3073 17.975 26.3837 17.8651L27.5958 22.1599C27.7638 22.7538 27.5076 22.6837 28.7069 22.6837C29.1072 22.6837 29.2002 21.5201 29.3174 21.143L30.686 16.2302C29.2305 16.2302 29.5655 15.9873 29.172 17.5557L28.1907 21.2209C28.1271 20.4565 26.9253 16.5343 26.9 16.2302H25.6953L25.0169 18.6495C24.8806 19.0712 24.8428 19.4442 24.714 19.8954C24.5847 20.3485 24.4199 20.6997 24.3186 21.1348C24.307 21.1167 24.2947 21.0645 24.2908 21.0766L23.6481 18.6216C23.5832 18.3688 23.5205 18.2067 23.4816 18.0137L23.1934 16.753C23.0341 16.1637 23.2452 16.2302 22.1674 16.2302C21.7047 16.2302 22.056 16.9608 22.3073 17.7252L23.6302 22.6837L23.6302 22.6837Z" fill="white" stroke="white" stroke-width="0.3" stroke-linejoin="round"/>
<path fill-rule="evenodd" clip-rule="evenodd" d="M9.08829 22.6838H10.1208V18.0373C10.4217 18.1176 10.4996 18.4564 10.9701 19.081L13.3046 22.6838H14.6813V16.2303H13.5627V20.9629C13.3371 20.8117 12.1097 18.9314 11.915 18.6524L10.379 16.2303H9.08829V22.6838Z" fill="white" stroke="white" stroke-width="0.3" stroke-linejoin="round"/>
<path fill-rule="evenodd" clip-rule="evenodd" d="M16.2303 22.6838H20.8768C21.2281 22.6838 21.1349 22.414 21.1349 21.7373H17.435V19.5861H20.7908V18.7256H17.435V17.2628H21.1349C21.1349 16.5289 21.2361 16.2303 20.8768 16.2303H16.2303V22.6838V22.6838Z" fill="white" stroke="white" stroke-width="0.3" stroke-linejoin="round"/>
</svg>
