<svg width="20" height="20" viewBox="0 0 20 20" fill="none" xmlns="http://www.w3.org/2000/svg">
<g clip-path="url(#clip0_10_1358)">
<path d="M17.0627 4.85906L12.3753 0.17168C12.2659 0.0622266 12.1166 0 11.9609 0H3.75781C2.78855 0 2 0.788555 2 1.75781V18.2422C2 19.2114 2.78855 20 3.75781 20H15.4766C16.4458 20 17.2344 19.2114 17.2344 18.2422V5.27344C17.2344 5.11367 17.1673 4.96363 17.0627 4.85906ZM12.5469 2.00051L15.2339 4.6875H13.1328C12.8097 4.6875 12.5469 4.42465 12.5469 4.10156V2.00051ZM15.4766 18.8281H3.75781C3.43473 18.8281 3.17188 18.5653 3.17188 18.2422V1.75781C3.17188 1.43473 3.43473 1.17188 3.75781 1.17188H11.375V4.10156C11.375 5.07082 12.1636 5.85938 13.1328 5.85938H16.0625V18.2422C16.0625 18.5653 15.7996 18.8281 15.4766 18.8281Z" fill="white"/>
<path d="M13.1328 8.28125H6.10156C5.77797 8.28125 5.51562 8.54359 5.51562 8.86719C5.51562 9.19078 5.77797 9.45312 6.10156 9.45312H13.1328C13.4564 9.45312 13.7188 9.19078 13.7188 8.86719C13.7188 8.54359 13.4564 8.28125 13.1328 8.28125Z" fill="white"/>
<path d="M13.1328 10.625H6.10156C5.77797 10.625 5.51562 10.8873 5.51562 11.2109C5.51562 11.5345 5.77797 11.7969 6.10156 11.7969H13.1328C13.4564 11.7969 13.7188 11.5345 13.7188 11.2109C13.7188 10.8873 13.4564 10.625 13.1328 10.625Z" fill="white"/>
<path d="M13.1328 12.9688H6.10156C5.77797 12.9688 5.51562 13.2311 5.51562 13.5547C5.51562 13.8783 5.77797 14.1406 6.10156 14.1406H13.1328C13.4564 14.1406 13.7188 13.8783 13.7188 13.5547C13.7188 13.2311 13.4564 12.9688 13.1328 12.9688Z" fill="white"/>
<path d="M10.7891 15.3125H6.10156C5.77797 15.3125 5.51562 15.5748 5.51562 15.8984C5.51562 16.222 5.77797 16.4844 6.10156 16.4844H10.7891C11.1127 16.4844 11.375 16.222 11.375 15.8984C11.375 15.5748 11.1127 15.3125 10.7891 15.3125Z" fill="white"/>
</g>
<defs>
<clipPath id="clip0_10_1358">
<rect width="20" height="20" fill="white"/>
</clipPath>
</defs>
</svg>
