<svg width="26" height="26" viewBox="0 0 26 26" fill="none" xmlns="http://www.w3.org/2000/svg">
<path d="M20.8646 21.2876C20.4204 21.2876 20.0521 20.9192 20.0521 20.4751V7.69175C20.0521 6.59758 19.8246 6.22925 18.4488 6.22925H17.3221C15.9462 6.22925 15.7187 6.59758 15.7187 7.69175V20.4751C15.7187 20.9192 15.3504 21.2876 14.9062 21.2876C14.4621 21.2876 14.0938 20.9192 14.0938 20.4751V7.69175C14.0938 5.61175 15.1554 4.60425 17.3221 4.60425H18.4488C20.6262 4.60425 21.6771 5.61175 21.6771 7.69175V20.4751C21.6771 20.9192 21.3087 21.2876 20.8646 21.2876Z" fill="#023083"/>
<path d="M11.6566 21.2874C11.2124 21.2874 10.8441 20.9191 10.8441 20.4749V13.1083C10.8441 12.0141 10.6166 11.6458 9.24074 11.6458H8.11407C6.73824 11.6458 6.51074 12.0141 6.51074 13.1083V20.4749C6.51074 20.9191 6.14241 21.2874 5.69824 21.2874C5.25408 21.2874 4.88574 20.9191 4.88574 20.4749V13.1083C4.88574 11.0283 5.94741 10.0208 8.11407 10.0208H9.24074C11.4182 10.0208 12.4691 11.0283 12.4691 13.1083V20.4749C12.4691 20.9191 12.1007 21.2874 11.6566 21.2874Z" fill="#023083"/>
<path d="M23.8337 21.3958H2.16699C1.72283 21.3958 1.35449 21.0274 1.35449 20.5833C1.35449 20.1391 1.71199 19.7708 2.16699 19.7708H23.8337C24.2778 19.7708 24.6462 20.1391 24.6462 20.5833C24.6462 21.0274 24.2887 21.3958 23.8337 21.3958Z" fill="#023083"/>
</svg>
