<svg width="26" height="26" viewBox="0 0 26 26" fill="none" xmlns="http://www.w3.org/2000/svg">
<path d="M13.0003 24.6459C6.57616 24.6459 1.35449 19.4242 1.35449 13.0001C1.35449 6.57591 6.57616 1.35425 13.0003 1.35425C19.4245 1.35425 24.6462 6.57591 24.6462 13.0001C24.6462 19.4242 19.4245 24.6459 13.0003 24.6459ZM13.0003 2.97925C7.47533 2.97925 2.97949 7.47508 2.97949 13.0001C2.97949 18.5251 7.47533 23.0209 13.0003 23.0209C18.5253 23.0209 23.0212 18.5251 23.0212 13.0001C23.0212 7.47508 18.5253 2.97925 13.0003 2.97925Z" fill="#023083"/>
<path d="M17.0195 17.2574C16.8787 17.2574 16.7379 17.2249 16.6079 17.1382L13.2495 15.1341C12.4154 14.6357 11.7979 13.5416 11.7979 12.5774V8.13574C11.7979 7.69158 12.1662 7.32324 12.6104 7.32324C13.0545 7.32324 13.4229 7.69158 13.4229 8.13574V12.5774C13.4229 12.9674 13.7479 13.5416 14.0837 13.7366L17.442 15.7407C17.832 15.9682 17.9512 16.4666 17.7237 16.8566C17.5612 17.1166 17.2904 17.2574 17.0195 17.2574Z" fill="#023083"/>
</svg>
