<svg width="55" height="55" viewBox="0 0 55 55" fill="none" xmlns="http://www.w3.org/2000/svg">
<path d="M34.3747 52.1354H20.6247C8.18092 52.1354 2.86426 46.8187 2.86426 34.375V20.625C2.86426 8.18123 8.18092 2.86456 20.6247 2.86456H32.083C33.0226 2.86456 33.8018 3.64373 33.8018 4.58331C33.8018 5.5229 33.0226 6.30206 32.083 6.30206H20.6247C10.0601 6.30206 6.30176 10.0604 6.30176 20.625V34.375C6.30176 44.9396 10.0601 48.6979 20.6247 48.6979H34.3747C44.9393 48.6979 48.6976 44.9396 48.6976 34.375V22.9166C48.6976 21.9771 49.4768 21.1979 50.4163 21.1979C51.3559 21.1979 52.1351 21.9771 52.1351 22.9166V34.375C52.1351 46.8187 46.8184 52.1354 34.3747 52.1354Z" fill="#023083"/>
<path d="M50.4163 24.6354H41.2497C33.4122 24.6354 30.3643 21.5875 30.3643 13.75V4.58335C30.3643 3.89585 30.7768 3.25418 31.4184 3.0021C32.0601 2.7271 32.7934 2.88751 33.2976 3.36876L51.6309 21.7021C52.1122 22.1833 52.2726 22.9396 51.9976 23.5813C51.7455 24.2229 51.1038 24.6354 50.4163 24.6354ZM33.8018 8.73127V13.75C33.8018 19.6625 35.3372 21.1979 41.2497 21.1979H46.2684L33.8018 8.73127Z" fill="#023083"/>
<path d="M22.1144 42.8771C21.1061 42.8771 20.1436 42.4875 19.4332 41.7771L13.7957 36.1396C12.5582 34.9021 12.3519 32.8167 13.3144 31.35L15.904 27.4542C16.5457 26.4688 17.8748 25.7584 19.0665 25.7584H25.1394C26.3082 25.7584 27.6373 26.4688 28.3019 27.4542L30.8915 31.3271C31.854 32.7709 31.6477 34.8792 30.4102 36.1167L24.7727 41.7542C24.0852 42.4875 23.1227 42.8771 22.1144 42.8771ZM19.0894 29.2188C18.9977 29.2417 18.8144 29.3334 18.7686 29.4021L16.2019 33.275C16.1332 33.3667 16.1561 33.6417 16.2477 33.7334L21.8852 39.3709C21.9998 39.4854 22.2748 39.4854 22.3894 39.3709L28.0269 33.7334C28.1186 33.6417 28.1415 33.3896 28.0727 33.275L25.4832 29.4021C25.4373 29.3563 25.254 29.2646 25.1623 29.2417L19.0894 29.2188Z" fill="#023083"/>
</svg>
