<svg width="26" height="26" viewBox="0 0 26 26" fill="none" xmlns="http://www.w3.org/2000/svg">
<path d="M20.583 18.1458C20.1388 18.1458 19.7705 17.7775 19.7705 17.3333V7.04167C19.7705 6.29417 19.1638 5.6875 18.4163 5.6875H12.458C12.0138 5.6875 11.6455 5.31917 11.6455 4.875C11.6455 4.43083 12.0138 4.0625 12.458 4.0625H18.4163C20.063 4.0625 21.3955 5.395 21.3955 7.04167V17.3333C21.3955 17.7775 21.0272 18.1458 20.583 18.1458Z" fill="#023083"/>
<path d="M15.167 8.39576C14.9828 8.39576 14.7986 8.33078 14.647 8.21161L11.397 5.50328C11.2128 5.35161 11.1045 5.12409 11.1045 4.87493C11.1045 4.62576 11.2128 4.40907 11.397 4.24657L14.647 1.53824C14.9936 1.24574 15.5028 1.29995 15.7953 1.64661C16.0878 1.99328 16.0337 2.50244 15.687 2.79494L13.1845 4.87493L15.687 6.95491C16.0337 7.24741 16.077 7.75657 15.7953 8.10324C15.6328 8.29824 15.3945 8.39576 15.167 8.39576Z" fill="#023083"/>
<path d="M20.583 24.6458C18.3405 24.6458 16.5205 22.8258 16.5205 20.5833C16.5205 18.3408 18.3405 16.5208 20.583 16.5208C22.8255 16.5208 24.6455 18.3408 24.6455 20.5833C24.6455 22.8258 22.8255 24.6458 20.583 24.6458ZM20.583 18.1458C19.2397 18.1458 18.1455 19.2399 18.1455 20.5833C18.1455 21.9266 19.2397 23.0208 20.583 23.0208C21.9263 23.0208 23.0205 21.9266 23.0205 20.5833C23.0205 19.2399 21.9263 18.1458 20.583 18.1458Z" fill="#023083"/>
<path d="M13.542 21.9376H7.58366C5.93699 21.9376 4.60449 20.6051 4.60449 18.9584V8.66675C4.60449 8.22258 4.97283 7.85425 5.41699 7.85425C5.86116 7.85425 6.22949 8.22258 6.22949 8.66675V18.9584C6.22949 19.7059 6.83616 20.3126 7.58366 20.3126H13.542C13.9862 20.3126 14.3545 20.6809 14.3545 21.1251C14.3545 21.5692 13.9862 21.9376 13.542 21.9376Z" fill="#023083"/>
<path d="M10.8333 24.6457C10.6058 24.6457 10.3675 24.5481 10.205 24.3531C9.91252 24.0065 9.96666 23.4973 10.3133 23.2048L12.8158 21.1248L10.3133 19.0448C9.96666 18.7523 9.92335 18.2432 10.205 17.8965C10.4975 17.5498 11.0067 17.5065 11.3533 17.7881L14.6033 20.4965C14.7875 20.6481 14.8958 20.8757 14.8958 21.1248C14.8958 21.374 14.7875 21.5907 14.6033 21.7532L11.3533 24.4615C11.2017 24.5807 11.0175 24.6457 10.8333 24.6457Z" fill="#023083"/>
<path d="M5.41699 9.47925C3.17449 9.47925 1.35449 7.65925 1.35449 5.41675C1.35449 3.17425 3.17449 1.35425 5.41699 1.35425C7.65949 1.35425 9.47949 3.17425 9.47949 5.41675C9.47949 7.65925 7.65949 9.47925 5.41699 9.47925ZM5.41699 2.97925C4.07366 2.97925 2.97949 4.07341 2.97949 5.41675C2.97949 6.76008 4.07366 7.85425 5.41699 7.85425C6.76033 7.85425 7.85449 6.76008 7.85449 5.41675C7.85449 4.07341 6.76033 2.97925 5.41699 2.97925Z" fill="#023083"/>
</svg>
