<svg width="55" height="55" viewBox="0 0 55 55" fill="none" xmlns="http://www.w3.org/2000/svg">
<path d="M44.5045 26.9271H36.667C35.7274 26.9271 34.9482 26.1479 34.9482 25.2083V9.18959C34.9482 7.49376 35.6128 5.91251 36.8045 4.72085C37.9962 3.52918 39.5774 2.86459 41.2732 2.86459H41.2962C44.1607 2.88751 46.8649 4.01043 48.9274 6.05001C50.9899 8.13543 52.1128 10.8854 52.1128 13.75V19.2958C52.1357 23.8563 49.0649 26.9271 44.5045 26.9271ZM38.3857 23.4896H44.5045C47.1628 23.4896 48.6982 21.9542 48.6982 19.2958V13.75C48.6982 11.7792 47.9191 9.90001 46.5212 8.47918C45.1232 7.10418 43.2441 6.32501 41.2962 6.30209C41.2962 6.30209 41.2962 6.30209 41.2732 6.30209C40.517 6.30209 39.7837 6.60001 39.2337 7.15001C38.6837 7.70001 38.3857 8.41042 38.3857 9.18959V23.4896Z" fill="#023083"/>
<path d="M20.6247 53.4646C19.5476 53.4646 18.5393 53.0521 17.783 52.2729L13.9788 48.4458C13.7726 48.2396 13.4518 48.2167 13.2226 48.4L9.28092 51.3333C8.06634 52.25 6.46217 52.4104 5.08717 51.7229C3.71217 51.0354 2.86426 49.6604 2.86426 48.125V13.75C2.86426 6.82918 6.82884 2.86459 13.7497 2.86459H41.2497C42.1893 2.86459 42.9684 3.64376 42.9684 4.58334C42.9684 5.52293 42.1893 6.30209 41.2497 6.30209C39.6684 6.30209 38.3851 7.58543 38.3851 9.16668V48.125C38.3851 49.6604 37.5372 51.0354 36.1622 51.7229C34.7872 52.4104 33.183 52.2729 31.9684 51.3563L28.0497 48.4229C27.8205 48.2396 27.4997 48.2854 27.3163 48.4688L23.4663 52.3188C22.7101 53.0521 21.7018 53.4646 20.6247 53.4646ZM13.5434 44.8479C14.5976 44.8479 15.6288 45.2375 16.408 46.0396L20.2122 49.8667C20.3497 50.0042 20.533 50.0271 20.6247 50.0271C20.7163 50.0271 20.8997 50.0042 21.0372 49.8667L24.8872 46.0167C26.308 44.5958 28.5538 44.4583 30.1351 45.6729L34.0309 48.5833C34.283 48.7667 34.5122 48.6979 34.6268 48.6292C34.7413 48.5604 34.9476 48.4229 34.9476 48.125V9.16668C34.9476 8.13543 35.1997 7.15001 35.6351 6.30209H13.7497C8.66217 6.30209 6.30176 8.66251 6.30176 13.75V48.125C6.30176 48.4458 6.50801 48.5833 6.62259 48.6521C6.76009 48.7208 6.98926 48.7667 7.21842 48.5833L11.1372 45.65C11.8476 45.1229 12.6955 44.8479 13.5434 44.8479Z" fill="#023083"/>
<path d="M27.5 31.5334H20.625C19.6854 31.5334 18.9062 30.7542 18.9062 29.8146C18.9062 28.875 19.6854 28.0959 20.625 28.0959H27.5C28.4396 28.0959 29.2188 28.875 29.2188 29.8146C29.2188 30.7542 28.4396 31.5334 27.5 31.5334Z" fill="#023083"/>
<path d="M27.5 22.3667H20.625C19.6854 22.3667 18.9062 21.5875 18.9062 20.6479C18.9062 19.7084 19.6854 18.9292 20.625 18.9292H27.5C28.4396 18.9292 29.2188 19.7084 29.2188 20.6479C29.2188 21.5875 28.4396 22.3667 27.5 22.3667Z" fill="#023083"/>
<path d="M13.6813 22.9396C12.4209 22.9396 11.3896 21.9083 11.3896 20.6479C11.3896 19.3875 12.4209 18.3563 13.6813 18.3563C14.9417 18.3563 15.973 19.3875 15.973 20.6479C15.973 21.9083 14.9417 22.9396 13.6813 22.9396Z" fill="#023083"/>
<path d="M13.6813 32.1063C12.4209 32.1063 11.3896 31.075 11.3896 29.8146C11.3896 28.5542 12.4209 27.5229 13.6813 27.5229C14.9417 27.5229 15.973 28.5542 15.973 29.8146C15.973 31.075 14.9417 32.1063 13.6813 32.1063Z" fill="#023083"/>
</svg>
