<svg width="26" height="26" viewBox="0 0 26 26" fill="none" xmlns="http://www.w3.org/2000/svg">
<path d="M19.1321 24.5591C18.558 24.5591 17.8213 24.3749 16.9005 23.8333L13.6613 21.9158C13.3255 21.7208 12.6755 21.7208 12.3505 21.9158L9.10045 23.8333C7.18295 24.9708 6.05629 24.5158 5.54712 24.1474C5.04879 23.7791 4.26879 22.8366 4.77795 20.6699L5.54712 17.3441C5.63379 16.9974 5.46045 16.4016 5.20045 16.1416L2.51379 13.4549C1.17045 12.1116 1.27879 10.9633 1.46295 10.3999C1.64712 9.8366 2.23212 8.83993 4.09545 8.52576L7.55129 7.9516C7.87629 7.89743 8.34212 7.55077 8.48295 7.25827L10.4005 3.4341C11.2671 1.68993 12.4046 1.42993 13.0005 1.42993C13.5963 1.42993 14.7338 1.68993 15.6005 3.4341L17.5071 7.24743C17.6588 7.53993 18.1246 7.8866 18.4496 7.94076L21.9055 8.51493C23.7796 8.8291 24.3646 9.82577 24.538 10.3891C24.7113 10.9524 24.8196 12.1008 23.4871 13.4441L20.8005 16.1416C20.5405 16.4016 20.378 16.9866 20.4538 17.3441L21.223 20.6699C21.7213 22.8366 20.9521 23.7791 20.4538 24.1474C20.183 24.3424 19.7496 24.5591 19.1321 24.5591ZM13.0005 20.1391C13.5313 20.1391 14.0621 20.2691 14.4846 20.5183L17.7238 22.4358C18.6663 22.9991 19.2621 22.9991 19.4896 22.8366C19.7171 22.6741 19.8796 22.0999 19.6413 21.0383L18.8721 17.7124C18.6663 16.8133 19.0021 15.6541 19.6521 14.9933L22.3388 12.3066C22.8696 11.7758 23.108 11.2558 22.9996 10.8983C22.8805 10.5408 22.3821 10.2483 21.6455 10.1291L18.1896 9.55493C17.3555 9.4141 16.4455 8.74243 16.0663 7.9841L14.1596 4.17076C13.813 3.47743 13.3796 3.06576 13.0005 3.06576C12.6213 3.06576 12.188 3.47743 11.8521 4.17076L9.93462 7.9841C9.55545 8.74243 8.64545 9.4141 7.81129 9.55493L4.36629 10.1291C3.62962 10.2483 3.13129 10.5408 3.01212 10.8983C2.89295 11.2558 3.14212 11.7866 3.67295 12.3066L6.35962 14.9933C7.00962 15.6433 7.34545 16.8133 7.13962 17.7124L6.37045 21.0383C6.12129 22.1108 6.29462 22.6741 6.52212 22.8366C6.74962 22.9991 7.33462 22.9883 8.28795 22.4358L11.5271 20.5183C11.9388 20.2691 12.4696 20.1391 13.0005 20.1391Z" fill="#023083"/>
</svg>
