<svg width="55" height="55" viewBox="0 0 55 55" fill="none" xmlns="http://www.w3.org/2000/svg">
<path d="M48.1247 46.4062H25.208C24.2684 46.4062 23.4893 45.6271 23.4893 44.6875C23.4893 43.7479 24.2684 42.9688 25.208 42.9688H48.1247C49.0643 42.9688 49.8434 43.7479 49.8434 44.6875C49.8434 45.6271 49.0643 46.4062 48.1247 46.4062Z" fill="#023083"/>
<path d="M48.1247 30.3646H25.208C24.2684 30.3646 23.4893 29.5854 23.4893 28.6458C23.4893 27.7063 24.2684 26.9271 25.208 26.9271H48.1247C49.0643 26.9271 49.8434 27.7063 49.8434 28.6458C49.8434 29.5854 49.0643 30.3646 48.1247 30.3646Z" fill="#023083"/>
<path d="M48.1247 14.3229H25.208C24.2684 14.3229 23.4893 13.5437 23.4893 12.6042C23.4893 11.6646 24.2684 10.8854 25.208 10.8854H48.1247C49.0643 10.8854 49.8434 11.6646 49.8434 12.6042C49.8434 13.5437 49.0643 14.3229 48.1247 14.3229Z" fill="#023083"/>
<path d="M9.1668 16.6146C8.73138 16.6146 8.29596 16.4542 7.95221 16.1104L5.66055 13.8187C4.99596 13.1542 4.99596 12.0542 5.66055 11.3896C6.32513 10.725 7.42513 10.725 8.08971 11.3896L9.1668 12.4667L14.8272 6.80624C15.4918 6.14165 16.5918 6.14165 17.2564 6.80624C17.921 7.47082 17.921 8.57082 17.2564 9.2354L10.3814 16.1104C10.0376 16.4542 9.60221 16.6146 9.1668 16.6146Z" fill="#023083"/>
<path d="M9.1668 32.6563C8.73138 32.6563 8.29596 32.4958 7.95221 32.1521L5.66055 29.8604C4.99596 29.1958 4.99596 28.0958 5.66055 27.4313C6.32513 26.7667 7.42513 26.7667 8.08971 27.4313L9.1668 28.5083L14.8272 22.8479C15.4918 22.1833 16.5918 22.1833 17.2564 22.8479C17.921 23.5125 17.921 24.6125 17.2564 25.2771L10.3814 32.1521C10.0376 32.4958 9.60221 32.6563 9.1668 32.6563Z" fill="#023083"/>
<path d="M9.1668 48.6979C8.73138 48.6979 8.29596 48.5375 7.95221 48.1938L5.66055 45.9021C4.99596 45.2375 4.99596 44.1375 5.66055 43.4729C6.32513 42.8083 7.42513 42.8083 8.08971 43.4729L9.1668 44.55L14.8272 38.8896C15.4918 38.225 16.5918 38.225 17.2564 38.8896C17.921 39.5542 17.921 40.6542 17.2564 41.3188L10.3814 48.1938C10.0376 48.5375 9.60221 48.6979 9.1668 48.6979Z" fill="#023083"/>
</svg>
