<svg width="26" height="26" viewBox="0 0 26 26" fill="none" xmlns="http://www.w3.org/2000/svg">
<path d="M22.7503 21.9375H11.917C11.4728 21.9375 11.1045 21.5692 11.1045 21.125C11.1045 20.6808 11.4728 20.3125 11.917 20.3125H22.7503C23.1945 20.3125 23.5628 20.6808 23.5628 21.125C23.5628 21.5692 23.1945 21.9375 22.7503 21.9375Z" fill="#023083"/>
<path d="M22.7503 14.3542H11.917C11.4728 14.3542 11.1045 13.9859 11.1045 13.5417C11.1045 13.0976 11.4728 12.7292 11.917 12.7292H22.7503C23.1945 12.7292 23.5628 13.0976 23.5628 13.5417C23.5628 13.9859 23.1945 14.3542 22.7503 14.3542Z" fill="#023083"/>
<path d="M22.7503 6.77075H11.917C11.4728 6.77075 11.1045 6.40242 11.1045 5.95825C11.1045 5.51409 11.4728 5.14575 11.917 5.14575H22.7503C23.1945 5.14575 23.5628 5.51409 23.5628 5.95825C23.5628 6.40242 23.1945 6.77075 22.7503 6.77075Z" fill="#023083"/>
<path d="M4.33355 7.85422C4.12772 7.85422 3.92189 7.77839 3.75939 7.61589L2.67605 6.53256C2.36189 6.21839 2.36189 5.69839 2.67605 5.38422C2.99022 5.07006 3.51022 5.07006 3.82439 5.38422L4.33355 5.89339L7.00939 3.21756C7.32355 2.90339 7.84355 2.90339 8.15772 3.21756C8.47189 3.53173 8.47189 4.05173 8.15772 4.36589L4.90772 7.61589C4.74522 7.77839 4.53939 7.85422 4.33355 7.85422Z" fill="#023083"/>
<path d="M4.33355 15.4375C4.12772 15.4375 3.92189 15.3616 3.75939 15.1991L2.67605 14.1158C2.36189 13.8016 2.36189 13.2816 2.67605 12.9675C2.99022 12.6533 3.51022 12.6533 3.82439 12.9675L4.33355 13.4766L7.00939 10.8008C7.32355 10.4866 7.84355 10.4866 8.15772 10.8008C8.47189 11.115 8.47189 11.635 8.15772 11.9491L4.90772 15.1991C4.74522 15.3616 4.53939 15.4375 4.33355 15.4375Z" fill="#023083"/>
<path d="M4.33355 23.0207C4.12772 23.0207 3.92189 22.9449 3.75939 22.7824L2.67605 21.6991C2.36189 21.3849 2.36189 20.8649 2.67605 20.5507C2.99022 20.2366 3.51022 20.2366 3.82439 20.5507L4.33355 21.0599L7.00939 18.3841C7.32355 18.0699 7.84355 18.0699 8.15772 18.3841C8.47189 18.6982 8.47189 19.2182 8.15772 19.5324L4.90772 22.7824C4.74522 22.9449 4.53939 23.0207 4.33355 23.0207Z" fill="#023083"/>
</svg>
