<svg width="15" height="14" viewBox="0 0 15 14" fill="none" xmlns="http://www.w3.org/2000/svg">
<path fill-rule="evenodd" clip-rule="evenodd" d="M14.0107 12.0526C14.0107 12.0532 14.0107 12.0538 14.0107 12.0543C14.0107 12.8827 13.3391 13.5543 12.5107 13.5543H2.48926C1.66083 13.5543 0.989258 12.8827 0.989258 12.0543C0.989258 11.2259 1.66083 10.5543 2.48926 10.5543L9.2048 10.5543L1.58714 2.9963C0.999056 2.41282 0.999056 1.46682 1.58714 0.883336C2.17522 0.299856 3.1287 0.299856 3.71678 0.883336L11.0107 8.12014L11.0107 2.11121C11.0107 1.28278 11.6823 0.611206 12.5107 0.611206C13.3391 0.611206 14.0107 1.28278 14.0107 2.11121L14.0107 12.0526Z" fill="white"/>
</svg>
