<svg width="38" height="38" viewBox="0 0 38 38" fill="none" xmlns="http://www.w3.org/2000/svg">
<rect width="38" height="38" rx="19" fill="url(#paint0_linear_3611_1089)"/>
<g clip-path="url(#clip0_3611_1089)">
<path fill-rule="evenodd" clip-rule="evenodd" d="M18.3288 13.4207L15.7563 15.991L14.9058 15.151L16.4583 13.591H12.8583C12.6219 13.591 12.3879 13.6376 12.1695 13.728C11.9511 13.8185 11.7526 13.9511 11.5855 14.1182C11.4184 14.2854 11.2858 14.4838 11.1953 14.7022C11.1049 14.9206 11.0583 15.1546 11.0583 15.391C11.0583 15.6274 11.1049 15.8614 11.1953 16.0798C11.2858 16.2982 11.4184 16.4966 11.5855 16.6638C11.7526 16.8309 11.9511 16.9635 12.1695 17.054C12.3879 17.1444 12.6219 17.191 12.8583 17.191H13.5258V18.391H12.8658C12.0956 18.3544 11.3691 18.0228 10.837 17.4648C10.3049 16.9068 10.0081 16.1654 10.0081 15.3944C10.0081 14.6234 10.3049 13.8819 10.837 13.324C11.3691 12.766 12.0956 12.4343 12.8658 12.3977H16.4658L14.905 10.8475L15.7563 10L18.3288 12.574V13.4207ZM22.465 28H15.265L14.665 27.4V17.809L15.265 17.209H22.465L23.065 17.809V27.4L22.465 28ZM15.865 26.8H21.865V18.409H15.865V26.8ZM20.065 11.2015H27.265L27.865 11.8015V21.391L27.265 21.991H24.265V20.791H26.665V12.4H20.665V15.9903H19.465V11.8008L20.065 11.2007V11.2015ZM20.665 19.591H17.065V20.791H20.665V19.591ZM17.065 21.991H20.665V23.191H17.065V21.991ZM20.665 24.391H17.065V25.591H20.665V24.391ZM21.865 13.591H25.465V14.791H21.865V13.591ZM25.465 18.391H24.265V19.591H25.465V18.391ZM22.9615 16.009V15.991H25.465V17.191H24.1435L22.9615 16.009Z" fill="#F9FAFC"/>
</g>
<defs>
<linearGradient id="paint0_linear_3611_1089" x1="19" y1="0" x2="19" y2="38" gradientUnits="userSpaceOnUse">
<stop stop-color="#FAB336"/>
<stop offset="1" stop-color="#F46F40"/>
</linearGradient>
<clipPath id="clip0_3611_1089">
<rect width="18" height="18" fill="white" transform="translate(10 10)"/>
</clipPath>
</defs>
</svg>
