<svg width="38" height="38" viewBox="0 0 38 38" fill="none" xmlns="http://www.w3.org/2000/svg">
<rect width="38" height="38" rx="19" fill="url(#paint0_linear_3611_1065)"/>
<path d="M12.615 27C12.155 27 11.771 26.846 11.463 26.538C11.1543 26.2293 11 25.845 11 25.385V12.615C11 12.155 11.1543 11.771 11.463 11.463C11.771 11.1543 12.155 11 12.615 11H25.385C25.845 11 26.229 11.1543 26.537 11.463C26.8457 11.771 27 12.155 27 12.615V25.385C27 25.845 26.846 26.229 26.538 26.537C26.2293 26.8457 25.845 27 25.385 27H12.615ZM12.615 26H25.385C25.5383 26 25.6793 25.936 25.808 25.808C25.936 25.6793 26 25.5383 26 25.385V12.615C26 12.4617 25.936 12.3207 25.808 12.192C25.6793 12.064 25.5383 12 25.385 12H12.615C12.4617 12 12.3207 12.064 12.192 12.192C12.064 12.3207 12 12.4617 12 12.615V25.385C12 25.5383 12.064 25.6793 12.192 25.808C12.3207 25.936 12.4617 26 12.615 26ZM15 23.5H20C20.142 23.5 20.261 23.4523 20.357 23.357C20.4523 23.261 20.5 23.142 20.5 23C20.5 22.858 20.4523 22.739 20.357 22.643C20.261 22.5477 20.142 22.5 20 22.5H15C14.858 22.5 14.739 22.5477 14.643 22.643C14.5477 22.739 14.5 22.858 14.5 23C14.5 23.142 14.5477 23.261 14.643 23.357C14.739 23.4523 14.858 23.5 15 23.5ZM15 19.5H23C23.142 19.5 23.261 19.4523 23.357 19.357C23.4523 19.261 23.5 19.142 23.5 19C23.5 18.858 23.4523 18.739 23.357 18.643C23.261 18.5477 23.142 18.5 23 18.5H15C14.858 18.5 14.739 18.5477 14.643 18.643C14.5477 18.739 14.5 18.858 14.5 19C14.5 19.142 14.5477 19.261 14.643 19.357C14.739 19.4523 14.858 19.5 15 19.5ZM15 15.5H23C23.142 15.5 23.261 15.4523 23.357 15.357C23.4523 15.261 23.5 15.142 23.5 15C23.5 14.858 23.4523 14.739 23.357 14.643C23.261 14.5477 23.142 14.5 23 14.5H15C14.858 14.5 14.739 14.5477 14.643 14.643C14.5477 14.739 14.5 14.858 14.5 15C14.5 15.142 14.5477 15.261 14.643 15.357C14.739 15.4523 14.858 15.5 15 15.5Z" fill="#F9FAFC"/>
<defs>
<linearGradient id="paint0_linear_3611_1065" x1="19" y1="0" x2="19" y2="38" gradientUnits="userSpaceOnUse">
<stop stop-color="#FAB336"/>
<stop offset="1" stop-color="#F46F40"/>
</linearGradient>
</defs>
</svg>
