<svg width="39" height="39" viewBox="0 0 39 39" fill="none" xmlns="http://www.w3.org/2000/svg">
<rect width="38.4167" height="38.4167" rx="19.2083" fill="url(#paint0_linear_3611_1114)"/>
<path d="M17.5833 21.375H20.27C20.4246 21.375 20.5535 21.3234 20.6567 21.2201C20.7607 21.1161 20.8127 20.9872 20.8127 20.8333C20.8127 20.6795 20.7607 20.5506 20.6567 20.4466C20.5535 20.3433 20.4249 20.2917 20.2711 20.2917H17.5833C17.4295 20.2917 17.3006 20.3433 17.1966 20.4466C17.0933 20.5506 17.0417 20.6795 17.0417 20.8333C17.0417 20.9872 17.0933 21.1161 17.1966 21.2201C17.3006 21.3234 17.4295 21.375 17.5833 21.375ZM17.5833 18.125H24.0422C24.196 18.125 24.3246 18.0734 24.4278 17.9701C24.5318 17.8661 24.5838 17.7372 24.5838 17.5833C24.5838 17.4295 24.5318 17.3006 24.4278 17.1966C24.3246 17.0933 24.196 17.0417 24.0422 17.0417H17.5833C17.4295 17.0417 17.3006 17.0933 17.1966 17.1966C17.0933 17.3006 17.0417 17.4295 17.0417 17.5833C17.0417 17.7372 17.0933 17.8661 17.1966 17.9701C17.3006 18.0734 17.4295 18.125 17.5833 18.125ZM17.5833 14.875H24.0422C24.196 14.875 24.3246 14.8234 24.4278 14.7201C24.5318 14.6161 24.5838 14.4872 24.5838 14.3333C24.5838 14.1795 24.5318 14.0506 24.4278 13.9466C24.3246 13.8433 24.196 13.7917 24.0422 13.7917H17.5833C17.4295 13.7917 17.3006 13.8433 17.1966 13.9466C17.0933 14.0506 17.0417 14.1795 17.0417 14.3333C17.0417 14.4872 17.0933 14.6161 17.1966 14.7201C17.3006 14.8234 17.4295 14.875 17.5833 14.875ZM14.9996 25.1667C14.5012 25.1667 14.0852 24.9998 13.7516 24.6662C13.4172 24.3318 13.25 23.9154 13.25 23.4171V11.7496C13.25 11.2512 13.4172 10.8353 13.7516 10.5016C14.0852 10.1672 14.5012 10 14.9996 10H26.6671C27.1654 10 27.5814 10.1672 27.9151 10.5016C28.2495 10.8353 28.4167 11.2512 28.4167 11.7496V23.4171C28.4167 23.9154 28.2498 24.3318 27.9162 24.6662C27.5818 24.9998 27.1654 25.1667 26.6671 25.1667H14.9996ZM14.9996 24.0833H26.6671C26.8332 24.0833 26.9859 24.014 27.1253 23.8753C27.264 23.7359 27.3333 23.5832 27.3333 23.4171V11.7496C27.3333 11.5835 27.264 11.4307 27.1253 11.2913C26.9859 11.1527 26.8332 11.0833 26.6671 11.0833H14.9996C14.8335 11.0833 14.6807 11.1527 14.5413 11.2913C14.4027 11.4307 14.3333 11.5835 14.3333 11.7496V23.4171C14.3333 23.5832 14.4027 23.7359 14.5413 23.8753C14.6807 24.014 14.8335 24.0833 14.9996 24.0833ZM11.7496 28.4167C11.2512 28.4167 10.8353 28.2498 10.5016 27.9162C10.1672 27.5818 10 27.1654 10 26.6671V14.4579C10 14.3041 10.0516 14.1755 10.1549 14.0722C10.2589 13.9682 10.3878 13.9162 10.5417 13.9162C10.6955 13.9162 10.8244 13.9682 10.9284 14.0722C11.0324 14.1762 11.0841 14.3048 11.0833 14.4579V26.6671C11.0833 26.8332 11.1527 26.9859 11.2913 27.1253C11.4307 27.264 11.5835 27.3333 11.7496 27.3333H23.9587C24.1126 27.3333 24.2411 27.385 24.3444 27.4882C24.4477 27.5915 24.4997 27.7204 24.5004 27.875C24.5004 28.0288 24.4484 28.1577 24.3444 28.2617C24.2411 28.365 24.1126 28.4167 23.9587 28.4167H11.7496Z" fill="#FAF9FF"/>
<defs>
<linearGradient id="paint0_linear_3611_1114" x1="19.2083" y1="0" x2="19.2083" y2="38.4167" gradientUnits="userSpaceOnUse">
<stop stop-color="#FAB336"/>
<stop offset="1" stop-color="#F46F40"/>
</linearGradient>
</defs>
</svg>
