<svg width="20" height="24" viewBox="0 0 20 24" fill="none" xmlns="http://www.w3.org/2000/svg">
<path d="M12 5.25C12.0001 5.42554 11.9385 5.59554 11.8262 5.73039C11.7138 5.86524 11.5577 5.9564 11.385 5.988L11.25 6H5.25C5.06258 6.00035 4.88182 5.93051 4.74332 5.80424C4.60483 5.67797 4.51862 5.50442 4.50169 5.31777C4.48475 5.13111 4.53832 4.94489 4.65183 4.79575C4.76534 4.64662 4.93058 4.54539 5.115 4.512L5.25 4.5H11.25C11.4489 4.5 11.6397 4.57902 11.7803 4.71967C11.921 4.86032 12 5.05109 12 5.25ZM12 10.5C12.0001 10.6755 11.9385 10.8455 11.8262 10.9804C11.7138 11.1152 11.5577 11.2064 11.385 11.238L11.25 11.25H5.25C5.06258 11.2503 4.88182 11.1805 4.74332 11.0542C4.60483 10.928 4.51862 10.7544 4.50169 10.5678C4.48475 10.3811 4.53832 10.1949 4.65183 10.0458C4.76534 9.89662 4.93058 9.79539 5.115 9.762L5.25 9.75H11.25C11.4489 9.75 11.6397 9.82902 11.7803 9.96967C11.921 10.1103 12 10.3011 12 10.5ZM12 15.75C12.0001 15.9255 11.9385 16.0955 11.8262 16.2304C11.7138 16.3652 11.5577 16.4564 11.385 16.488L11.25 16.5H5.25C5.06258 16.5003 4.88182 16.4305 4.74332 16.3042C4.60483 16.178 4.51862 16.0044 4.50169 15.8178C4.48475 15.6311 4.53832 15.4449 4.65183 15.2958C4.76534 15.1466 4.93058 15.0454 5.115 15.012L5.25 15H11.25C11.4489 15 11.6397 15.079 11.7803 15.2197C11.921 15.3603 12 15.5511 12 15.75ZM3 0C2.20435 0 1.44129 0.31607 0.878679 0.87868C0.31607 1.44129 0 2.20435 0 3V18C0 18.7956 0.31607 19.5587 0.878679 20.1213C1.44129 20.6839 2.20435 21 3 21H13.5C14.2956 21 15.0587 20.6839 15.6213 20.1213C16.1839 19.5587 16.5 18.7956 16.5 18V3C16.5 2.20435 16.1839 1.44129 15.6213 0.87868C15.0587 0.31607 14.2956 0 13.5 0H3ZM1.5 18V3C1.5 2.60218 1.65804 2.22064 1.93934 1.93934C2.22064 1.65804 2.60217 1.5 3 1.5H13.5C13.8978 1.5 14.2794 1.65804 14.5607 1.93934C14.842 2.22064 15 2.60218 15 3V18C15 18.3978 14.842 18.7794 14.5607 19.0607C14.2794 19.342 13.8978 19.5 13.5 19.5H3C2.60217 19.5 2.22064 19.342 1.93934 19.0607C1.65804 18.7794 1.5 18.3978 1.5 18ZM18 9C18.3978 9 18.7794 9.15804 19.0607 9.43934C19.342 9.72064 19.5 10.1022 19.5 10.5V18.09C19.5 18.8661 19.3471 19.6346 19.0501 20.3517C18.7531 21.0687 18.3178 21.7202 17.769 22.269C17.2202 22.8178 16.5687 23.2531 15.8517 23.5501C15.1346 23.8471 14.3661 24 13.59 24H4.5C4.10217 24 3.72064 23.842 3.43934 23.5607C3.15804 23.2794 3 22.8978 3 22.5H13.5C14.6935 22.5 15.8381 22.0259 16.682 21.182C17.5259 20.3381 18 19.1935 18 18V9Z" fill="#FF8906"/>
</svg>
