<svg width="20" height="20" viewBox="0 0 20 20" fill="none" xmlns="http://www.w3.org/2000/svg">
<path d="M17.5 5.00001H14.8583L13.3333 3.33334H8.33333V5.00001H12.6L14.125 6.66668H17.5V16.6667H4.16667V9.16668H2.5V16.6667C2.5 17.5833 3.25 18.3333 4.16667 18.3333H17.5C18.4167 18.3333 19.1667 17.5833 19.1667 16.6667V6.66668C19.1667 5.75001 18.4167 5.00001 17.5 5.00001ZM6.66667 11.6667C6.66667 13.9667 8.53333 15.8333 10.8333 15.8333C13.1333 15.8333 15 13.9667 15 11.6667C15 9.36668 13.1333 7.50001 10.8333 7.50001C8.53333 7.50001 6.66667 9.36668 6.66667 11.6667ZM10.8333 9.16668C12.2083 9.16668 13.3333 10.2917 13.3333 11.6667C13.3333 13.0417 12.2083 14.1667 10.8333 14.1667C9.45833 14.1667 8.33333 13.0417 8.33333 11.6667C8.33333 10.2917 9.45833 9.16668 10.8333 9.16668ZM4.16667 5.00001H6.66667V3.33334H4.16667V0.833344H2.5V3.33334H0V5.00001H2.5V7.50001H4.16667V5.00001Z" fill="#FF8906"/>
</svg>
