<svg width="116" height="108" viewBox="0 0 116 108" fill="none" xmlns="http://www.w3.org/2000/svg">
<path d="M109.104 55.046C108.958 64.5617 106.434 74.1066 101.299 82.1628C100.147 84.2498 98.5715 86.0596 97.171 87.986C95.5372 89.7228 94.0492 91.5909 92.2111 93.1088C91.3066 93.8823 90.5043 94.7725 89.5123 95.4439L86.653 97.5601C85.6902 98.2607 84.6253 98.8007 83.6187 99.4428L82.087 100.362C81.5618 100.654 81.0221 100.888 80.4823 101.136L77.2583 102.654L73.9031 103.85C72.7944 104.303 71.6419 104.551 70.4895 104.843C69.337 105.106 68.1992 105.485 67.0321 105.646C64.6834 105.981 62.3493 106.404 59.9715 106.419C57.6082 106.58 55.2304 106.536 52.8817 106.317C48.1698 105.879 43.5162 104.784 39.1106 103.091C34.705 101.369 30.5474 99.0488 26.7691 96.2174L26.5794 96.0715L26.3315 96.1298L0.933647 102.493L1.67764 103.369L12.2977 79.7693L12.4436 79.4628L12.2831 79.1563C8.65073 72.3406 6.57922 64.6931 6.27288 56.9579C6.09782 49.2374 7.3378 41.4147 10.5763 34.3509C13.7274 27.2871 18.4685 20.9385 24.3329 15.8596C30.2119 10.7952 37.3163 7.19036 44.8291 5.24928C52.3565 3.3228 60.3362 3.0601 67.9803 4.63631C75.6099 6.22712 82.8747 9.58388 89.0747 14.3417C101.562 23.8428 109.06 39.3715 109.104 55.0606V55.046ZM109.104 55.046C109.133 39.3569 101.708 23.7552 89.2205 14.152C83.0498 9.29199 75.7849 5.81847 68.097 4.11091C60.3946 2.43253 52.3128 2.59307 44.654 4.46118C36.9953 6.34388 29.7159 9.91956 23.6472 15.0277C17.5786 20.1212 12.677 26.5866 9.42389 33.8255C6.06864 41.0498 4.75571 49.0769 4.9016 57.0017C5.1496 64.9412 7.27946 72.8223 11.0723 79.8131L11.0432 79.2001L0.539772 102.858L7.62939e-06 104.069L1.28377 103.734L26.6232 97.1369L26.1856 97.0493C30.066 99.8952 34.3403 102.201 38.8334 103.894C43.3411 105.573 48.0676 106.609 52.8525 107.003C55.245 107.193 57.652 107.207 60.0299 107.017C62.4369 106.988 64.7856 106.521 67.1488 106.156C68.3305 105.981 69.4683 105.587 70.6354 105.31C71.7878 105.003 72.9549 104.726 74.0636 104.259L77.4188 103.004C78.4983 102.508 79.5633 101.953 80.6428 101.442C81.1679 101.165 81.7223 100.931 82.2475 100.64L83.7792 99.7055C84.7858 99.0634 85.8507 98.4942 86.7989 97.779L89.6582 95.619C90.6356 94.9331 91.4525 94.0428 92.357 93.2693C94.1951 91.7369 95.6831 89.8542 97.3169 88.1028C98.7028 86.1617 100.278 84.352 101.431 82.2504C106.537 74.1504 109.017 64.5763 109.119 55.0606L109.104 55.046Z" fill="#263238" fill-opacity="0.5"/>
<path d="M35 54.5463L42.2123 47.1755L56.1072 59.7997L79.3018 36L86 43.3708L55.0791 74L35 54.5463Z" fill="#FF8906"/>
</svg>
