<svg width="118" height="109" viewBox="0 0 118 109" fill="none" xmlns="http://www.w3.org/2000/svg">
<path d="M7.01484 55.995C7.16324 65.6748 9.73048 75.3842 14.954 83.5793C16.1263 85.7023 17.729 87.5433 19.1536 89.503C20.8156 91.2697 22.3293 93.17 24.1991 94.714C25.1191 95.5009 25.9353 96.4065 26.9444 97.0894L29.8529 99.2421C30.8324 99.9547 31.9156 100.504 32.9396 101.157L34.4977 102.093C35.0319 102.39 35.581 102.627 36.1301 102.879L39.4096 104.423L42.8227 105.641C43.9505 106.101 45.1229 106.353 46.2952 106.65C47.4675 106.918 48.625 107.304 49.8122 107.467C52.2013 107.808 54.5757 108.239 56.9945 108.254C59.3985 108.417 61.8174 108.373 64.2066 108.15C68.9997 107.704 73.7336 106.591 78.2151 104.869C82.6967 103.117 86.9259 100.756 90.7694 97.8763L90.9623 97.7278L91.2146 97.7872L117.05 104.26L116.293 105.151L105.49 81.1446L105.342 80.8328L105.505 80.521C109.2 73.5878 111.307 65.8084 111.619 57.9399C111.797 50.0863 110.536 42.1287 107.241 34.9431C104.036 27.7575 99.2131 21.2994 93.2476 16.1329C87.2673 10.9813 80.0404 7.31427 72.398 5.33972C64.7408 3.38002 56.6235 3.11279 48.8476 4.71618C41.0865 6.33442 33.6964 9.74905 27.3896 14.5889C14.6869 24.2538 7.05936 40.0502 7.01484 56.0099V55.995ZM7.01484 55.995C6.98516 40.0354 14.5385 24.1647 27.2412 14.3959C33.5183 9.45213 40.9084 5.91873 48.7289 4.18172C56.5642 2.4744 64.7853 2.63771 72.5761 4.53803C80.3668 6.45319 87.7718 10.0905 93.9451 15.2867C100.118 20.468 105.104 27.0449 108.414 34.4086C111.827 41.7575 113.162 49.9229 113.014 57.9844C112.762 66.0608 110.595 74.0778 106.737 81.1891L106.766 80.5656L117.451 104.631L118 105.864L116.694 105.522L90.9178 98.8116L91.363 98.7225C87.4156 101.618 83.0676 103.963 78.4971 105.685C73.9116 107.393 69.1036 108.447 64.2362 108.848C61.8025 109.041 59.354 109.055 56.9352 108.862C54.4866 108.833 52.0975 108.358 49.6934 107.987C48.4914 107.808 47.334 107.408 46.1468 107.125C44.9745 106.814 43.7873 106.532 42.6595 106.057L39.2464 104.78C38.1483 104.275 37.065 103.711 35.9668 103.191C35.4326 102.909 34.8687 102.672 34.3345 102.375L32.7763 101.425C31.7524 100.771 30.6691 100.192 29.7045 99.4648L26.796 97.2676C25.8017 96.5698 24.9707 95.6642 24.0507 94.8773C22.1809 93.3185 20.6672 91.4033 19.0052 89.6217C17.5955 87.6472 15.9928 85.8063 14.8205 83.6684C9.6266 75.4288 7.10388 65.6896 7 56.0099L7.01484 55.995Z" fill="#263238" fill-opacity="0.5"/>
<path d="M37 55.5463L44.2123 48.1755L58.1072 60.7997L81.3018 37L88 44.3708L57.0791 75L37 55.5463Z" fill="#FF8906"/>
</svg>
