<svg width="28" height="18" viewBox="0 0 28 18" fill="none" xmlns="http://www.w3.org/2000/svg">
<path d="M26.9938 8.34375C27.0875 8.53125 27.1344 8.76562 27.1344 9.04688C27.1344 9.28125 27.0875 9.51562 26.9938 9.70312C24.4625 14.6719 19.4 18 13.6813 18C7.91563 18 2.85313 14.6719 0.321876 9.70312C0.228126 9.51562 0.181251 9.28125 0.181251 9C0.181251 8.76562 0.228126 8.53125 0.321876 8.34375C2.85313 3.375 7.91563 0 13.6813 0C19.4 0 24.4625 3.375 26.9938 8.34375ZM13.6813 15.75V15.7969C17.3844 15.7969 20.4313 12.75 20.4313 9.04688V9C20.4313 5.29688 17.3844 2.25 13.6813 2.25C9.93125 2.25 6.93125 5.29688 6.93125 9C6.93125 12.75 9.93125 15.75 13.6813 15.75ZM13.6813 4.5V4.54688C16.1656 4.54688 18.1813 6.51562 18.1813 9C18.1813 11.4844 16.1656 13.5 13.6813 13.5C11.1969 13.5 9.18125 11.4844 9.18125 9C9.18125 8.625 9.22813 8.20312 9.32188 7.82812C9.69688 8.10938 10.1656 8.25 10.6813 8.25C11.9 8.25 12.8844 7.26562 12.8844 6.04688C12.8844 5.53125 12.7438 5.0625 12.4625 4.6875C12.8375 4.59375 13.2594 4.54688 13.6813 4.5Z" fill="#263238" fill-opacity="0.88"/>
</svg>
