<svg width="135" height="48" viewBox="0 0 135 48" fill="none" xmlns="http://www.w3.org/2000/svg">
<mask id="mask0_2345_297" style="mask-type:luminance" maskUnits="userSpaceOnUse" x="0" y="0" width="135" height="48">
<path d="M134.5 0H0.5V48H134.5V0Z" fill="white"/>
</mask>
<g mask="url(#mask0_2345_297)">
<path d="M39.6159 38.7976C39.914 38.5418 40.2988 38.4074 40.6928 38.4216C41.0868 38.4357 41.4608 38.5972 41.7396 38.8737C42.0184 39.1503 42.1813 39.5212 42.1955 39.912C42.2098 40.3028 42.0743 40.6845 41.8163 40.9802C37.2752 45.4759 31.1212 48.0008 24.7051 48.0008C18.2889 48.0008 12.135 45.4759 7.59383 40.9802C5.34555 38.7521 3.56201 36.1064 2.34514 33.1942C1.12828 30.2821 0.501953 27.1607 0.501953 24.0084C0.501953 20.856 1.12828 17.7346 2.34514 14.8225C3.56201 11.9104 5.34555 9.26464 7.59383 7.03653C9.84024 4.80657 12.5077 3.03756 15.4437 1.83062C18.3798 0.623668 21.5268 0.00244141 24.7051 0.00244141C27.8833 0.00244141 31.0304 0.623668 33.9664 1.83062C36.9025 3.03756 39.5699 4.80657 41.8163 7.03653C41.9785 7.17562 42.1099 7.34636 42.2026 7.53809C42.2952 7.72982 42.347 7.93843 42.3547 8.1509C42.3625 8.36337 42.326 8.57514 42.2475 8.773C42.1691 8.97086 42.0504 9.15056 41.8988 9.3009C41.7473 9.45123 41.5661 9.56898 41.3666 9.64678C41.1671 9.72458 40.9536 9.76077 40.7394 9.75309C40.5252 9.74542 40.3148 9.69404 40.1215 9.60216C39.9282 9.51028 39.7561 9.37988 39.6159 9.21909C37.6601 7.27284 35.3362 5.72862 32.7775 4.67496C30.2188 3.6213 27.4755 3.07892 24.7051 3.07892C21.9346 3.07892 19.1914 3.6213 16.6327 4.67496C14.074 5.72862 11.7501 7.27284 9.79432 9.21909C7.836 11.1611 6.28256 13.4668 5.2227 16.0043C4.16285 18.5419 3.61735 21.2617 3.61735 24.0084C3.61735 26.7551 4.16285 29.4748 5.2227 32.0124C6.28256 34.55 7.836 36.8556 9.79432 38.7976C11.7523 40.74 14.0769 42.2808 16.6353 43.332C19.1937 44.3832 21.9358 44.9243 24.7051 44.9243C27.4743 44.9243 30.2165 44.3832 32.7749 43.332C35.3333 42.2808 37.6579 40.74 39.6159 38.7976Z" fill="#FF9900"/>
<path d="M31.0762 16.858V31.0772H34.147V26.4026H36.4789C39.9438 26.4026 42.6698 25.3113 42.6698 21.6303C42.6698 17.9492 39.911 16.858 36.4789 16.858H31.0762ZM39.5333 21.6303C39.5333 23.259 38.2031 23.7314 36.6267 23.7314H34.147V19.5454H36.6267C38.2688 19.5454 39.5333 19.9526 39.5333 21.6303ZM47.7441 31.0772V26.0605H50.0102L53.8693 30.9469H57.4164L53.1303 25.5882C54.0548 25.3724 54.8768 24.849 55.4595 24.1051C56.0422 23.3612 56.3503 22.4418 56.3325 21.5C56.3325 17.9004 53.4259 16.858 50.6507 16.858H44.7389V31.0772H47.7441ZM47.7441 19.5454H50.7492C52.0465 19.5454 53.1632 20.0992 53.1632 21.5488C53.1632 22.9984 52.0465 23.5685 50.7492 23.5685H47.7769V19.5454H47.7441ZM63.049 20.6204C63.049 25.6533 70.8821 24.6598 70.8821 27.331C70.8821 28.3408 69.8639 28.6829 68.2053 28.6829C66.4022 28.6885 64.6374 28.1673 63.1311 27.1844V30.0836C64.7615 30.9491 66.5861 31.3917 68.4352 31.3703C71.4404 31.3703 74.0186 30.3768 74.0186 27.1844C74.0186 22.1189 66.1855 23.031 66.1855 20.5879C66.1855 19.7083 66.9573 19.2848 68.5173 19.2685C70.0868 19.2104 71.6341 19.6497 72.9347 20.5227V17.6723C71.4993 16.9361 69.9033 16.5613 68.2874 16.5811C65.4629 16.5811 63.049 17.8841 63.049 20.6204ZM88.7487 16.858L83.8223 24.2526L78.8958 16.858H76.1205V31.0772H79.1914V22.3144L82.9847 28.0314H84.7583L88.5517 22.3306V31.0772H91.6225V16.858H88.7487ZM96.3519 31.0772L97.3865 28.4223H103.955L105.006 31.0772H108.224L102.395 16.858H99.0286L93.1661 31.0772H96.3519ZM100.375 20.7996C100.528 20.4446 100.638 20.0728 100.703 19.692C100.768 20.0692 100.867 20.4399 100.999 20.7996L103.019 25.8977H98.421L100.408 20.7996H100.375ZM112.855 31.0772V26.0605H115.122L118.981 30.9469H122.528L118.242 25.5882C119.177 25.3552 120.001 24.8069 120.573 24.0373C121.146 23.2677 121.43 22.3246 121.378 21.3697C121.378 17.7701 118.472 16.7277 115.68 16.7277H109.817V30.9469L112.855 31.0772ZM112.855 19.5454H115.828C117.125 19.5454 118.242 20.0992 118.242 21.5488C118.242 22.9984 117.125 23.5685 115.828 23.5685H112.888V19.5454H112.855ZM122.61 16.858V19.5454H127.011V30.9469H130.065V19.5454H134.499V16.858H122.61Z" fill="#263238"/>
<path fill-rule="evenodd" clip-rule="evenodd" d="M24.7047 11.9553C25.1402 11.9553 25.5579 12.1269 25.8659 12.4324C26.1738 12.7378 26.3468 13.1521 26.3468 13.5841V34.4161C26.3468 34.8481 26.1738 35.2624 25.8659 35.5678C25.5579 35.8733 25.1402 36.0449 24.7047 36.0449C24.2692 36.0449 23.8515 35.8733 23.5435 35.5678C23.2355 35.2624 23.0625 34.8481 23.0625 34.4161V13.5841C23.0625 13.1521 23.2355 12.7378 23.5435 12.4324C23.8515 12.1269 24.2692 11.9553 24.7047 11.9553Z" fill="#263238"/>
</g>
</svg>
