<svg width="6" height="9" viewBox="0 0 6 9" fill="none" xmlns="http://www.w3.org/2000/svg">
<path d="M0.691199 8.8019C0.568775 8.67501 0.5 8.50294 0.5 8.32353C0.5 8.14411 0.568775 7.97205 0.691199 7.84516L3.92372 4.49591L0.691199 1.14667C0.572244 1.01906 0.506422 0.848142 0.50791 0.670735C0.509398 0.493329 0.578077 0.323626 0.699154 0.198175C0.820232 0.0727253 0.984021 0.00156689 1.15524 2.57492e-05C1.32647 -0.00151539 1.49143 0.0666828 1.61459 0.189934L5.3088 4.01755C5.43123 4.14443 5.5 4.3165 5.5 4.49591C5.5 4.67533 5.43123 4.8474 5.3088 4.97428L1.61459 8.8019C1.49213 8.92874 1.32606 9 1.15289 9C0.979733 9 0.813661 8.92874 0.691199 8.8019Z" fill="url(#paint0_linear_2352_328)"/>
<defs>
<linearGradient id="paint0_linear_2352_328" x1="5.5" y1="4.5" x2="0.5" y2="4.5" gradientUnits="userSpaceOnUse">
<stop stop-color="#FAB336"/>
<stop offset="1" stop-color="#F46F40"/>
</linearGradient>
</defs>
</svg>
