<svg width="21" height="21" viewBox="0 0 21 21" fill="none" xmlns="http://www.w3.org/2000/svg">
<path d="M19.8859 17.2997C20.2375 17.6903 20.2375 18.2762 19.8469 18.6278L18.7531 19.7216C18.4016 20.1122 17.8156 20.1122 17.425 19.7216L13.5578 15.8544C13.3625 15.6591 13.2844 15.4247 13.2844 15.1903V14.5262C11.8781 15.62 10.1594 16.245 8.28438 16.245C3.79219 16.245 0.159375 12.6122 0.159375 8.12C0.159375 3.66687 3.79219 -0.00500488 8.28438 -0.00500488C12.7375 -0.00500488 16.4094 3.66687 16.4094 8.12C16.4094 10.0341 15.7453 11.7528 14.6906 13.12H15.3156C15.55 13.12 15.7844 13.2372 15.9797 13.3934L19.8859 17.2997ZM8.28438 13.12C11.0188 13.12 13.2844 10.8934 13.2844 8.12C13.2844 5.38562 11.0188 3.12 8.28438 3.12C5.51094 3.12 3.28438 5.38562 3.28438 8.12C3.28438 10.8934 5.51094 13.12 8.28438 13.12Z" fill="#263238" fill-opacity="0.88"/>
</svg>
