<svg width="46" height="46" viewBox="0 0 46 46" fill="none" xmlns="http://www.w3.org/2000/svg">
<path d="M13.9125 15.1875C13.4906 15.1875 13.1625 14.8594 13.1625 14.4375V12.5625C13.1625 12.1875 13.4906 11.8125 13.9125 11.8125H33.4125C33.7875 11.8125 34.1625 12.1875 34.1625 12.5625V14.4375C34.1625 14.8594 33.7875 15.1875 33.4125 15.1875H13.9125ZM13.9125 22.6875C13.4906 22.6875 13.1625 22.3594 13.1625 21.9375V20.0625C13.1625 19.6875 13.4906 19.3125 13.9125 19.3125H33.4125C33.7875 19.3125 34.1625 19.6875 34.1625 20.0625V21.9375C34.1625 22.3594 33.7875 22.6875 33.4125 22.6875H13.9125ZM13.9125 30.1875C13.4906 30.1875 13.1625 29.8594 13.1625 29.4375V27.5625C13.1625 27.1875 13.4906 26.8125 13.9125 26.8125H33.4125C33.7875 26.8125 34.1625 27.1875 34.1625 27.5625V29.4375C34.1625 29.8594 33.7875 30.1875 33.4125 30.1875H13.9125Z" fill="#263238" fill-opacity="0.88"/>
</svg>
