<svg width="45" height="46" viewBox="0 0 45 46" fill="none" xmlns="http://www.w3.org/2000/svg">
<g clip-path="url(#clip0_2345_315)">
<g clip-path="url(#clip1_2345_315)">
<path d="M33.0861 31.5543C31.5907 29.8843 29.4181 28.8333 27 28.8333C24.5819 28.8333 22.4091 29.8843 20.9137 31.5543M27 33.5C21.201 33.5 16.5 28.799 16.5 23C16.5 17.201 21.201 12.5 27 12.5C32.799 12.5 37.5 17.201 37.5 23C37.5 28.799 32.799 33.5 27 33.5ZM27 25.3333C25.067 25.3333 23.5 23.7663 23.5 21.8333C23.5 19.9003 25.067 18.3333 27 18.3333C28.933 18.3333 30.5 19.9003 30.5 21.8333C30.5 23.7663 28.933 25.3333 27 25.3333Z" stroke="#263238" stroke-width="2" stroke-linecap="round" stroke-linejoin="round"/>
</g>
</g>
<defs>
<clipPath id="clip0_2345_315">
<rect width="28" height="28" fill="white" transform="translate(13 9)"/>
</clipPath>
<clipPath id="clip1_2345_315">
<rect width="28" height="28" fill="white" transform="translate(13 9)"/>
</clipPath>
</defs>
</svg>
