<svg width="24" height="24" viewBox="0 0 24 24" fill="none" xmlns="http://www.w3.org/2000/svg">
<path d="M18.0861 20.5543C16.5907 18.8843 14.4181 17.8333 12 17.8333C9.5819 17.8333 7.40907 18.8843 5.91374 20.5543M12 22.5C6.20101 22.5 1.5 17.799 1.5 12C1.5 6.20101 6.20101 1.5 12 1.5C17.799 1.5 22.5 6.20101 22.5 12C22.5 17.799 17.799 22.5 12 22.5ZM12 14.3333C10.067 14.3333 8.5 12.7663 8.5 10.8333C8.5 8.9003 10.067 7.33333 12 7.33333C13.933 7.33333 15.5 8.9003 15.5 10.8333C15.5 12.7663 13.933 14.3333 12 14.3333Z" stroke="#263238" stroke-width="2" stroke-linecap="round" stroke-linejoin="round"/>
</svg>
