<svg width="18" height="10" viewBox="0 0 18 10" fill="none" xmlns="http://www.w3.org/2000/svg">
<path d="M8.43925 0.236171L0.213914 8.72219C0.0766005 8.86378 0 9.05189 0 9.24752C0 9.44314 0.0766005 9.63125 0.213914 9.77285L0.223208 9.78198C0.289775 9.85086 0.3699 9.90571 0.458711 9.94319C0.547521 9.98067 0.64316 10 0.739808 10C0.836457 10 0.932096 9.98067 1.02091 9.94319C1.10972 9.90571 1.18984 9.85086 1.25641 9.78198L9.00155 1.79085L16.7436 9.78198C16.8102 9.85086 16.8903 9.90571 16.9791 9.94319C17.0679 9.98067 17.1635 10 17.2602 10C17.3568 10 17.4525 9.98067 17.5413 9.94319C17.6301 9.90571 17.7102 9.85086 17.7768 9.78198L17.7861 9.77285C17.9234 9.63125 18 9.44314 18 9.24752C18 9.05189 17.9234 8.86378 17.7861 8.72219L9.56075 0.236171C9.48841 0.16154 9.40141 0.102126 9.30502 0.0615295C9.20863 0.0209331 9.10486 0 9 0C8.89513 0 8.79136 0.0209331 8.69497 0.0615295C8.59859 0.102126 8.51159 0.16154 8.43925 0.236171Z" fill="#FF8906"/>
</svg>
