<svg width="20" height="20" viewBox="0 0 20 20" fill="none" xmlns="http://www.w3.org/2000/svg">
<path d="M18.1633 6.28828L8.16328 16.2883C8.07618 16.3757 7.97269 16.445 7.85873 16.4923C7.74478 16.5397 7.6226 16.564 7.49922 16.564C7.37583 16.564 7.25365 16.5397 7.1397 16.4923C7.02574 16.445 6.92225 16.3757 6.83515 16.2883L2.46015 11.9133C2.37295 11.8261 2.30377 11.7225 2.25658 11.6086C2.20938 11.4947 2.18509 11.3725 2.18509 11.2492C2.18509 11.1259 2.20938 11.0038 2.25658 10.8898C2.30377 10.7759 2.37295 10.6724 2.46015 10.5852C2.54736 10.4979 2.65089 10.4288 2.76483 10.3816C2.87877 10.3344 3.00089 10.3101 3.12422 10.3101C3.24754 10.3101 3.36966 10.3344 3.4836 10.3816C3.59754 10.4288 3.70107 10.4979 3.78828 10.5852L7.5 14.2969L16.8367 4.96172C17.0128 4.7856 17.2517 4.68665 17.5008 4.68665C17.7498 4.68665 17.9887 4.7856 18.1648 4.96172C18.341 5.13784 18.4399 5.37671 18.4399 5.62578C18.4399 5.87485 18.341 6.11372 18.1648 6.28984L18.1633 6.28828Z" fill="white" fill-opacity="0.933333"/>
</svg>
