<svg width="20" height="20" viewBox="0 0 20 20" fill="none" xmlns="http://www.w3.org/2000/svg">
<rect x="1" y="1" width="18" height="18" rx="1" stroke="#FF8906" stroke-width="2" stroke-linejoin="round"/>
<path d="M8.4439 13.2679L8.08048 12.8833L4.36351 8.95034C4.36351 8.95034 4.36351 8.95034 4.3635 8.95033C4.17441 8.75028 3.85771 8.74067 3.6561 8.93053C3.4562 9.11971 3.44673 9.43641 3.63672 9.63793L8.08029 14.3465C8.17207 14.4436 8.30229 14.4999 8.44387 14.4999C8.587 14.4999 8.71655 14.4433 8.80661 14.3475L8.80736 14.3467L16.3631 6.34392L8.4439 13.2679ZM8.4439 13.2679L8.80729 12.8833M8.4439 13.2679L8.80729 12.8833M8.80729 12.8833L15.6363 5.65634C15.8254 5.45627 16.1421 5.44666 16.3437 5.63653M8.80729 12.8833L16.3437 5.63653M16.3437 5.63653C16.5435 5.82563 16.5531 6.14213 16.3633 6.34366L16.3437 5.63653Z" fill="#263238" fill-opacity="0.7" stroke="#FF8906"/>
</svg>
