<svg width="30" height="30" viewBox="0 0 30 30" fill="none" xmlns="http://www.w3.org/2000/svg">
<path fill-rule="evenodd" clip-rule="evenodd" d="M22.2586 22.0908C22.2923 22.0935 22.3904 22.128 22.4313 22.1382C22.4936 22.1538 22.5523 22.1662 22.6153 22.1778C22.8632 22.2235 23.1704 22.2356 23.4139 22.1604C23.4734 22.142 23.5214 22.1234 23.5753 22.0982C23.6317 22.0719 23.6697 22.0372 23.7135 22.0135C23.7324 22.2268 23.6613 22.5045 23.5843 22.672C23.3626 23.1546 22.8796 23.4144 22.3639 23.3954C22.1769 23.3885 22.1762 23.3588 22.0524 23.3234C22.0551 23.2874 22.078 23.2161 22.0884 23.1774C22.1222 23.053 22.1631 22.8627 22.1853 22.7384C22.2228 22.5282 22.2509 22.3131 22.2586 22.0908H22.2586ZM22.9042 21.4991C23.0372 21.4792 23.143 21.5835 23.1581 21.6979C23.1762 21.8349 23.0804 21.9483 22.9632 21.9637C22.8266 21.9816 22.7202 21.8826 22.7038 21.7641C22.6838 21.6189 22.7845 21.517 22.9042 21.4991ZM22.3577 21.1227C22.4575 21.0979 22.5363 21.1686 22.5544 21.2475C22.5772 21.3473 22.5086 21.4298 22.4336 21.4486C22.2233 21.5014 22.1432 21.1761 22.3577 21.1227ZM23.0681 20.6964L23.0655 19.4258L23.8088 19.4252C23.8183 19.5555 23.8103 19.8948 23.8101 20.0608C23.81 20.1802 23.8127 20.1439 23.875 20.2071L24.2019 20.5144C24.2347 20.5437 24.2804 20.5936 24.3158 20.6148L24.8096 20.3854C24.8272 20.4039 25.1096 20.9079 25.1156 20.9315C25.0453 20.9641 24.7777 21.1313 24.6892 21.1828C24.6846 21.2167 24.7443 21.7668 24.7562 21.8155L25.3352 21.8156L25.335 22.4802L24.7715 22.4808L24.6247 22.9332L24.8696 23.1323C24.9109 23.1664 24.9498 23.1967 24.9908 23.2289C25.0346 23.2633 25.0707 23.3019 25.1158 23.3275C25.1069 23.3675 24.8118 23.7572 24.7674 23.8366C24.7376 23.8287 24.683 23.7856 24.6544 23.7678C24.6176 23.7447 24.5802 23.7201 24.5456 23.6976C24.5018 23.6691 24.3645 23.5685 24.3259 23.5569C24.2333 23.6633 24.1139 23.7655 24.0201 23.8637L23.9157 23.9683C23.9263 24.007 23.9582 24.0608 23.9769 24.0981C24.0097 24.1632 24.1564 24.4479 24.1619 24.4777C24.0811 24.5125 23.7117 24.7568 23.6542 24.7711C23.6119 24.6755 23.4053 24.3476 23.3916 24.2939C23.3488 24.2976 22.8281 24.4499 22.806 24.4646L22.8052 24.9929L22.1764 24.9933L22.1731 24.4348C22.0986 24.4216 22.0225 24.4148 21.949 24.4027C21.8945 24.3938 21.7743 24.3707 21.7239 24.3745C21.6976 24.4023 21.6365 24.494 21.6198 24.5014C21.6204 24.421 21.6319 24.3171 21.6363 24.231L21.6489 23.6604C21.6483 23.5995 21.6366 23.4241 21.645 23.3778C21.6618 23.4 21.8428 23.499 21.8924 23.5204C21.992 23.5632 22.0874 23.5902 22.1997 23.6077C22.6933 23.6849 23.3261 23.5141 23.6368 23.1082C23.6972 23.0293 23.742 22.9581 23.7904 22.8569C23.9694 22.4826 24.0033 21.9227 23.8495 21.5115C23.7241 21.1764 23.4889 20.938 23.1984 20.7698C23.1567 20.7456 23.1087 20.7227 23.0681 20.6964H23.0681ZM22.5714 20.4729C22.7937 20.4156 22.8528 20.7454 22.659 20.7968C22.5586 20.8234 22.4753 20.7548 22.4566 20.6801C22.4308 20.5766 22.4952 20.4925 22.5714 20.4729ZM21.9393 20.8145C21.9195 20.7896 21.8864 20.693 21.8671 20.6539C21.8411 20.6009 21.8179 20.5533 21.7913 20.5045C21.7353 20.402 21.6751 20.3134 21.6149 20.2242L21.5159 20.0918L21.5175 19.4254L22.1476 19.4265L22.1458 20.6964C22.1096 20.7187 22.0717 20.7313 22.0369 20.7504C21.9987 20.7714 21.9689 20.7996 21.9393 20.8145H21.9393ZM22.3896 18.7481C22.5216 18.7291 22.6276 18.8312 22.6451 18.9491C22.6659 19.0889 22.5649 19.2013 22.4525 19.2178C22.1455 19.2629 22.0745 18.7934 22.3896 18.7481ZM21.4141 24.881L21.2495 24.9376C21.1766 24.7979 21.1144 24.6593 20.974 24.5705C20.5768 24.3192 20.0854 24.7867 19.3413 24.4319C19.1035 24.3185 18.8178 24.0314 18.6751 23.8038C18.487 23.5038 18.3854 23.246 18.3528 22.8199C18.3718 22.8283 18.4046 22.8596 18.4192 22.8722C18.5977 23.0252 18.8136 23.0864 19.0559 23.0882C19.4984 23.0915 19.8726 22.962 20.2852 23.2646C20.4069 23.3538 20.443 23.4004 20.5357 23.5017C20.6402 23.6158 20.7512 23.7998 20.8308 23.9386C20.8473 23.9674 20.9053 24.0692 20.913 24.1001C20.8596 24.0592 20.7878 23.9874 20.7137 23.9288C20.4924 23.7541 20.2837 23.6081 19.995 23.5231C19.6003 23.4071 19.2733 23.4855 18.8701 23.3444C18.8297 23.3303 18.7662 23.2986 18.7341 23.2923C18.9561 23.4489 19.1282 23.529 19.4536 23.5657C19.9316 23.6196 20.1679 23.6689 20.5387 23.9717C20.744 24.1394 20.9601 24.365 21.1282 24.5685C21.1567 24.6031 21.2574 24.7243 21.266 24.7454C21.2715 24.7386 21.2701 24.7422 21.2743 24.731C21.2873 24.6967 21.2953 24.4724 21.2953 24.4387C21.2955 23.32 20.3717 23.0265 19.6478 22.4255C19.6317 22.4122 19.6191 22.4002 19.6024 22.3876C19.5862 22.3753 19.572 22.362 19.5576 22.349C19.5255 22.3202 19.4974 22.2971 19.4706 22.2696L19.3094 22.0972C19.2606 22.043 19.2147 21.9805 19.1653 21.9077C19.1228 21.8451 19.0772 21.7694 19.0419 21.6964C18.5433 20.6667 18.4797 19.5204 18.9772 18.4232C19.0463 18.2708 19.1222 18.1219 19.211 17.9882C19.269 17.9009 19.4341 17.6652 19.5109 17.6216C19.5202 17.9444 19.6161 18.2011 19.7545 18.4312C19.9871 18.8181 20.2642 19.0348 20.561 19.318L21.1006 19.8296C21.5121 20.2673 21.8631 20.7316 21.9715 21.4619C22.0436 21.9475 21.9926 22.426 21.8853 22.8983C21.8677 22.9759 21.7999 23.2697 21.7696 23.3124C21.7496 22.6858 21.6131 22.0867 21.3781 21.5498C21.3326 21.4457 21.2842 21.3585 21.2333 21.2637C21.1837 21.1715 21.1254 21.082 21.0696 20.9965C20.9862 20.869 20.8879 20.741 20.7955 20.6285C20.7015 20.514 20.5009 20.2817 20.3963 20.1744C20.3771 20.1547 20.363 20.1378 20.3448 20.1167C20.2941 20.0577 20.1908 19.954 20.1402 19.8917L20.0892 19.8337C19.9436 19.6668 19.7518 19.4191 19.634 19.2162L19.4856 18.9337C19.4635 18.8872 19.4405 18.8191 19.4185 18.7818C19.4429 18.9862 19.6025 19.3469 19.7056 19.5254C19.8364 19.752 20.0362 20.0181 20.1906 20.1969L20.2486 20.2672C20.3139 20.3526 20.4124 20.4581 20.4815 20.5474C20.6035 20.7047 20.6908 20.8098 20.81 20.9894C21.184 21.5529 21.4005 22.1708 21.4692 22.9221C21.5318 23.6061 21.4864 24.2194 21.4141 24.881L21.4141 24.881ZM23.115 18.0008C23.3024 17.9785 23.4495 18.1187 23.4701 18.2856C23.494 18.4782 23.3548 18.6323 23.193 18.652C23.0034 18.6751 22.8551 18.5381 22.8338 18.3675C22.8093 18.1708 22.952 18.0202 23.115 18.0008H23.115ZM21.6502 17.1415C21.9516 17.0862 22.1955 17.3113 22.2373 17.5701C22.2881 17.8844 22.0693 18.1302 21.818 18.1728C21.5133 18.2245 21.2708 18.0025 21.2289 17.7455C21.1824 17.46 21.3588 17.195 21.6502 17.1415H21.6502ZM15.319 27.2397C15.3402 27.2375 15.5667 27.1126 15.6084 27.0912C15.7047 27.0419 15.8051 26.9976 15.9023 26.9511C16.0967 26.8582 16.3162 26.7809 16.5299 26.7114C17.5695 26.3737 18.5321 26.4568 19.586 26.6656C20.0629 26.7601 20.5346 26.8767 21.0028 26.9862C23.0903 27.474 24.7991 27.5803 26.8954 27.3003C26.9927 27.2873 27.184 27.2702 27.2712 27.2433L27.272 15.1409C27.2514 15.1399 27.0012 15.2439 26.958 15.2608C26.6651 15.3755 26.2449 15.4863 25.9358 15.5441C24.3853 15.8341 22.839 15.4907 21.3321 15.15C19.3421 14.7 17.612 14.404 15.6382 15.0255C15.5766 15.0449 15.3604 15.1111 15.3192 15.138L15.319 27.2397H15.319Z" fill="#383182"/>
<path fill-rule="evenodd" clip-rule="evenodd" d="M18.517 13.1009L18.2584 13.0117C18.2637 12.9004 18.4735 12.588 18.5487 12.4916C18.6604 12.3482 18.81 12.1899 18.9461 12.0784C18.8974 12.0775 18.7724 12.1081 18.7179 12.1199C18.5113 12.1648 18.342 12.2814 18.1901 12.4164C18.0391 12.5505 17.8026 12.7903 17.7175 13.0493L17.4538 12.9578C17.4806 12.8295 17.6263 12.6144 17.7062 12.5115C17.7261 12.4859 17.8068 12.3949 17.8117 12.3829C17.74 12.3968 17.578 12.4821 17.5221 12.4931C17.5106 12.479 17.4178 12.2595 17.4135 12.2313C17.7287 12.1093 17.9355 12.0172 18.2786 11.9303C19.3627 11.6558 20.3078 11.6052 21.4311 11.747C22.0805 11.8289 22.7218 12.014 23.2739 12.2408C23.6847 12.4095 24.22 12.7062 24.5753 12.991C24.6348 13.0387 24.6876 13.0838 24.7372 13.1226C24.706 13.1625 24.5867 13.3204 24.5563 13.3412C24.4764 13.2851 24.3927 13.2056 24.2903 13.1335L24.0819 12.99C24.0487 12.9679 24.0388 12.9489 24.0034 12.9695C23.8415 13.064 23.6315 13.2944 23.5612 13.4829C23.5255 13.479 23.3147 13.4037 23.2971 13.3866C23.3625 13.1891 23.5304 12.9921 23.6803 12.8597C23.705 12.8379 23.7322 12.8199 23.7532 12.7964L23.719 12.7714C23.6683 12.7437 23.4487 12.6281 23.4281 12.6278C23.3767 12.6269 23.1626 12.7899 23.1276 12.8196C22.994 12.9329 22.7708 13.1599 22.6984 13.385C22.665 13.3821 22.4528 13.3076 22.4342 13.2893C22.5051 13.097 22.5945 12.974 22.7108 12.8338C22.7664 12.7668 22.8222 12.7121 22.8913 12.649C22.9738 12.5737 23.015 12.5485 23.0966 12.4851C23.0774 12.4603 22.9552 12.4227 22.9141 12.4077C22.8042 12.3677 22.8278 12.3586 22.7268 12.416C22.5176 12.5347 22.3152 12.7186 22.1649 12.9107C22.0789 13.0204 22.0286 13.1151 21.9707 13.2499L21.7097 13.1614C21.7234 13.0303 21.9257 12.7517 22.0148 12.6469C22.1003 12.5465 22.2192 12.4298 22.3274 12.3443C22.3642 12.3152 22.4086 12.2859 22.4438 12.2562C22.4252 12.2458 22.2461 12.1962 22.2245 12.1981C22.1961 12.2005 22.0693 12.2738 22.0378 12.2939C21.8978 12.3832 21.8384 12.4354 21.717 12.543C21.5734 12.6704 21.4386 12.8323 21.3348 13.0083C21.301 13.0658 21.2456 13.197 21.242 13.2023L20.9823 13.1141C20.9903 12.9818 21.2313 12.6504 21.3229 12.542C21.4577 12.3827 21.5773 12.2774 21.737 12.1555C21.7579 12.1395 21.7889 12.1276 21.8014 12.1001C21.718 12.0808 21.6141 12.0648 21.5264 12.0518C21.3752 12.0294 21.3904 12.0249 21.2701 12.0921C20.9328 12.2807 20.5451 12.6549 20.3794 13.0099C20.3665 13.0376 20.3422 13.1053 20.3294 13.1242C20.2987 13.1163 20.0881 13.0442 20.0703 13.0299C20.0968 12.8757 20.3202 12.5556 20.4224 12.4375C20.522 12.3224 20.6644 12.1765 20.7805 12.0842L20.91 11.9825C20.8201 11.9684 20.7014 11.968 20.6083 11.9645C20.5329 11.9616 20.5306 11.9625 20.4737 11.9908C20.1007 12.1764 19.7728 12.4916 19.5581 12.8439C19.5094 12.9238 19.4893 12.9852 19.4518 13.0659C19.4179 13.0587 19.2052 12.9834 19.1897 12.9715C19.2384 12.7966 19.4116 12.5329 19.5194 12.4085C19.6458 12.2627 19.7103 12.192 19.8518 12.0677C19.8852 12.0384 19.9437 11.9989 19.972 11.968C19.9028 11.9587 19.7497 11.9779 19.676 11.9832C19.5041 11.9956 19.182 12.2561 19.0695 12.3501C18.9655 12.437 18.8495 12.565 18.7565 12.6849C18.7102 12.7446 18.6673 12.8067 18.6244 12.88C18.603 12.9166 18.5868 12.9464 18.5679 12.9849C18.5537 13.0137 18.5319 13.0807 18.517 13.1009L18.517 13.1009ZM17.6298 11.9311C17.6161 11.9129 17.5237 11.6927 17.5196 11.6667C17.5833 11.6467 17.6554 11.6083 17.7234 11.5824C18.2672 11.3748 18.7501 11.2406 19.3463 11.1607C20.723 10.9762 22.1054 11.1189 23.3784 11.6284C23.7876 11.7921 24.1629 11.9964 24.5154 12.2417C24.5883 12.2925 24.7962 12.4422 24.8467 12.4981C24.8341 12.5248 24.7846 12.5814 24.7648 12.6078C24.74 12.6408 24.7032 12.6842 24.6767 12.7168L24.3581 12.4803C23.5053 11.8923 22.5163 11.5613 21.4764 11.4335C20.8117 11.3517 20.0453 11.3414 19.3837 11.4454C18.8049 11.5364 18.3571 11.6389 17.8267 11.8497C17.7617 11.8755 17.691 11.9112 17.6298 11.9311ZM19.5715 6.76741C19.751 6.74347 19.9073 6.75829 20.0522 6.82131C20.212 6.89079 20.2569 6.97659 20.3421 7.08252L20.361 7.06267C20.4948 6.88021 20.6181 6.79128 20.8595 6.76207C20.9126 6.75565 21.0745 6.75084 21.116 6.77111C21.1376 6.84736 21.1437 6.98233 21.1327 7.06756C21.1138 7.2136 21.0567 7.27088 21.0516 7.30787C21.0936 7.31126 21.1121 7.30045 21.1203 7.33622C21.1342 7.39675 21.1432 7.52762 21.1361 7.59216C21.1188 7.74724 21.0848 7.76561 21.0419 7.86449C21.0557 7.8665 21.1082 7.86828 21.1165 7.88018C21.1397 7.95488 21.1438 8.10465 21.1308 8.18908C21.109 8.32937 21.0489 8.38844 21.0381 8.42986L21.1183 8.44099C21.143 8.65921 21.1672 8.84701 20.9985 9.03841C20.9447 9.09942 20.8675 9.15942 20.7796 9.19703C20.6179 9.2662 20.6103 9.24201 20.4768 9.27143L20.4781 10.5564C20.5278 10.5654 20.6463 10.5536 20.7033 10.5529C20.9193 10.5502 21.1685 10.5512 21.3805 10.5674C21.602 10.5843 21.795 10.6012 22.014 10.6314C22.081 10.6406 22.1512 10.6566 22.2205 10.6601L22.2203 9.27127C22.1659 9.26036 22.1131 9.25594 22.0596 9.2418C21.8178 9.17785 21.6381 9.02856 21.584 8.7755C21.5683 8.70207 21.5682 8.49798 21.597 8.43641L21.6727 8.42959C21.6615 8.3936 21.6065 8.34744 21.5793 8.18412C21.5696 8.12617 21.5704 7.91432 21.5986 7.87595C21.613 7.86544 21.6429 7.86708 21.6666 7.86583C21.6628 7.8451 21.6228 7.77827 21.6082 7.73898C21.5692 7.63326 21.5642 7.52044 21.5799 7.40855C21.5997 7.26788 21.5825 7.33925 21.6569 7.30295C21.6424 7.24468 21.5954 7.21217 21.5765 7.05711C21.5675 6.98264 21.5744 6.83337 21.5953 6.77111C21.6378 6.75012 21.8058 6.75592 21.8587 6.76274C22.0415 6.78634 22.2038 6.86584 22.3106 7.00725C22.32 7.01973 22.332 7.03641 22.3399 7.0483C22.3548 7.07061 22.3529 7.07329 22.37 7.08171C22.4428 6.9686 22.5284 6.878 22.6636 6.81865C22.7739 6.77021 23.0031 6.73117 23.139 6.76929C23.1561 6.86244 23.17 6.97254 23.1548 7.06854C23.1469 7.119 23.1395 7.15135 23.1227 7.19777C23.1082 7.23786 23.0787 7.28016 23.0726 7.30726L23.1368 7.31641C23.1619 7.37751 23.1634 7.54849 23.1543 7.62003C23.1366 7.75928 23.0724 7.83017 23.0667 7.86587C23.0902 7.86749 23.1203 7.86538 23.1347 7.87583C23.164 7.91411 23.1627 8.12406 23.1534 8.18351C23.1455 8.23468 23.1341 8.2743 23.116 8.31991C23.0994 8.36197 23.0688 8.40188 23.0604 8.43058C23.081 8.43195 23.1296 8.43111 23.1358 8.44531L23.1456 8.48083C23.1781 8.68626 23.1646 8.86859 23.0265 9.03183C22.8795 9.20552 22.7164 9.23044 22.5177 9.2708L22.5188 10.7178C22.7672 10.7788 23.012 10.8291 23.2452 10.9074C23.486 10.9884 23.6919 11.0601 23.9099 11.156C24.2035 11.2851 24.545 11.4633 24.8034 11.6421L25.0711 11.8319L24.9073 12.0588C24.8781 12.0499 24.7641 11.9607 24.7302 11.9371C24.3045 11.6405 23.8735 11.4342 23.382 11.2548C22.8017 11.0429 22.1346 10.9144 21.4582 10.862C20.2781 10.7704 19.0568 10.9393 17.9703 11.3742L17.5728 11.551C17.5534 11.5285 17.4665 11.339 17.4519 11.2982C17.5012 11.2521 17.9628 11.0684 18.0553 11.0334C18.4794 10.8732 18.9605 10.7499 19.4138 10.6723C19.6077 10.6391 19.9874 10.5854 20.179 10.5785L20.1782 9.26723C19.9649 9.25067 19.7805 9.14945 19.6818 9.02954C19.5183 8.83106 19.5466 8.65817 19.5708 8.43866C19.5977 8.435 19.6331 8.43656 19.6503 8.42499C19.613 8.34154 19.5774 8.32158 19.5561 8.17827C19.5429 8.0895 19.5524 7.95736 19.5726 7.87066L19.6447 7.86553C19.64 7.84104 19.6061 7.79106 19.5915 7.75366C19.5755 7.71278 19.5628 7.66802 19.5564 7.62035C19.5431 7.52137 19.5519 7.40799 19.573 7.31287L19.6376 7.30758C19.6336 7.28616 19.5998 7.2294 19.5868 7.19443C19.5303 7.04183 19.5497 6.92509 19.5715 6.76741L19.5715 6.76741ZM22.4416 5.27957L22.6602 5.28077L22.6599 6.73891L22.4422 6.7358L22.4416 5.27957ZM22.0502 5.27985L22.2673 5.28099L22.2669 6.73888L22.0497 6.73592L22.0502 5.27985ZM20.4217 5.30252C20.458 5.29664 20.6104 5.2938 20.634 5.30514C20.6416 5.32402 20.6462 6.62661 20.637 6.73878L20.4203 6.73638L20.4217 5.30252ZM20.0282 5.30039L20.2451 5.3015L20.2442 6.7386L20.0274 6.73582L20.0282 5.30039ZM21.6681 5.46135L21.8861 5.46415L21.8835 6.68952L21.6681 6.68938L21.6681 5.46135ZM19.6494 6.68935C19.6395 6.64603 19.6447 5.5052 19.6467 5.46129L19.864 5.46477L19.862 6.68955L19.6494 6.68935ZM22.8136 5.46131L23.0284 5.46291L23.0277 6.68826L22.8119 6.68787L22.8136 5.46131ZM21.0033 6.6896C20.7739 6.69211 20.7872 6.70548 20.788 6.6419C20.7925 6.25124 20.7846 5.8559 20.7885 5.4618L21.0066 5.46239L21.0033 6.6896V6.6896ZM15.3186 14.6474L15.6006 14.4944C15.8964 14.3394 16.2072 14.2095 16.5354 14.1084C17.5351 13.8006 18.6414 13.8233 19.6686 14.0107C20.1672 14.1016 20.6455 14.1942 21.1332 14.3025C22.0139 14.498 23.2581 14.7471 24.176 14.7691C25.0517 14.7901 25.7439 14.7434 26.5741 14.5513L27.0978 14.4117C27.1484 14.3964 27.2219 14.3693 27.2697 14.3602L27.2707 2.54185C26.8064 2.53495 26.3386 2.54176 25.8744 2.54113C25.6312 2.5408 25.5203 2.64118 25.5202 2.89259C25.5201 3.05342 25.5276 3.4861 25.5189 3.61257L24.0572 3.61262C24.0503 3.44151 24.0564 3.25831 24.0564 3.08717C24.0564 2.92722 24.0818 2.7269 23.9884 2.63063C23.8834 2.52243 23.7415 2.54117 23.5614 2.54117H22.5347C22.3482 2.54117 22.2121 2.51326 22.1059 2.62879C22.0141 2.7287 22.0402 2.93068 22.0402 3.08717C22.0402 3.26193 22.0407 3.43679 22.0398 3.61152L20.5776 3.61266C20.5705 3.44908 20.5765 3.27166 20.5765 3.10663C20.5765 2.96616 20.5989 2.73475 20.5286 2.64341C20.4399 2.52808 20.3007 2.54117 20.1266 2.54117H19.1254C18.9507 2.54117 18.8181 2.52504 18.7236 2.6438C18.645 2.74271 18.6684 2.95299 18.6684 3.10014C18.6684 3.26581 18.6755 3.44827 18.6675 3.61185L17.2053 3.61265C17.2056 3.36369 17.2047 3.11508 17.2048 2.86662C17.2049 2.5269 17.0281 2.54116 16.787 2.54117C16.6854 2.54117 15.3821 2.53288 15.3188 2.54422L15.3186 14.6474L15.3186 14.6474Z" fill="#019A45"/>
<path fill-rule="evenodd" clip-rule="evenodd" d="M7.3427 7.26647C7.33702 6.5397 7.34255 5.81173 7.34255 5.08477C7.34255 4.92078 7.32165 4.82866 7.41841 4.7325C7.50083 4.65059 7.64857 4.67283 7.78205 4.67283C8.20664 4.67283 8.63123 4.67283 9.05582 4.67283C9.18091 4.67283 9.82502 4.66176 9.89467 4.68038C10.01 4.71122 10.0642 4.79888 10.0641 4.94208L10.0642 6.24677C10.0064 6.22713 9.95411 6.20318 9.89172 6.18137C9.83573 6.1618 9.77297 6.14392 9.71392 6.1298C9.13426 5.99119 8.73451 6.10811 8.26714 6.42412C8.21733 6.4578 8.18018 6.49158 8.12847 6.52194C8.07768 6.55175 8.0285 6.57255 7.97615 6.60054C7.87568 6.65425 7.77984 6.71432 7.69446 6.78517C7.65216 6.82028 7.51581 6.96924 7.49963 7.0278C7.49921 7.02934 7.49887 7.03148 7.49859 7.03292L7.49842 7.04388C7.49835 7.04293 7.49848 7.04776 7.49897 7.04863L7.78076 7.06727L7.81374 7.26208C8.08785 7.31809 8.37827 6.68816 8.58321 6.5208C8.89032 6.27001 9.43921 6.37325 9.78206 6.51469C9.883 6.55633 10.0247 6.6432 10.0641 6.65892L10.0639 7.26628L10.5923 7.26735C10.6818 7.55052 10.513 7.85294 10.3889 8.00595C9.92774 8.57481 9.22487 8.85605 8.56436 9.1085C8.44754 9.15315 8.33227 9.20139 8.21493 9.2508C7.9117 9.37849 7.5106 9.55835 7.42379 9.92039C7.38774 10.0708 7.43121 10.2214 7.48862 10.3334C7.54644 10.4462 7.6178 10.5166 7.70285 10.6076C7.84271 10.7572 8.13901 10.9246 8.33888 10.9402L8.33977 10.3642C8.29797 10.342 8.24304 10.333 8.19357 10.306C8.03314 10.2183 7.99047 10.071 8.11397 9.9257C8.21999 9.80099 8.42533 9.68981 8.60443 9.61051C9.36697 9.27287 10.6492 8.80727 10.9741 7.96211C11.0345 7.80473 11.0747 7.62174 11.067 7.44559C11.0643 7.3845 11.0466 7.31631 11.0461 7.26576C11.3246 7.27582 11.6207 7.26641 11.9012 7.26641C12.0427 7.26641 12.1843 7.26671 12.3258 7.26639C12.668 7.26561 12.5982 7.54974 12.5982 7.8607V9.60538C12.5982 9.74989 12.6207 9.8869 12.5378 9.97814C12.4507 10.0739 12.3369 10.052 12.1864 10.052H10.9126C10.6348 10.052 10.3398 10.0422 10.0641 10.0527C10.0594 10.8306 10.0648 11.6097 10.0642 12.3878C10.064 12.5547 9.9729 12.6462 9.81011 12.6458L8.55032 12.6455C8.55058 12.5437 8.59002 12.4716 8.63764 12.4203C8.65928 12.397 8.69159 12.3733 8.72096 12.3501C8.87173 12.2309 8.80076 12.2269 9.05554 12.2381C9.13745 12.2417 9.26996 12.254 9.32052 12.1981C9.32588 12.1061 9.13539 12.071 9.04465 12.0478C9.09187 11.9636 9.21096 11.8513 9.3118 11.6705C9.50797 11.3189 9.4607 11.0175 9.18566 10.7373C9.11786 10.6682 8.89737 10.4952 8.79927 10.4795L8.79902 11.1061C8.86135 11.1322 8.94715 11.1926 8.9874 11.245C9.15625 11.4645 8.86878 11.9266 8.82134 11.9335C8.78845 11.9259 8.74698 11.8965 8.73202 11.8759C8.69495 11.8249 8.71033 11.531 8.71037 11.4603L8.70454 10.2799C8.70455 10.182 8.71791 9.74877 8.70239 9.69425C8.63016 9.65489 8.5331 9.71882 8.46907 9.75748C8.44365 9.77283 8.42597 9.77497 8.4226 9.81249C8.41107 9.94097 8.41569 10.1031 8.41487 10.2345C8.4122 10.6582 8.42257 11.082 8.42257 11.5057C8.42257 11.9178 8.4768 11.9426 7.98791 12.1121C7.92718 12.1332 7.88127 12.1328 7.88545 12.2115C7.97774 12.2562 8.4247 12.238 8.55928 12.2362C8.54778 12.268 8.5156 12.3016 8.49645 12.3279C8.40908 12.448 8.38971 12.4853 8.37514 12.6454C8.23995 12.6475 7.57465 12.6598 7.49703 12.6334C7.35308 12.5844 7.34264 12.467 7.3427 12.3294L7.3427 10.5069C7.3427 10.3663 7.33367 10.1912 7.34377 10.0548C7.27589 10.0434 5.45621 10.052 5.39295 10.052C5.28013 10.052 5.01406 10.0697 4.93156 10.026C4.78666 9.9492 4.80891 9.7995 4.80891 9.65078V7.65964C4.80891 7.58842 4.8004 7.48254 4.82251 7.41907C4.83435 7.38506 4.84781 7.36375 4.86759 7.34246C4.88862 7.31983 4.90651 7.30341 4.93565 7.28933C5.01542 7.2508 5.28328 7.26641 5.39295 7.26641C6.04286 7.26641 6.69281 7.26669 7.3427 7.26647L7.3427 7.26647ZM2.72738 2.60071C2.7274 6.51741 2.72019 10.4412 2.72756 14.357C2.81913 14.397 3.20003 14.4966 3.31706 14.5258C4.03007 14.704 4.71158 14.7777 5.45632 14.7775C6.57419 14.7774 7.60538 14.5647 8.6413 14.3506C10.3146 14.0048 11.745 13.6172 13.42 14.0953C13.6003 14.1467 13.9113 14.2592 14.0768 14.338C14.238 14.4147 14.3717 14.4776 14.5281 14.5636C14.5659 14.5844 14.6454 14.6375 14.6794 14.6463L14.6796 2.54108C14.1919 2.53567 13.701 2.54101 13.213 2.54101C12.9339 2.54101 12.797 2.55003 12.7941 2.86013C12.7918 3.10418 12.7862 3.36947 12.7946 3.61185L12.7504 3.61284C12.2884 3.60792 11.786 3.62168 11.3307 3.61203L11.3305 2.88608C11.3305 2.61931 11.236 2.54101 10.976 2.54101H9.7529C9.65198 2.54101 9.55757 2.55886 9.49783 2.61205C9.43348 2.66933 9.42212 2.75671 9.42212 2.87311L9.42234 3.61242L7.95891 3.61279L7.95871 2.91851C7.95871 2.81789 7.95824 2.71417 7.90761 2.64708C7.86223 2.58693 7.78883 2.54101 7.687 2.54101H6.24213C6.14304 2.54101 6.04513 2.58243 6.00101 2.63944C5.93553 2.72403 5.94168 2.80342 5.94166 2.925C5.94164 3.15336 5.94278 3.38204 5.9416 3.61033C5.86944 3.61983 4.77402 3.61288 4.47839 3.61277C4.474 3.37639 4.47767 3.13539 4.47817 2.89905C4.47869 2.64803 4.37487 2.54032 4.12553 2.54101C4.02834 2.54127 2.78468 2.53282 2.72735 2.54406L2.72738 2.60071L2.72738 2.60071Z" fill="#383182"/>
<path fill-rule="evenodd" clip-rule="evenodd" d="M8.22779 23.7787L8.54245 23.7777L8.5483 25.2432L8.23127 25.2433L8.22779 23.7787H8.22779ZM11.5329 23.7711C11.5733 23.8693 11.611 24.0072 11.646 24.1156C11.6861 24.2398 11.9769 25.1057 11.9778 25.1516L11.6855 25.249C11.6626 25.2165 11.3375 24.196 11.2893 24.0465C11.2741 23.9994 11.2429 23.9229 11.2343 23.8715L11.5329 23.7711H11.5329ZM5.32247 23.7694L5.62126 23.8749L5.17096 25.2489C5.13619 25.2452 5.05386 25.2127 5.01688 25.1993C4.97628 25.1846 4.90055 25.1691 4.87297 25.1452L5.32247 23.7694V23.7694ZM10.5135 23.7652L10.828 25.1844C10.8139 25.1933 10.5471 25.2543 10.5193 25.2564C10.4699 25.0205 10.414 24.7824 10.3623 24.548C10.3362 24.4298 10.3099 24.31 10.2832 24.1944C10.2691 24.1335 10.2551 24.0719 10.2433 24.0148C10.2316 23.958 10.2102 23.8916 10.207 23.8336L10.5135 23.7652ZM9.54812 23.77L9.66237 25.2288L9.35347 25.2513C9.3391 25.227 9.33831 25.1421 9.33216 25.0695C9.3273 25.0122 9.32263 24.9474 9.31764 24.8913C9.30646 24.7657 9.22805 23.8396 9.23415 23.793L9.54812 23.77ZM6.33984 23.767C6.35894 23.7658 6.62502 23.8249 6.64682 23.8354C6.64757 23.8748 6.61999 23.9751 6.61043 24.018L6.49295 24.5459C6.46059 24.6964 6.35108 25.147 6.33623 25.256C6.30095 25.2543 6.04528 25.1956 6.02542 25.1839L6.33984 23.767H6.33984ZM7.30646 23.7682L7.62403 23.7921L7.5063 25.2535L7.19083 25.2275L7.30646 23.7682ZM7.29081 17.5809C7.40298 17.559 7.52286 17.546 7.63706 17.5254C7.74738 17.5055 7.86369 17.4884 7.97633 17.4704C8.2 17.4345 8.43544 17.3919 8.65799 17.3591C9.56542 17.2251 10.4823 17.0569 11.3944 16.9152C11.4608 16.9049 11.6897 16.8559 11.734 16.8715C11.8612 16.9163 12.5062 17.1552 12.5961 17.1957C12.5924 17.2233 12.447 17.6302 12.4333 17.6488C12.3922 17.6431 11.7526 17.3985 11.7017 17.3784C11.6411 17.3545 11.5511 17.3837 11.4885 17.3934C11.4162 17.4047 11.3478 17.4152 11.2748 17.4279C11.0932 17.4597 9.20233 17.7574 9.14545 17.7783L11.1827 17.7813L11.6667 20.6961C11.6724 20.7311 11.6753 20.7412 11.6567 20.7641C11.6439 20.7797 11.6306 20.7928 11.6177 20.8084C11.5929 20.8382 11.5673 20.8658 11.5407 20.8982C11.424 21.0404 11.2622 21.2164 11.1538 21.3519C11.1101 21.4065 11.1215 21.3945 11.0328 21.3944L10.4491 21.3938C10.4143 21.396 10.4113 21.4057 10.4055 21.4349L11.2813 21.4353C11.3466 21.6072 11.4259 21.7876 11.4962 21.9597L11.8204 22.7503C11.8509 22.8252 11.8375 22.8194 11.8033 22.8861C11.7813 22.9291 11.7632 22.9659 11.7433 23.006L11.5554 23.3779C11.5369 23.4154 11.5176 23.4618 11.4954 23.4966L5.15828 23.4955L4.90732 23.0023C4.82673 22.8366 4.7963 22.8373 4.83172 22.7489L5.37187 21.4352L6.17748 21.4333C6.17934 21.4096 6.18276 21.3209 6.16394 21.314L6.0614 21.2959C6.02223 21.2904 5.98857 21.285 5.95057 21.2802C5.87463 21.2705 5.80393 21.2596 5.72641 21.2492C5.57983 21.2294 5.42393 21.2 5.27674 21.1878L5.27713 18.9321L7.01397 18.7606L7.29081 17.5809V17.5809ZM2.72788 27.2438C2.9595 27.3033 4.06584 27.407 4.28998 27.4201C6.03812 27.5222 7.29983 27.3666 8.99174 26.9871C9.93617 26.7753 10.9865 26.4825 11.958 26.4826C12.5186 26.4826 12.9788 26.5625 13.4645 26.7103C13.7661 26.8021 14.1105 26.9479 14.3915 27.0914L14.6786 27.2407L14.6773 15.1379C14.6334 15.1087 14.4209 15.0453 14.3513 15.0227C13.4939 14.7436 12.5835 14.6461 11.6728 14.6781C9.62398 14.7499 7.67684 15.5498 5.68427 15.6442C4.75834 15.6881 3.88816 15.5799 3.03694 15.2592C2.99336 15.2428 2.74606 15.1409 2.72681 15.141L2.72788 27.2438H2.72788Z" fill="#019A45"/>
<path fill-rule="evenodd" clip-rule="evenodd" d="M1.92468 0.658606C2.04591 0.642705 2.23321 0.652839 2.36375 0.652839C10.79 0.652839 19.2163 0.652839 27.6426 0.652839C27.9544 0.652839 28.1796 0.639136 28.4442 0.742055C28.8401 0.896088 29.1744 1.23228 29.3018 1.67438C29.3793 1.94346 29.3606 2.21978 29.3606 2.52286V27.0262C29.3606 27.3285 29.3635 27.6323 29.3603 27.9343C29.3526 28.6371 28.8094 29.27 28.0729 29.3346C27.9369 29.3465 27.7768 29.3399 27.6362 29.3399H2.35741C2.04251 29.3399 1.82442 29.353 1.55888 29.2511C1.14542 29.0926 0.834738 28.762 0.698367 28.3221C0.617892 28.0624 0.637682 27.7679 0.637682 27.4738V2.97038C0.637682 2.66858 0.633585 2.3638 0.638014 2.06237C0.647064 1.44674 1.02989 0.945546 1.56418 0.738226C1.68784 0.690245 1.78205 0.677313 1.92468 0.658606H1.92468ZM30 1.90246V2.03642V27.9148V27.9169C30 27.9589 29.9997 28.0011 30 28.0431V28.0515L29.9873 28.1418C29.9722 28.3161 29.9317 28.4925 29.8661 28.6533L29.8298 28.7459C29.8057 28.7983 29.7835 28.8591 29.7519 28.9062L29.4694 29.311C29.4574 29.3237 29.4493 29.3301 29.438 29.3437C29.4305 29.3527 29.4301 29.3543 29.4235 29.3613C29.4167 29.3686 29.4165 29.368 29.4075 29.3773L28.9616 29.7252C28.7719 29.8307 28.6514 29.8738 28.4496 29.9342C28.3798 29.9551 28.3066 29.9706 28.2314 29.9767C28.1867 29.9804 28.157 29.9894 28.1181 29.9905C28.0289 29.993 27.9559 29.9967 27.8644 29.9967C25.6173 29.9967 2.05333 30.0054 1.97986 29.994C1.93982 29.9878 1.89935 29.9935 1.85941 29.9876L1.64148 29.9577C1.56806 29.9471 1.46938 29.9149 1.39821 29.8888L1.09455 29.7586C1.02827 29.7287 0.968888 29.6849 0.90834 29.6443L0.62818 29.4122C0.57389 29.3616 0.527911 29.3052 0.476819 29.2493C0.415436 29.1822 0.373706 29.1037 0.321743 29.0318C0.320302 29.0298 0.308765 29.0139 0.30829 29.0132L0.132205 28.6551C0.126936 28.6402 0.122784 28.6245 0.116496 28.6063L0.0575287 28.4137C0.0306518 28.3007 0.0268056 28.252 0.0118149 28.1427C0.00826001 28.1167 0 28.1222 0 28.0964V1.90671L0.0161256 1.79998C0.0374786 1.66267 0.0415494 1.65252 0.0735423 1.52148C0.097863 1.42187 0.13386 1.34044 0.167017 1.24746L0.313258 0.969067L0.552063 0.655696C0.553396 0.654397 0.557447 0.650897 0.558785 0.649605C0.564992 0.643615 0.565796 0.64327 0.571297 0.636465C0.583916 0.620851 0.580264 0.620814 0.597888 0.605308L0.615323 0.590724C0.624163 0.582807 0.622819 0.583588 0.631333 0.574681L0.694404 0.516C0.708554 0.504748 0.711547 0.499338 0.72433 0.488255C0.748503 0.467294 0.767546 0.452419 0.792165 0.434451C0.813051 0.419208 0.834775 0.396905 0.855821 0.382857C0.996725 0.288815 1.15406 0.191209 1.31607 0.129384L1.35672 0.117654C1.37323 0.112124 1.38332 0.10839 1.3997 0.10283L1.6775 0.0304207C1.70671 0.0261079 1.74958 0.0158304 1.78125 0.0133777C1.82277 0.0101619 1.84193 -0.00012207 1.88213 -0.00012207H28.0989C28.1562 -0.00012207 28.275 0.0188586 28.3351 0.0305034C28.3579 0.0349197 28.374 0.0395542 28.3915 0.0440695C28.4117 0.0492594 28.423 0.0496826 28.4446 0.0546596C28.5145 0.0708145 28.5772 0.0939595 28.6436 0.116841C28.7211 0.143542 28.7964 0.181296 28.8698 0.216118C28.9752 0.266033 29.1422 0.370854 29.2294 0.451265C29.2551 0.474902 29.276 0.490958 29.3015 0.5137L29.4081 0.618662C29.4643 0.676181 29.5266 0.739327 29.5733 0.806311C29.6505 0.917156 29.7273 1.02944 29.7865 1.15237C29.8176 1.21697 29.8482 1.28271 29.8703 1.35092C29.8706 1.35176 29.871 1.35359 29.8713 1.35445L29.9244 1.51781C29.929 1.53358 29.9332 1.54857 29.9379 1.56814C29.9538 1.63491 29.9748 1.7102 29.9812 1.78976C29.983 1.81219 29.9845 1.82987 29.9877 1.85443C29.9926 1.89187 29.9972 1.86602 30 1.90246L30 1.90246Z" fill="#019A45"/>
<path fill-rule="evenodd" clip-rule="evenodd" d="M8.95769 21.3988C8.94752 21.3676 8.53179 20.8881 8.48221 20.8293C8.41165 20.7458 8.40291 20.7606 8.41263 20.7L8.59092 19.6296C8.6183 19.4561 8.69526 19.0585 8.70838 18.9163L5.59534 19.225L5.59617 20.9033L6.47627 21.0234L6.4953 21.3986L8.95769 21.3988H8.95769Z" fill="#019A45"/>
<path fill-rule="evenodd" clip-rule="evenodd" d="M9.10646 21.0658L10.9759 21.0673C11.0159 21.0257 11.0463 20.9852 11.0823 20.9414L11.295 20.6922C11.3459 20.6334 11.3387 20.6527 11.3137 20.512C11.2209 19.9903 11.1344 19.4328 11.0463 18.9057C11.0244 18.7742 11.0019 18.6408 10.9798 18.5066C10.9685 18.4378 10.9238 18.1506 10.9099 18.1056C10.8387 18.0981 9.66276 18.104 9.5564 18.104C9.44453 18.104 9.33199 18.1052 9.2202 18.1038C9.16067 18.103 9.16764 18.091 9.15103 18.2063C9.11646 18.4464 9.06376 18.7015 9.02724 18.9476C8.9979 19.1453 8.96281 19.3465 8.9281 19.5415L8.78067 20.4273C8.77167 20.4794 8.76432 20.5264 8.75572 20.5772C8.74128 20.6623 8.74456 20.6472 8.78885 20.697L9.02523 20.974C9.04475 20.9977 9.08656 21.0495 9.10646 21.0658Z" fill="#019A45"/>
<path fill-rule="evenodd" clip-rule="evenodd" d="M5.35194 22.743C5.33516 22.7836 5.33177 22.7845 5.35341 22.825C5.45866 23.0221 5.41655 23.0076 5.51956 23.0071C6.80237 23.0007 8.10062 23.007 9.38522 23.007C9.99109 23.007 10.6009 23.0141 11.2063 23.0062C11.2286 22.9678 11.2489 22.9235 11.2712 22.8788C11.2981 22.825 11.327 22.804 11.2986 22.7401L10.9622 21.9232L5.69067 21.9242L5.35194 22.743H5.35194Z" fill="#019A45"/>
<path fill-rule="evenodd" clip-rule="evenodd" d="M8.37385 9.01226C8.43233 9.03048 8.6489 8.96269 8.70445 8.94149L8.70674 8.60763L9.2101 8.45998C9.52626 8.35008 9.7765 8.17573 9.98677 7.92529C10.0533 7.84603 10.2072 7.61849 10.178 7.45404L6.87673 7.45386C6.86466 7.53542 6.92936 7.68837 6.96075 7.74743C7.05562 7.92589 7.10361 7.95486 7.20849 8.07188C7.23586 8.10242 7.27862 8.13588 7.31004 8.1624C7.72245 8.51044 8.32506 8.58394 8.3588 8.63861C8.3688 8.65482 8.37358 8.96329 8.37384 9.01226H8.37385Z" fill="#383182"/>
<path fill-rule="evenodd" clip-rule="evenodd" d="M7.52014 18.7058C7.61865 18.7047 8.01302 18.6591 8.1427 18.6463C8.21028 18.6396 8.74482 18.5936 8.76042 18.5787C8.76948 18.5703 8.76462 18.5777 8.76934 18.5614L8.8908 17.8158C8.81101 17.8244 8.72938 17.8417 8.64926 17.854L7.68792 18.0123C7.67219 18.0217 7.67254 18.0391 7.66738 18.0623C7.6631 18.0817 7.65839 18.1019 7.65411 18.1205L7.57388 18.4663C7.55772 18.5335 7.52641 18.6394 7.52014 18.7058H7.52014Z" fill="#019A45"/>
<path fill-rule="evenodd" clip-rule="evenodd" d="M20.2187 7.92152C20.2072 7.80022 20.1324 7.69916 20.0698 7.63989C19.9999 7.57382 19.8811 7.5268 19.7679 7.526C19.7465 7.76897 19.9994 7.92126 20.2187 7.92152L20.2187 7.92152Z" fill="#019A45"/>
<path fill-rule="evenodd" clip-rule="evenodd" d="M19.9063 8.94236C19.9712 8.99091 20.122 9.05409 20.2208 9.04597C20.1863 8.81586 19.9775 8.63593 19.767 8.652C19.7649 8.78828 19.8284 8.88406 19.9063 8.94236V8.94236Z" fill="#019A45"/>
<path fill-rule="evenodd" clip-rule="evenodd" d="M22.4905 7.37515C22.6004 7.38059 22.7471 7.31788 22.8101 7.26764C22.8853 7.20771 22.9457 7.11371 22.9441 6.98194C22.7531 6.95598 22.5147 7.15093 22.4905 7.37515Z" fill="#019A45"/>
<path fill-rule="evenodd" clip-rule="evenodd" d="M22.4912 9.04666C22.6867 9.04969 22.9488 8.91951 22.9424 8.65116C22.8198 8.64758 22.7019 8.70491 22.6361 8.76832C22.58 8.82237 22.5005 8.93147 22.4912 9.04666Z" fill="#019A45"/>
<path fill-rule="evenodd" clip-rule="evenodd" d="M19.7673 6.98015C19.7574 7.23526 19.9864 7.36037 20.2183 7.37664C20.2126 7.26218 20.1261 7.14482 20.0708 7.09415C20.002 7.03102 19.8916 6.97654 19.7673 6.98015Z" fill="#019A45"/>
<path fill-rule="evenodd" clip-rule="evenodd" d="M20.4694 7.37414C20.6352 7.38772 20.9287 7.25916 20.9205 6.97925C20.7967 6.98145 20.6966 7.02414 20.616 7.09645C20.5551 7.15104 20.4821 7.25842 20.4694 7.37414Z" fill="#019A45"/>
<path fill-rule="evenodd" clip-rule="evenodd" d="M21.7912 7.52747C21.7779 7.77637 22.0126 7.9147 22.2408 7.92421C22.2416 7.88139 22.2072 7.79892 22.1897 7.76662C22.1111 7.62113 21.9727 7.52858 21.7912 7.52747Z" fill="#019A45"/>
<path fill-rule="evenodd" clip-rule="evenodd" d="M22.4924 8.48112C22.6021 8.48486 22.7329 8.42778 22.8041 8.37619C22.8843 8.31808 22.9442 8.22553 22.9429 8.08557C22.814 8.0861 22.7114 8.134 22.6351 8.20303C22.5847 8.24865 22.4898 8.3869 22.4924 8.48112Z" fill="#019A45"/>
<path fill-rule="evenodd" clip-rule="evenodd" d="M22.4905 7.92209C22.726 7.91952 22.945 7.77915 22.9431 7.52673C22.8062 7.53477 22.712 7.57166 22.6352 7.64553C22.5753 7.70317 22.5064 7.80333 22.4905 7.92209Z" fill="#019A45"/>
<path fill-rule="evenodd" clip-rule="evenodd" d="M21.7894 6.98115C21.7762 7.22528 22.0091 7.36732 22.2398 7.37624C22.2323 7.26823 22.1565 7.15131 22.0924 7.094C22.0342 7.04183 21.8997 6.96991 21.7894 6.98115Z" fill="#019A45"/>
<path fill-rule="evenodd" clip-rule="evenodd" d="M20.4701 9.04737C20.6604 9.04942 20.931 8.91765 20.9202 8.651C20.791 8.65142 20.6867 8.70159 20.6145 8.7686C20.5604 8.81884 20.4724 8.94491 20.4701 9.04737Z" fill="#019A45"/>
<path fill-rule="evenodd" clip-rule="evenodd" d="M20.4701 8.48212C20.7046 8.4708 20.9257 8.33777 20.9202 8.0864C20.7967 8.08373 20.6886 8.1346 20.6136 8.20327C20.5622 8.25038 20.4724 8.37549 20.4701 8.48212Z" fill="#019A45"/>
<path fill-rule="evenodd" clip-rule="evenodd" d="M21.7906 8.08521C21.7853 8.22379 21.8531 8.32075 21.9291 8.37691C21.9932 8.42426 22.1339 8.48507 22.2415 8.48117C22.2362 8.37789 22.1542 8.25805 22.0983 8.20364C22.0266 8.13391 21.9191 8.09003 21.7906 8.08521H21.7906Z" fill="#019A45"/>
<path fill-rule="evenodd" clip-rule="evenodd" d="M20.4686 7.92219C20.7079 7.91476 20.9246 7.77742 20.9211 7.52637C20.78 7.53367 20.6914 7.57424 20.6134 7.64527C20.5507 7.70231 20.4844 7.80825 20.4686 7.92219H20.4686Z" fill="#019A45"/>
<path fill-rule="evenodd" clip-rule="evenodd" d="M21.7909 8.65027C21.7865 8.78641 21.8522 8.88624 21.9285 8.94173C21.9944 8.98964 22.1351 9.05394 22.2422 9.04622C22.2071 8.82564 22.0377 8.65673 21.7909 8.65027V8.65027Z" fill="#019A45"/>
<path fill-rule="evenodd" clip-rule="evenodd" d="M19.7681 8.08521C19.7632 8.34003 19.9763 8.46425 20.2193 8.48122C20.1884 8.25461 20.0111 8.09253 19.7681 8.08521Z" fill="#019A45"/>
</svg>
