<svg width="28" height="28" viewBox="0 0 28 28" fill="none" xmlns="http://www.w3.org/2000/svg">
<path d="M18.3726 3.43817C18.8102 3.00073 19.4036 2.755 20.0223 2.755C20.641 2.755 21.2344 3.00073 21.672 3.43817L24.5595 6.32567C24.7762 6.54235 24.9482 6.79961 25.0655 7.08277C25.1828 7.36592 25.2432 7.66942 25.2432 7.97592C25.2432 8.28241 25.1828 8.58591 25.0655 8.86906C24.9482 9.15222 24.7762 9.40948 24.5595 9.62617L10.6843 23.5013L3.24097 24.7567L4.49747 17.3133L18.3726 3.43817ZM18.1055 7.00467L20.993 9.89217L22.9098 7.97533L20.0223 5.089L18.1055 7.00467ZM19.3421 11.543L16.4558 8.6555L6.67447 18.4368L6.08763 21.91L9.5608 21.3243L19.3421 11.543Z" fill="#FF8906"/>
</svg>
