<svg width="132" height="132" viewBox="0 0 132 132" fill="none" xmlns="http://www.w3.org/2000/svg">
<path d="M99.4116 8.547L122.363 32.472V123.453H36.625V123.75H122.656V32.7731L99.4116 8.547Z" fill="#909090"/>
<path d="M99.1269 8.25H36.332V123.453H122.363V32.4761L99.1269 8.25Z" fill="#F4F4F4"/>
<path d="M35.7025 14.4375H9.34375V42.5989H92.2562V14.4375H35.7025Z" fill="#7A7B7C"/>
<path d="M92.6965 42.1204H9.87891V13.9384H92.6965V42.1204Z" fill="#DD2025"/>
<path d="M37.3406 18.7027H31.9492V38.5027H36.1897V31.8244L37.1261 31.878C38.0359 31.8623 38.9373 31.6994 39.795 31.3954C40.547 31.1367 41.2388 30.7284 41.8286 30.195C42.4288 29.6869 42.902 29.0456 43.2105 28.3222C43.6242 27.1198 43.772 25.8419 43.6436 24.5767C43.6178 23.673 43.4594 22.7779 43.1733 21.9202C42.9129 21.3011 42.5265 20.743 42.0386 20.2814C41.5507 19.8197 40.9721 19.4648 40.3395 19.239C39.7925 19.041 39.2274 18.8973 38.6523 18.81C38.2169 18.7428 37.7771 18.707 37.3365 18.7027M36.5568 28.1655H36.1897V22.0605H36.9858C37.3372 22.0352 37.6898 22.0891 38.0175 22.2183C38.3452 22.3476 38.6397 22.5488 38.8792 22.8071C39.3755 23.4713 39.6407 24.2798 39.6341 25.1089C39.6341 26.1236 39.6341 27.0435 38.7183 27.6911C38.0586 28.054 37.3077 28.2215 36.5568 28.1655ZM51.6997 18.6491C51.2418 18.6491 50.7963 18.6821 50.4828 18.6945L49.5011 18.7192H46.2836V38.5192H50.0703C51.5175 38.5589 52.9583 38.3136 54.3108 37.7974C55.3995 37.3656 56.3635 36.6695 57.1158 35.772C57.8475 34.8664 58.3726 33.812 58.6545 32.6824C58.9785 31.4031 59.1366 30.0874 59.1247 28.7677C59.2047 27.2091 59.0841 25.6467 58.7658 24.1189C58.4638 22.9942 57.8982 21.9578 57.1158 21.0952C56.502 20.3988 55.7506 19.837 54.909 19.4452C54.1862 19.1108 53.4259 18.8643 52.6443 18.711C52.3336 18.6597 52.0188 18.6362 51.7038 18.6409M50.9531 34.881H50.5406V22.242H50.5942C51.4446 22.1442 52.3051 22.2976 53.0692 22.6834C53.6288 23.1302 54.0848 23.6932 54.4057 24.3334C54.752 25.0071 54.9517 25.7466 54.9915 26.5031C55.0286 27.4106 54.9915 28.1531 54.9915 28.7677C55.0083 29.4758 54.9627 30.1839 54.8553 30.8839C54.7282 31.6026 54.4932 32.2979 54.1582 32.9464C53.7791 33.5493 53.2669 34.0573 52.6608 34.4314C52.1519 34.7605 51.5492 34.9141 50.9448 34.8686M71.8998 18.7192H61.8761V38.5192H66.1166V30.6652H71.4791V26.9857H66.1166V22.3987H71.8916V18.7192" fill="#464648"/>
<path d="M89.8449 83.5519C89.8449 83.5519 102.995 81.1676 102.995 85.6598C102.995 90.1519 94.8485 88.3245 89.8449 83.5519ZM80.1222 83.8942C78.0329 84.3559 75.9967 85.0319 74.0461 85.9114L75.6961 82.1989C77.3461 78.4864 79.058 73.425 79.058 73.425C81.0269 76.7387 83.3177 79.8503 85.8972 82.7145C83.952 83.0046 82.0241 83.4012 80.1222 83.9025V83.8942ZM74.9165 57.0817C74.9165 53.1671 76.1829 52.0987 77.1687 52.0987C78.1546 52.0987 79.2642 52.5731 79.3014 55.9721C78.9802 59.3899 78.2645 62.7591 77.1687 66.0124C75.6677 63.2809 74.8909 60.2107 74.9124 57.0941L74.9165 57.0817ZM55.7394 100.46C51.7051 98.0471 64.1997 90.618 66.4644 90.3787C66.452 90.3829 59.9634 102.985 55.7394 100.46ZM106.836 86.1919C106.794 85.7794 106.423 81.213 98.297 81.4069C94.9098 81.3523 91.5243 81.591 88.1784 82.1205C84.9372 78.8551 82.1461 75.172 79.8789 71.1686C81.3072 67.0412 82.1717 62.7399 82.4487 58.3811C82.3291 53.4311 81.1452 50.5931 77.3502 50.6344C73.5552 50.6756 73.0025 53.9962 73.5016 58.938C73.9905 62.2588 74.9128 65.5012 76.2447 68.5822C76.2447 68.5822 74.4916 74.0396 72.1734 79.4681C69.8551 84.8966 68.2711 87.7429 68.2711 87.7429C64.2399 89.0552 60.4449 91.0049 57.0305 93.5179C53.6315 96.6817 52.2496 99.1114 54.0399 101.541C55.5826 103.636 60.9822 104.111 65.8085 97.7872C68.3728 94.5211 70.7156 91.0869 72.821 87.5078C72.821 87.5078 80.18 85.4906 82.4694 84.9379C84.7587 84.3851 87.5266 83.9479 87.5266 83.9479C87.5266 83.9479 94.2462 90.7087 100.727 90.4695C107.207 90.2302 106.893 86.5961 106.852 86.2001" fill="#DD2025"/>
<path d="M98.8086 8.56763V32.7938H122.045L98.8086 8.56763Z" fill="#909090"/>
<path d="M99.1289 8.25V32.4761H122.365L99.1289 8.25Z" fill="#F4F4F4"/>
<path d="M37.0203 18.3851H31.6289V38.1851H35.8859V31.5109L36.8264 31.5645C37.7363 31.5488 38.6376 31.3859 39.4953 31.0819C40.2472 30.8231 40.939 30.4148 41.5289 29.8815C42.1246 29.372 42.5935 28.7308 42.8984 28.0087C43.3121 26.8063 43.4599 25.5284 43.3315 24.2632C43.3058 23.3595 43.1473 22.4644 42.8613 21.6067C42.6009 20.9876 42.2144 20.4295 41.7265 19.9679C41.2386 19.5062 40.66 19.1513 40.0274 18.9255C39.4779 18.7256 38.9101 18.5805 38.332 18.4924C37.8965 18.4252 37.4568 18.3893 37.0162 18.3851M36.2365 27.8479H35.8694V21.7429H36.6697C37.021 21.7175 37.3736 21.7715 37.7013 21.9007C38.029 22.0299 38.3235 22.2312 38.563 22.4895C39.0593 23.1537 39.3245 23.9621 39.3179 24.7912C39.3179 25.806 39.3179 26.7259 38.4022 27.3735C37.7424 27.7364 36.9915 27.8997 36.2407 27.8437M51.3794 18.3315C50.9215 18.3315 50.476 18.3645 50.1625 18.3769L49.1932 18.4016H45.9757V38.2016H49.7624C51.2096 38.2413 52.6504 37.996 54.0029 37.4797C55.0915 37.048 56.0555 36.3519 56.8079 35.4544C57.5395 34.5488 58.0646 33.4943 58.3465 32.3647C58.6706 31.0855 58.8287 29.7698 58.8168 28.4501C58.8968 26.8915 58.7762 25.3291 58.4579 23.8012C58.1559 22.6766 57.5903 21.6401 56.8079 20.7776C56.1941 20.0812 55.4427 19.5194 54.601 19.1276C53.8783 18.7932 53.1179 18.5466 52.3364 18.3934C52.0256 18.342 51.7109 18.3186 51.3959 18.3232M50.6452 34.5634H50.2327V21.9244H50.2863C51.1367 21.8265 51.9971 21.98 52.7613 22.3657C53.3209 22.8126 53.7769 23.3755 54.0978 24.0157C54.4441 24.6895 54.6437 25.429 54.6835 26.1855C54.7207 27.093 54.6835 27.8355 54.6835 28.4501C54.7003 29.1581 54.6548 29.8662 54.5474 30.5662C54.4203 31.2849 54.1852 31.9803 53.8503 32.6287C53.4712 33.2316 52.9589 33.7396 52.3529 34.1137C51.844 34.4429 51.2413 34.5965 50.6369 34.551M71.5795 18.4016H61.5558V38.2016H65.7963V30.3476H71.1588V26.6681H65.7963V22.0811H71.5713V18.4016" fill="white"/>
</svg>
