<svg width="28" height="28" viewBox="0 0 28 28" fill="none" xmlns="http://www.w3.org/2000/svg">
<path d="M20.125 6.125H23.625V9.625H20.125V6.125ZM20.125 11.375H23.625V14.875H20.125V11.375ZM14.875 6.125H18.375V9.625H14.875V6.125ZM14.875 11.375H18.375V14.875H14.875V11.375Z" fill="#FF8906"/>
<path d="M12.6875 22.75C13.4124 22.75 14 22.1624 14 21.4375C14 20.7126 13.4124 20.125 12.6875 20.125C11.9626 20.125 11.375 20.7126 11.375 21.4375C11.375 22.1624 11.9626 22.75 12.6875 22.75Z" fill="#FF8906"/>
<path d="M18.375 26.25H7C6.53601 26.2495 6.09116 26.065 5.76307 25.7369C5.43499 25.4088 5.25046 24.964 5.25 24.5V3.5C5.25046 3.03601 5.43499 2.59116 5.76307 2.26307C6.09116 1.93499 6.53601 1.75046 7 1.75H18.375V3.5H7V24.5H18.375V17.5H20.125V24.5C20.1245 24.964 19.94 25.4088 19.6119 25.7369C19.2838 26.065 18.839 26.2495 18.375 26.25Z" fill="#FF8906"/>
</svg>
