<svg width="22" height="22" viewBox="0 0 22 22" fill="none" xmlns="http://www.w3.org/2000/svg">
<path d="M1.66797 18C1.66797 16.7623 2.15963 15.5753 3.0348 14.7001C3.90997 13.825 5.09696 13.3333 6.33464 13.3333H15.668C16.9056 13.3333 18.0926 13.825 18.9678 14.7001C19.843 15.5753 20.3346 16.7623 20.3346 18C20.3346 18.6188 20.0888 19.2123 19.6512 19.6499C19.2136 20.0875 18.6201 20.3333 18.0013 20.3333H4.0013C3.38246 20.3333 2.78897 20.0875 2.35139 19.6499C1.9138 19.2123 1.66797 18.6188 1.66797 18Z" stroke="#FF8906" stroke-width="2" stroke-linejoin="round"/>
<path d="M11 8.66666C12.933 8.66666 14.5 7.09965 14.5 5.16666C14.5 3.23366 12.933 1.66666 11 1.66666C9.067 1.66666 7.5 3.23366 7.5 5.16666C7.5 7.09965 9.067 8.66666 11 8.66666Z" stroke="#FF8906" stroke-width="2"/>
</svg>
