<svg width="10" height="18" viewBox="0 0 10 18" fill="none" xmlns="http://www.w3.org/2000/svg">
<path d="M0.232814 9.543L8.59231 17.508C8.7318 17.641 8.91711 17.7151 9.10981 17.7151C9.30252 17.7151 9.48783 17.641 9.62731 17.508L9.63631 17.499C9.70417 17.4345 9.7582 17.357 9.79512 17.271C9.83204 17.185 9.85108 17.0923 9.85108 16.9988C9.85108 16.9052 9.83204 16.8125 9.79512 16.7266C9.7582 16.6406 9.70417 16.563 9.63631 16.4985L1.76431 8.9985L9.63631 1.5015C9.70417 1.43704 9.7582 1.35945 9.79512 1.27345C9.83204 1.18746 9.85108 1.09484 9.85108 1.00125C9.85108 0.907663 9.83204 0.815053 9.79512 0.729054C9.7582 0.643054 9.70417 0.565463 9.63631 0.501003L9.62731 0.492003C9.48783 0.359036 9.30252 0.284859 9.10981 0.284859C8.91711 0.284859 8.7318 0.359036 8.59231 0.492003L0.232814 8.457C0.159296 8.52705 0.100767 8.61129 0.0607758 8.70463C0.0207846 8.79797 0.000163555 8.89846 0.000163555 9C0.000163555 9.10155 0.0207846 9.20203 0.0607758 9.29537C0.100767 9.38871 0.159296 9.47296 0.232814 9.543Z" fill="#263238"/>
</svg>
