<svg width="20" height="16" viewBox="0 0 20 16" fill="none" xmlns="http://www.w3.org/2000/svg">
<path fill-rule="evenodd" clip-rule="evenodd" d="M7.672 9.334L10.502 11.269L13.23 9.387L19.345 15.42C19.184 15.472 19.012 15.5 18.833 15.5H2.167C1.947 15.5 1.737 15.457 1.544 15.38L7.672 9.334ZM20.5 4.376V13.833C20.5 14.08 20.446 14.314 20.35 14.525L14.356 8.611L20.5 4.376ZM0.500001 4.429L6.542 8.561L0.606001 14.419C0.535697 14.2316 0.499788 14.0331 0.500001 13.833V4.429ZM18.833 0.5C19.753 0.5 20.5 1.246 20.5 2.167V2.753L10.498 9.648L0.500001 2.81V2.167C0.500001 1.247 1.246 0.5 2.167 0.5H18.833Z" fill="white"/>
</svg>
