<svg width="28" height="28" viewBox="0 0 28 28" fill="none" xmlns="http://www.w3.org/2000/svg">
<path d="M14 22.1667C12.4038 21.2451 10.5931 20.7599 8.75 20.7599C6.90686 20.7599 5.0962 21.2451 3.5 22.1667V7C4.27481 6.55254 5.10364 6.20596 5.96633 5.96867M14 22.1667C16.0803 20.9658 18.5094 20.5145 20.8822 20.888M14 22.1667V14M10.3997 5.72367C11.648 5.922 12.8683 6.34667 14 7M14 7C15.5962 6.07843 17.4069 5.59327 19.25 5.59327C21.0931 5.59327 22.9038 6.07843 24.5 7V19.8333M14 7V9.33333M3.5 3.5L24.5 24.5" stroke="#FF8906" stroke-width="1.5" stroke-linecap="round" stroke-linejoin="round"/>
</svg>
