<svg width="28" height="28" viewBox="0 0 28 28" fill="none" xmlns="http://www.w3.org/2000/svg">
<path d="M2.33331 18.6667V4.66666C2.33331 4.04782 2.57915 3.45433 3.01673 3.01675C3.45432 2.57916 4.04781 2.33333 4.66665 2.33333H17.5" stroke="#FF8906" stroke-width="1.5" stroke-linecap="round" stroke-linejoin="round"/>
<path d="M5.83331 16.3333H4.66665C4.04781 16.3333 3.45432 16.5792 3.01673 17.0168C2.57915 17.4543 2.33331 18.0478 2.33331 18.6667C2.33331 19.2855 2.57915 19.879 3.01673 20.3166C3.45432 20.7542 4.04781 21 4.66665 21H5.83331M25.6666 21H12.8333C12.2145 21 11.621 21.2458 11.1834 21.6834C10.7458 22.121 10.5 22.7145 10.5 23.3333M10.5 23.3333C10.5 23.9522 10.7458 24.5457 11.1834 24.9832C11.621 25.4208 12.2145 25.6667 12.8333 25.6667H25.6666V7H12.8333C12.2145 7 11.621 7.24583 11.1834 7.68342C10.7458 8.121 10.5 8.71449 10.5 9.33333V23.3333Z" stroke="#FF8906" stroke-width="1.5" stroke-linecap="round" stroke-linejoin="round"/>
<path d="M17.1533 18V10.8H18.8653V18H17.1533ZM14.3213 15.2V13.6H21.6973V15.2H14.3213Z" fill="#FF8906"/>
</svg>
