<svg width="36" height="37" viewBox="0 0 36 37" fill="none" xmlns="http://www.w3.org/2000/svg">
<rect x="0.5" y="1.09497" width="35" height="35" rx="17.5" fill="white" fill-opacity="0.933333"/>
<rect x="0.5" y="1.09497" width="35" height="35" rx="17.5" stroke="#FE8705"/>
<path d="M24.5441 16.035L22.7574 26.7016C22.7294 26.8547 22.6488 26.9931 22.5294 27.0929C22.4101 27.1928 22.2596 27.2477 22.1041 27.2483H13.8907C13.7352 27.2477 13.5847 27.1928 13.4654 27.0929C13.346 26.9931 13.2654 26.8547 13.2374 26.7016L11.4507 16.035C11.4353 15.94 11.4407 15.8429 11.4664 15.7502C11.492 15.6576 11.5375 15.5715 11.5995 15.4981C11.6616 15.4246 11.7388 15.3654 11.8259 15.3246C11.913 15.2838 12.0079 15.2623 12.1041 15.2616H23.8774C23.9747 15.2604 24.0711 15.2804 24.1598 15.3204C24.2485 15.3604 24.3274 15.4193 24.3909 15.493C24.4545 15.5667 24.5011 15.6534 24.5275 15.747C24.554 15.8406 24.5596 15.9389 24.5441 16.035ZM25.3307 13.2616C25.3307 13.4385 25.2605 13.608 25.1355 13.7331C25.0104 13.8581 24.8409 13.9283 24.6641 13.9283H11.3307C11.1539 13.9283 10.9843 13.8581 10.8593 13.7331C10.7343 13.608 10.6641 13.4385 10.6641 13.2616C10.6641 13.0848 10.7343 12.9153 10.8593 12.7902C10.9843 12.6652 11.1539 12.595 11.3307 12.595H14.6641V10.595C14.6641 10.4182 14.7343 10.2486 14.8593 10.1236C14.9843 9.99855 15.1539 9.92831 15.3307 9.92831H20.6641C20.8409 9.92831 21.0104 9.99855 21.1355 10.1236C21.2605 10.2486 21.3307 10.4182 21.3307 10.595V12.595H24.6641C24.8409 12.595 25.0104 12.6652 25.1355 12.7902C25.2605 12.9153 25.3307 13.0848 25.3307 13.2616ZM19.9974 12.595V11.2616H15.9974V12.595H19.9974Z" fill="#FE8705"/>
</svg>
