<svg width="24" height="24" viewBox="0 0 24 24" fill="none" xmlns="http://www.w3.org/2000/svg">
<path d="M0.674626 8.33619C1.19151 6.73903 2.04081 5.26945 3.16663 4.02419C3.25972 3.92131 3.38129 3.84842 3.51589 3.81477C3.6505 3.78112 3.79207 3.78823 3.92263 3.8352L6.60783 4.79559C6.79899 4.86386 7.0027 4.88973 7.20486 4.87143C7.40701 4.85313 7.60277 4.79109 7.77856 4.68961C7.95435 4.58813 8.10598 4.44964 8.22292 4.28373C8.33987 4.11782 8.41934 3.92847 8.45583 3.7288L8.96823 0.920395C8.99297 0.783683 9.05784 0.657429 9.15458 0.557703C9.25131 0.457978 9.37553 0.389294 9.51143 0.360395C11.1516 0.0111346 12.8469 0.0111346 14.487 0.360395C14.6229 0.389294 14.7471 0.457978 14.8439 0.557703C14.9406 0.657429 15.0055 0.783683 15.0302 0.920395L15.5426 3.7288C15.5791 3.92847 15.6586 4.11782 15.7755 4.28373C15.8925 4.44964 16.0441 4.58813 16.2199 4.68961C16.3957 4.79109 16.5914 4.85313 16.7936 4.87143C16.9958 4.88973 17.1995 4.86386 17.3906 4.79559L20.0772 3.8352C20.2079 3.78839 20.3496 3.78151 20.4842 3.81541C20.6188 3.84931 20.7403 3.92247 20.8332 4.02559C21.9589 5.27044 22.8082 6.73952 23.3252 8.33619C23.3677 8.46822 23.3701 8.60989 23.3319 8.74325C23.2938 8.8766 23.2169 8.99562 23.111 9.0852L20.934 10.9332C20.7794 11.0646 20.6551 11.2281 20.57 11.4123C20.4848 11.5965 20.4406 11.797 20.4406 12C20.4406 12.2029 20.4848 12.4035 20.57 12.5877C20.6551 12.7719 20.7794 12.9354 20.934 13.0668L23.111 14.9148C23.2167 15.0045 23.2933 15.1236 23.3312 15.257C23.3691 15.3903 23.3665 15.5319 23.3238 15.6638C22.8069 17.261 21.9576 18.7305 20.8318 19.9758C20.7387 20.0787 20.6172 20.1516 20.4826 20.1852C20.348 20.2189 20.2064 20.2118 20.0758 20.1648L17.3906 19.2044C17.1995 19.1361 16.9958 19.1103 16.7936 19.1286C16.5914 19.1469 16.3957 19.2089 16.2199 19.3104C16.0441 19.4119 15.8925 19.5504 15.7755 19.7163C15.6586 19.8822 15.5791 20.0715 15.5426 20.2712L15.0302 23.081C15.0052 23.2175 14.9402 23.3434 14.8435 23.4429C14.7468 23.5423 14.6227 23.6108 14.487 23.6396C12.8469 23.989 11.1516 23.989 9.51143 23.6396C9.37553 23.6107 9.25131 23.542 9.15458 23.4423C9.05784 23.3426 8.99297 23.2163 8.96823 23.0796L8.45583 20.2712C8.41934 20.0715 8.33987 19.8822 8.22292 19.7163C8.10598 19.5504 7.95435 19.4119 7.77856 19.3104C7.60277 19.2089 7.40701 19.1469 7.20486 19.1286C7.0027 19.1103 6.79899 19.1361 6.60783 19.2044L3.92263 20.1648C3.79194 20.2116 3.65028 20.2185 3.51567 20.1846C3.38105 20.1507 3.25956 20.0775 3.16663 19.9744C2.04095 18.7296 1.19165 17.2605 0.674626 15.6638C0.631948 15.5319 0.62939 15.3903 0.667274 15.257C0.705158 15.1236 0.78178 15.0045 0.887426 14.9148L3.06443 13.0668C3.21908 12.9354 3.3433 12.7719 3.4285 12.5877C3.51369 12.4035 3.55782 12.2029 3.55782 12C3.55782 11.797 3.51369 11.5965 3.4285 11.4123C3.3433 11.2281 3.21908 11.0646 3.06443 10.9332L0.887426 9.0852C0.78178 8.99545 0.705158 8.87636 0.667274 8.74301C0.62939 8.60967 0.631948 8.46808 0.674626 8.33619ZM2.15863 8.3278L3.97023 9.865C4.28001 10.1278 4.52888 10.455 4.69956 10.8236C4.87025 11.1923 4.95866 11.5937 4.95866 12C4.95866 12.4063 4.87025 12.8077 4.69956 13.1763C4.52888 13.545 4.28001 13.8721 3.97023 14.135L2.16003 15.6722C2.56883 16.767 3.15823 17.7862 3.90163 18.685L6.13603 17.887C6.51844 17.7505 6.92598 17.6988 7.33037 17.7355C7.73476 17.7721 8.12634 17.8963 8.47794 18.0994C8.82955 18.3026 9.13278 18.5797 9.36659 18.9117C9.60041 19.2437 9.75922 19.6225 9.83203 20.022L10.259 22.3572C11.4112 22.5494 12.5872 22.5494 13.7394 22.3572L14.165 20.0192C14.2375 19.6194 14.3962 19.2403 14.6301 18.9081C14.864 18.5759 15.1674 18.2986 15.5193 18.0955C15.8712 17.8925 16.2631 17.7685 16.6677 17.7323C17.0724 17.696 17.48 17.7483 17.8624 17.8856L20.0968 18.685C20.8416 17.7848 21.4307 16.7665 21.8398 15.6722L20.0282 14.135C19.718 13.8724 19.4688 13.5454 19.2978 13.1767C19.1268 12.808 19.0383 12.4064 19.0383 12C19.0383 11.5936 19.1268 11.192 19.2978 10.8233C19.4688 10.4546 19.718 10.1276 20.0282 9.865L21.8398 8.3278C21.4307 7.23345 20.8416 6.21516 20.0968 5.31499L17.8624 6.113C17.4801 6.24952 17.0727 6.30127 16.6684 6.26467C16.2641 6.22807 15.8725 6.10398 15.521 5.90102C15.1694 5.69806 14.8661 5.42108 14.6322 5.08926C14.3983 4.75745 14.2394 4.37874 14.1664 3.97939L13.7394 1.64279C12.5873 1.45061 11.4112 1.45061 10.259 1.64279L9.83343 3.97939C9.76063 4.37887 9.60181 4.75773 9.36799 5.08971C9.13418 5.42168 8.83095 5.69883 8.47934 5.90194C8.12774 6.10505 7.73616 6.22925 7.33177 6.26593C6.92738 6.30262 6.51984 6.25091 6.13743 6.1144L3.90163 5.31499C3.15736 6.21526 2.56733 7.23355 2.15863 8.3278ZM8.50203 12C8.50203 11.0717 8.87077 10.1815 9.52715 9.52512C10.1835 8.86874 11.0738 8.5 12.002 8.5C12.9303 8.5 13.8205 8.86874 14.4769 9.52512C15.1333 10.1815 15.502 11.0717 15.502 12C15.502 12.9283 15.1333 13.8185 14.4769 14.4749C13.8205 15.1312 12.9303 15.5 12.002 15.5C11.0738 15.5 10.1835 15.1312 9.52715 14.4749C8.87077 13.8185 8.50203 12.9283 8.50203 12ZM9.90203 12C9.90203 12.5569 10.1233 13.0911 10.5171 13.4849C10.9109 13.8787 11.4451 14.1 12.002 14.1C12.559 14.1 13.0931 13.8787 13.4869 13.4849C13.8808 13.0911 14.102 12.5569 14.102 12C14.102 11.443 13.8808 10.9089 13.4869 10.5151C13.0931 10.1212 12.559 9.9 12.002 9.9C11.4451 9.9 10.9109 10.1212 10.5171 10.5151C10.1233 10.9089 9.90203 11.443 9.90203 12Z" fill="#FF8906"/>
</svg>
