<svg width="24" height="22" viewBox="0 0 24 22" fill="none" xmlns="http://www.w3.org/2000/svg">
<path d="M21.625 4.125H17.25V3.25C17.25 2.55381 16.9734 1.88613 16.4812 1.39384C15.9889 0.901562 15.3212 0.625 14.625 0.625H9.375C8.67881 0.625 8.01113 0.901562 7.51884 1.39384C7.02656 1.88613 6.75 2.55381 6.75 3.25V4.125H2.375C1.91087 4.125 1.46575 4.30937 1.13756 4.63756C0.809374 4.96575 0.625 5.41087 0.625 5.875V19.875C0.625 20.3391 0.809374 20.7842 1.13756 21.1124C1.46575 21.4406 1.91087 21.625 2.375 21.625H21.625C22.0891 21.625 22.5342 21.4406 22.8624 21.1124C23.1906 20.7842 23.375 20.3391 23.375 19.875V5.875C23.375 5.41087 23.1906 4.96575 22.8624 4.63756C22.5342 4.30937 22.0891 4.125 21.625 4.125ZM8.5 3.25C8.5 3.01794 8.59219 2.79538 8.75628 2.63128C8.92038 2.46719 9.14294 2.375 9.375 2.375H14.625C14.8571 2.375 15.0796 2.46719 15.2437 2.63128C15.4078 2.79538 15.5 3.01794 15.5 3.25V4.125H8.5V3.25ZM21.625 5.875V10.4261C18.6716 12.0337 15.3625 12.8756 12 12.875C8.6376 12.8756 5.32859 12.0341 2.375 10.4272V5.875H21.625ZM21.625 19.875H2.375V12.3981C5.37179 13.864 8.66392 14.6256 12 14.625C15.3361 14.6251 18.6282 13.863 21.625 12.397V19.875ZM9.375 10.25C9.375 10.0179 9.46719 9.79538 9.63128 9.63128C9.79538 9.46719 10.0179 9.375 10.25 9.375H13.75C13.9821 9.375 14.2046 9.46719 14.3687 9.63128C14.5328 9.79538 14.625 10.0179 14.625 10.25C14.625 10.4821 14.5328 10.7046 14.3687 10.8687C14.2046 11.0328 13.9821 11.125 13.75 11.125H10.25C10.0179 11.125 9.79538 11.0328 9.63128 10.8687C9.46719 10.7046 9.375 10.4821 9.375 10.25Z" fill="#FF8906"/>
</svg>
