<svg width="24" height="24" viewBox="0 0 24 24" fill="none" xmlns="http://www.w3.org/2000/svg">
<path d="M0.800781 2.8972C0.800781 1.738 1.74018 0.800003 2.90078 0.800003H4.30078C5.45858 0.800003 6.39938 1.738 6.39938 2.8972V21.072C6.39938 22.2298 5.45858 23.1678 4.29938 23.1678H2.89938C1.74018 23.1678 0.800781 22.2298 0.800781 21.072V2.8972ZM2.90078 2.1972C2.71513 2.1972 2.53708 2.27095 2.40581 2.40223C2.27453 2.5335 2.20078 2.71155 2.20078 2.8972V21.072C2.20115 21.2574 2.27507 21.4351 2.4063 21.5661C2.53754 21.697 2.71537 21.7706 2.90078 21.7706H4.30078C4.48619 21.7702 4.66388 21.6963 4.79485 21.5651C4.92582 21.4338 4.99938 21.256 4.99938 21.0706V2.8986C4.99938 2.71295 4.92563 2.5349 4.79436 2.40363C4.66308 2.27235 4.48503 2.1986 4.29938 2.1986L2.90078 2.1972ZM7.79798 2.8972C7.79798 1.738 8.73878 0.800003 9.89798 0.800003H11.298C12.4572 0.800003 13.3966 1.738 13.3966 2.8972V21.072C13.3966 22.2298 12.4572 23.1678 11.2966 23.1678H9.89658C8.73878 23.1678 7.79798 22.2298 7.79798 21.072V2.8972ZM9.89798 2.1972C9.71233 2.1972 9.53428 2.27095 9.40301 2.40223C9.27173 2.5335 9.19798 2.71155 9.19798 2.8972V21.072C9.19835 21.2574 9.27226 21.4351 9.4035 21.5661C9.53473 21.697 9.71257 21.7706 9.89798 21.7706H11.298C11.4836 21.7706 11.6617 21.6969 11.793 21.5656C11.9242 21.4343 11.998 21.2563 11.998 21.0706V2.8986C11.998 2.71295 11.9242 2.5349 11.793 2.40363C11.6617 2.27235 11.4836 2.1986 11.298 2.1986L9.89798 2.1972ZM20.006 6.6198C19.942 6.34266 19.8224 6.0814 19.6544 5.85187C19.4865 5.62235 19.2736 5.42933 19.0288 5.28454C18.784 5.13975 18.5123 5.04619 18.2303 5.00956C17.9482 4.97292 17.6617 4.99396 17.388 5.0714L16.345 5.3654C15.8357 5.50946 15.3997 5.84074 15.1245 6.29279C14.8493 6.74484 14.7551 7.28424 14.861 7.8028L17.6652 21.5228C17.7225 21.8009 17.8355 22.0644 17.9976 22.2975C18.1596 22.5307 18.3672 22.7285 18.6079 22.8791C18.8485 23.0297 19.1172 23.13 19.3977 23.1738C19.6782 23.2177 19.9646 23.2042 20.2398 23.1342L21.6188 22.7842C22.7248 22.5042 23.4024 21.3926 23.1476 20.2824L20.006 6.6198ZM17.7688 6.4168C17.86 6.39083 17.9556 6.38367 18.0496 6.39575C18.1437 6.40784 18.2343 6.43891 18.316 6.48709C18.3977 6.53527 18.4688 6.59956 18.5249 6.67604C18.581 6.75252 18.621 6.8396 18.6424 6.932L21.7826 20.596C21.8229 20.7739 21.7922 20.9605 21.697 21.116C21.6018 21.2716 21.4497 21.3839 21.273 21.429L19.894 21.779C19.8023 21.8023 19.7069 21.8069 19.6135 21.7923C19.52 21.7778 19.4305 21.7444 19.3503 21.6943C19.2701 21.6442 19.2009 21.5784 19.1468 21.5008C19.0928 21.4232 19.055 21.3354 19.0358 21.2428L16.2316 7.5228C16.1966 7.3501 16.2281 7.17057 16.3197 7.02006C16.4113 6.86954 16.5563 6.75911 16.7258 6.7108L17.7688 6.4168Z" fill="#FF8906"/>
</svg>
