<svg width="20" height="20" viewBox="0 0 20 20" fill="none" xmlns="http://www.w3.org/2000/svg">
<g clip-path="url(#clip0_150_14)">
<path fill-rule="evenodd" clip-rule="evenodd" d="M7.672 11.334L10.502 13.269L13.23 11.387L19.345 17.42C19.184 17.472 19.012 17.5 18.833 17.5H2.167C1.947 17.5 1.737 17.457 1.544 17.38L7.672 11.334ZM20.5 6.376V15.833C20.5 16.08 20.446 16.314 20.35 16.525L14.356 10.611L20.5 6.376ZM0.500001 6.429L6.542 10.561L0.606001 16.419C0.535697 16.2316 0.499788 16.0331 0.500001 15.833V6.429ZM18.833 2.5C19.753 2.5 20.5 3.246 20.5 4.167V4.753L10.498 11.648L0.500001 4.81V4.167C0.500001 3.247 1.246 2.5 2.167 2.5H18.833Z" fill="#FF8906"/>
</g>
<defs>
<clipPath id="clip0_150_14">
<rect width="20" height="20" fill="white"/>
</clipPath>
</defs>
</svg>
