<svg width="21" height="20" viewBox="0 0 21 20" fill="none" xmlns="http://www.w3.org/2000/svg">
<path d="M17.046 7.44001L15.2593 18.1067C15.2313 18.2597 15.1507 18.3981 15.0314 18.498C14.9121 18.5978 14.7616 18.6528 14.606 18.6533H6.39268C6.23711 18.6528 6.08663 18.5978 5.96731 18.498C5.848 18.3981 5.76735 18.2597 5.73935 18.1067L3.95268 7.44001C3.93729 7.34508 3.94262 7.24794 3.96831 7.15526C3.994 7.06258 4.03944 6.97656 4.1015 6.90309C4.16357 6.82963 4.24079 6.77046 4.32788 6.72965C4.41496 6.68884 4.50985 6.66736 4.60602 6.66668H16.3793C16.4766 6.66542 16.573 6.68548 16.6617 6.72544C16.7505 6.7654 16.8294 6.8243 16.8929 6.89799C16.9564 6.97169 17.003 7.0584 17.0295 7.15204C17.056 7.24567 17.0616 7.34396 17.046 7.44001ZM17.8327 4.66668C17.8327 4.84349 17.7624 5.01306 17.6374 5.13808C17.5124 5.26311 17.3428 5.33334 17.166 5.33334H3.83268C3.65587 5.33334 3.4863 5.26311 3.36128 5.13808C3.23625 5.01306 3.16602 4.84349 3.16602 4.66668C3.16602 4.48987 3.23625 4.3203 3.36128 4.19527C3.4863 4.07025 3.65587 4.00001 3.83268 4.00001H7.16602V2.00001C7.16602 1.8232 7.23625 1.65363 7.36128 1.52861C7.4863 1.40358 7.65587 1.33334 7.83268 1.33334H13.166C13.3428 1.33334 13.5124 1.40358 13.6374 1.52861C13.7624 1.65363 13.8327 1.8232 13.8327 2.00001V4.00001H17.166C17.3428 4.00001 17.5124 4.07025 17.6374 4.19527C17.7624 4.3203 17.8327 4.48987 17.8327 4.66668ZM12.4993 4.00001V2.66668H8.49935V4.00001H12.4993Z" fill="#FE8705"/>
</svg>
