<svg width="19" height="19" viewBox="0 0 19 19" fill="none" xmlns="http://www.w3.org/2000/svg">
<path d="M7.41668 4.05833L6.23335 2.88333L7.50001 1.5H12.5L14.025 3.16667H16.6667C17.5833 3.16667 18.3333 3.91667 18.3333 4.83333V14.8333C18.3333 14.875 18.325 14.9167 18.3167 14.9667L16.6667 13.3083V4.83333H13.2917L11.7667 3.16667H8.23335L7.41668 4.05833ZM17.075 18.425L15.1417 16.5H3.33335C2.41668 16.5 1.66668 15.75 1.66668 14.8333V4.83333C1.66668 4.34167 1.89168 3.9 2.23335 3.59167L0.566681 1.925L1.75001 0.75L18.25 17.25L17.075 18.425ZM7.65835 9.01667C7.56668 9.275 7.50001 9.54167 7.50001 9.83333C7.50001 11.2167 8.61668 12.3333 10 12.3333C10.2917 12.3333 10.5583 12.2667 10.8167 12.175L7.65835 9.01667ZM13.475 14.8333L12.075 13.4333C11.4667 13.7917 10.7583 14 10 14C7.70001 14 5.83335 12.1333 5.83335 9.83333C5.83335 9.075 6.04168 8.36667 6.40001 7.75833L3.47501 4.83333H3.33335V14.8333H13.475ZM12.3417 8.98333L14.0667 10.7083C14.1333 10.425 14.1667 10.1333 14.1667 9.83333C14.1667 7.53333 12.3 5.66667 10 5.66667C9.70001 5.66667 9.40835 5.7 9.11668 5.76667L10.8417 7.49167C11.5417 7.74167 12.0917 8.29167 12.3417 8.98333Z" fill="#FF8906"/>
</svg>
