<svg width="148" height="148" viewBox="0 0 148 148" fill="none" xmlns="http://www.w3.org/2000/svg">
<path fill-rule="evenodd" clip-rule="evenodd" d="M112.118 112.111H125.57V125.563H112.118V112.111ZM130.055 112.111H134.541V121.081H130.055V112.111ZM116.604 98.6591H130.055V107.629H125.57V103.144H116.6V98.6591H116.604ZM139.026 94.1739H134.541V89.6887H139.026V94.1739ZM125.574 85.2035V89.6887H130.059V94.1739H116.607V98.6591H112.122V103.144H107.637V112.115H98.6667V116.6H103.152V125.57H107.637V130.055H112.122V134.541H116.607V130.055H121.093V147.992H125.578V143.507H130.063V147.992H143.515V143.507H139.03V139.022H134.544V125.57H139.03V116.6H148V107.629H139.03V103.144H143.515V98.6591H139.03V94.1739H148V89.6887H143.515V85.2035H139.03V76.2331H130.059V85.2035H125.574Z" fill="#263238"/>
<path fill-rule="evenodd" clip-rule="evenodd" d="M40.3667 103.14V107.626H35.8815V103.14H40.3667ZM49.3371 89.6887H53.8223V103.14H49.3371V89.6887ZM40.3667 103.14V94.1701H44.8519V103.14H40.3667ZM67.2741 94.1701H71.7593V98.6553H67.2741V94.1701ZM62.7889 89.6849V94.1701H58.3037V89.6849H62.7889ZM62.7889 89.6849V85.1997H71.7593V89.6849H62.7889ZM85.2111 85.1997H76.2407V80.7145H85.2111V85.1997ZM62.7889 76.2293V80.7145H58.3037V76.2293H53.8185V85.1997H49.3333V89.6849H40.3629V94.1701H35.8777V98.6553H26.9073V103.14H31.3925V107.626H26.9073V112.111H35.8777V116.596H44.8481V107.626H58.2999V98.6553H62.7851V107.626H67.2703V103.14H80.7221V98.6553H85.2073V94.1701H76.2369V89.6849H85.2073V85.1997H89.6925V62.7775H85.2073V71.7479H76.2369V76.2331H62.7851L62.7889 76.2293Z" fill="#263238"/>
<path fill-rule="evenodd" clip-rule="evenodd" d="M121.085 76.2331H116.6V67.2627H121.085V76.2331ZM130.055 44.8443H134.541V49.3295H130.055V44.8443ZM121.085 49.3295V53.8147H116.6V58.2999H121.085V62.7851H112.115V71.7555H107.629V67.2703H103.144V71.7555H98.659V80.7259H103.144V85.2111H98.659V94.1815H103.144V89.6963H107.629V80.7259H116.6V85.2111H125.57V80.7259H121.085V76.2407H130.055V71.7555H139.026V67.2703H125.574V53.8185H139.026V49.3333H143.511V44.8481H147.996V40.3629H143.511V35.8777H130.059V40.3629H125.574V49.3333H121.089L121.085 49.3295Z" fill="#263238"/>
<path fill-rule="evenodd" clip-rule="evenodd" d="M58.3037 26.9074H62.7889V35.874H58.3037V40.3592H67.2741V49.3296H62.7889V53.811H58.3037V44.8444H53.8185V40.3592H49.3371V58.2962H53.8185V62.7813H58.3037V67.2665H67.2741V58.2962H71.7593V62.7813H80.7259V58.2962H85.211V53.811H71.7593V49.3296H76.2407V44.8444H71.7593V35.874H67.2741V22.4222H62.7889V17.937H53.8185V22.4222H58.3037V26.9074Z" fill="#263238"/>
<path fill-rule="evenodd" clip-rule="evenodd" d="M8.97799 94.1739H13.4632V98.6591H8.97799V94.1739ZM4.4928 85.2035H8.97799V94.1739H4.4928V107.626H17.9446V112.111H22.4298V107.626H26.915V103.14H17.9446V94.1701H22.4298V89.6849H26.915V85.1997H31.4002V89.6849H35.8854V85.1997H40.3705V76.2293H35.8854V80.7145H22.4336V85.1997H13.4632V80.7145H4.4928V85.1997V85.2035Z" fill="#263238"/>
<path fill-rule="evenodd" clip-rule="evenodd" d="M4.49264 4.48512H26.9148V26.9073H4.49264V4.48512ZM0.00744629 31.3925H31.3962V0.00372314H0.00744629V31.3925Z" fill="#263238"/>
<path fill-rule="evenodd" clip-rule="evenodd" d="M4.49279 121.077H26.915V143.5H4.49279V121.077ZM0.00759888 147.985H31.3964V116.596H0.00759888V147.985Z" fill="#263238"/>
<path fill-rule="evenodd" clip-rule="evenodd" d="M121.085 4.48524H143.507V26.9074H121.085V4.48524ZM116.6 31.3926H147.989V0.00384521H116.6V31.3926Z" fill="#263238"/>
<path fill-rule="evenodd" clip-rule="evenodd" d="M26.915 49.3295H31.4002V53.8147H26.915V49.3295ZM4.4928 49.3295V44.8444H8.97799V49.3295H4.4928ZM4.4928 49.3295V53.8147H17.9446V49.3295H22.4298V58.2999H35.8815V53.8147H40.3667V49.3295H35.8815V44.8444H26.9112V40.3592H17.9408V44.8444H13.4556V40.3592H4.48519V35.874H0V49.3257H4.48519L4.4928 49.3295Z" fill="#263238"/>
<path fill-rule="evenodd" clip-rule="evenodd" d="M98.6629 40.3592H103.148V35.874H107.633V31.3888H103.148V22.4222H107.633V13.4518H98.6629V8.9704H94.1815V17.937H98.6629V22.4222H89.6963V31.3888H94.1815V26.9074H98.6629V40.3592Z" fill="#263238"/>
<path fill-rule="evenodd" clip-rule="evenodd" d="M40.3668 26.9074H44.852V35.8778H40.3668V26.9074ZM35.8816 44.8444H44.852V40.3592H49.3372V35.874H53.8224V31.3888H49.3372V22.4184H40.3668V26.9036H35.8816V44.8406V44.8444Z" fill="#263238"/>
<path fill-rule="evenodd" clip-rule="evenodd" d="M107.633 53.8109V58.2961H103.148V53.8109H107.633ZM94.1815 62.7813V67.2665H103.152V62.7813H112.122V53.8109H107.637V49.3257H103.152V44.8405H98.6667V40.3553H94.1815V49.3257H98.6667V62.7775H94.1815V62.7813Z" fill="#263238"/>
<path fill-rule="evenodd" clip-rule="evenodd" d="M53.8185 116.592H58.3037V121.077H71.7593V125.563H76.2407V112.111H71.7593V107.626H67.2741V116.592H62.7889V107.626H58.3037V112.111H53.8185V116.592Z" fill="#263238"/>
<path fill-rule="evenodd" clip-rule="evenodd" d="M13.4594 67.2665V71.7517H8.97799V67.2665H4.49279V62.7813H8.97799V58.2961H0.00759888V71.7517H4.49279V76.2331H17.9446V67.2665H13.4594Z" fill="#263238"/>
<path fill-rule="evenodd" clip-rule="evenodd" d="M8.97797 139.014H22.4297V125.563H8.97797V139.014Z" fill="#263238"/>
<path fill-rule="evenodd" clip-rule="evenodd" d="M8.97797 22.4222H22.4297V8.9704H8.97797V22.4222Z" fill="#263238"/>
<path fill-rule="evenodd" clip-rule="evenodd" d="M125.57 22.4222H139.022V8.9704H125.57V22.4222Z" fill="#263238"/>
<path fill-rule="evenodd" clip-rule="evenodd" d="M98.6629 139.014V147.985H112.118V143.5H116.6V139.014H112.118V134.533H107.633V139.014H98.6629Z" fill="#263238"/>
<path fill-rule="evenodd" clip-rule="evenodd" d="M53.8185 13.4518H62.7889V8.97039H67.2741V4.48519H58.3037V0H53.8185V4.48519H49.3371V8.97039H53.8185V13.4518Z" fill="#263238"/>
<path fill-rule="evenodd" clip-rule="evenodd" d="M62.7889 139.014V143.5H58.3037V147.985H67.2741V143.5H76.2407V130.048H71.7593V139.014H62.7889Z" fill="#263238"/>
<path fill-rule="evenodd" clip-rule="evenodd" d="M98.6629 139.014V134.533H94.1815V130.048H89.6963V139.014H85.2111V147.985H89.6963V143.5H94.1815V139.014H98.6629Z" fill="#263238"/>
<path fill-rule="evenodd" clip-rule="evenodd" d="M103.148 98.6553H94.1815V85.2035H89.6963V103.14H103.148V98.6553Z" fill="#263238"/>
<path fill-rule="evenodd" clip-rule="evenodd" d="M40.3668 76.2331H44.852V85.2035H49.3371V76.2331H53.8185V71.7517H49.3371V67.2665H44.852V71.7517H40.3668V76.2331Z" fill="#263238"/>
<path fill-rule="evenodd" clip-rule="evenodd" d="M139.022 125.563V139.014H147.992V130.048H143.507V125.563H139.022Z" fill="#263238"/>
<path fill-rule="evenodd" clip-rule="evenodd" d="M139.022 67.2665H143.507V62.7813H147.992V58.2961H143.507V53.8109H139.022V58.2961H134.541V62.7813H139.022V67.2665Z" fill="#263238"/>
<path fill-rule="evenodd" clip-rule="evenodd" d="M71.7593 22.4222V31.3888H76.2407V26.9074H80.7259V22.4222H85.2111V17.937H76.2407V22.4222H71.7593Z" fill="#263238"/>
<path fill-rule="evenodd" clip-rule="evenodd" d="M85.2111 116.592H94.1815V107.626H85.2111V116.592Z" fill="#263238"/>
<path fill-rule="evenodd" clip-rule="evenodd" d="M89.6963 62.7813H94.1815V49.3295H85.2111V53.8109H89.6963V62.7813Z" fill="#263238"/>
<path fill-rule="evenodd" clip-rule="evenodd" d="M35.8816 17.9369H44.852V13.4518H40.3668V4.48517H35.8816V17.9369Z" fill="#263238"/>
<path fill-rule="evenodd" clip-rule="evenodd" d="M35.8815 76.2331V67.2665H31.3963V71.7517H22.4297V76.2331H35.8815Z" fill="#263238"/>
<path fill-rule="evenodd" clip-rule="evenodd" d="M89.6962 8.97036H80.7259V4.48517H76.2407V13.4518H89.6962V8.97036Z" fill="#263238"/>
<path fill-rule="evenodd" clip-rule="evenodd" d="M71.7593 22.4222V8.9704H67.2741V22.4222H71.7593Z" fill="#263238"/>
<path fill-rule="evenodd" clip-rule="evenodd" d="M98.6628 8.97039H103.148V0H94.1815V4.48519H98.6628V8.97039Z" fill="#263238"/>
<path fill-rule="evenodd" clip-rule="evenodd" d="M85.2111 49.3296V44.8444H89.6963V40.3592H80.7259V49.3296H85.2111Z" fill="#263238"/>
<path fill-rule="evenodd" clip-rule="evenodd" d="M53.8186 134.533H44.852V139.014H49.3372V143.5H53.8186V134.533Z" fill="#263238"/>
<path fill-rule="evenodd" clip-rule="evenodd" d="M49.3372 125.563V121.077H53.8186V116.592H44.852V125.563H49.3372Z" fill="#263238"/>
<path fill-rule="evenodd" clip-rule="evenodd" d="M116.6 94.1739V89.6887H107.633V94.1739H116.6Z" fill="#263238"/>
<path fill-rule="evenodd" clip-rule="evenodd" d="M40.3668 53.8109V62.7813H44.852V53.8109H40.3668Z" fill="#263238"/>
<path fill-rule="evenodd" clip-rule="evenodd" d="M94.1815 125.563V121.077H85.2111V125.563H94.1815Z" fill="#263238"/>
<path fill-rule="evenodd" clip-rule="evenodd" d="M143.507 67.2665V76.2331H147.992V67.2665H143.507Z" fill="#263238"/>
<path fill-rule="evenodd" clip-rule="evenodd" d="M112.118 40.3592H121.085V35.874H112.118V40.3592Z" fill="#263238"/>
<path fill-rule="evenodd" clip-rule="evenodd" d="M107.633 22.4222V31.3888H112.118V22.4222H107.633Z" fill="#263238"/>
<path fill-rule="evenodd" clip-rule="evenodd" d="M31.3963 67.2665V62.7813H22.4297V67.2665H31.3963Z" fill="#263238"/>
<path fill-rule="evenodd" clip-rule="evenodd" d="M58.3037 71.7517V67.2665H53.8185V71.7517H58.3037Z" fill="#263238"/>
<path fill-rule="evenodd" clip-rule="evenodd" d="M58.3037 121.077H53.8185V125.563H58.3037V121.077Z" fill="#263238"/>
<path fill-rule="evenodd" clip-rule="evenodd" d="M80.7259 40.3592V35.874H76.2407V40.3592H80.7259Z" fill="#263238"/>
<path fill-rule="evenodd" clip-rule="evenodd" d="M53.8185 130.048V125.563H49.3371V130.048H53.8185Z" fill="#263238"/>
<path fill-rule="evenodd" clip-rule="evenodd" d="M71.7593 130.048V125.563H67.2741V130.048H71.7593Z" fill="#263238"/>
<path fill-rule="evenodd" clip-rule="evenodd" d="M4.49279 85.2035H0.00759888V89.6887H4.49279V85.2035Z" fill="#263238"/>
<path fill-rule="evenodd" clip-rule="evenodd" d="M94.1815 125.563V130.048H98.6628V125.563H94.1815Z" fill="#263238"/>
<path fill-rule="evenodd" clip-rule="evenodd" d="M44.852 134.533V130.048H40.3668V134.533H44.852Z" fill="#263238"/>
<path fill-rule="evenodd" clip-rule="evenodd" d="M107.633 134.533V130.048H103.148V134.533H107.633Z" fill="#263238"/>
<path fill-rule="evenodd" clip-rule="evenodd" d="M22.4298 62.7813V58.2961H17.9446V62.7813H22.4298Z" fill="#263238"/>
<path fill-rule="evenodd" clip-rule="evenodd" d="M53.8185 17.937V13.4518H49.3371V17.937H53.8185Z" fill="#263238"/>
<path fill-rule="evenodd" clip-rule="evenodd" d="M94.1815 8.97036V4.48517H89.6963V8.97036H94.1815Z" fill="#263238"/>
<path fill-rule="evenodd" clip-rule="evenodd" d="M107.633 94.1739H103.148V98.6553H107.633V94.1739Z" fill="#263238"/>
<path fill-rule="evenodd" clip-rule="evenodd" d="M143.507 49.3295V53.8109H147.992V49.3295H143.507Z" fill="#263238"/>
<path fill-rule="evenodd" clip-rule="evenodd" d="M76.2407 4.48519V0H71.7593V4.48519H76.2407Z" fill="#263238"/>
<path fill-rule="evenodd" clip-rule="evenodd" d="M116.6 53.8109V49.3295H112.118V53.8109H116.6Z" fill="#263238"/>
<path fill-rule="evenodd" clip-rule="evenodd" d="M40.3668 143.5H35.8816V147.985H40.3668V143.5Z" fill="#263238"/>
<path fill-rule="evenodd" clip-rule="evenodd" d="M76.2407 143.5V147.985H80.7259V143.5H76.2407Z" fill="#263238"/>
<path fill-rule="evenodd" clip-rule="evenodd" d="M67.2741 67.2665V71.7517H71.7593V67.2665H67.2741Z" fill="#263238"/>
<path fill-rule="evenodd" clip-rule="evenodd" d="M62.7889 76.2331V71.7517H58.3037V76.2331H62.7889Z" fill="#263238"/>
<path fill-rule="evenodd" clip-rule="evenodd" d="M58.3037 134.533V130.048H53.8185V134.533H58.3037Z" fill="#263238"/>
<path fill-rule="evenodd" clip-rule="evenodd" d="M44.852 139.014H40.3668V143.5H44.852V139.014Z" fill="#263238"/>
<path fill-rule="evenodd" clip-rule="evenodd" d="M107.633 44.8444V40.3592H103.148V44.8444H107.633Z" fill="#263238"/>
<path fill-rule="evenodd" clip-rule="evenodd" d="M98.6628 85.2035V80.7183H94.1815V85.2035H98.6628Z" fill="#263238"/>
<path fill-rule="evenodd" clip-rule="evenodd" d="M143.507 85.2035H147.992V80.7183H143.507V85.2035Z" fill="#263238"/>
<path fill-rule="evenodd" clip-rule="evenodd" d="M40.3668 62.7813H35.8816V67.2665H40.3668V62.7813Z" fill="#263238"/>
<path fill-rule="evenodd" clip-rule="evenodd" d="M31.3963 89.6887H26.9149V94.1739H31.3963V89.6887Z" fill="#263238"/>
<path fill-rule="evenodd" clip-rule="evenodd" d="M112.118 49.3296V44.8444H107.633V49.3296H112.118Z" fill="#263238"/>
<path fill-rule="evenodd" clip-rule="evenodd" d="M80.7259 4.48519H85.2111V0H80.7259V4.48519Z" fill="#263238"/>
<path fill-rule="evenodd" clip-rule="evenodd" d="M26.9149 40.3592H31.3963V35.874H26.9149V40.3592Z" fill="#263238"/>
<path fill-rule="evenodd" clip-rule="evenodd" d="M58.3037 26.9073H53.8185V31.3887H58.3037V26.9073Z" fill="#263238"/>
<path fill-rule="evenodd" clip-rule="evenodd" d="M62.7889 139.014V134.533H58.3037V139.014H62.7889Z" fill="#263238"/>
<path fill-rule="evenodd" clip-rule="evenodd" d="M107.633 13.4518H112.118V8.9704H107.633V13.4518Z" fill="#263238"/>
<path fill-rule="evenodd" clip-rule="evenodd" d="M85.2111 125.563H80.7259V130.048H85.2111V125.563Z" fill="#263238"/>
<path fill-rule="evenodd" clip-rule="evenodd" d="M13.4594 67.2665V62.7813H8.97797V67.2665H13.4594Z" fill="#263238"/>
<path fill-rule="evenodd" clip-rule="evenodd" d="M121.085 49.3296V44.8444H116.6V49.3296H121.085Z" fill="#263238"/>
<path fill-rule="evenodd" clip-rule="evenodd" d="M80.7259 26.9073V31.3887H85.2111V26.9073H80.7259Z" fill="#263238"/>
<path fill-rule="evenodd" clip-rule="evenodd" d="M116.6 121.077H121.085V116.592H116.6V121.077Z" fill="#263238"/>
<path fill-rule="evenodd" clip-rule="evenodd" d="M85.2111 121.077V116.592H80.7259V121.077H85.2111Z" fill="#263238"/>
</svg>
