<svg width="28" height="23" viewBox="0 0 28 23" fill="none" xmlns="http://www.w3.org/2000/svg">
<path opacity="0.9" d="M0 1.375C0 1.14294 0.0921872 0.920376 0.256282 0.756282C0.420376 0.592187 0.642936 0.5 0.875 0.5H9.6215C11.4485 0.5 13.0573 1.43333 13.9977 2.84967C14.4762 2.12669 15.1265 1.53364 15.8904 1.12359C16.6543 0.713539 17.508 0.499284 18.375 0.5H27.125C27.3571 0.5 27.5796 0.592187 27.7437 0.756282C27.9078 0.920376 28 1.14294 28 1.375V18.9485C27.9997 19.0638 27.9767 19.1779 27.9322 19.2843C27.8878 19.3907 27.8228 19.4873 27.741 19.5686C27.6592 19.6499 27.5621 19.7142 27.4554 19.7579C27.3487 19.8017 27.2345 19.824 27.1192 19.8235L18.1568 19.7628C17.6932 19.7595 17.2335 19.8484 16.8046 20.0242C16.3756 20.2001 15.9858 20.4594 15.6578 20.7872L14.6195 21.8267C14.5382 21.908 14.4418 21.9725 14.3356 22.0165C14.2294 22.0605 14.1155 22.0831 14.0006 22.0831C13.8856 22.0831 13.7718 22.0605 13.6656 22.0165C13.5594 21.9725 13.4629 21.908 13.3817 21.8267L12.3293 20.7755C12.0046 20.4503 11.6188 20.1923 11.1942 20.0163C10.7696 19.8403 10.3145 19.7498 9.85483 19.75H0.875C0.642936 19.75 0.420376 19.6578 0.256282 19.4937C0.0921872 19.3296 0 19.1071 0 18.875L0 1.375ZM14.875 19.1457C15.8121 18.4045 16.9738 18.005 18.1685 18.0128L26.25 18.0677V2.25H18.375C17.4467 2.25 16.5565 2.61875 15.9001 3.27513C15.2437 3.9315 14.875 4.82174 14.875 5.75V19.1457ZM13.1215 5.7465C13.1206 4.81885 12.7514 3.92951 12.0951 3.27389C11.4389 2.61827 10.5492 2.25 9.6215 2.25H1.75V18H9.85483C11.0425 18 12.1952 18.4037 13.125 19.1433L13.1215 5.7465Z" fill="#FF8906"/>
</svg>
