<svg width="24" height="24" viewBox="0 0 24 24" fill="none" xmlns="http://www.w3.org/2000/svg">
<path d="M8.08246 14.9167C8.63475 14.9167 9.08247 15.3644 9.08247 15.9167V21.6944C9.08247 22.2467 8.63475 22.6944 8.08247 22.6944H2.30469C1.7524 22.6944 1.30469 22.2467 1.30469 21.6944V15.9167C1.30469 15.3644 1.7524 14.9167 2.30469 14.9167H8.08246ZM21.6936 14.9167C22.2459 14.9167 22.6936 15.3644 22.6936 15.9167V21.6944C22.6936 22.2467 22.2459 22.6944 21.6936 22.6944H15.9158C15.3635 22.6944 14.9158 22.2467 14.9158 21.6944V15.9167C14.9158 15.3644 15.3635 14.9167 15.9158 14.9167H21.6936ZM8.08246 1.30554C8.63475 1.30554 9.08247 1.75326 9.08247 2.30554V8.08332C9.08247 8.6356 8.63475 9.08332 8.08247 9.08332H2.30469C1.7524 9.08332 1.30469 8.6356 1.30469 8.08332V2.30554C1.30469 1.75326 1.7524 1.30554 2.30469 1.30554H8.08246ZM21.6936 1.30554C22.2459 1.30554 22.6936 1.75326 22.6936 2.30554V8.08332C22.6936 8.6356 22.2459 9.08332 21.6936 9.08332H15.9158C15.3635 9.08332 14.9158 8.6356 14.9158 8.08332V2.30554C14.9158 1.75326 15.3635 1.30554 15.9158 1.30554H21.6936Z" stroke="#FF8906" stroke-width="1.5"/>
</svg>
