<svg width="914" height="648" viewBox="0 0 914 648" fill="none" xmlns="http://www.w3.org/2000/svg">
<path d="M536.386 593.382H521.526V593.81H536.386V593.382Z" fill="#EBEBEB"/>
<path d="M680.984 572.835H648.169V573.263H680.984V572.835Z" fill="#EBEBEB"/>
<path d="M133.562 575.712H59.7066V576.14H133.562V575.712Z" fill="#EBEBEB"/>
<path d="M159.622 575.712H148.798V576.14H159.622V575.712Z" fill="#EBEBEB"/>
<g opacity="0.9">
<path d="M495.137 325.04H107.805V571.74H495.137V325.04Z" fill="white"/>
<path opacity="0.65" d="M495.137 325.04H107.805V341.751H495.137V325.04Z" fill="url(#paint0_linear_1_4)"/>
<path d="M489.374 333.395C489.374 336.169 487.117 338.429 484.347 338.429C481.577 338.429 479.32 336.169 479.32 333.395C479.32 330.622 481.577 328.361 484.347 328.361C487.117 328.361 489.374 330.622 489.374 333.395Z" fill="#FAFAFA"/>
<path d="M472.668 333.395C472.668 336.169 470.41 338.429 467.64 338.429C464.87 338.429 462.613 336.169 462.613 333.395C462.613 330.622 464.87 328.361 467.64 328.361C470.41 328.361 472.668 330.622 472.668 333.395Z" fill="#FAFAFA"/>
<path d="M455.944 333.395C455.944 336.169 453.687 338.429 450.916 338.429C448.146 338.429 445.889 336.169 445.889 333.395C445.889 330.622 448.146 328.361 450.916 328.361C453.687 328.361 455.944 330.622 455.944 333.395Z" fill="#FAFAFA"/>
<path opacity="0.65" d="M177.847 370.739L175.47 367.418C174.598 366.202 173.195 365.466 171.759 365.466H154.95C153.496 365.466 152.197 366.202 151.461 367.418L149.461 370.739C148.725 371.955 147.426 372.691 145.972 372.691H135.952C133.558 372.691 131.728 374.643 131.882 377.058L135.131 433.236C135.268 435.651 137.32 437.603 139.714 437.603H219.177C221.571 437.603 223.401 435.651 223.247 433.236L219.998 377.058C219.861 374.643 217.809 372.691 215.415 372.691H181.574C180.121 372.691 178.736 371.955 177.864 370.739H177.847Z" fill="url(#paint1_linear_1_4)"/>
<path d="M223.35 378.034H150.555C147.528 378.034 144.844 380.482 144.57 383.496L140.192 432.141C139.919 435.154 142.159 437.603 145.203 437.603H217.997C221.024 437.603 223.709 435.154 223.982 432.141L228.36 383.496C228.634 380.482 226.393 378.034 223.35 378.034Z" fill="#D5CCE7"/>
<path opacity="0.65" d="M299.068 370.739L296.692 367.418C295.819 366.202 294.417 365.466 292.981 365.466H276.172C274.718 365.466 273.418 366.202 272.683 367.418L270.682 370.739C269.947 371.955 268.648 372.691 267.194 372.691H257.173C254.779 372.691 252.95 374.643 253.104 377.058L256.353 433.236C256.489 435.651 258.541 437.603 260.935 437.603H340.399C342.793 437.603 344.623 435.651 344.469 433.236L341.22 377.058C341.083 374.643 339.031 372.691 336.637 372.691H302.796C301.343 372.691 299.958 371.955 299.086 370.739H299.068Z" fill="url(#paint2_linear_1_4)"/>
<path d="M344.572 378.034H271.777C268.75 378.034 266.065 380.482 265.792 383.496L261.414 432.141C261.141 435.154 263.381 437.603 266.425 437.603H339.219C342.246 437.603 344.931 435.154 345.204 432.141L349.582 383.496C349.855 380.482 347.615 378.034 344.572 378.034Z" fill="#D5CCE7"/>
<path opacity="0.65" d="M420.307 370.739L417.931 367.418C417.058 366.202 415.656 365.466 414.22 365.466H397.411C395.957 365.466 394.657 366.202 393.922 367.418L391.921 370.739C391.186 371.955 389.887 372.691 388.433 372.691H378.412C376.018 372.691 374.189 374.643 374.343 377.058L377.592 433.236C377.728 435.651 379.78 437.603 382.174 437.603H461.638C464.032 437.603 465.862 435.651 465.708 433.236L462.459 377.058C462.322 374.643 460.27 372.691 457.876 372.691H424.035C422.582 372.691 421.197 371.955 420.325 370.739H420.307Z" fill="url(#paint3_linear_1_4)"/>
<path d="M465.793 378.034H392.999C389.972 378.034 387.287 380.482 387.014 383.496L382.636 432.141C382.363 435.154 384.603 437.603 387.646 437.603H460.441C463.468 437.603 466.153 435.154 466.426 432.141L470.804 383.496C471.077 380.482 468.837 378.034 465.793 378.034Z" fill="#D5CCE7"/>
<path opacity="0.65" d="M177.847 473.543L175.47 470.221C174.598 469.005 173.195 468.269 171.759 468.269H154.95C153.496 468.269 152.197 469.005 151.461 470.221L149.461 473.543C148.725 474.758 147.426 475.495 145.972 475.495H135.952C133.558 475.495 131.728 477.447 131.882 479.861L135.131 536.04C135.268 538.454 137.32 540.406 139.714 540.406H219.177C221.571 540.406 223.401 538.454 223.247 536.04L219.998 479.861C219.861 477.447 217.809 475.495 215.415 475.495H181.574C180.121 475.495 178.736 474.758 177.864 473.543H177.847Z" fill="url(#paint4_linear_1_4)"/>
<path d="M223.35 480.837H150.555C147.528 480.837 144.844 483.285 144.57 486.299L140.192 534.944C139.919 537.957 142.159 540.406 145.203 540.406H217.997C221.024 540.406 223.709 537.957 223.982 534.944L228.36 486.299C228.634 483.285 226.393 480.837 223.35 480.837Z" fill="#D5CCE7"/>
<path opacity="0.65" d="M299.068 473.543L296.692 470.221C295.819 469.005 294.417 468.269 292.981 468.269H276.172C274.718 468.269 273.418 469.005 272.683 470.221L270.682 473.543C269.947 474.758 268.648 475.495 267.194 475.495H257.173C254.779 475.495 252.95 477.447 253.104 479.861L256.353 536.04C256.489 538.454 258.541 540.406 260.935 540.406H340.399C342.793 540.406 344.623 538.454 344.469 536.04L341.22 479.861C341.083 477.447 339.031 475.495 336.637 475.495H302.796C301.343 475.495 299.958 474.758 299.086 473.543H299.068Z" fill="url(#paint5_linear_1_4)"/>
<path d="M344.572 480.837H271.777C268.75 480.837 266.065 483.285 265.792 486.299L261.414 534.944C261.141 537.957 263.381 540.406 266.425 540.406H339.219C342.246 540.406 344.931 537.957 345.204 534.944L349.582 486.299C349.855 483.285 347.615 480.837 344.572 480.837Z" fill="#D5CCE7"/>
<path opacity="0.65" d="M420.307 473.543L417.931 470.221C417.058 469.005 415.656 468.269 414.22 468.269H397.411C395.957 468.269 394.657 469.005 393.922 470.221L391.921 473.543C391.186 474.758 389.887 475.495 388.433 475.495H378.412C376.018 475.495 374.189 477.447 374.343 479.861L377.592 536.04C377.728 538.454 379.78 540.406 382.174 540.406H461.638C464.032 540.406 465.862 538.454 465.708 536.04L462.459 479.861C462.322 477.447 460.27 475.495 457.876 475.495H424.035C422.582 475.495 421.197 474.758 420.325 473.543H420.307Z" fill="url(#paint6_linear_1_4)"/>
<path d="M465.793 480.837H392.999C389.972 480.837 387.287 483.285 387.014 486.299L382.636 534.944C382.363 537.957 384.603 540.406 387.646 540.406H460.441C463.468 540.406 466.153 537.957 466.426 534.944L470.804 486.299C471.077 483.285 468.837 480.837 465.793 480.837Z" fill="#D5CCE7"/>
</g>
<path d="M467.405 534.224H363.505V606.875H467.405V534.224Z" fill="#263238"/>
<path d="M468.533 595.18H391.412C389.854 595.18 388.591 596.445 388.591 598.005V616.686C388.591 618.246 389.854 619.511 391.412 619.511H468.533C470.092 619.511 471.355 618.246 471.355 616.686V598.005C471.355 596.445 470.092 595.18 468.533 595.18Z" fill="#7454AE"/>
<path opacity="0.2" d="M468.533 595.18H391.412C389.854 595.18 388.591 596.445 388.591 598.005V616.686C388.591 618.246 389.854 619.511 391.412 619.511H468.533C470.092 619.511 471.355 618.246 471.355 616.686V598.005C471.355 596.445 470.092 595.18 468.533 595.18Z" fill="black"/>
<path d="M440.336 595.18H363.215C361.656 595.18 360.393 596.445 360.393 598.005V616.686C360.393 618.246 361.656 619.511 363.215 619.511H440.336C441.894 619.511 443.157 618.246 443.157 616.686V598.005C443.157 596.445 441.894 595.18 440.336 595.18Z" fill="#7454AE"/>
<path opacity="0.3" d="M435 607.354C435 610.179 432.709 612.474 429.887 612.474C427.066 612.474 424.775 610.179 424.775 607.354C424.775 604.529 427.066 602.235 429.887 602.235C432.709 602.235 435 604.529 435 607.354Z" fill="#F5F5F5"/>
<path d="M429.905 609.957C431.34 609.957 432.504 608.792 432.504 607.354C432.504 605.917 431.34 604.752 429.905 604.752C428.469 604.752 427.305 605.917 427.305 607.354C427.305 608.792 428.469 609.957 429.905 609.957Z" fill="#7454AE"/>
<path opacity="0.3" d="M418.961 604.443H413.147V610.265H418.961V604.443Z" fill="#F5F5F5"/>
<path d="M468.533 569.77H391.412C389.854 569.77 388.591 571.035 388.591 572.596V591.276C388.591 592.837 389.854 594.101 391.412 594.101H468.533C470.092 594.101 471.355 592.837 471.355 591.276V572.596C471.355 571.035 470.092 569.77 468.533 569.77Z" fill="#7454AE"/>
<path opacity="0.2" d="M468.533 569.77H391.412C389.854 569.77 388.591 571.035 388.591 572.596V591.276C388.591 592.837 389.854 594.101 391.412 594.101H468.533C470.092 594.101 471.355 592.837 471.355 591.276V572.596C471.355 571.035 470.092 569.77 468.533 569.77Z" fill="black"/>
<path d="M440.336 569.77H363.215C361.656 569.77 360.393 571.035 360.393 572.596V591.276C360.393 592.837 361.656 594.101 363.215 594.101H440.336C441.894 594.101 443.157 592.837 443.157 591.276V572.596C443.157 571.035 441.894 569.77 440.336 569.77Z" fill="#7454AE"/>
<path opacity="0.3" d="M435 581.945C435 584.77 432.709 587.064 429.887 587.064C427.066 587.064 424.775 584.77 424.775 581.945C424.775 579.119 427.066 576.825 429.887 576.825C432.709 576.825 435 579.119 435 581.945Z" fill="#F5F5F5"/>
<path d="M432.487 581.945C432.487 583.383 431.324 584.547 429.887 584.547C428.451 584.547 427.288 583.383 427.288 581.945C427.288 580.506 428.451 579.342 429.887 579.342C431.324 579.342 432.487 580.506 432.487 581.945Z" fill="#7454AE"/>
<path opacity="0.3" d="M418.961 579.034H413.147V584.855H418.961V579.034Z" fill="#F5F5F5"/>
<path d="M468.533 544.361H391.412C389.854 544.361 388.591 545.626 388.591 547.186V565.867C388.591 567.427 389.854 568.692 391.412 568.692H468.533C470.092 568.692 471.355 567.427 471.355 565.867V547.186C471.355 545.626 470.092 544.361 468.533 544.361Z" fill="#7454AE"/>
<path opacity="0.2" d="M468.533 544.361H391.412C389.854 544.361 388.591 545.626 388.591 547.186V565.867C388.591 567.427 389.854 568.692 391.412 568.692H468.533C470.092 568.692 471.355 567.427 471.355 565.867V547.186C471.355 545.626 470.092 544.361 468.533 544.361Z" fill="black"/>
<path d="M440.336 544.361H363.215C361.656 544.361 360.393 545.626 360.393 547.186V565.867C360.393 567.427 361.656 568.692 363.215 568.692H440.336C441.894 568.692 443.157 567.427 443.157 565.867V547.186C443.157 545.626 441.894 544.361 440.336 544.361Z" fill="#7454AE"/>
<path opacity="0.3" d="M435 556.535C435 559.36 432.709 561.654 429.887 561.654C427.066 561.654 424.775 559.36 424.775 556.535C424.775 553.71 427.066 551.415 429.887 551.415C432.709 551.415 435 553.71 435 556.535Z" fill="#F5F5F5"/>
<path d="M432.487 556.535C432.487 557.973 431.324 559.137 429.887 559.137C428.451 559.137 427.288 557.973 427.288 556.535C427.288 555.096 428.451 553.932 429.887 553.932C431.324 553.932 432.487 555.096 432.487 556.535Z" fill="#7454AE"/>
<path opacity="0.3" d="M418.961 553.624H413.147V559.446H418.961V553.624Z" fill="#F5F5F5"/>
<path d="M468.533 518.951H391.412C389.854 518.951 388.591 520.216 388.591 521.776V540.457C388.591 542.017 389.854 543.282 391.412 543.282H468.533C470.092 543.282 471.355 542.017 471.355 540.457V521.776C471.355 520.216 470.092 518.951 468.533 518.951Z" fill="#7454AE"/>
<path opacity="0.2" d="M468.533 518.951H391.412C389.854 518.951 388.591 520.216 388.591 521.776V540.457C388.591 542.017 389.854 543.282 391.412 543.282H468.533C470.092 543.282 471.355 542.017 471.355 540.457V521.776C471.355 520.216 470.092 518.951 468.533 518.951Z" fill="black"/>
<path d="M440.336 518.951H363.215C361.656 518.951 360.393 520.216 360.393 521.776V540.457C360.393 542.017 361.656 543.282 363.215 543.282H440.336C441.894 543.282 443.157 542.017 443.157 540.457V521.776C443.157 520.216 441.894 518.951 440.336 518.951Z" fill="#7454AE"/>
<path opacity="0.3" d="M435 531.125C435 533.95 432.709 536.245 429.887 536.245C427.066 536.245 424.775 533.95 424.775 531.125C424.775 528.3 427.066 526.005 429.887 526.005C432.709 526.005 435 528.3 435 531.125Z" fill="#F5F5F5"/>
<path d="M432.487 531.125C432.487 532.563 431.324 533.728 429.887 533.728C428.451 533.728 427.288 532.563 427.288 531.125C427.288 529.687 428.451 528.522 429.887 528.522C431.324 528.522 432.487 529.687 432.487 531.125Z" fill="#7454AE"/>
<path opacity="0.3" d="M418.961 528.214H413.147V534.036H418.961V528.214Z" fill="#F5F5F5"/>
<path d="M560.463 573.024H456.563V606.875H560.463V573.024Z" fill="#263238"/>
<path d="M561.575 595.18H484.454C482.895 595.18 481.632 596.445 481.632 598.005V616.686C481.632 618.246 482.895 619.511 484.454 619.511H561.575C563.133 619.511 564.396 618.246 564.396 616.686V598.005C564.396 596.445 563.133 595.18 561.575 595.18Z" fill="#7454AE"/>
<path opacity="0.2" d="M561.575 595.18H484.454C482.895 595.18 481.632 596.445 481.632 598.005V616.686C481.632 618.246 482.895 619.511 484.454 619.511H561.575C563.133 619.511 564.396 618.246 564.396 616.686V598.005C564.396 596.445 563.133 595.18 561.575 595.18Z" fill="black"/>
<path d="M533.394 595.18H456.273C454.714 595.18 453.451 596.445 453.451 598.005V616.686C453.451 618.246 454.714 619.511 456.273 619.511H533.394C534.952 619.511 536.215 618.246 536.215 616.686V598.005C536.215 596.445 534.952 595.18 533.394 595.18Z" fill="#7454AE"/>
<path opacity="0.3" d="M528.041 607.354C528.041 610.179 525.75 612.474 522.929 612.474C520.107 612.474 517.816 610.179 517.816 607.354C517.816 604.529 520.107 602.235 522.929 602.235C525.75 602.235 528.041 604.529 528.041 607.354Z" fill="#F5F5F5"/>
<path d="M525.545 607.354C525.545 608.793 524.382 609.957 522.946 609.957C521.509 609.957 520.346 608.793 520.346 607.354C520.346 605.916 521.509 604.752 522.946 604.752C524.382 604.752 525.545 605.916 525.545 607.354Z" fill="#7454AE"/>
<path opacity="0.3" d="M512.002 604.443H506.188V610.265H512.002V604.443Z" fill="#F5F5F5"/>
<path d="M561.575 569.77H484.454C482.895 569.77 481.632 571.035 481.632 572.596V591.276C481.632 592.837 482.895 594.101 484.454 594.101H561.575C563.133 594.101 564.396 592.837 564.396 591.276V572.596C564.396 571.035 563.133 569.77 561.575 569.77Z" fill="#7454AE"/>
<path opacity="0.2" d="M561.575 569.77H484.454C482.895 569.77 481.632 571.035 481.632 572.596V591.276C481.632 592.837 482.895 594.101 484.454 594.101H561.575C563.133 594.101 564.396 592.837 564.396 591.276V572.596C564.396 571.035 563.133 569.77 561.575 569.77Z" fill="black"/>
<path d="M533.394 569.77H456.273C454.714 569.77 453.451 571.035 453.451 572.596V591.276C453.451 592.837 454.714 594.101 456.273 594.101H533.394C534.952 594.101 536.215 592.837 536.215 591.276V572.596C536.215 571.035 534.952 569.77 533.394 569.77Z" fill="#7454AE"/>
<path opacity="0.3" d="M528.041 581.945C528.041 584.77 525.75 587.064 522.929 587.064C520.107 587.064 517.816 584.77 517.816 581.945C517.816 579.119 520.107 576.825 522.929 576.825C525.75 576.825 528.041 579.119 528.041 581.945Z" fill="#F5F5F5"/>
<path d="M525.545 581.945C525.545 583.383 524.382 584.547 522.946 584.547C521.509 584.547 520.346 583.383 520.346 581.945C520.346 580.506 521.509 579.342 522.946 579.342C524.382 579.342 525.545 580.506 525.545 581.945Z" fill="#7454AE"/>
<path opacity="0.3" d="M512.002 579.034H506.188V584.855H512.002V579.034Z" fill="#F5F5F5"/>
<path d="M259.571 589.752L248.798 591.653L244.37 576.928L240.334 563.418L252.766 559.069L256.374 575.318L259.571 589.752Z" fill="#FFBF9D"/>
<path opacity="0.2" d="M256.442 575.643L244.421 577.236L240.351 563.572L252.783 559.137L256.442 575.643Z" fill="black"/>
<path d="M187.563 594.735H176.619L174.824 579.29L173.199 565.182L186.195 563.024L186.931 579.804L187.563 594.735Z" fill="#FFBF9D"/>
<path opacity="0.2" d="M186.931 579.941L174.824 579.41L173.199 565.25L186.195 563.058L186.931 579.941Z" fill="black"/>
<path d="M202.423 616.463C200.679 615.059 198.695 613.981 196.575 613.279C196.575 613.279 190.214 606.96 187.153 587.937L178.825 585.763C175.935 585.061 172.909 586.242 171.25 588.725C171.011 589.067 170.84 589.427 170.72 589.821C170.292 591.858 170.002 593.93 169.831 596.002C168.993 602.44 169.711 616.891 169.711 616.891H171.216L171.814 603.776C172.037 599.324 175.439 604.546 176.414 609.34C177.389 614.135 179.458 619.237 189.205 619.477C200.576 619.699 205.296 619.254 202.423 616.463Z" fill="#263238"/>
<path d="M275.098 615.179C273.354 613.775 271.37 612.696 269.25 611.994C269.25 611.994 262.889 605.676 259.828 586.653L251.5 584.479C248.61 583.777 245.584 584.958 243.925 587.441C243.686 587.783 243.515 588.143 243.395 588.537C242.967 590.574 242.677 592.646 242.506 594.718C241.668 601.156 242.386 615.607 242.386 615.607H243.891L244.489 602.491C244.712 598.04 248.114 603.262 249.089 608.056C250.064 612.85 252.133 617.953 261.88 618.193C273.251 618.415 277.971 617.97 275.098 615.179Z" fill="#263238"/>
<path d="M257.451 567.082L239.718 570.216C221.832 525.577 209.092 488.319 200.115 457.396C195.275 440.718 191.24 425.873 188.333 412.706L188.88 461.3V570.764H171.404C127.611 361.87 158.647 314.269 158.647 314.269L211.042 305.537C213.025 313.362 214.547 326.186 215.436 335.022L217.796 352.435L238.282 458.372L257.451 567.099V567.082Z" fill="#C152C5"/>
<g opacity="0.2">
<path d="M257.451 567.082L239.718 570.216C221.832 525.577 209.092 488.319 200.115 457.396C195.275 440.718 191.24 425.873 188.333 412.706L188.88 461.3V570.764H171.404C127.611 361.87 158.647 314.269 158.647 314.269L211.042 305.537C213.025 313.362 214.547 326.186 215.436 335.022L217.796 352.435L238.282 458.372L257.451 567.099V567.082Z" fill="black"/>
</g>
<path d="M273.098 253.947L290.779 236.448C290.779 236.448 291.395 231.756 293.105 230.455C294.815 229.153 306.956 224.736 308.443 225.712C309.931 226.688 312 236.516 309.914 238.314C307.845 240.112 296.798 242.406 295.67 242.218L276.535 264.956L273.098 253.947Z" fill="#EEC1BB"/>
<path d="M209.742 222.048C217.369 226.106 244.455 263.998 248.439 265.881C252.424 267.764 282.913 243.005 282.913 243.005L288.06 251.789C288.06 251.789 263.043 287.181 248.901 285.469C234.759 283.757 207.69 253.793 207.69 253.793L209.742 222.065V222.048Z" fill="#263238"/>
<path opacity="0.1" d="M209.742 222.048C217.369 226.106 244.455 263.998 248.439 265.881C252.424 267.764 282.913 243.005 282.913 243.005L288.06 251.789C288.06 251.789 263.043 287.181 248.901 285.469C234.759 283.757 207.69 253.793 207.69 253.793L209.742 222.065V222.048Z" fill="white"/>
<path d="M281.237 243.947L283.358 241.944L288.915 251.361L286.914 255.214L281.237 243.947Z" fill="#C152C5"/>
<path opacity="0.2" d="M218.566 264.854C212.239 258.809 207.69 253.793 207.69 253.793L208.169 246.259L210.546 238.947C210.546 238.947 221.216 248.793 218.566 264.854Z" fill="black"/>
<path opacity="0.2" d="M200.115 457.396C195.275 440.718 191.496 425.873 188.606 412.706C188.606 412.706 188.897 387.125 191.992 366.099C191.992 366.099 199.67 426.199 200.115 457.379V457.396Z" fill="black"/>
<path d="M212.307 302.283C214.445 264.58 213.487 243.862 212.512 233.502C211.435 222.458 209.742 222.048 209.742 222.048C209.742 222.048 197.789 220.883 187.392 220.969C179.338 221.243 171.318 222.082 163.401 223.503C155.894 224.753 148.49 226.551 141.222 228.862C142.436 232.338 143.531 235.626 144.557 238.725C145.925 242.817 147.139 246.601 148.233 250.145C150.285 256.755 151.893 262.491 153.175 267.61C157.177 283.466 158.015 293.619 158.852 306.906C158.852 306.906 145.703 341.323 143.138 366.578L186.743 371.287L192.728 346.031L198.713 372.143L223.08 363.582L212.307 302.283Z" fill="#263238"/>
<path opacity="0.1" d="M212.307 302.283C214.445 264.58 213.487 243.862 212.512 233.502C211.435 222.458 209.742 222.048 209.742 222.048C209.742 222.048 197.789 220.883 187.392 220.969C179.338 221.243 171.318 222.082 163.401 223.503C155.894 224.753 148.49 226.551 141.222 228.862C142.436 232.338 143.531 235.626 144.557 238.725C145.925 242.817 147.139 246.601 148.233 250.145C150.285 256.755 151.893 262.491 153.175 267.61C157.177 283.466 158.015 293.619 158.852 306.906C158.852 306.906 145.703 341.323 143.138 366.578L186.743 371.287L192.728 346.031L198.713 372.143L223.08 363.582L212.307 302.283Z" fill="white"/>
<path opacity="0.2" d="M155.279 276.822C154.697 273.946 154.013 270.881 153.175 267.593C152.645 265.504 152.064 263.313 151.414 260.984C153.073 255.145 154.783 259.717 154.783 259.717C154.783 259.717 156.493 266.771 155.279 276.822Z" fill="black"/>
<path d="M169.779 234.016L191.445 272.833L196.575 231.157L186.743 243.502L169.779 234.016Z" fill="#C152C5"/>
<path d="M169.215 220.181C159.536 222.458 156.595 230.249 157.673 237.304L164.718 234.941C164.718 234.941 177.748 239.427 187.375 247.355C187.375 247.355 192.71 237.509 197.84 234.307L205.108 235.163C205.108 235.163 193.788 214.411 169.198 220.181H169.215Z" fill="#C152C5"/>
<path opacity="0.1" d="M169.215 220.181C159.536 222.458 156.595 230.249 157.673 237.304L164.718 234.941C164.718 234.941 177.748 239.427 187.375 247.355C187.375 247.355 192.71 237.509 197.84 234.307L205.108 235.163C205.108 235.163 193.788 214.411 169.198 220.181H169.215Z" fill="white"/>
<path d="M186.794 223.263C186.315 223.006 185.768 222.784 185.169 222.561C183.938 221.585 182.433 219.239 182.519 213.521C182.536 211.654 182.724 209.462 183.134 206.843L167.283 203.881C167.283 203.881 172.686 214.565 168.172 222.493C166.616 223.178 165.692 224.154 165.863 225.455C167.043 234.633 186.743 243.502 186.743 243.502C186.743 243.502 196.353 228.52 186.794 223.263Z" fill="#FFBF9D"/>
<path d="M201.964 214.449C201.918 214.411 201.902 215.173 200.98 215.85C200.534 216.166 199.834 216.435 199.073 216.22C198.335 216.012 197.605 215.281 197.459 214.318C197.382 213.841 197.497 213.325 197.766 212.864C198.035 212.402 198.443 211.994 198.912 211.632C199.827 210.916 201.095 210.316 201.825 209.061C202.556 207.86 202.779 206.266 202.325 204.804C202.102 204.072 201.733 203.372 201.249 202.756C200.764 202.133 200.134 201.632 199.511 201.155C198.889 200.678 198.266 200.224 197.774 199.677C197.282 199.138 196.959 198.468 196.936 197.776C196.913 197.083 197.159 196.405 197.505 195.813C197.851 195.22 198.304 194.704 198.789 194.242C199.75 193.311 200.795 192.479 201.441 191.409C202.094 190.347 202.325 189.162 202.271 188.115C202.225 187.052 201.848 186.159 201.526 185.413C201.203 184.666 200.926 184.019 200.78 183.473C200.472 182.364 200.726 181.725 200.672 181.725C200.672 181.725 200.649 181.764 200.634 181.833C200.618 181.91 200.572 182.018 200.557 182.172C200.503 182.472 200.503 182.934 200.634 183.504C200.757 184.073 201.018 184.735 201.326 185.49C201.626 186.244 201.971 187.106 201.995 188.115C202.025 189.115 201.787 190.232 201.164 191.232C200.542 192.241 199.527 193.041 198.535 193.98C198.043 194.45 197.559 194.989 197.182 195.62C196.813 196.244 196.528 196.99 196.552 197.783C196.567 198.576 196.951 199.346 197.474 199.931C198.005 200.524 198.643 200.986 199.265 201.463C199.888 201.94 200.48 202.41 200.934 202.995C201.395 203.572 201.741 204.226 201.948 204.912C202.379 206.274 202.179 207.752 201.51 208.876C200.857 210.031 199.665 210.616 198.704 211.378C198.22 211.763 197.797 212.194 197.497 212.71C197.205 213.218 197.074 213.81 197.174 214.349C197.359 215.427 198.174 216.204 198.996 216.42C199.842 216.636 200.588 216.312 201.049 215.966C201.518 215.604 201.749 215.181 201.856 214.896C201.956 214.603 201.948 214.442 201.948 214.442L201.964 214.449Z" fill="#263238"/>
<path d="M163.194 175.459C163.609 175.867 163.686 176.514 163.694 177.183C163.694 177.861 163.609 178.569 163.455 179.331C163.309 180.093 163.109 180.786 162.856 181.41C162.594 182.025 162.271 182.587 161.733 182.811C161.21 183.026 160.519 182.78 159.965 181.995C159.688 181.602 159.473 181.086 159.358 180.486C159.25 179.885 159.235 179.208 159.373 178.515C159.511 177.83 159.781 177.207 160.111 176.691C160.449 176.183 160.849 175.79 161.249 175.536C162.056 175.02 162.794 175.059 163.194 175.459Z" fill="#FF725E"/>
<path d="M156.928 196.513C156.19 194.419 156.867 192.087 157.858 190.108C158.858 188.122 160.18 186.29 160.864 184.181C161.602 181.895 161.564 179.393 162.471 177.176C163.417 174.874 165.393 173.027 167.753 172.241C169.183 171.764 170.766 171.649 171.996 170.786C173.273 169.894 173.926 168.385 174.895 167.168C176.463 165.19 177.962 163.489 180.292 162.519C182.944 161.41 186.826 161.002 189.486 162.088C191.155 162.765 192.446 164.182 193.269 165.79C194.091 167.399 194.476 169.185 194.722 170.971C197.443 171.495 199.019 174.281 200.226 176.783C200.903 178.184 201.602 179.647 201.649 181.202C201.71 182.942 200.219 188.907 199.373 190.432C195.029 198.299 188.564 199.954 180.715 204.303C177.678 205.982 175.81 209.846 172.342 209.707C168.306 209.553 164.385 209.392 162.041 206.097C159.696 202.802 157.059 199.692 156.713 195.666" fill="#263238"/>
<path d="M198.474 184.073C198.251 178.438 194.699 171.448 189.087 171.91L171.505 175.921C169.798 176.06 168.483 177.484 168.476 179.193L169.344 221.431C169.306 221.439 169.267 221.447 169.221 221.454C169.221 221.454 172.896 233.456 184.535 230.122C186.842 229.46 187.957 226.982 188.479 224.41L188.595 224.426C188.61 224.118 188.618 223.833 188.633 223.541C189.094 220.569 188.848 217.752 188.848 217.752C188.971 214.349 189.002 212.948 189.002 212.979C189.002 212.979 196.206 211.955 197.912 202.618C198.766 197.976 198.712 190.324 198.466 184.065L198.474 184.073Z" fill="#FFBF9D"/>
<path d="M184.205 191.124C184.205 191.763 183.682 192.287 183.021 192.31C182.36 192.333 181.814 191.833 181.806 191.194C181.806 190.555 182.329 190.024 182.99 190.008C183.651 189.985 184.197 190.486 184.205 191.124Z" fill="#263238"/>
<path d="M196.559 191.124C196.559 191.763 196.036 192.287 195.375 192.31C194.714 192.333 194.168 191.833 194.161 191.194C194.161 190.555 194.683 190.024 195.345 190.008C196.006 189.985 196.551 190.486 196.559 191.124Z" fill="#263238"/>
<path d="M197.205 188.184C197.051 188.392 196.013 187.576 194.606 187.637C193.2 187.676 192.208 188.561 192.046 188.369C191.969 188.284 192.116 187.914 192.538 187.514C192.961 187.114 193.699 186.714 194.576 186.683C195.452 186.652 196.213 186.998 196.659 187.368C197.113 187.737 197.282 188.091 197.205 188.184Z" fill="#263238"/>
<path d="M184.174 188.369C183.99 188.553 182.982 187.653 181.483 187.56C179.984 187.453 178.839 188.215 178.685 188.007C178.608 187.914 178.8 187.576 179.308 187.229C179.8 186.883 180.622 186.575 181.56 186.629C182.49 186.69 183.259 187.106 183.69 187.514C184.128 187.922 184.266 188.284 184.174 188.369Z" fill="#263238"/>
<path d="M188.479 197.66C188.479 197.583 189.279 197.468 190.586 197.329C190.916 197.306 191.232 197.244 191.293 197.021C191.378 196.783 191.247 196.428 191.093 196.036C190.801 195.228 190.494 194.381 190.178 193.495C188.91 189.885 187.995 186.914 188.141 186.86C188.287 186.814 189.433 189.7 190.701 193.311C191.009 194.204 191.301 195.05 191.578 195.866C191.693 196.244 191.9 196.675 191.716 197.167C191.624 197.414 191.378 197.583 191.162 197.637C190.947 197.699 190.763 197.699 190.601 197.699C189.287 197.737 188.479 197.722 188.472 197.652L188.479 197.66Z" fill="#263238"/>
<path d="M189.002 212.987C189.002 212.987 182.69 213.241 176.54 209.338C176.54 209.338 179.531 216.058 188.925 215.404L189.002 212.987Z" fill="#FF9A6C"/>
<path d="M187.857 200.762C187.403 200.139 186.603 199.777 185.788 199.846C185.227 199.892 184.651 200.154 184.305 200.601C183.951 201.047 183.867 201.694 184.166 202.14C184.505 202.641 185.227 202.772 185.85 202.61C186.473 202.448 187.011 202.056 187.526 201.663C187.664 201.555 187.81 201.44 187.903 201.286C187.995 201.132 188.018 200.932 187.91 200.801" fill="#FF9A6C"/>
<path d="M184.651 198.461C184.858 198.461 184.828 199.854 186.004 200.886C187.18 201.917 188.679 201.794 188.687 201.986C188.702 202.079 188.349 202.248 187.718 202.256C187.095 202.256 186.196 202.04 185.481 201.417C184.766 200.785 184.466 199.962 184.435 199.384C184.397 198.799 184.558 198.453 184.658 198.461H184.651Z" fill="#263238"/>
<path d="M184.497 183.988C184.359 184.335 183.075 184.142 181.553 184.289C180.03 184.404 178.793 184.82 178.6 184.496C178.516 184.343 178.739 184.019 179.239 183.688C179.738 183.357 180.522 183.057 181.437 182.972C182.352 182.895 183.182 183.057 183.728 183.296C184.282 183.534 184.551 183.819 184.497 183.981V183.988Z" fill="#263238"/>
<path d="M196.329 184.258C196.059 184.543 195.052 184.219 193.83 184.173C192.608 184.089 191.57 184.32 191.331 184.004C191.231 183.85 191.401 183.565 191.862 183.296C192.315 183.026 193.069 182.818 193.907 182.865C194.745 182.911 195.468 183.188 195.89 183.504C196.313 183.819 196.452 184.119 196.329 184.266V184.258Z" fill="#263238"/>
<path d="M167.607 176.876C168.598 175.636 170.205 175.113 171.735 174.697C178.316 172.888 185.112 171.864 191.939 171.664C192.638 173.134 191.67 174.936 190.309 175.821C188.941 176.699 187.28 176.937 185.704 177.345C184.136 177.761 182.49 178.477 181.722 179.909C180.899 181.433 181.268 183.365 180.522 184.928C179.238 187.614 175.264 188.122 173.995 190.817C173.034 192.857 173.665 192.387 173.742 194.635C173.834 197.183 172.266 197.568 170.251 199.138C168.66 200.37 165.6 201.786 163.601 201.625C163.947 193.58 166.023 189.716 166.369 181.671C166.438 179.993 166.554 178.192 167.607 176.891V176.876Z" fill="#263238"/>
<path d="M178.831 164.089C178.831 164.089 178.885 164.043 179 163.966C179.115 163.897 179.277 163.774 179.508 163.658C179.953 163.404 180.645 163.104 181.545 162.896C182.444 162.68 183.559 162.588 184.774 162.75C185.988 162.911 187.295 163.358 188.464 164.158C189.625 164.974 190.501 166.044 191.078 167.122C191.662 168.2 191.962 169.278 192.077 170.201C192.193 171.117 192.162 171.872 192.077 172.38C192.054 172.634 191.993 172.826 191.97 172.965C191.939 173.096 191.923 173.165 191.916 173.165C191.854 173.165 192.2 172.034 191.931 170.224C191.8 169.324 191.485 168.269 190.909 167.222C190.332 166.168 189.471 165.128 188.341 164.336C187.195 163.558 185.927 163.112 184.743 162.95C183.551 162.781 182.46 162.858 181.576 163.05C179.784 163.435 178.854 164.158 178.831 164.105V164.089Z" fill="#455A64"/>
<path d="M169.836 171.687C169.836 171.687 169.929 171.68 170.105 171.68C170.282 171.687 170.544 171.664 170.866 171.61C171.189 171.541 171.581 171.418 172.004 171.202C172.427 170.987 172.881 170.694 173.365 170.332C173.849 169.971 174.349 169.547 174.91 169.116C175.471 168.677 176.094 168.231 176.825 167.884C178.27 167.192 180.053 166.784 181.906 166.891C183.759 166.991 185.496 167.569 186.85 168.439C188.218 169.293 189.217 170.386 189.909 171.379C190.601 172.38 190.986 173.296 191.193 173.935C191.301 174.258 191.37 174.512 191.401 174.682C191.439 174.859 191.455 174.943 191.455 174.951C191.431 174.951 191.355 174.589 191.116 173.958C190.878 173.335 190.486 172.434 189.786 171.456C189.094 170.486 188.095 169.424 186.75 168.593C185.412 167.746 183.721 167.192 181.899 167.092C180.077 166.991 178.331 167.384 176.909 168.054C176.194 168.385 175.579 168.824 175.018 169.247C174.457 169.678 173.942 170.094 173.45 170.448C172.958 170.802 172.489 171.094 172.058 171.302C171.62 171.51 171.212 171.626 170.882 171.687C170.544 171.733 170.282 171.749 170.105 171.718C169.929 171.703 169.836 171.695 169.836 171.687Z" fill="#455A64"/>
<path d="M161.948 181.71C161.995 181.71 162.01 182.618 162.441 184.004C162.863 185.382 163.794 187.222 165.446 188.7C167.099 190.178 169.037 190.901 170.444 191.163C171.866 191.44 172.781 191.348 172.773 191.394C172.773 191.394 172.719 191.409 172.612 191.417C172.504 191.417 172.342 191.44 172.143 191.44C171.735 191.448 171.143 191.425 170.413 191.302C168.975 191.071 166.984 190.355 165.3 188.854C163.617 187.345 162.679 185.451 162.294 184.042C162.095 183.334 162.002 182.749 161.964 182.341C161.941 182.141 161.941 181.979 161.933 181.872C161.933 181.764 161.933 181.71 161.933 181.71H161.948Z" fill="#455A64"/>
<path d="M170.836 195.628C170.836 195.628 170.605 195.612 170.198 195.528C169.79 195.443 169.206 195.312 168.499 195.089C167.099 194.65 165.139 193.857 163.471 192.279C161.802 190.701 161.003 188.669 160.872 187.183C160.803 186.436 160.849 185.836 160.934 185.428C160.964 185.22 161.018 185.066 161.049 184.966C161.08 184.858 161.095 184.804 161.103 184.812C161.157 184.812 160.834 185.713 161.018 187.175C161.18 188.623 161.987 190.593 163.609 192.133C165.239 193.673 167.161 194.481 168.537 194.95C169.237 195.189 169.805 195.343 170.205 195.451C170.605 195.559 170.828 195.612 170.82 195.628H170.836Z" fill="#455A64"/>
<path d="M200.211 170.186C200.211 170.255 198.819 169.909 197.143 170.24C195.46 170.548 194.307 171.379 194.268 171.318C194.253 171.302 194.522 171.064 195.014 170.786C195.506 170.509 196.244 170.201 197.097 170.032C197.951 169.87 198.75 169.886 199.311 169.963C199.873 170.04 200.211 170.155 200.203 170.178L200.211 170.186Z" fill="#263238"/>
<path d="M196.467 165.336C196.467 165.336 196.552 165.706 196.536 166.322C196.521 166.93 196.413 167.777 196.129 168.67C195.837 169.563 195.429 170.309 195.083 170.81C194.737 171.31 194.468 171.579 194.453 171.564C194.391 171.525 195.375 170.355 195.929 168.6C196.505 166.853 196.398 165.329 196.467 165.336Z" fill="#263238"/>
<path d="M170.92 191.91C170.774 191.84 165.062 189.908 165.008 195.82C164.954 201.732 170.889 200.57 170.905 200.4C170.92 200.231 170.92 191.91 170.92 191.91Z" fill="#FFBF9D"/>
<path d="M169.121 198.145C169.121 198.145 169.021 198.214 168.844 198.291C168.675 198.368 168.383 198.414 168.076 198.299C167.453 198.06 166.938 197.067 166.923 196.005C166.915 195.466 167.03 194.958 167.222 194.535C167.407 194.104 167.691 193.803 168.006 193.75C168.322 193.68 168.537 193.873 168.614 194.034C168.691 194.204 168.652 194.319 168.683 194.327C168.698 194.342 168.814 194.227 168.768 193.988C168.745 193.873 168.675 193.726 168.537 193.619C168.399 193.503 168.191 193.442 167.968 193.465C167.514 193.495 167.099 193.911 166.884 194.373C166.646 194.835 166.5 195.412 166.515 196.02C166.538 197.214 167.138 198.33 167.991 198.592C168.406 198.707 168.752 198.584 168.937 198.445C169.121 198.299 169.152 198.168 169.137 198.16L169.121 198.145Z" fill="#FF9A6C"/>
<path d="M165.954 199.115C165.954 199.115 165.862 199.177 165.685 199.284C165.508 199.392 165.231 199.531 164.893 199.746C164.239 200.177 163.355 200.978 162.81 202.294C162.54 202.941 162.371 203.711 162.394 204.534C162.41 205.358 162.617 206.236 163.063 207.052C163.494 207.875 164.178 208.607 165.031 209.138C165.892 209.661 166.923 209.977 167.991 209.954C168.522 209.946 169.052 209.877 169.544 209.715C170.044 209.569 170.513 209.346 170.928 209.076C171.781 208.537 172.427 207.768 172.858 206.952C173.711 205.289 173.58 203.457 173.011 202.187C172.442 200.893 171.535 200.1 170.874 199.685C170.205 199.261 169.775 199.138 169.782 199.115C169.782 199.115 170.221 199.207 170.913 199.615C171.597 200.016 172.535 200.801 173.142 202.125C173.434 202.787 173.634 203.564 173.634 204.419C173.634 205.266 173.465 206.189 173.019 207.036C172.581 207.891 171.912 208.684 171.036 209.246C170.597 209.53 170.113 209.761 169.598 209.915C169.083 210.085 168.537 210.154 167.983 210.169C166.876 210.185 165.8 209.861 164.916 209.315C164.04 208.753 163.332 207.998 162.886 207.144C162.433 206.297 162.218 205.389 162.218 204.534C162.202 203.68 162.387 202.895 162.671 202.233C163.248 200.893 164.17 200.093 164.847 199.677C165.193 199.469 165.477 199.346 165.662 199.246C165.846 199.154 165.946 199.107 165.954 199.115Z" fill="white"/>
<path d="M161.472 181.079C161.472 181.079 161.472 181.179 161.472 181.371C161.456 181.556 161.464 181.841 161.395 182.195C161.303 182.911 161.026 183.927 160.526 185.12C160.027 186.306 159.281 187.653 158.504 189.154C158.112 189.908 157.728 190.709 157.397 191.563C157.059 192.418 156.798 193.334 156.675 194.296C156.429 196.228 156.782 198.107 157.474 199.638C157.812 200.408 158.251 201.086 158.689 201.694C159.135 202.302 159.565 202.856 159.965 203.357C160.765 204.357 161.441 205.142 161.918 205.689C162.141 205.951 162.325 206.151 162.464 206.313C162.587 206.459 162.648 206.536 162.648 206.536C162.648 206.536 162.571 206.474 162.433 206.336C162.302 206.205 162.102 206.005 161.864 205.735C161.372 205.212 160.68 204.434 159.857 203.441C159.45 202.941 159.012 202.394 158.55 201.786C158.097 201.178 157.643 200.493 157.297 199.708C156.582 198.153 156.221 196.228 156.467 194.258C156.59 193.272 156.859 192.341 157.205 191.479C157.543 190.616 157.935 189.808 158.335 189.054C159.127 187.545 159.88 186.221 160.396 185.051C160.911 183.881 161.203 182.88 161.318 182.172C161.403 181.825 161.403 181.541 161.433 181.356C161.456 181.171 161.472 181.071 161.48 181.071L161.472 181.079Z" fill="#455A64"/>
<path d="M161.058 263.963L160.272 307.677C160.255 308.721 161.144 309.56 162.187 309.475L190.949 307.18C191.855 307.112 192.539 306.376 192.574 305.468L193.959 262.131C193.993 261.087 193.121 260.248 192.078 260.299L162.734 262.2C161.811 262.251 161.093 263.022 161.075 263.929L161.058 263.963Z" fill="#C152C5"/>
<path opacity="0.6" d="M161.058 263.963L160.272 307.677C160.255 308.721 161.144 309.56 162.187 309.475L190.949 307.18C191.855 307.112 192.539 306.376 192.574 305.468L193.959 262.131C193.993 261.087 193.121 260.248 192.078 260.299L162.734 262.2C161.811 262.251 161.093 263.022 161.075 263.929L161.058 263.963Z" fill="white"/>
<path d="M161.913 264.974L161.127 308.687C161.11 309.732 161.999 310.571 163.042 310.485L191.804 308.191C192.71 308.122 193.394 307.386 193.429 306.478L194.814 263.141C194.848 262.097 193.976 261.258 192.933 261.309L163.589 263.21C162.666 263.261 161.948 264.032 161.93 264.939L161.913 264.974Z" fill="#C152C5"/>
<path opacity="0.7" d="M161.913 264.974L161.127 308.687C161.11 309.732 161.999 310.571 163.042 310.485L191.804 308.191C192.71 308.122 193.394 307.386 193.429 306.478L194.814 263.141C194.848 262.097 193.976 261.258 192.933 261.309L163.589 263.21C162.666 263.261 161.948 264.032 161.93 264.939L161.913 264.974Z" fill="white"/>
<path opacity="0.2" d="M181.749 285.812C181.749 288.174 179.834 290.092 177.474 290.092C175.115 290.092 173.199 288.174 173.199 285.812C173.199 283.449 175.115 281.531 177.474 281.531C177.526 281.531 177.577 281.531 177.645 281.531C177.97 283.517 179.646 285.041 181.698 285.11C181.732 285.349 181.749 285.572 181.749 285.812Z" fill="black"/>
<path d="M136.092 299.527L157.125 286.257C157.125 286.257 158.733 281.805 160.682 280.897C162.632 279.99 175.439 278.295 176.671 279.579C177.902 280.863 177.816 290.897 175.405 292.198C172.994 293.5 161.725 293.38 160.665 292.934L137.084 311.016L136.092 299.51V299.527Z" fill="#EEC1BB"/>
<path d="M141.222 228.862C141.222 228.862 154.971 248.861 152.97 265.984L134.724 296.239L146.985 289.955L152.543 300.434C152.543 300.434 138.435 322.197 120.48 317.06C102.525 311.923 141.222 228.862 141.222 228.862Z" fill="#263238"/>
<path opacity="0.1" d="M141.222 228.862C141.222 228.862 154.971 248.861 152.97 265.984L134.724 296.239L146.985 289.955L152.543 300.434C152.543 300.434 138.435 322.197 120.48 317.06C102.525 311.923 141.222 228.862 141.222 228.862Z" fill="white"/>
<path d="M145.703 289.373L152.679 302.369L154.253 298.653L148.695 288.089L145.703 289.373Z" fill="#C152C5"/>
<path d="M305.194 236.259C300.834 236.259 297.294 232.715 297.294 228.349C297.294 223.982 300.834 220.438 305.194 220.438C309.555 220.438 313.094 223.982 313.094 228.349C313.094 232.715 309.555 236.259 305.194 236.259Z" fill="#7454AE"/>
<path d="M308.768 271.12H308.614C301.227 271.12 293.942 268.86 287.564 265.179L291.856 257.628C296.935 260.573 302.732 262.354 308.614 262.354L308.768 271.138V271.12ZM329.801 264.785L325.492 257.388C330.571 254.409 334.811 250.145 337.735 245.043L345.157 249.306C341.48 255.71 336.179 261.052 329.818 264.785H329.801ZM272.157 249.461C268.463 243.074 266.497 235.797 266.497 228.4H275.047C275.047 234.29 276.62 240.095 279.561 245.163L272.174 249.461H272.157ZM342.181 228.246C342.164 222.356 340.591 216.551 337.633 211.483L345.02 207.168C348.731 213.538 350.714 220.815 350.731 228.229L342.181 228.263V228.246ZM279.51 211.603L272.106 207.322C275.799 200.936 281.117 195.593 287.479 191.878L291.771 199.275C286.692 202.237 282.451 206.5 279.493 211.603H279.51ZM325.304 199.206C320.242 196.278 314.462 194.412 308.597 194.412L308.512 185.508H308.597C315.95 185.508 323.218 187.785 329.562 191.45L325.287 199.206H325.304Z" fill="#FF8906"/>
<g opacity="0.6">
<path d="M308.768 271.12H308.614C301.227 271.12 293.942 268.86 287.564 265.179L291.856 257.628C296.935 260.573 302.732 262.354 308.614 262.354L308.768 271.138V271.12ZM329.801 264.785L325.492 257.388C330.571 254.409 334.811 250.145 337.735 245.043L345.157 249.306C341.48 255.71 336.179 261.052 329.818 264.785H329.801ZM272.157 249.461C268.463 243.074 266.497 235.797 266.497 228.4H275.047C275.047 234.29 276.62 240.095 279.561 245.163L272.174 249.461H272.157ZM342.181 228.246C342.164 222.356 340.591 216.551 337.633 211.483L345.02 207.168C348.731 213.538 350.714 220.815 350.731 228.229L342.181 228.263V228.246ZM279.51 211.603L272.106 207.322C275.799 200.936 281.117 195.593 287.479 191.878L291.771 199.275C286.692 202.237 282.451 206.5 279.493 211.603H279.51ZM325.304 199.206C320.242 196.278 314.462 194.412 308.597 194.412L308.512 185.508H308.597C315.95 185.508 323.218 187.785 329.562 191.45L325.287 199.206H325.304Z" fill="white"/>
</g>
<path d="M317.164 238.896C311.367 238.896 306.631 234.17 306.631 228.349C306.631 222.527 311.35 217.801 317.164 217.801C322.978 217.801 327.698 222.527 327.698 228.349C327.698 234.17 322.978 238.896 317.164 238.896Z" fill="#FF8906"/>
<path opacity="0.5" d="M317.164 238.896C311.367 238.896 306.631 234.17 306.631 228.349C306.631 222.527 311.35 217.801 317.164 217.801C322.978 217.801 327.698 222.527 327.698 228.349C327.698 234.17 322.978 238.896 317.164 238.896Z" fill="white"/>
<path d="M337.421 232.316C339.618 222.992 333.852 213.651 324.541 211.45C315.23 209.25 305.9 215.024 303.703 224.347C301.505 233.67 307.271 243.012 316.582 245.213C325.894 247.413 335.223 241.639 337.421 232.316Z" stroke="#FF8906" stroke-width="3" stroke-miterlimit="10"/>
<path d="M623.22 226.602H335.94V230.027H623.22V226.602Z" fill="#FF8906"/>
<path d="M322.26 212.904H318.84V192.357C318.84 191.895 319.028 191.467 319.336 191.141L423.937 86.6945C424.262 86.3691 424.689 86.1979 425.151 86.1979H520.62V89.6224H425.852L322.26 193.059V212.904Z" fill="#FF8906"/>
<path d="M570.21 385.841H441.96C441.498 385.841 441.071 385.653 440.746 385.344L319.336 263.775C319.011 263.45 318.84 263.022 318.84 262.559V245.437H322.26V261.857L442.661 382.417H570.21V385.841Z" fill="#FF8906"/>
<path d="M484.71 276.257H416.019C415.575 276.257 415.13 276.086 414.805 275.761L368.635 229.821L371.046 227.39L416.72 272.833H484.693V276.257H484.71Z" fill="#FF8906"/>
<path d="M437.189 229.65L434.761 227.236L480.777 180.868C481.102 180.543 481.529 180.371 481.991 180.371H551.4V183.796H482.709L437.189 229.667V229.65Z" fill="#FF8906"/>
<path d="M698.46 142.702H426.963C426.502 142.702 426.074 142.514 425.749 142.188L398.492 114.621L400.92 112.207L427.664 139.278H698.443V142.702H698.46Z" fill="#FF8906"/>
<path d="M456.273 89.1088L453.862 86.6945L498.322 42.1761C498.647 41.8508 499.074 41.6795 499.536 41.6795H642.03V45.104H500.237L456.273 89.1259V89.1088Z" fill="#FF8906"/>
<path d="M484.077 469.81L415.113 400.755C414.788 400.429 414.617 400.001 414.617 399.539V358.445H418.037V398.837L486.506 467.395L484.094 469.81H484.077Z" fill="#FF8906"/>
<path d="M468.533 384.797L466.105 382.382L511.454 336.682C511.779 336.357 512.207 336.186 512.669 336.186H684.78V339.61H513.387L468.533 384.797Z" fill="#FF8906"/>
<path d="M628.35 433.784H551.691C551.229 433.784 550.802 433.596 550.477 433.287L502.306 385.053L504.717 382.639L552.375 430.359H628.333V433.784H628.35Z" fill="#FF8906"/>
<path d="M642.03 51.2339C646.355 51.2339 649.862 47.7228 649.862 43.3918C649.862 39.0607 646.355 35.5497 642.03 35.5497C637.705 35.5497 634.198 39.0607 634.198 43.3918C634.198 47.7228 637.705 51.2339 642.03 51.2339Z" fill="#FF8906"/>
<path d="M536.01 106.026C526.024 106.026 517.918 97.8926 517.918 87.9102C517.918 77.9278 526.041 69.7946 536.01 69.7946C545.979 69.7946 554.102 77.9278 554.102 87.9102C554.102 97.8926 545.979 106.026 536.01 106.026ZM536.01 73.202C527.922 73.202 521.338 79.7941 521.338 87.8931C521.338 95.992 527.922 102.584 536.01 102.584C544.098 102.584 550.682 95.992 550.682 87.8931C550.682 79.7941 544.098 73.202 536.01 73.202Z" fill="#FF8906"/>
<path d="M536.01 95.7523C540.335 95.7523 543.842 92.2412 543.842 87.9102C543.842 83.5791 540.335 80.0681 536.01 80.0681C531.685 80.0681 528.178 83.5791 528.178 87.9102C528.178 92.2412 531.685 95.7523 536.01 95.7523Z" fill="#7454AE"/>
<path d="M706.292 141.264C706.292 145.596 702.786 149.106 698.46 149.106C694.134 149.106 690.628 145.596 690.628 141.264C690.628 136.932 694.134 133.422 698.46 133.422C702.786 133.422 706.292 136.932 706.292 141.264Z" fill="#FF8906"/>
<path d="M551.4 189.926C555.725 189.926 559.232 186.415 559.232 182.084C559.232 177.753 555.725 174.242 551.4 174.242C547.075 174.242 543.568 177.753 543.568 182.084C543.568 186.415 547.075 189.926 551.4 189.926Z" fill="#FF8906"/>
<path d="M638.61 246.43C628.624 246.43 620.518 238.297 620.518 228.314C620.518 218.332 628.641 210.199 638.61 210.199C648.579 210.199 656.702 218.332 656.702 228.314C656.702 238.297 648.579 246.43 638.61 246.43ZM638.61 213.606C630.522 213.606 623.938 220.198 623.938 228.297C623.938 236.396 630.522 242.988 638.61 242.988C646.698 242.988 653.282 236.396 653.282 228.297C653.282 220.198 646.698 213.606 638.61 213.606Z" fill="#FF8906"/>
<path d="M638.61 236.156C642.935 236.156 646.442 232.645 646.442 228.314C646.442 223.983 642.935 220.472 638.61 220.472C634.285 220.472 630.778 223.983 630.778 228.314C630.778 232.645 634.285 236.156 638.61 236.156Z" fill="#7454AE"/>
<path d="M484.71 282.387C489.035 282.387 492.542 278.876 492.542 274.545C492.542 270.214 489.035 266.703 484.71 266.703C480.385 266.703 476.878 270.214 476.878 274.545C476.878 278.876 480.385 282.387 484.71 282.387Z" fill="#FF8906"/>
<path d="M684.78 345.74C689.105 345.74 692.612 342.229 692.612 337.898C692.612 333.567 689.105 330.056 684.78 330.056C680.455 330.056 676.948 333.567 676.948 337.898C676.948 342.229 680.455 345.74 684.78 345.74Z" fill="#FF8906"/>
<path d="M585.6 401.953C575.614 401.953 567.508 393.82 567.508 383.838C567.508 373.855 575.631 365.722 585.6 365.722C595.569 365.722 603.692 373.855 603.692 383.838C603.692 393.82 595.569 401.953 585.6 401.953ZM585.6 369.147C577.512 369.147 570.928 375.739 570.928 383.838C570.928 391.937 577.512 398.529 585.6 398.529C593.688 398.529 600.272 391.937 600.272 383.838C600.272 375.739 593.688 369.147 585.6 369.147Z" fill="#FF8906"/>
<path d="M593.432 383.838C593.432 388.17 589.926 391.68 585.6 391.68C581.274 391.68 577.768 388.17 577.768 383.838C577.768 379.506 581.274 375.996 585.6 375.996C589.926 375.996 593.432 379.506 593.432 383.838Z" fill="#7454AE"/>
<path d="M628.35 439.914C632.675 439.914 636.182 436.403 636.182 432.072C636.182 427.741 632.675 424.23 628.35 424.23C624.025 424.23 620.518 427.741 620.518 432.072C620.518 436.403 624.025 439.914 628.35 439.914Z" fill="#FF8906"/>
<path d="M493.123 468.594C493.123 472.926 489.618 476.436 485.291 476.436C480.965 476.436 477.46 472.926 477.46 468.594C477.46 464.262 480.965 460.752 485.291 460.752C489.618 460.752 493.123 464.262 493.123 468.594Z" fill="#FF8906"/>
<path d="M691.227 22.4167H662.67C661.244 22.4167 660.088 23.5743 660.088 25.0022V63.9216C660.088 65.3495 661.244 66.5071 662.67 66.5071H691.227C692.653 66.5071 693.809 65.3495 693.809 63.9216V25.0022C693.809 23.5743 692.653 22.4167 691.227 22.4167Z" fill="#FF8906"/>
<path opacity="0.6" d="M691.227 22.4167H662.67C661.244 22.4167 660.088 23.5743 660.088 25.0022V63.9216C660.088 65.3495 661.244 66.5071 662.67 66.5071H691.227C692.653 66.5071 693.809 65.3495 693.809 63.9216V25.0022C693.809 23.5743 692.653 22.4167 691.227 22.4167Z" fill="white"/>
<path d="M688.764 28.6664H665.115V31.0465H688.764V28.6664Z" fill="#FF8906"/>
<path d="M688.764 32.8443H665.115V35.2244H688.764V32.8443Z" fill="#FF8906"/>
<path d="M688.764 37.0222H665.115V39.4022H688.764V37.0222Z" fill="#FF8906"/>
<path d="M688.764 41.183H665.115V43.563H688.764V41.183Z" fill="#FF8906"/>
<path d="M688.764 45.3608H665.115V47.7409H688.764V45.3608Z" fill="#FF8906"/>
<path d="M688.764 49.5216H665.115V51.9016H688.764V49.5216Z" fill="#FF8906"/>
<path d="M688.764 53.6995H665.115V56.0795H688.764V53.6995Z" fill="#FF8906"/>
<path d="M680.437 57.8602H665.115V60.2403H680.437V57.8602Z" fill="#FF8906"/>
<path d="M532.334 256.207H503.777C502.35 256.207 501.194 257.364 501.194 258.792V297.712C501.194 299.14 502.35 300.297 503.777 300.297H532.334C533.76 300.297 534.916 299.14 534.916 297.712V258.792C534.916 257.364 533.76 256.207 532.334 256.207Z" fill="#FF8906"/>
<path opacity="0.6" d="M532.334 256.207H503.777C502.35 256.207 501.194 257.364 501.194 258.792V297.712C501.194 299.14 502.35 300.297 503.777 300.297H532.334C533.76 300.297 534.916 299.14 534.916 297.712V258.792C534.916 257.364 533.76 256.207 532.334 256.207Z" fill="white"/>
<path d="M529.871 262.457H506.222V264.837H529.871V262.457Z" fill="#FF8906"/>
<path d="M529.871 266.617H506.222V268.997H529.871V266.617Z" fill="#FF8906"/>
<path d="M529.871 270.795H506.222V273.175H529.871V270.795Z" fill="#FF8906"/>
<path d="M529.871 274.973H506.222V277.353H529.871V274.973Z" fill="#FF8906"/>
<path d="M529.871 279.134H506.222V281.514H529.871V279.134Z" fill="#FF8906"/>
<path d="M529.871 283.312H506.222V285.692H529.871V283.312Z" fill="#FF8906"/>
<path d="M529.871 287.472H506.222V289.852H529.871V287.472Z" fill="#FF8906"/>
<path d="M521.543 291.65H506.222V294.03H521.543V291.65Z" fill="#FF8906"/>
<path d="M729.599 303.653H701.042C699.616 303.653 698.46 304.811 698.46 306.239V345.158C698.46 346.586 699.616 347.744 701.042 347.744H729.599C731.025 347.744 732.181 346.586 732.181 345.158V306.239C732.181 304.811 731.025 303.653 729.599 303.653Z" fill="#FF8906"/>
<path opacity="0.6" d="M729.599 303.653H701.042C699.616 303.653 698.46 304.811 698.46 306.239V345.158C698.46 346.586 699.616 347.744 701.042 347.744H729.599C731.025 347.744 732.181 346.586 732.181 345.158V306.239C732.181 304.811 731.025 303.653 729.599 303.653Z" fill="white"/>
<path d="M727.137 309.92H703.487V312.3H727.137V309.92Z" fill="#FF8906"/>
<path d="M727.137 314.081H703.487V316.461H727.137V314.081Z" fill="#FF8906"/>
<path d="M727.137 318.259H703.487V320.639H727.137V318.259Z" fill="#FF8906"/>
<path d="M727.137 322.419H703.487V324.799H727.137V322.419Z" fill="#FF8906"/>
<path d="M727.137 326.597H703.487V328.977H727.137V326.597Z" fill="#FF8906"/>
<path d="M727.137 330.758H703.487V333.138H727.137V330.758Z" fill="#FF8906"/>
<path d="M727.137 334.936H703.487V337.316H727.137V334.936Z" fill="#FF8906"/>
<path d="M718.809 339.114H703.487V341.494H718.809V339.114Z" fill="#FF8906"/>
<path d="M742.971 106.95H714.414C712.988 106.95 711.832 108.108 711.832 109.536V148.455C711.832 149.883 712.988 151.041 714.414 151.041H742.971C744.397 151.041 745.553 149.883 745.553 148.455V109.536C745.553 108.108 744.397 106.95 742.971 106.95Z" fill="#FF8906"/>
<path opacity="0.6" d="M742.971 106.95H714.414C712.988 106.95 711.832 108.108 711.832 109.536V148.455C711.832 149.883 712.988 151.041 714.414 151.041H742.971C744.397 151.041 745.553 149.883 745.553 148.455V109.536C745.553 108.108 744.397 106.95 742.971 106.95Z" fill="white"/>
<path d="M740.509 113.217H716.86V115.597H740.509V113.217Z" fill="#FF8906"/>
<path d="M740.509 117.378H716.86V119.758H740.509V117.378Z" fill="#FF8906"/>
<path d="M740.509 121.556H716.86V123.936H740.509V121.556Z" fill="#FF8906"/>
<path d="M740.509 125.717H716.86V128.097H740.509V125.717Z" fill="#FF8906"/>
<path d="M740.509 129.894H716.86V132.274H740.509V129.894Z" fill="#FF8906"/>
<path d="M740.509 134.072H716.86V136.452H740.509V134.072Z" fill="#FF8906"/>
<path d="M740.509 138.233H716.86V140.613H740.509V138.233Z" fill="#FF8906"/>
<path d="M732.181 142.411H716.86V144.791H732.181V142.411Z" fill="#FF8906"/>
<path d="M532.966 459.827H504.409C502.983 459.827 501.827 460.985 501.827 462.413V501.332C501.827 502.76 502.983 503.917 504.409 503.917H532.966C534.392 503.917 535.548 502.76 535.548 501.332V462.413C535.548 460.985 534.392 459.827 532.966 459.827Z" fill="#FF8906"/>
<path opacity="0.6" d="M532.966 459.827H504.409C502.983 459.827 501.827 460.985 501.827 462.413V501.332C501.827 502.76 502.983 503.917 504.409 503.917H532.966C534.392 503.917 535.548 502.76 535.548 501.332V462.413C535.548 460.985 534.392 459.827 532.966 459.827Z" fill="white"/>
<path d="M530.504 466.077H506.855V468.457H530.504V466.077Z" fill="#FF8906"/>
<path d="M530.504 470.255H506.855V472.635H530.504V470.255Z" fill="#FF8906"/>
<path d="M530.504 474.433H506.855V476.813H530.504V474.433Z" fill="#FF8906"/>
<path d="M530.504 478.593H506.855V480.973H530.504V478.593Z" fill="#FF8906"/>
<path d="M530.504 482.771H506.855V485.151H530.504V482.771Z" fill="#FF8906"/>
<path d="M530.504 486.932H506.855V489.312H530.504V486.932Z" fill="#FF8906"/>
<path d="M530.504 491.11H506.855V493.49H530.504V491.11Z" fill="#FF8906"/>
<path d="M522.176 495.271H506.855V497.651H522.176V495.271Z" fill="#FF8906"/>
<path d="M740.184 187.991H666.791C665.336 187.991 664.157 189.171 664.157 190.628V264.117C664.157 265.574 665.336 266.754 666.791 266.754H740.184C741.638 266.754 742.817 265.574 742.817 264.117V190.628C742.817 189.171 741.638 187.991 740.184 187.991Z" fill="url(#paint7_linear_1_4)"/>
<path opacity="0.5" d="M703.487 253.912C718.126 253.912 729.992 242.03 729.992 227.373C729.992 212.715 718.126 200.833 703.487 200.833C688.849 200.833 676.982 212.715 676.982 227.373C676.982 242.03 688.849 253.912 703.487 253.912Z" fill="white"/>
<path opacity="0.7" d="M703.487 227.373H729.992C729.992 241.927 718.022 253.912 703.487 253.912C688.952 253.912 676.982 241.927 676.982 227.373C676.982 212.819 688.952 200.833 703.487 200.833C708.139 200.833 712.704 202.066 716.74 204.377L703.487 227.373Z" fill="white"/>
<path d="M703.487 247.92C714.82 247.92 724.007 238.72 724.007 227.373C724.007 216.025 714.82 206.826 703.487 206.826C692.155 206.826 682.967 216.025 682.967 227.373C682.967 238.72 692.155 247.92 703.487 247.92Z" fill="#FF8906"/>
<path opacity="0.3" d="M703.487 247.92C714.82 247.92 724.007 238.72 724.007 227.373C724.007 216.025 714.82 206.826 703.487 206.826C692.155 206.826 682.967 216.025 682.967 227.373C682.967 238.72 692.155 247.92 703.487 247.92Z" fill="white"/>
<path d="M696.36 227.353C696.072 227.353 695.819 227.302 695.598 227.2C695.379 227.097 695.209 226.955 695.086 226.775C694.963 226.594 694.903 226.388 694.904 226.156C694.903 225.975 694.938 225.808 695.011 225.654C695.083 225.5 695.182 225.371 695.308 225.267C695.434 225.163 695.576 225.097 695.732 225.069V225.044C695.527 224.991 695.364 224.876 695.243 224.698C695.121 224.52 695.061 224.317 695.063 224.09C695.061 223.872 695.117 223.678 695.228 223.506C695.34 223.335 695.493 223.199 695.688 223.1C695.885 223.001 696.109 222.952 696.36 222.952C696.608 222.952 696.83 223.001 697.025 223.1C697.22 223.199 697.373 223.335 697.485 223.506C697.598 223.678 697.655 223.872 697.656 224.09C697.655 224.317 697.593 224.52 697.47 224.698C697.349 224.876 697.188 224.991 696.987 225.044V225.069C697.142 225.097 697.281 225.163 697.405 225.267C697.53 225.371 697.629 225.5 697.703 225.654C697.776 225.808 697.814 225.975 697.815 226.156C697.814 226.388 697.751 226.594 697.627 226.775C697.504 226.955 697.334 227.097 697.115 227.2C696.897 227.302 696.646 227.353 696.36 227.353ZM696.36 226.893C696.554 226.893 696.721 226.861 696.862 226.798C697.003 226.736 697.111 226.647 697.188 226.533C697.265 226.418 697.304 226.285 697.305 226.131C697.304 225.969 697.262 225.827 697.18 225.702C697.097 225.578 696.985 225.481 696.843 225.41C696.702 225.338 696.541 225.303 696.36 225.303C696.177 225.303 696.014 225.338 695.87 225.41C695.728 225.481 695.616 225.578 695.533 225.702C695.453 225.827 695.413 225.969 695.414 226.131C695.413 226.285 695.45 226.418 695.525 226.533C695.602 226.647 695.711 226.736 695.854 226.798C695.996 226.861 696.164 226.893 696.36 226.893ZM696.36 224.859C696.513 224.859 696.649 224.829 696.768 224.767C696.887 224.706 696.982 224.62 697.05 224.51C697.118 224.4 697.153 224.271 697.154 224.123C697.153 223.978 697.119 223.852 697.052 223.745C696.985 223.636 696.892 223.552 696.774 223.494C696.655 223.434 696.517 223.404 696.36 223.404C696.199 223.404 696.059 223.434 695.939 223.494C695.819 223.552 695.727 223.636 695.661 223.745C695.596 223.852 695.563 223.978 695.565 224.123C695.563 224.271 695.596 224.4 695.663 224.51C695.732 224.62 695.826 224.706 695.946 224.767C696.065 224.829 696.204 224.859 696.36 224.859ZM700.014 227.353C699.699 227.353 699.431 227.267 699.209 227.095C698.987 226.923 698.818 226.672 698.701 226.345C698.584 226.015 698.525 225.618 698.525 225.152C698.525 224.689 698.584 224.294 698.701 223.966C698.819 223.637 698.989 223.386 699.211 223.213C699.434 223.039 699.702 222.952 700.014 222.952C700.327 222.952 700.594 223.039 700.815 223.213C701.038 223.386 701.209 223.637 701.326 223.966C701.444 224.294 701.503 224.689 701.503 225.152C701.503 225.618 701.445 226.015 701.328 226.345C701.211 226.672 701.041 226.923 700.82 227.095C700.598 227.267 700.329 227.353 700.014 227.353ZM700.014 226.893C700.327 226.893 700.569 226.742 700.742 226.441C700.915 226.14 701.002 225.71 701.002 225.152C701.002 224.781 700.962 224.466 700.882 224.205C700.804 223.944 700.691 223.745 700.543 223.609C700.397 223.472 700.221 223.404 700.014 223.404C699.705 223.404 699.463 223.556 699.288 223.862C699.114 224.166 699.027 224.596 699.027 225.152C699.027 225.523 699.066 225.838 699.144 226.098C699.222 226.357 699.334 226.554 699.481 226.69C699.629 226.825 699.806 226.893 700.014 226.893ZM704.482 226.491V226.265C704.482 226.109 704.514 225.966 704.578 225.836C704.644 225.705 704.739 225.601 704.863 225.523C704.988 225.443 705.14 225.403 705.319 225.403C705.5 225.403 705.652 225.443 705.775 225.523C705.897 225.601 705.99 225.705 706.053 225.836C706.116 225.966 706.147 226.109 706.147 226.265V226.491C706.147 226.647 706.115 226.791 706.051 226.922C705.988 227.051 705.895 227.156 705.77 227.236C705.648 227.314 705.497 227.353 705.319 227.353C705.137 227.353 704.985 227.314 704.861 227.236C704.736 227.156 704.642 227.051 704.578 226.922C704.514 226.791 704.482 226.647 704.482 226.491ZM704.909 226.265V226.491C704.909 226.621 704.939 226.737 705.001 226.84C705.062 226.942 705.168 226.993 705.319 226.993C705.465 226.993 705.568 226.942 705.628 226.84C705.69 226.737 705.72 226.621 705.72 226.491V226.265C705.72 226.135 705.691 226.02 705.632 225.918C705.574 225.815 705.469 225.763 705.319 225.763C705.172 225.763 705.067 225.815 705.003 225.918C704.94 226.02 704.909 226.135 704.909 226.265ZM702.349 224.04V223.814C702.349 223.657 702.381 223.515 702.445 223.385C702.51 223.254 702.605 223.149 702.729 223.071C702.855 222.992 703.007 222.952 703.185 222.952C703.366 222.952 703.518 222.992 703.641 223.071C703.764 223.149 703.857 223.254 703.919 223.385C703.982 223.515 704.013 223.657 704.013 223.814V224.04C704.013 224.196 703.981 224.339 703.917 224.47C703.854 224.6 703.761 224.705 703.637 224.784C703.514 224.862 703.364 224.901 703.185 224.901C703.004 224.901 702.851 224.862 702.727 224.784C702.603 224.705 702.509 224.6 702.445 224.47C702.381 224.339 702.349 224.196 702.349 224.04ZM702.775 223.814V224.04C702.775 224.169 702.806 224.286 702.867 224.389C702.929 224.491 703.035 224.542 703.185 224.542C703.332 224.542 703.435 224.491 703.495 224.389C703.556 224.286 703.587 224.169 703.587 224.04V223.814C703.587 223.684 703.557 223.568 703.499 223.466C703.44 223.363 703.336 223.312 703.185 223.312C703.039 223.312 702.933 223.363 702.869 223.466C702.807 223.568 702.775 223.684 702.775 223.814ZM702.507 227.294L705.452 223.01H705.929L702.984 227.294H702.507Z" fill="white"/>
<path d="M667.133 354.164H611.284C610.179 354.164 609.284 355.061 609.284 356.168V412.09C609.284 413.196 610.179 414.093 611.284 414.093H667.133C668.238 414.093 669.134 413.196 669.134 412.09V356.168C669.134 355.061 668.238 354.164 667.133 354.164Z" fill="url(#paint8_linear_1_4)"/>
<path opacity="0.5" d="M658.275 404.025H650.58V407.946H658.275V404.025Z" fill="white"/>
<path d="M658.275 364.917H650.58V368.838H658.275V364.917Z" fill="white"/>
<path d="M658.275 371.424H650.58V375.345H658.275V371.424Z" fill="white"/>
<path opacity="0.75" d="M658.275 377.948H650.58V381.869H658.275V377.948Z" fill="white"/>
<path opacity="0.5" d="M658.275 384.471H650.58V388.392H658.275V384.471Z" fill="white"/>
<path opacity="0.5" d="M658.275 390.995H650.58V394.916H658.275V390.995Z" fill="white"/>
<path opacity="0.5" d="M658.275 397.518H650.58V401.44H658.275V397.518Z" fill="white"/>
<path opacity="0.5" d="M647.81 404.025H640.115V407.946H647.81V404.025Z" fill="white"/>
<path d="M647.81 384.471H640.115V388.392H647.81V384.471Z" fill="white"/>
<path opacity="0.75" d="M647.81 390.995H640.115V394.916H647.81V390.995Z" fill="white"/>
<path opacity="0.5" d="M647.81 397.518H640.115V401.44H647.81V397.518Z" fill="white"/>
<path opacity="0.5" d="M637.328 404.025H629.633V407.946H637.328V404.025Z" fill="white"/>
<path d="M637.328 377.948H629.633V381.869H637.328V377.948Z" fill="white"/>
<path opacity="0.75" d="M637.328 384.471H629.633V388.392H637.328V384.471Z" fill="white"/>
<path opacity="0.5" d="M637.328 390.995H629.633V394.916H637.328V390.995Z" fill="white"/>
<path opacity="0.5" d="M637.328 397.518H629.633V401.44H637.328V397.518Z" fill="white"/>
<path opacity="0.5" d="M626.845 404.025H619.15V407.946H626.845V404.025Z" fill="white"/>
<path d="M626.845 390.995H619.15V394.916H626.845V390.995Z" fill="white"/>
<path opacity="0.75" d="M626.845 397.518H619.15V401.44H626.845V397.518Z" fill="white"/>
<path d="M621.356 65.7879H565.508C564.403 65.7879 563.507 66.6849 563.507 67.7913V123.713C563.507 124.82 564.403 125.717 565.508 125.717H621.356C622.461 125.717 623.357 124.82 623.357 123.713V67.7913C623.357 66.6849 622.461 65.7879 621.356 65.7879Z" fill="url(#paint9_linear_1_4)"/>
<path opacity="0.9" d="M597.758 89.2457V85.4959L595.826 85.3075C595.569 84.0576 595.073 82.8761 594.389 81.8488L595.621 80.3591L592.97 77.7052L591.482 78.938C590.439 78.2531 589.277 77.7565 588.028 77.4997L587.84 75.5648H584.095L583.907 77.4997C582.659 77.7565 581.479 78.2531 580.453 78.938L578.965 77.7052L576.315 80.3591L577.546 81.8488C576.862 82.8933 576.366 84.0576 576.11 85.3075L574.177 85.4959V89.2457L576.11 89.434C576.366 90.684 576.862 91.8654 577.546 92.8928L576.315 94.3824L578.965 97.0364L580.453 95.8036C581.496 96.4885 582.659 96.985 583.907 97.2419L584.095 99.1767H587.84L588.028 97.2419C589.277 96.985 590.456 96.4885 591.482 95.8036L592.97 97.0364L595.621 94.3824L594.389 92.8928C595.073 91.8483 595.569 90.684 595.826 89.434L597.758 89.2457ZM585.976 92.4476C583.172 92.4476 580.915 90.1703 580.915 87.3794C580.915 84.5884 583.189 82.3111 585.976 82.3111C588.764 82.3111 591.038 84.5884 591.038 87.3794C591.038 90.1703 588.764 92.4476 585.976 92.4476Z" fill="white"/>
<path opacity="0.6" d="M612.926 99.8274V96.8823L611.421 96.7453C611.216 95.7522 610.823 94.8447 610.292 94.0229L611.267 92.8414L609.198 90.7696L608.018 91.7456C607.214 91.2148 606.291 90.821 605.316 90.6155L605.18 89.1087H602.238L602.102 90.6155C601.11 90.821 600.203 91.2148 599.4 91.7456L598.22 90.7696L596.151 92.8414L597.125 94.0229C596.595 94.8447 596.202 95.7522 595.997 96.7453L594.492 96.8823V99.8274L595.997 99.9644C596.202 100.957 596.595 101.865 597.125 102.67L596.151 103.851L598.22 105.923L599.4 104.947C600.203 105.478 601.127 105.872 602.102 106.077L602.238 107.584H605.18L605.316 106.077C606.308 105.872 607.214 105.478 608.035 104.947L609.215 105.923L611.284 103.851L610.31 102.67C610.84 101.865 611.233 100.94 611.438 99.9644L612.943 99.8274H612.926ZM603.692 102.344C601.503 102.344 599.725 100.564 599.725 98.372C599.725 96.1803 601.503 94.3996 603.692 94.3996C605.881 94.3996 607.659 96.1803 607.659 98.372C607.659 100.564 605.881 102.344 603.692 102.344Z" fill="white"/>
<path opacity="0.4" d="M597.758 108.166V105.7L596.493 105.581C596.322 104.759 595.997 103.988 595.552 103.303L596.373 102.31L594.629 100.564L593.637 101.386C592.953 100.94 592.184 100.615 591.363 100.444L591.243 99.1767H588.781L588.661 100.444C587.84 100.615 587.071 100.94 586.387 101.386L585.395 100.564L583.651 102.31L584.471 103.303C584.027 103.988 583.702 104.759 583.531 105.581L582.266 105.7V108.166L583.531 108.286C583.702 109.108 584.027 109.878 584.471 110.563L583.651 111.556L585.395 113.303L586.387 112.481C587.071 112.926 587.84 113.251 588.661 113.423L588.781 114.69H591.243L591.363 113.423C592.184 113.251 592.953 112.926 593.637 112.481L594.629 113.303L596.373 111.556L595.552 110.563C595.997 109.878 596.322 109.108 596.493 108.286L597.758 108.166ZM589.995 110.289C588.148 110.289 586.66 108.8 586.66 106.95C586.66 105.101 588.148 103.611 589.995 103.611C591.842 103.611 593.329 105.101 593.329 106.95C593.329 108.8 591.842 110.289 589.995 110.289Z" fill="white"/>
<path d="M617.56 164.533H564.977V198.778H617.56V164.533Z" fill="url(#paint10_linear_1_4)"/>
<path opacity="0.6" d="M617.56 164.533H564.977V198.778H617.56V164.533Z" fill="white"/>
<path d="M615.628 170.954H566.893V197.066H615.628V170.954Z" fill="url(#paint11_linear_1_4)"/>
<path d="M606.907 174.858H570.86V175.988H606.907V174.858Z" fill="white"/>
<path d="M588.165 178.3H570.86V179.43H588.165V178.3Z" fill="white"/>
<path d="M592.645 181.724H570.86V182.854H592.645V181.724Z" fill="white"/>
<path d="M578.538 185.166H570.86V186.296H578.538V185.166Z" fill="white"/>
<path d="M575.836 188.607H570.86V189.737H575.836V188.607Z" fill="white"/>
<path d="M701.35 425.651H648.767V459.896H701.35V425.651Z" fill="url(#paint12_linear_1_4)"/>
<path opacity="0.6" d="M701.35 425.651H648.767V459.896H701.35V425.651Z" fill="white"/>
<path d="M699.418 432.072H650.683V458.183H699.418V432.072Z" fill="url(#paint13_linear_1_4)"/>
<path d="M690.697 435.976H654.65V437.106H690.697V435.976Z" fill="white"/>
<path d="M671.955 439.417H654.65V440.547H671.955V439.417Z" fill="white"/>
<path d="M676.435 442.842H654.65V443.972H676.435V442.842Z" fill="white"/>
<path d="M662.328 446.283H654.65V447.413H662.328V446.283Z" fill="white"/>
<path d="M659.626 449.725H654.65V450.855H659.626V449.725Z" fill="white"/>
<g opacity="0.4">
<path d="M623.22 226.602H332.52V230.027H623.22V226.602Z" fill="white"/>
<path d="M322.26 212.904H318.84V192.357C318.84 191.895 319.028 191.467 319.336 191.141L423.937 86.6945C424.262 86.3691 424.689 86.1979 425.151 86.1979H520.62V89.6224H425.852L322.26 193.059V212.904Z" fill="white"/>
<path d="M570.21 385.841H441.96C441.498 385.841 441.071 385.653 440.746 385.344L319.336 263.775C319.011 263.45 318.84 263.022 318.84 262.559V245.437H322.26V261.857L442.661 382.417H570.21V385.841Z" fill="white"/>
<path d="M484.71 276.257H416.019C415.575 276.257 415.13 276.086 414.805 275.761L368.635 229.821L371.046 227.39L416.72 272.833H484.693V276.257H484.71Z" fill="white"/>
<path d="M437.189 229.65L434.761 227.236L480.777 180.868C481.102 180.543 481.529 180.371 481.991 180.371H551.4V183.796H482.709L437.189 229.667V229.65Z" fill="white"/>
<path d="M697.968 142.495H426.471C426.01 142.495 425.582 142.307 425.257 141.981L398 114.414L400.428 112L427.173 139.071H697.951V142.495H697.968Z" fill="white"/>
<path d="M456.273 89.1088L453.862 86.6945L498.322 42.1761C498.647 41.8508 499.074 41.6795 499.536 41.6795H642.03V45.104H500.237L456.273 89.1259V89.1088Z" fill="white"/>
<path d="M484.077 469.81L415.113 400.755C414.788 400.429 414.617 400.001 414.617 399.539V358.445H418.037V398.837L486.506 467.395L484.094 469.81H484.077Z" fill="white"/>
<path d="M468.533 384.797L466.105 382.382L511.454 336.682C511.779 336.357 512.207 336.186 512.669 336.186H684.78V339.61H513.387L468.533 384.797Z" fill="white"/>
<path d="M628.35 433.784H551.691C551.229 433.784 550.802 433.596 550.477 433.287L502.306 385.053L504.717 382.639L552.375 430.359H628.333V433.784H628.35Z" fill="white"/>
<path d="M642.03 51.2339C646.355 51.2339 649.862 47.7228 649.862 43.3918C649.862 39.0607 646.355 35.5497 642.03 35.5497C637.705 35.5497 634.198 39.0607 634.198 43.3918C634.198 47.7228 637.705 51.2339 642.03 51.2339Z" fill="white"/>
<path d="M536.01 106.026C526.024 106.026 517.918 97.8926 517.918 87.9102C517.918 77.9278 526.041 69.7946 536.01 69.7946C545.979 69.7946 554.102 77.9278 554.102 87.9102C554.102 97.8926 545.979 106.026 536.01 106.026ZM536.01 73.202C527.922 73.202 521.338 79.7941 521.338 87.8931C521.338 95.992 527.922 102.584 536.01 102.584C544.098 102.584 550.682 95.992 550.682 87.8931C550.682 79.7941 544.098 73.202 536.01 73.202Z" fill="white"/>
<path d="M706.292 141.264C706.292 145.596 702.786 149.106 698.46 149.106C694.134 149.106 690.628 145.596 690.628 141.264C690.628 136.932 694.134 133.422 698.46 133.422C702.786 133.422 706.292 136.932 706.292 141.264Z" fill="white"/>
<path d="M551.4 189.926C555.725 189.926 559.232 186.415 559.232 182.084C559.232 177.753 555.725 174.242 551.4 174.242C547.075 174.242 543.568 177.753 543.568 182.084C543.568 186.415 547.075 189.926 551.4 189.926Z" fill="white"/>
<path d="M638.61 246.43C628.624 246.43 620.518 238.297 620.518 228.314C620.518 218.332 628.641 210.199 638.61 210.199C648.579 210.199 656.702 218.332 656.702 228.314C656.702 238.297 648.579 246.43 638.61 246.43ZM638.61 213.606C630.522 213.606 623.938 220.198 623.938 228.297C623.938 236.396 630.522 242.988 638.61 242.988C646.698 242.988 653.282 236.396 653.282 228.297C653.282 220.198 646.698 213.606 638.61 213.606Z" fill="white"/>
<path d="M484.71 282.387C489.035 282.387 492.542 278.876 492.542 274.545C492.542 270.214 489.035 266.703 484.71 266.703C480.385 266.703 476.878 270.214 476.878 274.545C476.878 278.876 480.385 282.387 484.71 282.387Z" fill="white"/>
<path d="M684.78 345.74C689.105 345.74 692.612 342.229 692.612 337.898C692.612 333.567 689.105 330.056 684.78 330.056C680.455 330.056 676.948 333.567 676.948 337.898C676.948 342.229 680.455 345.74 684.78 345.74Z" fill="white"/>
<path d="M585.6 401.953C575.614 401.953 567.508 393.82 567.508 383.838C567.508 373.855 575.631 365.722 585.6 365.722C595.569 365.722 603.692 373.855 603.692 383.838C603.692 393.82 595.569 401.953 585.6 401.953ZM585.6 369.147C577.512 369.147 570.928 375.739 570.928 383.838C570.928 391.937 577.512 398.529 585.6 398.529C593.688 398.529 600.272 391.937 600.272 383.838C600.272 375.739 593.688 369.147 585.6 369.147Z" fill="white"/>
<path d="M628.35 439.914C632.675 439.914 636.182 436.403 636.182 432.072C636.182 427.741 632.675 424.23 628.35 424.23C624.025 424.23 620.518 427.741 620.518 432.072C620.518 436.403 624.025 439.914 628.35 439.914Z" fill="white"/>
<path d="M493.123 468.594C493.123 472.926 489.618 476.436 485.291 476.436C480.965 476.436 477.46 472.926 477.46 468.594C477.46 464.262 480.965 460.752 485.291 460.752C489.618 460.752 493.123 464.262 493.123 468.594Z" fill="white"/>
<path d="M320.584 248.262C309.623 248.262 300.697 239.324 300.697 228.349C300.697 217.373 309.623 208.435 320.584 208.435C331.545 208.435 340.472 217.373 340.472 228.349C340.472 239.324 331.545 248.262 320.584 248.262ZM320.584 213.572C312.445 213.572 305.827 220.198 305.827 228.349C305.827 236.499 312.445 243.125 320.584 243.125C328.724 243.125 335.342 236.499 335.342 228.349C335.342 220.198 328.724 213.572 320.584 213.572Z" fill="white"/>
</g>
<path d="M158.239 169.028C154.625 166.064 149.06 165.888 144.857 168.023C140.653 170.158 137.786 174.253 136.529 178.649C135.874 180.922 135.612 183.346 136.188 185.632C136.764 187.917 138.244 190.065 140.431 191.145C141.4 191.622 142.552 191.936 143.128 192.803C144.254 194.486 142.46 196.747 143.024 198.681C143.495 200.276 145.525 201.08 147.227 200.766C148.929 200.452 150.33 199.321 151.548 198.141C156.759 193.092 160.098 186.322 160.897 179.264C162.338 175.86 161.211 171.477 158.226 169.028H158.239Z" fill="#263238"/>
<path fill-rule="evenodd" clip-rule="evenodd" d="M914 129.036C885.518 109.11 855.382 92.4879 824.999 80.1367C686.308 23.7562 467.619 -7.1097 387.581 56.0839C341.093 92.7789 350.497 138.603 358.499 177.596C364.277 205.754 369.325 230.35 352.067 245.375C334.89 260.322 305.932 265.695 270.785 272.217C221.675 281.33 160.482 292.686 102.459 335.531C2.90993 409.041 -39.1053 559.49 82.7559 627H128.363H914V129.036Z" fill="url(#paint14_linear_1_4)" fill-opacity="0.8"/>
<defs>
<linearGradient id="paint0_linear_1_4" x1="301.471" y1="325.04" x2="301.471" y2="341.751" gradientUnits="userSpaceOnUse">
<stop stop-color="#864AF3"/>
<stop offset="0.721428" stop-color="#BDA0F1"/>
<stop offset="1" stop-color="#9A72E2" stop-opacity="0.75"/>
</linearGradient>
<linearGradient id="paint1_linear_1_4" x1="177.564" y1="365.466" x2="177.564" y2="437.603" gradientUnits="userSpaceOnUse">
<stop stop-color="#864AF3"/>
<stop offset="0.721428" stop-color="#BDA0F1"/>
<stop offset="1" stop-color="#9A72E2" stop-opacity="0.75"/>
</linearGradient>
<linearGradient id="paint2_linear_1_4" x1="298.786" y1="365.466" x2="298.786" y2="437.603" gradientUnits="userSpaceOnUse">
<stop stop-color="#864AF3"/>
<stop offset="0.721428" stop-color="#BDA0F1"/>
<stop offset="1" stop-color="#9A72E2" stop-opacity="0.75"/>
</linearGradient>
<linearGradient id="paint3_linear_1_4" x1="420.025" y1="365.466" x2="420.025" y2="437.603" gradientUnits="userSpaceOnUse">
<stop stop-color="#864AF3"/>
<stop offset="0.721428" stop-color="#BDA0F1"/>
<stop offset="1" stop-color="#9A72E2" stop-opacity="0.75"/>
</linearGradient>
<linearGradient id="paint4_linear_1_4" x1="177.564" y1="468.269" x2="177.564" y2="540.406" gradientUnits="userSpaceOnUse">
<stop stop-color="#864AF3"/>
<stop offset="0.721428" stop-color="#BDA0F1"/>
<stop offset="1" stop-color="#9A72E2" stop-opacity="0.75"/>
</linearGradient>
<linearGradient id="paint5_linear_1_4" x1="298.786" y1="468.269" x2="298.786" y2="540.406" gradientUnits="userSpaceOnUse">
<stop stop-color="#864AF3"/>
<stop offset="0.721428" stop-color="#BDA0F1"/>
<stop offset="1" stop-color="#9A72E2" stop-opacity="0.75"/>
</linearGradient>
<linearGradient id="paint6_linear_1_4" x1="420.025" y1="468.269" x2="420.025" y2="540.406" gradientUnits="userSpaceOnUse">
<stop stop-color="#864AF3"/>
<stop offset="0.721428" stop-color="#BDA0F1"/>
<stop offset="1" stop-color="#9A72E2" stop-opacity="0.75"/>
</linearGradient>
<linearGradient id="paint7_linear_1_4" x1="703.487" y1="187.991" x2="703.487" y2="266.754" gradientUnits="userSpaceOnUse">
<stop stop-color="#FAB336"/>
<stop offset="1" stop-color="#F46F40"/>
</linearGradient>
<linearGradient id="paint8_linear_1_4" x1="639.209" y1="354.164" x2="639.209" y2="414.093" gradientUnits="userSpaceOnUse">
<stop stop-color="#FAB336"/>
<stop offset="1" stop-color="#F46F40"/>
</linearGradient>
<linearGradient id="paint9_linear_1_4" x1="593.432" y1="65.7879" x2="593.432" y2="125.717" gradientUnits="userSpaceOnUse">
<stop stop-color="#FAB336"/>
<stop offset="1" stop-color="#F46F40"/>
</linearGradient>
<linearGradient id="paint10_linear_1_4" x1="591.269" y1="164.533" x2="591.269" y2="198.778" gradientUnits="userSpaceOnUse">
<stop stop-color="#FAB336"/>
<stop offset="1" stop-color="#F46F40"/>
</linearGradient>
<linearGradient id="paint11_linear_1_4" x1="591.26" y1="170.954" x2="591.26" y2="197.066" gradientUnits="userSpaceOnUse">
<stop stop-color="#FAB336"/>
<stop offset="1" stop-color="#F46F40"/>
</linearGradient>
<linearGradient id="paint12_linear_1_4" x1="675.059" y1="425.651" x2="675.059" y2="459.896" gradientUnits="userSpaceOnUse">
<stop stop-color="#FAB336"/>
<stop offset="1" stop-color="#F46F40"/>
</linearGradient>
<linearGradient id="paint13_linear_1_4" x1="675.05" y1="432.072" x2="675.05" y2="458.183" gradientUnits="userSpaceOnUse">
<stop stop-color="#FAB336"/>
<stop offset="1" stop-color="#F46F40"/>
</linearGradient>
<linearGradient id="paint14_linear_1_4" x1="-110.735" y1="597.819" x2="844.017" y2="155.877" gradientUnits="userSpaceOnUse">
<stop offset="0.140596" stop-color="#E4D6FF" stop-opacity="0.25"/>
<stop offset="0.708752" stop-color="#BDA0F1" stop-opacity="0.5"/>
<stop offset="1" stop-color="#8BC7FF" stop-opacity="0.7"/>
</linearGradient>
</defs>
</svg>
