<svg width="969" height="822" viewBox="0 0 969 822" fill="none" xmlns="http://www.w3.org/2000/svg">
<g style="mix-blend-mode:multiply" opacity="0.25">
<path fill-rule="evenodd" clip-rule="evenodd" d="M969 0H273.405C348.939 29.6647 393.51 75.8746 366.492 147.375C320.01 270.353 225.563 341.346 144.26 402.458C68.4254 459.461 4.02613 507.867 0.652787 581.847C-6.664 742.821 190.588 822 470.637 822H969V0Z" fill="url(#paint0_linear_1_816)"/>
</g>
<g clip-path="url(#clip0_1_816)">
<path d="M75.46 472.561H132.41C137.56 472.561 141.73 476.741 141.73 481.904V512.725C141.73 517.888 137.56 522.068 132.41 522.068H118.795L118.686 531.396L108.432 522.068H75.4756C70.3252 522.068 66.1551 517.888 66.1551 512.725V481.904C66.1551 476.741 70.3252 472.561 75.4756 472.561H75.46Z" fill="#407BFF"/>
<path d="M96.9172 492.448L87.9391 496.659L96.9172 500.855V504.24L84.9205 498.406V494.881L96.9172 489.047V492.432V492.448Z" fill="white"/>
<path d="M124.241 494.897V498.422L112.244 504.255V500.871L121.222 496.675L112.244 492.463V489.079L124.241 494.912V494.897Z" fill="white"/>
<path d="M106.689 486.692L100.838 506.969H103.764L109.614 486.692H106.689Z" fill="white"/>
<path d="M119.261 470.455H90.0086C89.7908 470.455 89.6196 470.283 89.6196 470.065C89.6196 469.847 89.7908 469.675 90.0086 469.675H119.261C119.479 469.675 119.65 469.847 119.65 470.065C119.65 470.283 119.479 470.455 119.261 470.455Z" fill="#407BFF"/>
<path d="M127.337 470.47H122.716C122.498 470.47 122.327 470.299 122.327 470.08C122.327 469.862 122.498 469.691 122.716 469.691H127.337C127.555 469.691 127.726 469.862 127.726 470.08C127.726 470.299 127.555 470.47 127.337 470.47Z" fill="#407BFF"/>
<path opacity="0.8" d="M494.008 210.969C490.461 216.382 488.08 222.34 486.804 228.47L477.048 229.39V248.326L486.804 249.246C488.08 255.376 490.461 261.335 494.008 266.747L487.784 274.296L501.135 287.679L508.666 281.44C514.065 284.996 520.009 287.383 526.124 288.662L527.042 298.442H545.932L546.85 288.662C552.981 287.383 558.909 284.996 564.309 281.44L571.84 287.679L585.19 274.296L578.966 266.747C582.514 261.335 584.894 255.376 586.17 249.246L595.926 248.326V229.39L586.17 228.47C584.894 222.34 582.514 216.382 578.966 210.969L585.19 203.42L571.84 190.037L564.309 196.276C558.909 192.72 552.965 190.318 546.85 189.054L545.932 179.274H527.042L526.124 189.054C520.009 190.333 514.065 192.72 508.666 196.276L501.135 190.037L487.784 203.42L494.008 210.969ZM558.178 217.13C570.159 229.141 570.159 248.607 558.178 260.601C546.197 272.612 526.778 272.612 514.812 260.601C502.831 248.591 502.831 229.125 514.812 217.13C526.793 205.12 546.212 205.12 558.178 217.13Z" fill="#FCF0E3"/>
<g opacity="0.7">
<path d="M440.933 103.5H307.584C303.339 103.5 299.897 106.95 299.897 111.205V213.496C299.897 217.752 303.339 221.201 307.584 221.201H440.933C445.178 221.201 448.62 217.752 448.62 213.496V111.205C448.62 106.95 445.178 103.5 440.933 103.5Z" fill="#F2F0EA"/>
<path d="M307.086 103.5H441.54C445.446 103.5 448.62 106.682 448.62 110.597V124.027H299.897V110.722C299.897 106.744 303.118 103.5 307.102 103.5H307.086Z" fill="#E1D2AA"/>
<path opacity="0.5" d="M440.731 115.261C440.731 117.741 438.724 119.737 436.265 119.737C433.807 119.737 431.8 117.725 431.8 115.261C431.8 112.796 433.807 110.784 436.265 110.784C438.724 110.784 440.731 112.796 440.731 115.261Z" fill="#FAFAFA"/>
<path opacity="0.5" d="M428.034 115.261C428.034 117.741 426.027 119.737 423.568 119.737C421.11 119.737 419.103 117.725 419.103 115.261C419.103 112.796 421.11 110.784 423.568 110.784C426.027 110.784 428.034 112.796 428.034 115.261Z" fill="#FAFAFA"/>
<path opacity="0.5" d="M410.856 119.737C413.322 119.737 415.322 117.733 415.322 115.261C415.322 112.788 413.322 110.784 410.856 110.784C408.389 110.784 406.39 112.788 406.39 115.261C406.39 117.733 408.389 119.737 410.856 119.737Z" fill="#FAFAFA"/>
<path opacity="0.6" d="M413.61 141.184H334.036V145.365H413.61V141.184Z" fill="white"/>
<path d="M392.199 150.216H335.265V154.396H392.199V150.216Z" fill="#E1D2AA"/>
<path d="M435.192 141.184H420.643V145.365H435.192V141.184Z" fill="#FFFBD7"/>
<path d="M328.512 141.184H312.859V145.365H328.512V141.184Z" fill="#FFFBD7"/>
<path d="M413.61 160.261H334.036V164.441H413.61V160.261Z" fill="#FFFBD7"/>
<path opacity="0.6" d="M435.192 160.261H420.643V164.441H435.192V160.261Z" fill="white"/>
<path d="M328.512 160.261H312.859V164.441H328.512V160.261Z" fill="#FFFBD7"/>
<path opacity="0.6" d="M413.61 200.035H334.036V204.215H413.61V200.035Z" fill="white"/>
<path opacity="0.6" d="M435.192 200.035H420.643V204.215H435.192V200.035Z" fill="white"/>
<path d="M413.61 170.321H334.036V174.501H413.61V170.321Z" fill="#FFFBD7"/>
<path d="M435.192 170.321H420.643V174.501H435.192V170.321Z" fill="#E1D2AA"/>
<path d="M328.512 170.321H312.859V174.501H328.512V170.321Z" fill="#E1D2AA"/>
<path d="M436.265 150.387H398.439V154.567H436.265V150.387Z" fill="#FFFBD7"/>
<path opacity="0.6" d="M390.97 179.087H334.036V183.267H390.97V179.087Z" fill="white"/>
<path d="M435.02 179.259H397.194V183.439H435.02V179.259Z" fill="#FFFBD7"/>
<path d="M362.511 188.181H334.036V192.361H362.511V188.181Z" fill="#E1D2AA"/>
</g>
<g opacity="0.7">
<path d="M643.867 186.215L627.015 194.108L643.867 202V208.364L621.351 197.415V190.801L643.867 179.851V186.215Z" fill="#FBF7EC"/>
<path d="M695.168 190.801V197.415L672.653 208.364V202L689.504 194.108L672.653 186.215V179.851L695.168 190.801Z" fill="#FBF7EC"/>
<path d="M662.196 175.422L651.211 213.48H656.704L667.689 175.422H662.196Z" fill="#FBF7EC"/>
</g>
<path d="M69.1322 369.892C67.0627 373.058 65.6623 376.537 64.9154 380.124L59.2205 380.654V391.713L64.9154 392.259C65.6623 395.847 67.0471 399.325 69.1322 402.491L65.4911 406.89L73.2867 414.705L77.6746 411.055C80.8333 413.129 84.3032 414.533 87.882 415.266L88.411 420.975H99.4431L99.9721 415.266C103.551 414.517 107.021 413.129 110.179 411.039L114.567 414.689L122.363 406.874L118.722 402.476C120.791 399.309 122.192 395.831 122.923 392.244L128.618 391.713V380.654L122.923 380.109C122.176 376.521 120.791 373.043 118.706 369.892L122.347 365.493L114.552 357.679L110.164 361.329C107.005 359.254 103.535 357.85 99.9565 357.102L99.4119 351.393H88.3799L87.8509 357.102C84.2721 357.85 80.8022 359.239 77.6435 361.329L73.2556 357.679L65.46 365.493L69.1011 369.892H69.1322ZM106.601 373.495C113.587 380.514 113.603 391.869 106.601 398.888C99.5987 405.907 88.271 405.907 81.269 398.888C74.267 391.869 74.267 380.514 81.269 373.495C88.271 366.476 99.5987 366.476 106.601 373.495Z" fill="#F2F0EA"/>
<path opacity="0.7" d="M704.255 261.179C702.528 263.799 701.377 266.685 700.754 269.664L696.024 270.116V279.303L700.754 279.756C701.377 282.735 702.528 285.62 704.255 288.241L701.237 291.891L707.71 298.379L711.351 295.353C713.965 297.085 716.843 298.239 719.815 298.863L720.266 303.605H729.431L729.883 298.863C732.854 298.239 735.733 297.085 738.347 295.353L741.988 298.379L748.461 291.891L745.443 288.241C747.17 285.62 748.321 282.735 748.944 279.756L753.674 279.303V270.116L748.944 269.664C748.321 266.685 747.17 263.799 745.443 261.179L748.461 257.529L741.988 251.04L738.347 254.066C735.733 252.335 732.854 251.18 729.883 250.556L729.431 245.815H720.266L719.815 250.556C716.843 251.18 713.965 252.335 711.351 254.066L707.71 251.04L701.237 257.529L704.255 261.179ZM735.375 264.158C741.179 269.976 741.179 279.412 735.375 285.246C729.571 291.064 720.158 291.064 714.338 285.246C708.519 279.428 708.534 269.991 714.338 264.158C720.142 258.34 729.556 258.34 735.375 264.158Z" fill="#FBF7EC"/>
<path d="M753.269 715.31H699.043V715.715H753.269V715.31Z" fill="#EBEBEB"/>
<path d="M558.987 719.771H544.75V720.176H558.987V719.771Z" fill="#EBEBEB"/>
<path d="M697.393 700.071H665.978V700.476H697.393V700.071Z" fill="#EBEBEB"/>
<path d="M173.332 702.831H102.628V703.237H173.332V702.831Z" fill="#EBEBEB"/>
<path d="M198.275 702.831H187.912V703.237H198.275V702.831Z" fill="#EBEBEB"/>
<path d="M385.337 709.757H231.978V710.162H385.337V709.757Z" fill="#EBEBEB"/>
<path d="M799 689.948H21V690.338H799V689.948Z" fill="#E0E0E0"/>
<path d="M168.058 238.858H204.826V601.555H165.272C158.986 601.555 153.882 596.439 153.882 590.137V253.068C153.882 245.222 160.231 238.858 168.058 238.858Z" fill="#263238"/>
<path d="M356.505 595.3L340.322 678.421H363.802L382.537 595.986L356.505 595.3Z" fill="#263238"/>
<path d="M332.465 677.423H320.577V689.339H332.465V677.423Z" fill="#263238"/>
<path opacity="0.5" d="M168.058 238.858H204.826V601.555H165.272C158.986 601.555 153.882 596.439 153.882 590.137V253.068C153.882 245.222 160.231 238.858 168.058 238.858Z" fill="white"/>
<path opacity="0.5" d="M356.505 595.3L340.322 678.421H363.802L382.537 595.986L356.505 595.3Z" fill="white"/>
<path opacity="0.5" d="M332.465 677.423H320.577V689.339H332.465V677.423Z" fill="white"/>
<path d="M503.951 689.355H353.144L374.57 563.387H474.932L503.951 689.355Z" fill="#263238"/>
<path opacity="0.7" d="M503.951 689.355H353.144L374.57 563.387H474.932L503.951 689.355Z" fill="white"/>
<path opacity="0.1" d="M483.661 601.555H368.019L363.802 626.371L487.038 616.17L483.661 601.555Z" fill="black"/>
<path d="M524.615 677.423H329.135V689.339H524.615V677.423Z" fill="#263238"/>
<g opacity="0.7">
<path d="M524.615 677.423H329.135V689.339H524.615V677.423Z" fill="white"/>
</g>
<path d="M178.514 238.858H667.471C674.38 238.858 679.982 244.567 679.982 251.601V588.796C679.982 595.83 674.38 601.539 667.471 601.539H178.514C171.605 601.539 166.004 595.83 166.004 588.796V251.601C166.004 244.567 171.605 238.858 178.514 238.858Z" fill="#263238"/>
<g opacity="0.7">
<path d="M178.514 238.858H667.471C674.38 238.858 679.982 244.567 679.982 251.601V588.796C679.982 595.83 674.38 601.539 667.471 601.539H178.514C171.605 601.539 166.004 595.83 166.004 588.796V251.601C166.004 244.567 171.605 238.858 178.514 238.858Z" fill="white"/>
</g>
<path d="M666.32 251.336H177.456V576.489H666.32V251.336Z" fill="#FF8906"/>
<path opacity="0.98" d="M666.32 251.336H177.456V576.489H666.32V251.336Z" fill="white"/>
<path d="M666.32 251.336H177.456V277.432H666.32V251.336Z" fill="#B6A6D2"/>
<path opacity="0.5" d="M659.816 264.392C659.816 267.449 657.342 269.945 654.276 269.945C651.211 269.945 648.737 267.465 648.737 264.392C648.737 261.319 651.211 258.839 654.276 258.839C657.342 258.839 659.816 261.319 659.816 264.392Z" fill="white"/>
<path opacity="0.5" d="M644.085 264.392C644.085 267.449 641.611 269.945 638.545 269.945C635.48 269.945 633.006 267.465 633.006 264.392C633.006 261.319 635.48 258.839 638.545 258.839C641.611 258.839 644.085 261.319 644.085 264.392Z" fill="white"/>
<path opacity="0.5" d="M628.369 264.392C628.369 267.449 625.895 269.945 622.83 269.945C619.764 269.945 617.29 267.465 617.29 264.392C617.29 261.319 619.764 258.839 622.83 258.839C625.895 258.839 628.369 261.319 628.369 264.392Z" fill="white"/>
<path d="M268.093 467.85C266.49 470.283 265.416 472.966 264.856 475.727L260.468 476.148V484.664L264.856 485.086C265.432 487.846 266.506 490.514 268.093 492.963L265.292 496.347L271.298 502.368L274.675 499.56C277.102 501.167 279.778 502.243 282.532 502.805L282.953 507.203H291.448L291.868 502.805C294.623 502.228 297.283 501.151 299.726 499.56L303.103 502.368L309.109 496.347L306.308 492.963C307.911 490.529 308.984 487.846 309.545 485.086L313.933 484.664V476.148L309.545 475.727C308.969 472.966 307.895 470.299 306.308 467.85L309.109 464.465L303.103 458.444L299.726 461.252C297.299 459.646 294.623 458.569 291.868 458.008L291.448 453.609H282.953L282.532 458.008C279.778 458.585 277.118 459.661 274.675 461.252L271.298 458.444L265.292 464.465L268.093 467.85ZM295.012 472.561C299.322 476.881 299.322 483.9 295.012 488.221C290.701 492.541 283.699 492.541 279.389 488.221C275.079 483.9 275.079 476.881 279.389 472.561C283.699 468.24 290.701 468.24 295.012 472.561Z" fill="#FF8906"/>
<path opacity="0.4" d="M268.093 467.85C266.49 470.283 265.416 472.966 264.856 475.727L260.468 476.148V484.664L264.856 485.086C265.432 487.846 266.506 490.514 268.093 492.963L265.292 496.347L271.298 502.368L274.675 499.56C277.102 501.167 279.778 502.243 282.532 502.805L282.953 507.203H291.448L291.868 502.805C294.623 502.228 297.283 501.151 299.726 499.56L303.103 502.368L309.109 496.347L306.308 492.963C307.911 490.529 308.984 487.846 309.545 485.086L313.933 484.664V476.148L309.545 475.727C308.969 472.966 307.895 470.299 306.308 467.85L309.109 464.465L303.103 458.444L299.726 461.252C297.299 459.646 294.623 458.569 291.868 458.008L291.448 453.609H282.953L282.532 458.008C279.778 458.585 277.118 459.661 274.675 461.252L271.298 458.444L265.292 464.465L268.093 467.85ZM295.012 472.561C299.322 476.881 299.322 483.9 295.012 488.221C290.701 492.541 283.699 492.541 279.389 488.221C275.079 483.9 275.079 476.881 279.389 472.561C283.699 468.24 290.701 468.24 295.012 472.561Z" fill="white"/>
<path d="M518.796 363.672C517.317 365.934 516.321 368.414 515.792 370.956L511.731 371.346V379.239L515.792 379.629C516.321 382.187 517.317 384.667 518.796 386.913L516.197 390.048L521.752 395.616L524.879 393.012C527.136 394.493 529.61 395.492 532.146 396.022L532.535 400.093H540.408L540.797 396.022C543.349 395.492 545.823 394.493 548.064 393.012L551.191 395.616L556.746 390.048L554.148 386.913C555.626 384.651 556.622 382.171 557.151 379.629L561.212 379.239V371.346L557.151 370.956C556.622 368.398 555.626 365.918 554.148 363.672L556.746 360.537L551.191 354.968L548.064 357.573C545.808 356.091 543.334 355.093 540.797 354.563L540.408 350.492H532.535L532.146 354.563C529.594 355.093 527.12 356.091 524.879 357.573L521.752 354.968L516.197 360.537L518.796 363.672ZM543.723 368.039C547.722 372.048 547.722 378.537 543.723 382.545C539.724 386.554 533.251 386.554 529.252 382.545C525.253 378.537 525.253 372.048 529.252 368.039C533.251 364.031 539.724 364.031 543.723 368.039Z" fill="#FF8906"/>
<path opacity="0.4" d="M518.796 363.672C517.317 365.934 516.321 368.414 515.792 370.956L511.731 371.346V379.239L515.792 379.629C516.321 382.187 517.317 384.667 518.796 386.913L516.197 390.048L521.752 395.616L524.879 393.012C527.136 394.493 529.61 395.492 532.146 396.022L532.535 400.093H540.408L540.797 396.022C543.349 395.492 545.823 394.493 548.064 393.012L551.191 395.616L556.746 390.048L554.148 386.913C555.626 384.651 556.622 382.171 557.151 379.629L561.212 379.239V371.346L557.151 370.956C556.622 368.398 555.626 365.918 554.148 363.672L556.746 360.537L551.191 354.968L548.064 357.573C545.808 356.091 543.334 355.093 540.797 354.563L540.408 350.492H532.535L532.146 354.563C529.594 355.093 527.12 356.091 524.879 357.573L521.752 354.968L516.197 360.537L518.796 363.672ZM543.723 368.039C547.722 372.048 547.722 378.537 543.723 382.545C539.724 386.554 533.251 386.554 529.252 382.545C525.253 378.537 525.253 372.048 529.252 368.039C533.251 364.031 539.724 364.031 543.723 368.039Z" fill="white"/>
<path d="M509.055 320.029C508.106 321.48 507.452 323.086 507.11 324.74L504.48 324.989V330.09L507.11 330.339C507.452 331.993 508.09 333.599 509.055 335.05L507.374 337.078L510.969 340.681L512.992 338.996C514.439 339.948 516.041 340.603 517.691 340.946L517.94 343.582H523.028L523.277 340.946C524.926 340.603 526.529 339.963 527.976 338.996L529.999 340.681L533.593 337.078L531.913 335.05C532.862 333.599 533.515 331.993 533.858 330.339L536.487 330.09V324.989L533.858 324.74C533.515 323.086 532.877 321.48 531.913 320.029L533.593 318.002L529.999 314.398L527.976 316.083C526.529 315.132 524.926 314.476 523.277 314.133L523.028 311.497H517.94L517.691 314.133C516.041 314.476 514.439 315.116 512.992 316.083L510.969 314.398L507.374 318.002L509.055 320.029ZM525.16 322.852C527.743 325.442 527.743 329.638 525.16 332.227C522.577 334.816 518.391 334.816 515.808 332.227C513.225 329.638 513.225 325.442 515.808 322.852C518.391 320.263 522.577 320.263 525.16 322.852Z" fill="#FF8906"/>
<path opacity="0.7" d="M509.055 320.029C508.106 321.48 507.452 323.086 507.11 324.74L504.48 324.989V330.09L507.11 330.339C507.452 331.993 508.09 333.599 509.055 335.05L507.374 337.078L510.969 340.681L512.992 338.996C514.439 339.948 516.041 340.603 517.691 340.946L517.94 343.582H523.028L523.277 340.946C524.926 340.603 526.529 339.963 527.976 338.996L529.999 340.681L533.593 337.078L531.913 335.05C532.862 333.599 533.515 331.993 533.858 330.339L536.487 330.09V324.989L533.858 324.74C533.515 323.086 532.877 321.48 531.913 320.029L533.593 318.002L529.999 314.398L527.976 316.083C526.529 315.132 524.926 314.476 523.277 314.133L523.028 311.497H517.94L517.691 314.133C516.041 314.476 514.439 315.116 512.992 316.083L510.969 314.398L507.374 318.002L509.055 320.029ZM525.16 322.852C527.743 325.442 527.743 329.638 525.16 332.227C522.577 334.816 518.391 334.816 515.808 332.227C513.225 329.638 513.225 325.442 515.808 322.852C518.391 320.263 522.577 320.263 525.16 322.852Z" fill="white"/>
<path d="M296.412 518.933C295.463 520.384 294.809 521.99 294.467 523.643L291.837 523.893V528.994L294.467 529.243C294.809 530.896 295.447 532.503 296.412 533.954L294.732 535.981L298.326 539.584L300.349 537.9C301.796 538.851 303.398 539.506 305.048 539.85L305.297 542.486H310.385L310.634 539.85C312.283 539.506 313.886 538.867 315.333 537.9L317.356 539.584L320.95 535.981L319.27 533.954C320.219 532.503 320.872 530.896 321.215 529.243L323.844 528.994V523.893L321.215 523.643C320.872 521.99 320.234 520.384 319.27 518.933L320.95 516.905L317.356 513.302L315.333 514.987C313.886 514.035 312.283 513.38 310.634 513.037L310.385 510.401H305.297L305.048 513.037C303.398 513.38 301.796 514.02 300.349 514.987L298.326 513.302L294.732 516.905L296.412 518.933ZM312.532 521.756C315.115 524.345 315.115 528.541 312.532 531.13C309.949 533.72 305.764 533.72 303.181 531.13C300.598 528.541 300.598 524.345 303.181 521.756C305.764 519.167 309.949 519.167 312.532 521.756Z" fill="#FF8906"/>
<path opacity="0.7" d="M296.412 518.933C295.463 520.384 294.809 521.99 294.467 523.643L291.837 523.893V528.994L294.467 529.243C294.809 530.896 295.447 532.503 296.412 533.954L294.732 535.981L298.326 539.584L300.349 537.9C301.796 538.851 303.398 539.506 305.048 539.85L305.297 542.486H310.385L310.634 539.85C312.283 539.506 313.886 538.867 315.333 537.9L317.356 539.584L320.95 535.981L319.27 533.954C320.219 532.503 320.872 530.896 321.215 529.243L323.844 528.994V523.893L321.215 523.643C320.872 521.99 320.234 520.384 319.27 518.933L320.95 516.905L317.356 513.302L315.333 514.987C313.886 514.035 312.283 513.38 310.634 513.037L310.385 510.401H305.297L305.048 513.037C303.398 513.38 301.796 514.02 300.349 514.987L298.326 513.302L294.732 516.905L296.412 518.933ZM312.532 521.756C315.115 524.345 315.115 528.541 312.532 531.13C309.949 533.72 305.764 533.72 303.181 531.13C300.598 528.541 300.598 524.345 303.181 521.756C305.764 519.167 309.949 519.167 312.532 521.756Z" fill="white"/>
<path opacity="0.75" d="M331.422 371.876C324.529 382.405 319.892 393.963 317.418 405.895L298.466 407.689V444.469L317.418 446.263C319.892 458.179 324.529 469.753 331.422 480.281L319.316 494.928L345.27 520.945L359.881 508.81C370.384 515.72 381.914 520.368 393.818 522.848L395.607 541.846H432.297L434.087 522.848C445.99 520.368 457.52 515.72 468.023 508.81L482.634 520.945L508.588 494.928L496.482 480.281C503.376 469.753 508.012 458.195 510.486 446.263L529.439 444.469V407.689L510.486 405.895C508.012 393.979 503.376 382.405 496.482 371.876L508.588 357.23L482.634 331.213L468.023 343.348C457.52 336.438 445.99 331.79 434.087 329.31L432.297 310.312H395.607L393.818 329.31C381.93 331.79 370.384 336.438 359.881 343.348L345.27 331.213L319.316 357.23L331.422 371.876ZM456.089 383.824C479.351 407.143 479.351 444.968 456.089 468.287C432.811 491.605 395.094 491.605 371.831 468.287C348.569 444.968 348.569 407.143 371.831 383.824C395.094 360.506 432.827 360.506 456.089 383.824Z" fill="url(#paint1_linear_1_816)"/>
<path d="M396.401 431.32H383.159L380.638 437.45H373.885L386.582 408.875H393.102L405.845 437.45H398.921L396.401 431.32ZM394.331 426.297L389.819 415.363L385.306 426.297H394.347H394.331Z" fill="#FF8906"/>
<path d="M427.738 410.138C429.606 410.98 431.037 412.181 432.033 413.725C433.029 415.27 433.542 417.11 433.542 419.231C433.542 421.353 433.044 423.162 432.033 424.722C431.022 426.282 429.59 427.483 427.738 428.309C425.887 429.136 423.693 429.557 421.157 429.557H415.415V437.434H408.817V408.859H421.157C423.677 408.859 425.871 409.28 427.738 410.122V410.138ZM425.311 422.897C426.338 422.039 426.851 420.822 426.851 419.247C426.851 417.672 426.338 416.408 425.311 415.55C424.284 414.693 422.775 414.271 420.799 414.271H415.415V424.192H420.799C422.775 424.192 424.284 423.77 425.311 422.913V422.897Z" fill="#FF8906"/>
<path d="M438.226 408.875H444.823V437.45H438.226V408.875Z" fill="#FF8906"/>
<path d="M359.881 433.628C359.492 433.628 359.15 433.332 359.103 432.926C357.454 416.627 362.184 401.013 372.438 388.972C372.718 388.644 373.216 388.613 373.527 388.878C373.854 389.159 373.885 389.642 373.621 389.97C363.647 401.684 359.025 416.876 360.644 432.739C360.69 433.16 360.379 433.55 359.943 433.597C359.912 433.597 359.897 433.597 359.866 433.597L359.881 433.628Z" fill="#FF8906"/>
<path d="M362.511 445.951C362.169 445.951 361.857 445.732 361.764 445.389C361.126 443.221 360.613 440.99 360.208 438.776C360.13 438.354 360.41 437.949 360.83 437.871C361.251 437.793 361.655 438.074 361.733 438.495C362.122 440.663 362.635 442.831 363.242 444.952C363.367 445.358 363.133 445.795 362.713 445.919C362.635 445.935 362.573 445.951 362.495 445.951H362.511Z" fill="#FF8906"/>
<path d="M220.681 344.596V422.679H287.2" stroke="#FF8906" stroke-linecap="round" stroke-linejoin="round"/>
<path d="M220.681 348.589C222.881 348.589 224.665 346.801 224.665 344.596C224.665 342.391 222.881 340.603 220.681 340.603C218.482 340.603 216.698 342.391 216.698 344.596C216.698 346.801 218.482 348.589 220.681 348.589Z" fill="#FF8906"/>
<path d="M626.595 488.377C628.795 488.377 630.579 486.589 630.579 484.384C630.579 482.178 628.795 480.391 626.595 480.391C624.395 480.391 622.612 482.178 622.612 484.384C622.612 486.589 624.395 488.377 626.595 488.377Z" fill="#FF8906"/>
<path d="M626.595 483.807V514.768H529.158V472.015H514.563" stroke="#FF8906" stroke-miterlimit="10"/>
<path d="M750.577 526.451H581.144V689.355H750.577V526.451Z" fill="#B6A6D2"/>
<path opacity="0.4" d="M750.577 526.451H581.144V689.355H750.577V526.451Z" fill="white"/>
<path opacity="0.4" d="M750.562 526.451H635.075V689.355H750.562V526.451Z" fill="white"/>
<path d="M744.789 534.78H640.848V554.948H744.789V534.78Z" fill="#B6A6D2"/>
<path d="M744.789 560.002H640.848V580.17H744.789V560.002Z" fill="#B6A6D2"/>
<path d="M744.789 585.208H640.848V605.376H744.789V585.208Z" fill="#B6A6D2"/>
<path d="M744.789 610.43H640.848V630.598H744.789V610.43Z" fill="#B6A6D2"/>
<path d="M744.789 635.652H640.848V655.82H744.789V635.652Z" fill="#B6A6D2"/>
<path d="M744.789 660.873H640.848V681.041H744.789V660.873Z" fill="#B6A6D2"/>
<path d="M629.038 534.78H587.197V554.948H629.038V534.78Z" fill="#B6A6D2"/>
<path d="M629.038 560.002H587.197V580.17H629.038V560.002Z" fill="#B6A6D2"/>
<path d="M629.038 585.208H587.197V605.376H629.038V585.208Z" fill="#B6A6D2"/>
<path d="M629.038 610.43H587.197V630.598H629.038V610.43Z" fill="#B6A6D2"/>
<path d="M629.038 635.652H587.197V655.82H629.038V635.652Z" fill="#B6A6D2"/>
<path d="M629.038 660.873H587.197V681.041H629.038V660.873Z" fill="#B6A6D2"/>
<path opacity="0.3" d="M739.701 537.401H737.273V552.328H739.701V537.401Z" fill="white"/>
<path opacity="0.3" d="M735.033 537.401H732.605V552.328H735.033V537.401Z" fill="white"/>
<path opacity="0.3" d="M730.365 537.401H727.937V552.328H730.365V537.401Z" fill="white"/>
<path opacity="0.3" d="M725.697 537.401H723.269V552.328H725.697V537.401Z" fill="white"/>
<path opacity="0.3" d="M721.029 537.401H718.601V552.328H721.029V537.401Z" fill="white"/>
<path opacity="0.3" d="M739.701 562.622H737.273V577.534H739.701V562.622Z" fill="white"/>
<path opacity="0.3" d="M735.033 562.622H732.605V577.534H735.033V562.622Z" fill="white"/>
<path opacity="0.3" d="M730.365 562.622H727.937V577.534H730.365V562.622Z" fill="white"/>
<path opacity="0.3" d="M725.697 562.622H723.269V577.534H725.697V562.622Z" fill="white"/>
<path opacity="0.3" d="M721.029 562.622H718.601V577.534H721.029V562.622Z" fill="white"/>
<path opacity="0.3" d="M739.701 587.844H737.273V602.756H739.701V587.844Z" fill="white"/>
<path opacity="0.3" d="M735.033 587.844H732.605V602.756H735.033V587.844Z" fill="white"/>
<path opacity="0.3" d="M730.365 587.844H727.937V602.756H730.365V587.844Z" fill="white"/>
<path opacity="0.3" d="M725.697 587.844H723.269V602.756H725.697V587.844Z" fill="white"/>
<path opacity="0.3" d="M721.029 587.844H718.601V602.756H721.029V587.844Z" fill="white"/>
<path opacity="0.3" d="M739.701 613.066H737.273V627.993H739.701V613.066Z" fill="white"/>
<path opacity="0.3" d="M735.033 613.066H732.605V627.993H735.033V613.066Z" fill="white"/>
<path opacity="0.3" d="M730.365 613.066H727.937V627.993H730.365V613.066Z" fill="white"/>
<path opacity="0.3" d="M725.697 613.066H723.269V627.993H725.697V613.066Z" fill="white"/>
<path opacity="0.3" d="M721.029 613.066H718.601V627.993H721.029V613.066Z" fill="white"/>
<path opacity="0.3" d="M739.701 638.288H737.273V653.199H739.701V638.288Z" fill="white"/>
<path opacity="0.3" d="M735.033 638.288H732.605V653.199H735.033V638.288Z" fill="white"/>
<path opacity="0.3" d="M730.365 638.288H727.937V653.199H730.365V638.288Z" fill="white"/>
<path opacity="0.3" d="M725.697 638.288H723.269V653.199H725.697V638.288Z" fill="white"/>
<path opacity="0.3" d="M721.029 638.288H718.601V653.199H721.029V638.288Z" fill="white"/>
<path opacity="0.3" d="M739.701 663.494H737.273V678.421H739.701V663.494Z" fill="white"/>
<path opacity="0.3" d="M735.033 663.494H732.605V678.421H735.033V663.494Z" fill="white"/>
<path opacity="0.3" d="M730.365 663.494H727.937V678.421H730.365V663.494Z" fill="white"/>
<path opacity="0.3" d="M725.697 663.494H723.269V678.421H725.697V663.494Z" fill="white"/>
<path opacity="0.3" d="M721.029 663.494H718.601V678.421H721.029V663.494Z" fill="white"/>
<path opacity="0.2" d="M652.938 544.857C652.938 546.229 651.834 547.337 650.464 547.337C649.095 547.337 647.99 546.229 647.99 544.857C647.99 543.484 649.095 542.376 650.464 542.376C651.834 542.376 652.938 543.484 652.938 544.857Z" fill="white"/>
<path opacity="0.2" d="M668.498 544.857C668.498 546.229 667.394 547.337 666.024 547.337C664.655 547.337 663.55 546.229 663.55 544.857C663.55 543.484 664.655 542.376 666.024 542.376C667.394 542.376 668.498 543.484 668.498 544.857Z" fill="white"/>
<path opacity="0.4" d="M684.058 544.857C684.058 546.229 682.954 547.337 681.584 547.337C680.215 547.337 679.11 546.229 679.11 544.857C679.11 543.484 680.215 542.376 681.584 542.376C682.954 542.376 684.058 543.484 684.058 544.857Z" fill="white"/>
<path opacity="0.4" d="M652.938 570.078C652.938 571.451 651.834 572.558 650.464 572.558C649.095 572.558 647.99 571.451 647.99 570.078C647.99 568.706 649.095 567.598 650.464 567.598C651.834 567.598 652.938 568.706 652.938 570.078Z" fill="white"/>
<path opacity="0.2" d="M668.498 570.078C668.498 571.451 667.394 572.558 666.024 572.558C664.655 572.558 663.55 571.451 663.55 570.078C663.55 568.706 664.655 567.598 666.024 567.598C667.394 567.598 668.498 568.706 668.498 570.078Z" fill="white"/>
<path opacity="0.4" d="M684.058 570.078C684.058 571.451 682.954 572.558 681.584 572.558C680.215 572.558 679.11 571.451 679.11 570.078C679.11 568.706 680.215 567.598 681.584 567.598C682.954 567.598 684.058 568.706 684.058 570.078Z" fill="white"/>
<path opacity="0.2" d="M652.938 595.3C652.938 596.673 651.834 597.78 650.464 597.78C649.095 597.78 647.99 596.673 647.99 595.3C647.99 593.927 649.095 592.82 650.464 592.82C651.834 592.82 652.938 593.927 652.938 595.3Z" fill="white"/>
<path opacity="0.4" d="M668.498 595.3C668.498 596.673 667.394 597.78 666.024 597.78C664.655 597.78 663.55 596.673 663.55 595.3C663.55 593.927 664.655 592.82 666.024 592.82C667.394 592.82 668.498 593.927 668.498 595.3Z" fill="white"/>
<path opacity="0.2" d="M684.058 595.3C684.058 596.673 682.954 597.78 681.584 597.78C680.215 597.78 679.11 596.673 679.11 595.3C679.11 593.927 680.215 592.82 681.584 592.82C682.954 592.82 684.058 593.927 684.058 595.3Z" fill="white"/>
<path opacity="0.4" d="M652.938 620.522C652.938 621.894 651.834 623.002 650.464 623.002C649.095 623.002 647.99 621.894 647.99 620.522C647.99 619.149 649.095 618.042 650.464 618.042C651.834 618.042 652.938 619.149 652.938 620.522Z" fill="white"/>
<path opacity="0.2" d="M668.498 620.522C668.498 621.894 667.394 623.002 666.024 623.002C664.655 623.002 663.55 621.894 663.55 620.522C663.55 619.149 664.655 618.042 666.024 618.042C667.394 618.042 668.498 619.149 668.498 620.522Z" fill="white"/>
<path opacity="0.2" d="M684.058 620.522C684.058 621.894 682.954 623.002 681.584 623.002C680.215 623.002 679.11 621.894 679.11 620.522C679.11 619.149 680.215 618.042 681.584 618.042C682.954 618.042 684.058 619.149 684.058 620.522Z" fill="white"/>
<path opacity="0.2" d="M652.938 645.743C652.938 647.116 651.834 648.223 650.464 648.223C649.095 648.223 647.99 647.116 647.99 645.743C647.99 644.371 649.095 643.263 650.464 643.263C651.834 643.263 652.938 644.371 652.938 645.743Z" fill="white"/>
<path opacity="0.4" d="M668.498 645.743C668.498 647.116 667.394 648.223 666.024 648.223C664.655 648.223 663.55 647.116 663.55 645.743C663.55 644.371 664.655 643.263 666.024 643.263C667.394 643.263 668.498 644.371 668.498 645.743Z" fill="white"/>
<path opacity="0.4" d="M684.058 645.743C684.058 647.116 682.954 648.223 681.584 648.223C680.215 648.223 679.11 647.116 679.11 645.743C679.11 644.371 680.215 643.263 681.584 643.263C682.954 643.263 684.058 644.371 684.058 645.743Z" fill="white"/>
<path opacity="0.4" d="M652.938 670.965C652.938 672.338 651.834 673.445 650.464 673.445C649.095 673.445 647.99 672.338 647.99 670.965C647.99 669.592 649.095 668.485 650.464 668.485C651.834 668.485 652.938 669.592 652.938 670.965Z" fill="white"/>
<path opacity="0.2" d="M668.498 670.965C668.498 672.338 667.394 673.445 666.024 673.445C664.655 673.445 663.55 672.338 663.55 670.965C663.55 669.592 664.655 668.485 666.024 668.485C667.394 668.485 668.498 669.592 668.498 670.965Z" fill="white"/>
<path opacity="0.4" d="M684.058 670.965C684.058 672.338 682.954 673.445 681.584 673.445C680.215 673.445 679.11 672.338 679.11 670.965C679.11 669.592 680.215 668.485 681.584 668.485C682.954 668.485 684.058 669.592 684.058 670.965Z" fill="white"/>
<path opacity="0.3" d="M635.075 526.451H581.144V689.355H635.075V526.451Z" fill="black"/>
<path d="M736.993 323.476H579.526C575.281 323.476 571.84 326.926 571.84 331.182V461.455C571.84 465.71 575.281 469.16 579.526 469.16H736.993C741.239 469.16 744.68 465.71 744.68 461.455V331.182C744.68 326.926 741.239 323.476 736.993 323.476Z" fill="url(#paint2_linear_1_816)" fill-opacity="0.5"/>
<path opacity="0.5" d="M736.993 323.476H579.526C575.281 323.476 571.84 326.926 571.84 331.182V461.455C571.84 465.71 575.281 469.16 579.526 469.16H736.993C741.239 469.16 744.68 465.71 744.68 461.455V331.182C744.68 326.926 741.239 323.476 736.993 323.476Z" fill="white"/>
<path d="M579.043 323.476H737.615C741.521 323.476 744.695 326.658 744.695 330.573V348.885H571.855V330.698C571.855 326.721 575.076 323.476 579.059 323.476H579.043Z" fill="url(#paint3_linear_1_816)" fill-opacity="0.5"/>
<path opacity="0.5" d="M734.908 338.029C734.908 341.086 732.434 343.582 729.369 343.582C726.304 343.582 723.83 341.102 723.83 338.029C723.83 334.956 726.304 332.476 729.369 332.476C732.434 332.476 734.908 334.956 734.908 338.029Z" fill="white"/>
<path opacity="0.5" d="M719.193 338.029C719.193 341.086 716.719 343.582 713.653 343.582C710.588 343.582 708.114 341.102 708.114 338.029C708.114 334.956 710.588 332.476 713.653 332.476C716.719 332.476 719.193 334.956 719.193 338.029Z" fill="white"/>
<path opacity="0.5" d="M703.462 338.029C703.462 341.086 700.988 343.582 697.922 343.582C694.857 343.582 692.383 341.102 692.383 338.029C692.383 334.956 694.857 332.476 697.922 332.476C700.988 332.476 703.462 334.956 703.462 338.029Z" fill="white"/>
<path opacity="0.6" d="M699.385 370.114H610.74V375.292H699.385V370.114Z" fill="white"/>
<path opacity="0.6" d="M675.547 381.313H612.109V386.492H675.547V381.313Z" fill="#263238"/>
<path d="M723.347 370.114H705.905V375.292H723.347V370.114Z" fill="url(#paint4_linear_1_816)" fill-opacity="0.5"/>
<path d="M604.578 370.114H587.135V375.292H604.578V370.114Z" fill="url(#paint5_linear_1_816)" fill-opacity="0.5"/>
<path d="M699.385 393.745H610.74V398.923H699.385V393.745Z" fill="url(#paint6_linear_1_816)" fill-opacity="0.5"/>
<path opacity="0.6" d="M723.347 393.745H705.905V398.923H723.347V393.745Z" fill="white"/>
<path d="M604.578 393.745H587.135V398.923H604.578V393.745Z" fill="url(#paint7_linear_1_816)" fill-opacity="0.5"/>
<path d="M699.385 442.971H610.74V448.15H699.385V442.971Z" fill="url(#paint8_linear_1_816)" fill-opacity="0.5"/>
<path opacity="0.6" d="M723.347 442.971H705.905V448.15H723.347V442.971Z" fill="white"/>
<path d="M699.385 406.192H610.74V411.37H699.385V406.192Z" fill="url(#paint9_linear_1_816)" fill-opacity="0.5"/>
<path opacity="0.6" d="M723.347 406.192H705.905V411.37H723.347V406.192Z" fill="#263238"/>
<path opacity="0.6" d="M604.578 406.192H587.135V411.37H604.578V406.192Z" fill="#263238"/>
<path d="M724.623 381.516H682.487V386.694H724.623V381.516Z" fill="url(#paint10_linear_1_816)" fill-opacity="0.5"/>
<path opacity="0.6" d="M674.178 417.048H610.74V422.226H674.178V417.048Z" fill="white"/>
<path d="M723.238 417.251H681.102V422.429H723.238V417.251Z" fill="url(#paint11_linear_1_816)" fill-opacity="0.5"/>
<path opacity="0.6" d="M642.451 428.294H610.74V433.472H642.451V428.294Z" fill="#263238"/>
<path d="M268.155 174.345H110.688C106.443 174.345 103.001 177.795 103.001 182.051V312.324C103.001 316.579 106.443 320.029 110.688 320.029H268.155C272.4 320.029 275.842 316.579 275.842 312.324V182.051C275.842 177.795 272.4 174.345 268.155 174.345Z" fill="url(#paint12_linear_1_816)" fill-opacity="0.5"/>
<path opacity="0.5" d="M268.155 174.345H110.688C106.443 174.345 103.001 177.795 103.001 182.051V312.324C103.001 316.579 106.443 320.029 110.688 320.029H268.155C272.4 320.029 275.842 316.579 275.842 312.324V182.051C275.842 177.795 272.4 174.345 268.155 174.345Z" fill="white"/>
<path d="M110.19 174.345H268.762C272.667 174.345 275.842 177.527 275.842 181.442V199.754H103.001V181.567C103.001 177.59 106.222 174.345 110.205 174.345H110.19Z" fill="url(#paint13_linear_1_816)" fill-opacity="0.5"/>
<path opacity="0.5" d="M266.07 188.914C266.07 191.971 263.596 194.467 260.531 194.467C257.465 194.467 254.991 191.987 254.991 188.914C254.991 185.841 257.465 183.361 260.531 183.361C263.596 183.361 266.07 185.841 266.07 188.914Z" fill="white"/>
<path opacity="0.5" d="M250.354 188.914C250.354 191.971 247.88 194.467 244.815 194.467C241.75 194.467 239.276 191.987 239.276 188.914C239.276 185.841 241.75 183.361 244.815 183.361C247.88 183.361 250.354 185.841 250.354 188.914Z" fill="white"/>
<path opacity="0.5" d="M234.623 188.914C234.623 191.971 232.149 194.467 229.084 194.467C226.019 194.467 223.545 191.987 223.545 188.914C223.545 185.841 226.019 183.361 229.084 183.361C232.149 183.361 234.623 185.841 234.623 188.914Z" fill="white"/>
<path d="M243.881 255.563C238.14 247.858 226.408 244.099 218.581 249.652C216.651 238.624 208.685 228.844 198.275 224.758C187.865 220.671 175.386 222.418 166.502 229.203C157.601 235.988 152.606 247.577 153.773 258.73C146.227 257.014 137.918 258.823 133.001 266.653C126.637 276.808 134.884 286.868 134.884 286.868L179.23 287.118V270.818H173.566C172.554 270.818 172.041 269.617 172.741 268.884L179.276 262.052L186.823 254.144C187.274 253.676 188.021 253.676 188.472 254.144L196.019 262.052L202.554 268.884C203.254 269.617 202.741 270.818 201.729 270.818H196.066V287.211L243.259 287.477C249.981 279.724 249.639 263.269 243.897 255.563H243.881Z" fill="white"/>
<path d="M272.838 584.067L311.623 545.711L242.449 427.278C235.25 419.04 226.124 412.706 215.891 408.809L191.526 399.552L130.968 388.435L87.9744 405.354C77.0988 409.628 70.4759 420.701 71.8714 432.305L83.1236 526.976L89.7465 650.237L245.993 623.131L230.266 577.534L230.798 506.448L272.838 584.022V584.067Z" fill="#7454AE"/>
<path d="M231.706 574.544C232.061 574.544 232.171 549.919 231.928 519.557C231.684 489.174 231.175 464.571 230.82 464.571C230.466 464.571 230.355 489.196 230.599 519.58C230.842 549.941 231.352 574.566 231.706 574.566V574.544Z" fill="#263238"/>
<path d="M225.991 592.615L131.566 554.614C123.946 551.557 118.741 544.427 118.121 536.255L111.21 445.747C111.21 445.747 112.03 407.259 87.9746 405.376L74.2859 410.758C56.6102 420.147 52.2245 445.88 54.6389 465.745C58.05 493.98 59.4897 533.93 63.2995 558.445C66.4227 578.486 78.4723 594.342 97.5434 601.296L213.831 626.475L225.969 592.615H225.991Z" fill="#7454AE"/>
<path d="M112.561 459.566C112.561 459.566 112.716 460.275 112.849 461.648C113.004 463.131 113.204 465.102 113.447 467.605C113.935 472.92 114.599 480.383 115.441 489.551C116.238 498.852 117.191 509.88 118.232 522.104C118.497 525.16 118.763 528.305 119.029 531.516C119.317 534.727 119.494 538.005 120.225 541.193C120.912 544.404 122.462 547.394 124.921 549.675C127.38 551.956 130.436 553.639 133.626 555.101C159.652 566.373 183.663 575.674 201.073 582.184C209.711 585.373 216.755 587.964 221.761 589.802C224.109 590.666 225.991 591.353 227.387 591.884C228.672 592.371 229.336 592.637 229.314 592.681C229.314 592.725 228.605 592.526 227.298 592.128C225.881 591.663 223.998 591.042 221.606 590.267C216.666 588.629 209.534 586.171 200.785 583.026C183.264 576.714 159.231 567.546 133.116 556.252C129.86 554.769 126.671 553.041 124.057 550.605C121.421 548.169 119.716 544.825 119.029 541.504C118.276 538.16 118.099 534.838 117.833 531.649C117.567 528.438 117.323 525.293 117.08 522.237C116.127 509.991 115.264 498.962 114.555 489.639C113.89 480.449 113.337 472.964 112.96 467.649C112.805 465.147 112.672 463.154 112.583 461.67C112.517 460.297 112.495 459.588 112.539 459.588L112.561 459.566Z" fill="#263238"/>
<path d="M58.4707 508.751C58.4707 508.751 58.5815 509.171 58.6479 509.969C58.7365 510.921 58.8251 512.072 58.958 513.468C59.246 516.701 59.6226 521.041 60.0877 526.312C60.5972 531.737 61.2617 538.182 62.192 545.29C63.1666 552.399 64.3184 560.238 66.4448 568.211C67.4637 572.241 68.8813 575.939 71.052 579.15C73.2227 582.362 75.6148 585.263 78.0957 587.809C83.0794 592.903 88.4176 596.667 93.202 599.148C102.859 604.175 109.881 604.241 109.792 604.573C109.792 604.618 109.371 604.595 108.574 604.551C107.777 604.485 106.581 604.396 105.074 604.108C102.062 603.577 97.7427 602.403 92.8033 599.945C87.886 597.531 82.3928 593.788 77.2761 588.629C74.7289 586.038 72.248 583.114 70.033 579.837C67.7737 576.559 66.2454 572.573 65.2265 568.543C63.0558 560.46 61.9483 552.576 61.018 545.423C60.132 538.27 59.5783 531.804 59.1574 526.356C58.7587 520.931 58.5594 516.524 58.4265 513.468C58.4043 512.072 58.3822 510.899 58.36 509.969C58.36 509.171 58.3822 508.751 58.4265 508.751H58.4707Z" fill="#263238"/>
<path d="M98.8503 572.086C98.7174 572.042 99.1161 570.027 100.578 567.059C102.018 564.092 104.654 560.261 108.508 556.939C112.384 553.661 116.57 551.646 119.738 550.694C122.905 549.742 124.965 549.653 124.965 549.786C125.01 550.007 123.016 550.384 120.026 551.535C117.035 552.665 113.048 554.724 109.327 557.891C105.606 561.08 102.97 564.667 101.375 567.458C99.7806 570.248 99.0718 572.13 98.8725 572.064L98.8503 572.086Z" fill="#263238"/>
<g opacity="0.3">
<path d="M198.858 581.83C188.757 576.139 178.878 571.754 168.335 566.948C157.769 562.143 147.447 555.986 140.537 546.685C127.512 529.124 128.997 503.79 115.662 486.45C116.526 498.099 117.412 509.747 118.276 521.396C119.073 532.07 117.434 542.633 124.323 549.897C130.126 556.009 141.423 560.703 149.419 563.339C165.5 568.631 182.799 576.515 198.88 581.83" fill="black"/>
</g>
<g opacity="0.3">
<path d="M230.82 471.237L238.993 521.595L231.263 507.333L230.82 471.237Z" fill="black"/>
</g>
<path d="M112.849 448.272C112.65 448.316 112.362 445.083 110.59 440.233C108.862 435.428 105.363 429.005 99.5373 423.757C93.6897 418.509 86.956 415.718 81.9723 414.523C76.9664 413.282 73.7325 413.349 73.7325 413.15C73.7325 413.083 74.5299 413.017 75.9918 413.061C77.4537 413.105 79.558 413.305 82.1274 413.836C87.2219 414.877 94.1991 417.645 100.202 423.026C106.204 428.408 109.682 435.051 111.255 440.012C112.074 442.492 112.495 444.574 112.672 446.035C112.872 447.475 112.894 448.294 112.827 448.294L112.849 448.272Z" fill="#263238"/>
<path d="M225.349 422.583C225.615 422.539 227.121 430.423 228.671 440.189C230.244 449.955 231.285 457.905 230.997 457.949C230.731 457.994 229.225 450.11 227.675 440.344C226.102 430.578 225.061 422.628 225.349 422.583Z" fill="#263238"/>
<path d="M330.561 706.397C330.561 706.397 403.125 726.483 406.049 727.502C410.412 729.03 409.681 745.063 402.881 744.797C399.67 744.686 347.13 746.746 340.507 746.347C333.862 745.927 313.838 738.043 313.838 738.043L330.561 706.397Z" fill="#756A89"/>
<path d="M360.796 734.079C361.15 734.123 361.66 730.292 363.986 726.284C366.267 722.253 369.346 719.906 369.124 719.596C368.992 719.308 365.403 721.367 362.945 725.664C360.442 729.938 360.486 734.079 360.796 734.057V734.079Z" fill="#263238"/>
<path d="M353.243 730.646C353.597 730.713 354.328 727.28 356.255 723.493C358.16 719.684 360.464 717.049 360.198 716.806C359.999 716.562 357.163 718.931 355.17 722.94C353.132 726.926 352.933 730.624 353.243 730.646Z" fill="#263238"/>
<path d="M346.133 728.742C346.509 728.72 346.221 725.088 347.838 721.079C349.389 717.027 352.047 714.569 351.781 714.303C351.626 714.037 348.392 716.274 346.709 720.637C344.981 724.999 345.845 728.852 346.133 728.742Z" fill="#263238"/>
<path d="M347.418 719.374C347.551 719.396 348.193 717.381 348.193 713.971C348.193 712.266 347.994 710.25 347.462 708.058C347.196 706.973 346.842 705.821 346.377 704.692C346.133 704.116 345.867 703.452 345.225 702.92C344.538 702.322 343.32 702.433 342.722 703.053C342.057 703.629 341.836 704.448 341.747 705.113C341.681 705.777 341.637 706.397 341.659 707.039C341.659 708.28 341.836 709.475 342.102 710.583C342.633 712.797 343.497 714.657 344.339 716.119C346.022 719.064 347.506 720.57 347.595 720.482C347.75 720.371 346.554 718.666 345.092 715.72C344.383 714.237 343.63 712.421 343.187 710.317C342.966 709.276 342.833 708.147 342.833 706.995C342.855 705.888 342.833 704.493 343.497 703.961C343.851 703.673 344.162 703.651 344.45 703.873C344.76 704.116 345.048 704.603 345.247 705.135C345.69 706.22 346.067 707.283 346.354 708.346C346.93 710.428 347.196 712.376 347.307 714.015C347.528 717.293 347.196 719.352 347.396 719.374H347.418Z" fill="#263238"/>
<path d="M347.329 718.644C347.373 718.511 345.601 717.913 342.655 717.891C341.171 717.891 339.421 718.046 337.516 718.511C336.586 718.754 335.567 718.998 334.548 719.596C333.552 720.105 332.511 721.478 332.909 722.918C333.219 724.268 334.371 725.221 335.523 725.509C336.675 725.841 337.804 725.708 338.779 725.509C340.773 725.043 342.323 724.069 343.497 723.183C345.823 721.367 346.952 719.972 346.864 719.862C346.731 719.707 345.358 720.902 342.988 722.475C341.791 723.228 340.307 724.047 338.535 724.401C337.649 724.578 336.697 724.623 335.833 724.357C334.969 724.113 334.26 723.471 334.061 722.63C333.862 721.81 334.349 721.08 335.146 720.614C335.922 720.127 336.896 719.862 337.782 719.596C339.576 719.086 341.26 718.843 342.677 718.732C345.513 718.533 347.307 718.821 347.329 718.621V718.644Z" fill="#263238"/>
<path d="M371.96 734.854C372.314 734.81 371.96 731.709 373.4 728.321C374.751 724.888 377.187 722.918 376.944 722.652C376.833 722.364 373.798 724.069 372.27 727.878C370.697 731.665 371.672 735.009 371.96 734.876V734.854Z" fill="#263238"/>
<path d="M321.325 738.22C321.325 738.22 322.3 738.751 324.138 739.549C325.999 740.257 328.723 741.232 332.223 742.051C339.156 743.801 349.057 744.797 359.933 744.686C370.808 744.576 380.599 744.066 387.709 743.778C391.076 743.601 393.889 743.446 396.126 743.335C398.119 743.203 399.205 743.092 399.205 743.003C399.205 742.915 398.097 742.87 396.104 742.87C393.866 742.87 391.053 742.915 387.687 742.937C380.333 743.07 370.653 743.269 359.933 743.49C349.101 743.601 339.333 742.76 332.422 741.232C325.489 739.814 321.436 738.021 321.347 738.242L321.325 738.22Z" fill="#263238"/>
<path d="M319.176 739.859C319.265 740.036 321.258 738.862 324.603 737.401C327.926 735.983 332.887 734.278 338.336 735.12C343.807 735.961 347.683 739.637 350.209 742.184C352.756 744.819 354.24 746.569 354.395 746.458C354.506 746.369 353.265 744.443 350.851 741.608C349.633 740.213 348.082 738.574 346.044 737.113C344.029 735.629 341.437 734.389 338.558 733.946C332.71 733.06 327.549 735.009 324.271 736.648C320.948 738.353 319.132 739.77 319.199 739.881L319.176 739.859Z" fill="#263238"/>
<path d="M244.686 689.567C244.686 689.567 176.021 734.522 173.563 736.382C169.863 739.172 174.116 752.482 180.518 750.178C183.552 749.093 241.164 733.06 247.366 730.646C253.568 728.232 270.247 714.635 270.247 714.635L244.708 689.567H244.686Z" fill="#756A89"/>
<path d="M224.286 725.11C224.596 725.044 223.378 721.079 219.701 717.758C216.046 714.392 211.993 713.55 211.971 713.86C211.838 714.214 215.493 715.521 218.882 718.666C222.337 721.766 223.954 725.265 224.286 725.11Z" fill="#263238"/>
<path d="M230.444 719.551C230.732 719.441 229.403 715.986 226.257 712.797C223.134 709.586 219.701 708.191 219.59 708.479C219.413 708.789 222.425 710.605 225.394 713.661C228.384 716.695 230.134 719.729 230.444 719.574V719.551Z" fill="#263238"/>
<path d="M236.646 715.587C236.956 715.587 236.624 711.668 233.634 708.036C230.71 704.382 226.922 703.23 226.856 703.541C226.701 703.873 229.979 705.423 232.681 708.811C235.428 712.155 236.269 715.698 236.624 715.61L236.646 715.587Z" fill="#263238"/>
<path d="M232.57 707.039C232.747 706.951 231.817 705.091 231.02 701.902C230.621 700.307 230.311 698.381 230.222 696.21C230.178 695.125 230.2 693.996 230.289 692.822C230.333 692.268 230.422 691.693 230.665 691.383C230.887 691.073 231.197 691.006 231.595 691.161C232.371 691.471 232.792 692.8 233.168 693.863C233.522 694.97 233.744 696.055 233.833 697.118C234.054 699.244 233.877 701.215 233.655 702.832C233.168 706.087 232.526 708.08 232.725 708.125C232.858 708.169 233.788 706.286 234.497 702.965C234.851 701.304 235.095 699.266 234.94 697.008C234.852 695.878 234.652 694.682 234.298 693.487C234.121 692.889 233.899 692.313 233.633 691.693C233.345 691.095 232.902 690.386 232.083 690.032C231.352 689.633 230.134 689.877 229.668 690.674C229.203 691.383 229.159 692.091 229.092 692.711C229.004 693.929 229.004 695.125 229.092 696.255C229.248 698.513 229.668 700.507 230.2 702.123C231.241 705.356 232.459 707.106 232.592 707.039H232.57Z" fill="#263238"/>
<path d="M232.437 706.309C232.526 706.486 234.143 705.666 236.889 705.002C238.262 704.67 239.946 704.382 241.806 704.338C242.737 704.338 243.733 704.293 244.619 704.515C245.528 704.714 246.214 705.29 246.259 706.109C246.325 706.973 245.838 707.815 245.107 708.28C244.376 708.789 243.446 709.033 242.56 709.143C240.765 709.343 239.104 709.033 237.731 708.656C235.006 707.881 233.323 707.15 233.256 707.327C233.212 707.46 234.718 708.435 237.487 709.475C238.883 709.963 240.655 710.428 242.692 710.251C243.689 710.162 244.797 709.918 245.793 709.276C246.79 708.656 247.61 707.394 247.499 706.021C247.432 704.537 246.037 703.54 244.93 703.363C243.778 703.098 242.737 703.186 241.762 703.23C239.791 703.363 238.063 703.74 236.668 704.183C233.855 705.113 232.371 706.198 232.437 706.331V706.309Z" fill="#263238"/>
<path d="M189.245 747.654C189.245 747.654 190.396 746.967 190.928 744.996C191.504 743.07 191.149 740.124 189.643 737.556C188.934 736.249 188.093 735.12 187.34 734.123C186.586 733.127 185.811 732.219 185.014 731.621C184.216 731.001 183.397 730.713 182.821 730.713C182.245 730.691 181.957 730.823 181.957 730.89C181.957 731.089 183.175 730.978 184.46 732.285C185.102 732.905 185.745 733.769 186.431 734.787C187.14 735.806 187.893 736.913 188.58 738.131C189.976 740.545 190.396 743.048 190.086 744.819C189.843 746.591 189.089 747.543 189.245 747.654Z" fill="#263238"/>
<path d="M213.898 729.229C214.208 729.251 214.119 725.774 211.483 722.652C208.87 719.507 205.458 718.776 205.436 719.109C205.303 719.441 208.205 720.592 210.553 723.449C212.945 726.262 213.543 729.318 213.898 729.251V729.229Z" fill="#263238"/>
<path d="M263.159 717.049C263.159 717.049 262.052 717.758 260.147 719.131C258.22 720.459 255.385 722.342 251.686 724.313C247.986 726.306 243.424 728.343 238.24 730.292C233.035 732.241 227.21 734.057 221.03 735.85C208.67 739.416 197.484 742.649 189.422 745.085C185.546 746.281 182.334 747.255 179.875 748.008C177.638 748.717 176.398 749.16 176.42 749.248C176.442 749.337 177.727 749.049 180.008 748.473C182.489 747.809 185.745 746.945 189.666 745.926C197.795 743.712 209.002 740.59 221.384 737.024C227.564 735.23 233.412 733.37 238.639 731.355C243.867 729.34 248.429 727.169 252.106 725.066C255.783 722.962 258.574 720.969 260.435 719.507C262.273 718.001 263.226 717.115 263.181 717.049H263.159Z" fill="#263238"/>
<path d="M265.707 717.979C265.751 717.846 263.58 717.049 259.881 716.429C256.249 715.853 250.756 715.565 245.439 718.201C242.804 719.507 240.722 721.478 239.26 723.515C237.776 725.531 236.779 727.546 236.048 729.273C234.608 732.706 234.01 734.92 234.143 734.987C234.32 735.053 235.206 732.927 236.823 729.65C238.462 726.461 241.032 721.788 245.993 719.33C250.933 716.872 256.182 716.983 259.771 717.337C263.403 717.713 265.662 718.223 265.707 718.023V717.979Z" fill="#263238"/>
<path d="M387.443 577.135C387.443 577.135 408.042 584.487 408.131 607.585C408.286 651.831 318.733 700.595 318.733 700.595L199.544 621.625L192.08 618.613C192.08 618.613 352.977 558.179 387.465 577.135H387.443Z" fill="#263238"/>
<path d="M259.903 661.509C259.903 661.509 261.055 660.822 263.004 659.405C264.953 657.988 267.744 655.884 271.155 653.248C277.978 647.978 287.259 640.493 297.248 631.923C307.238 623.352 316.031 615.291 322.278 609.357C325.401 606.389 327.904 603.953 329.587 602.226C331.293 600.521 332.201 599.546 332.134 599.48C332.068 599.413 331.049 600.277 329.255 601.894C327.306 603.643 324.759 605.946 321.68 608.736C315.3 614.516 306.418 622.444 296.451 631.015C286.483 639.563 277.291 647.136 270.602 652.584C267.39 655.197 264.732 657.39 262.694 659.028C260.834 660.556 259.837 661.442 259.881 661.509H259.903Z" fill="#455A64"/>
<path d="M353.797 593.678C353.842 593.39 348.526 592.858 342.302 594.719C336.077 596.534 331.891 599.856 332.09 600.078C332.29 600.388 336.631 597.62 342.656 595.892C348.659 594.098 353.797 594.054 353.797 593.678Z" fill="#455A64"/>
<path d="M343.519 586.702C343.409 586.414 339.599 588.097 336.454 592.017C333.286 595.914 332.444 599.989 332.755 600.033C333.109 600.144 334.394 596.446 337.406 592.77C340.352 589.072 343.719 587.012 343.519 586.702Z" fill="#455A64"/>
<path d="M393.999 726.771C394.066 726.638 392.582 726.35 390.92 727.701C389.304 729.007 387.908 731.599 387.465 734.61C387.022 737.666 387.687 740.457 388.55 742.228C389.392 744.044 390.322 744.886 390.433 744.797C390.588 744.686 389.946 743.69 389.348 741.896C388.75 740.147 388.263 737.556 388.661 734.765C389.06 731.975 390.212 729.583 391.474 728.321C392.737 726.992 393.999 726.948 393.977 726.749L393.999 726.771Z" fill="#263238"/>
<path d="M378.915 514.309L345.004 605.636C343.077 610.862 338.048 614.295 332.489 614.206L145.831 611.748V597.575L215.094 600.1L244.509 508.95C245.506 505.872 248.385 503.79 251.619 503.79L372.027 504.144C377.276 504.144 380.842 509.437 378.937 514.309H378.915Z" fill="#E0E0E0"/>
<path d="M378.915 514.309C378.915 514.309 378.915 514.22 379.004 514.021C379.048 513.822 379.181 513.556 379.225 513.18C379.402 512.427 379.535 511.231 379.159 509.747C378.76 508.308 377.808 506.514 375.881 505.34C374.928 504.764 373.776 504.344 372.492 504.277C371.207 504.211 369.811 504.277 368.35 504.255C356.588 504.255 339.488 504.211 318.113 504.189C307.415 504.189 295.631 504.144 282.917 504.122C276.56 504.122 269.959 504.1 263.137 504.078C259.726 504.078 256.27 504.078 252.749 504.056C250.977 503.967 249.271 504.189 247.787 505.141C246.325 506.071 245.196 507.51 244.708 509.193C235.826 536.764 225.947 567.413 215.382 600.188L215.315 600.41H215.094C193.01 599.591 169.73 598.749 145.831 597.885L146.141 597.575V611.748L145.853 611.438C187.605 611.992 227.254 612.523 263.226 613.011C281.211 613.254 298.289 613.498 314.259 613.719C318.246 613.763 322.167 613.83 326.021 613.874C327.948 613.896 329.853 613.919 331.736 613.963C333.618 614.051 335.457 613.808 337.162 613.166C340.573 611.903 343.342 609.202 344.649 605.968C345.889 602.647 347.108 599.413 348.282 596.224C357.74 570.868 365.381 550.384 370.675 536.211C373.311 529.168 375.371 523.677 376.767 519.934C378.162 516.214 378.937 514.287 378.937 514.287C378.937 514.287 378.251 516.258 376.877 519.978C375.504 523.721 373.488 529.213 370.875 536.277C365.625 550.472 358.05 570.979 348.658 596.357C347.484 599.524 346.266 602.779 345.026 606.101C343.697 609.445 340.839 612.258 337.295 613.564C335.545 614.229 333.596 614.472 331.713 614.384C329.831 614.361 327.926 614.339 325.999 614.317C322.145 614.273 318.224 614.229 314.237 614.162C298.267 613.963 281.211 613.741 263.203 613.52C227.232 613.055 187.583 612.545 145.831 611.992H145.543V611.682C145.543 608.006 145.543 604.02 145.543 600.033V597.199H145.853C169.753 598.085 193.032 598.948 215.116 599.745L214.828 599.945C225.416 567.17 235.317 536.521 244.221 508.972C244.753 507.178 245.971 505.606 247.521 504.632C249.072 503.613 251.021 503.369 252.749 503.48C256.27 503.48 259.726 503.502 263.137 503.524C269.959 503.546 276.56 503.569 282.917 503.591C295.631 503.635 307.415 503.679 318.113 503.724C339.488 503.812 356.566 503.901 368.35 503.945C369.811 503.945 371.207 503.945 372.514 503.989C373.821 504.078 375.017 504.499 375.969 505.097C377.918 506.315 378.893 508.131 379.27 509.614C379.624 511.12 379.491 512.316 379.292 513.091C379.092 513.844 378.937 514.22 378.937 514.22L378.915 514.309Z" fill="#263238"/>
<path d="M296.14 548.834C298.555 547.195 303.029 547.859 305.222 549.808C307.393 551.757 308.101 555.145 306.994 557.847C305.886 560.548 303.095 562.453 300.172 562.608C297.071 562.785 293.837 560.836 292.973 557.847C292.109 554.857 293.062 550.406 296.14 548.834Z" fill="white"/>
<path d="M338.824 705.556C338.824 705.556 170.616 597.819 163.174 593.611C156.861 590.024 139.961 579.615 123.282 584.2C106.625 588.806 91.6738 603.732 84.2092 625.567C79.9342 638.035 77.9186 659.316 76.9883 675.283C75.8586 694.372 81.7727 713.395 94.2431 727.878C99.9136 734.455 106.935 740.191 115.241 742.782C116.991 743.335 118.807 743.801 120.69 744.199C152.52 751.109 185.258 736.803 203.133 709.586L207.053 703.607C207.053 703.607 317.227 744.066 318.933 743.491L338.801 705.556H338.824Z" fill="#263238"/>
<path d="M171.857 599.568C171.857 599.568 171.702 599.502 171.436 599.325C171.126 599.103 170.727 598.838 170.262 598.528C169.243 597.819 167.715 596.756 165.722 595.471C161.735 592.925 155.82 589.293 147.846 586.392C143.859 584.975 139.341 583.823 134.401 583.557C129.462 583.358 124.124 584.089 118.919 586.082C113.713 588.031 108.641 591.131 104.056 595.095C101.752 597.066 99.5373 599.236 97.4552 601.584C95.3953 603.931 93.6011 606.566 91.9842 609.357C88.7946 614.959 86.4245 620.85 84.719 626.674C83.1242 632.543 81.8616 638.345 80.6655 643.815C78.2733 654.777 76.9664 664.83 76.7892 673.312C76.6563 681.794 77.4981 688.637 78.3176 693.309C78.6942 695.657 79.0929 697.45 79.3587 698.668C79.4694 699.244 79.558 699.687 79.6244 700.064C79.6909 700.374 79.6909 700.551 79.6909 700.551C79.6909 700.551 79.6245 700.396 79.5359 700.086C79.4473 699.709 79.3144 699.266 79.1593 698.713C78.8492 697.495 78.3619 695.701 77.9411 693.376C77.0108 688.703 76.0362 681.838 76.0805 673.29C76.1691 664.742 77.4094 654.622 79.7573 643.593C80.9534 638.079 82.1939 632.321 83.7887 626.364C85.4942 620.451 87.8643 614.494 91.1203 608.803C92.7373 605.968 94.5979 603.289 96.7021 600.875C98.8285 598.483 101.066 596.313 103.414 594.298C108.087 590.289 113.27 587.123 118.608 585.152C123.924 583.137 129.396 582.406 134.446 582.672C139.496 582.982 144.103 584.2 148.09 585.661C156.108 588.673 161.978 592.415 165.921 595.073C167.892 596.402 169.376 597.509 170.373 598.284C170.816 598.638 171.193 598.926 171.503 599.17C171.746 599.369 171.879 599.48 171.857 599.502V599.568Z" fill="#455A64"/>
<path d="M130.48 675.172C130.48 675.172 130.79 675.327 131.411 675.571C132.075 675.837 132.983 676.191 134.157 676.656C136.638 677.608 140.226 679.003 144.834 680.775C154.203 684.296 167.714 689.39 184.504 695.723C201.36 702.012 221.539 709.475 244.198 717.736C266.858 725.974 291.954 735.009 318.755 744.088L319.243 744.243L319.486 743.778C323.695 735.74 328.147 727.258 332.643 718.666C334.947 714.281 337.228 709.918 339.355 705.866L339.621 705.379L339.156 705.091C288.587 673.002 243.335 644.28 210.685 623.552C194.383 613.276 181.226 604.972 172.1 599.214C167.582 596.402 164.06 594.187 161.623 592.681C160.449 591.973 159.541 591.419 158.877 590.998C158.256 590.622 157.924 590.467 157.924 590.467C157.924 590.467 158.212 590.688 158.81 591.109C159.453 591.53 160.338 592.128 161.49 592.881C163.905 594.453 167.382 596.712 171.856 599.613C180.938 605.437 194.029 613.852 210.242 624.26C242.847 645.055 288.011 673.888 338.491 706.109L338.292 705.312C336.165 709.387 333.884 713.727 331.58 718.112C327.084 726.727 322.632 735.208 318.423 743.247L319.154 742.959C292.353 733.902 267.234 724.911 244.575 716.739C221.938 708.501 201.715 701.149 184.792 694.992C167.936 688.814 154.38 683.831 144.989 680.399C140.359 678.716 136.749 677.409 134.246 676.479C133.05 676.058 132.119 675.726 131.455 675.482C130.835 675.261 130.48 675.172 130.48 675.172Z" fill="#455A64"/>
<path d="M139.185 317.77C136.24 311.99 133.294 306.166 131.721 299.898C130.148 293.631 130.038 286.766 132.718 280.876C134.29 277.421 136.749 274.409 137.967 270.822C139.651 265.906 138.964 260.081 142.021 255.852C146.783 249.252 156.994 250.78 164.37 247.326C170.107 244.624 174.116 238.822 180.163 236.895C185.435 235.212 191.194 236.829 196.288 238.999C201.383 241.169 206.344 243.96 211.838 244.668C215.758 245.178 219.723 244.624 223.666 244.69C227.608 244.757 231.817 245.643 234.586 248.455C237.354 251.267 237.952 256.449 234.94 258.996C241.851 257.822 248.363 264.71 248.274 271.73C248.186 278.728 242.914 284.906 236.535 287.807C230.156 290.73 222.89 290.908 215.891 290.376C196.111 288.826 176.242 281.319 162.775 266.747" fill="#263238"/>
<path d="M143.438 293.034L129.971 390.938C127.689 407.591 139.783 422.76 156.528 424.244C172.166 425.617 186.121 414.456 188.225 398.91C189.222 391.536 190.086 385.401 190.241 384.649C190.241 384.649 215.492 385.734 220.697 361.307C223.2 349.504 226.39 324.768 229.025 302.379C231.838 278.307 215.691 256.117 191.924 251.378L189.554 250.913C163.771 247.304 146.317 267.19 143.438 293.056V293.034Z" fill="#FFD4BE"/>
<path d="M190.374 384.316C190.374 384.316 174.647 382.478 160.272 368.859C160.272 368.859 164.303 387.992 189.178 390.672L190.396 384.316H190.374Z" fill="#EB996E"/>
<path d="M218.061 323.195C217.751 325.056 215.934 326.34 213.985 326.052C212.036 325.764 210.707 324.037 211.017 322.177C211.327 320.316 213.143 319.032 215.093 319.32C217.042 319.608 218.371 321.335 218.061 323.195Z" fill="#263238"/>
<path d="M221.361 313.341C220.83 313.717 218.57 311.215 214.805 310.484C211.061 309.687 207.916 311.082 207.584 310.528C207.429 310.285 208.027 309.554 209.4 308.912C210.751 308.27 212.944 307.827 215.292 308.314C217.64 308.801 219.434 310.041 220.387 311.171C221.361 312.3 221.583 313.186 221.339 313.363L221.361 313.341Z" fill="#263238"/>
<path d="M182.953 317.128C182.643 318.988 180.827 320.272 178.878 319.984C176.929 319.696 175.6 317.969 175.91 316.109C176.22 314.249 178.036 312.964 179.985 313.252C181.935 313.54 183.264 315.267 182.953 317.128Z" fill="#263238"/>
<path d="M184.238 306.653C183.706 307.029 181.447 304.527 177.681 303.796C173.938 302.999 170.793 304.394 170.461 303.84C170.305 303.597 170.904 302.866 172.277 302.224C173.628 301.582 175.821 301.139 178.169 301.626C180.517 302.113 182.311 303.353 183.263 304.483C184.238 305.612 184.459 306.498 184.216 306.675L184.238 306.653Z" fill="#263238"/>
<path d="M192.323 337.28C192.345 337.058 194.76 337.125 198.658 337.39C199.633 337.479 200.585 337.479 200.873 336.859C201.227 336.217 201.05 335.087 200.807 333.892C200.364 331.389 199.898 328.754 199.433 326.008C197.573 314.802 196.421 305.678 196.886 305.59C197.329 305.523 199.212 314.537 201.072 325.742C201.515 328.51 201.936 331.123 202.335 333.648C202.49 334.822 202.867 336.172 202.069 337.523C201.67 338.188 200.851 338.564 200.209 338.609C199.544 338.675 199.012 338.586 198.525 338.52C194.671 337.966 192.301 337.501 192.323 337.302V337.28Z" fill="#263238"/>
<path d="M180.716 337.678C181.336 337.767 180.517 341.842 183.44 345.451C186.342 349.061 190.794 349.46 190.706 350.035C190.706 350.301 189.576 350.633 187.738 350.323C185.921 350.036 183.396 348.928 181.624 346.714C179.852 344.499 179.409 341.952 179.609 340.247C179.786 338.498 180.45 337.59 180.716 337.678Z" fill="#263238"/>
<path d="M188.158 292.103C187.582 293.056 183.928 291.816 179.409 291.461C174.89 291.018 171.081 291.594 170.682 290.575C170.505 290.088 171.324 289.247 172.963 288.538C174.58 287.829 177.061 287.342 179.763 287.586C182.466 287.829 184.814 288.737 186.298 289.712C187.782 290.686 188.446 291.661 188.18 292.103H188.158Z" fill="#263238"/>
<path d="M222.159 302.179C221.317 302.91 218.903 301.493 215.802 300.829C212.723 300.054 209.932 300.253 209.511 299.234C209.334 298.747 209.91 297.972 211.239 297.396C212.546 296.82 214.561 296.532 216.688 297.042C218.814 297.529 220.52 298.681 221.428 299.766C222.358 300.873 222.535 301.825 222.159 302.179Z" fill="#263238"/>
<path d="M141.821 311.569C141.445 311.303 125.984 303.242 123.171 320.073C120.358 336.925 137.856 336.261 137.967 335.796C138.078 335.331 141.821 311.569 141.821 311.569Z" fill="#FFD4BE"/>
<path d="M133.891 328.555C133.891 328.555 133.559 328.71 133.027 328.865C132.518 328.997 131.654 329.02 130.834 328.555C129.173 327.602 128.132 324.524 128.553 321.49C128.774 319.94 129.328 318.545 130.081 317.415C130.812 316.264 131.742 315.533 132.673 315.533C133.603 315.467 134.135 316.109 134.268 316.618C134.423 317.128 134.268 317.438 134.334 317.482C134.378 317.526 134.733 317.26 134.733 316.552C134.733 316.198 134.578 315.777 134.245 315.378C133.891 314.98 133.337 314.714 132.695 314.669C131.388 314.537 130.015 315.533 129.195 316.773C128.309 317.991 127.623 319.564 127.401 321.291C126.936 324.701 128.154 328.178 130.48 329.285C131.61 329.795 132.651 329.595 133.249 329.285C133.847 328.953 134.002 328.599 133.935 328.555H133.891Z" fill="#EB996E"/>
<path d="M233.877 279.636C230.975 285.858 216.112 288.272 205.214 284.973C195.158 281.939 191.526 275.561 185.124 270.002C182.422 267.655 178.878 266.252 174.492 265.795C169.154 265.241 164.879 270.556 160.848 274.077C163.085 287.475 157.149 300.718 151.346 312.986C150.703 314.337 149.972 315.799 148.621 316.463C146.34 317.593 143.615 315.799 142.242 313.651C140.049 310.218 139.806 305.9 139.872 301.825C140.049 292.546 141.688 283.201 145.454 274.697C149.219 266.216 155.222 258.598 163.063 253.615C172.875 247.392 185.213 245.62 196.576 248.056C207.917 250.515 218.239 257.003 225.947 265.684C229.535 269.715 232.636 274.343 233.854 279.569" fill="#263238"/>
<path d="M199.611 320.361C199.766 320.361 199.699 318.899 200.386 316.441C201.05 314.027 202.712 310.484 206.344 307.782C209.866 305.058 215.647 303.553 221.251 305.634C223.998 306.631 226.634 308.513 228.494 311.104C230.421 313.673 231.485 316.95 231.529 320.339C231.507 323.727 230.421 327.004 228.494 329.573C226.634 332.164 223.998 334.047 221.251 335.043C215.647 337.125 209.866 335.619 206.344 332.895C202.712 330.193 201.05 326.65 200.386 324.236C199.721 321.778 199.766 320.316 199.611 320.316C199.566 320.316 199.544 320.671 199.522 321.357C199.5 322.044 199.589 323.063 199.854 324.347C200.386 326.871 201.959 330.658 205.746 333.648C209.401 336.638 215.581 338.409 221.672 336.217C224.662 335.176 227.52 333.161 229.58 330.348C231.684 327.58 232.858 323.993 232.902 320.316C232.88 316.64 231.684 313.053 229.58 310.285C227.542 307.472 224.684 305.457 221.672 304.416C215.603 302.224 209.401 303.995 205.746 306.985C201.959 309.975 200.386 313.739 199.854 316.286C199.566 317.57 199.5 318.589 199.522 319.276C199.522 319.962 199.566 320.316 199.611 320.316V320.361Z" fill="#263238"/>
<path d="M159.652 313.385C159.807 313.385 159.74 311.923 160.427 309.465C161.092 307.051 162.753 303.508 166.385 300.806C169.907 298.083 175.688 296.577 181.292 298.658C184.039 299.655 186.675 301.537 188.535 304.128C190.463 306.697 191.526 309.975 191.57 313.363C191.548 316.751 190.463 320.029 188.535 322.597C186.675 325.188 184.039 327.071 181.292 328.067C175.688 330.149 169.907 328.643 166.385 325.919C162.753 323.217 161.092 319.674 160.427 317.26C159.763 314.802 159.807 313.341 159.652 313.341C159.608 313.341 159.585 313.695 159.563 314.382C159.541 315.068 159.63 316.087 159.896 317.371C160.427 319.896 162 323.683 165.787 326.672C169.442 329.662 175.622 331.433 181.713 329.241C184.704 328.2 187.561 326.185 189.621 323.373C191.725 320.604 192.899 317.017 192.943 313.341C192.921 309.665 191.725 306.077 189.621 303.309C187.583 300.496 184.726 298.481 181.713 297.44C175.644 295.248 169.442 297.02 165.787 300.009C162 302.999 160.427 306.764 159.896 309.31C159.608 310.595 159.541 311.613 159.563 312.3C159.563 312.986 159.608 313.341 159.652 313.341V313.385Z" fill="#263238"/>
<path d="M192.567 313.939C192.744 314.271 194.87 313.274 197.373 314.049C199.876 314.78 201.117 316.795 201.427 316.618C201.582 316.552 201.515 315.91 200.939 315.046C200.386 314.204 199.278 313.208 197.75 312.743C196.221 312.278 194.737 312.521 193.829 312.92C192.899 313.319 192.478 313.806 192.567 313.961V313.939Z" fill="#263238"/>
<path d="M136.992 309.067C136.992 309.443 142.375 309.665 148.998 309.576C155.621 309.487 160.981 309.111 160.981 308.734C160.981 308.358 155.598 308.137 148.976 308.225C142.353 308.314 136.992 308.69 136.992 309.067Z" fill="#263238"/>
</g>
<defs>
<linearGradient id="paint0_linear_1_816" x1="948" y1="79" x2="132" y2="768" gradientUnits="userSpaceOnUse">
<stop stop-color="#F46F40"/>
<stop offset="1" stop-color="#FAB336"/>
</linearGradient>
<linearGradient id="paint1_linear_1_816" x1="413.952" y1="310.312" x2="413.952" y2="541.846" gradientUnits="userSpaceOnUse">
<stop stop-color="#FAB336"/>
<stop offset="1" stop-color="#F46F40"/>
</linearGradient>
<linearGradient id="paint2_linear_1_816" x1="658.26" y1="323.476" x2="658.26" y2="469.16" gradientUnits="userSpaceOnUse">
<stop stop-color="#864AF3"/>
<stop offset="0.721428" stop-color="#BDA0F1"/>
<stop offset="1" stop-color="#9A72E2" stop-opacity="0.75"/>
</linearGradient>
<linearGradient id="paint3_linear_1_816" x1="658.275" y1="323.476" x2="658.275" y2="348.885" gradientUnits="userSpaceOnUse">
<stop stop-color="#864AF3"/>
<stop offset="0.721428" stop-color="#BDA0F1"/>
<stop offset="1" stop-color="#9A72E2" stop-opacity="0.75"/>
</linearGradient>
<linearGradient id="paint4_linear_1_816" x1="714.626" y1="370.114" x2="714.626" y2="375.292" gradientUnits="userSpaceOnUse">
<stop stop-color="#864AF3"/>
<stop offset="0.721428" stop-color="#BDA0F1"/>
<stop offset="1" stop-color="#9A72E2" stop-opacity="0.75"/>
</linearGradient>
<linearGradient id="paint5_linear_1_816" x1="595.856" y1="370.114" x2="595.856" y2="375.292" gradientUnits="userSpaceOnUse">
<stop stop-color="#864AF3"/>
<stop offset="0.721428" stop-color="#BDA0F1"/>
<stop offset="1" stop-color="#9A72E2" stop-opacity="0.75"/>
</linearGradient>
<linearGradient id="paint6_linear_1_816" x1="655.062" y1="393.745" x2="655.062" y2="398.923" gradientUnits="userSpaceOnUse">
<stop stop-color="#864AF3"/>
<stop offset="0.721428" stop-color="#BDA0F1"/>
<stop offset="1" stop-color="#9A72E2" stop-opacity="0.75"/>
</linearGradient>
<linearGradient id="paint7_linear_1_816" x1="595.856" y1="393.745" x2="595.856" y2="398.923" gradientUnits="userSpaceOnUse">
<stop stop-color="#864AF3"/>
<stop offset="0.721428" stop-color="#BDA0F1"/>
<stop offset="1" stop-color="#9A72E2" stop-opacity="0.75"/>
</linearGradient>
<linearGradient id="paint8_linear_1_816" x1="655.062" y1="442.971" x2="655.062" y2="448.15" gradientUnits="userSpaceOnUse">
<stop stop-color="#864AF3"/>
<stop offset="0.721428" stop-color="#BDA0F1"/>
<stop offset="1" stop-color="#9A72E2" stop-opacity="0.75"/>
</linearGradient>
<linearGradient id="paint9_linear_1_816" x1="655.062" y1="406.192" x2="655.062" y2="411.37" gradientUnits="userSpaceOnUse">
<stop stop-color="#864AF3"/>
<stop offset="0.721428" stop-color="#BDA0F1"/>
<stop offset="1" stop-color="#9A72E2" stop-opacity="0.75"/>
</linearGradient>
<linearGradient id="paint10_linear_1_816" x1="703.555" y1="381.516" x2="703.555" y2="386.694" gradientUnits="userSpaceOnUse">
<stop stop-color="#864AF3"/>
<stop offset="0.721428" stop-color="#BDA0F1"/>
<stop offset="1" stop-color="#9A72E2" stop-opacity="0.75"/>
</linearGradient>
<linearGradient id="paint11_linear_1_816" x1="702.17" y1="417.251" x2="702.17" y2="422.429" gradientUnits="userSpaceOnUse">
<stop stop-color="#864AF3"/>
<stop offset="0.721428" stop-color="#BDA0F1"/>
<stop offset="1" stop-color="#9A72E2" stop-opacity="0.75"/>
</linearGradient>
<linearGradient id="paint12_linear_1_816" x1="189.421" y1="174.345" x2="189.421" y2="320.029" gradientUnits="userSpaceOnUse">
<stop stop-color="#864AF3"/>
<stop offset="0.721428" stop-color="#BDA0F1"/>
<stop offset="1" stop-color="#9A72E2" stop-opacity="0.75"/>
</linearGradient>
<linearGradient id="paint13_linear_1_816" x1="189.421" y1="174.345" x2="189.421" y2="199.754" gradientUnits="userSpaceOnUse">
<stop stop-color="#864AF3"/>
<stop offset="0.721428" stop-color="#BDA0F1"/>
<stop offset="1" stop-color="#9A72E2" stop-opacity="0.75"/>
</linearGradient>
<clipPath id="clip0_1_816">
<rect width="778" height="691" fill="white" transform="translate(21 103.5)"/>
</clipPath>
</defs>
</svg>
