<svg width="76" height="76" viewBox="0 0 76 76" fill="none" xmlns="http://www.w3.org/2000/svg">
<g style="mix-blend-mode:overlay" opacity="0.51">
<path d="M40.7172 37.2095L33.8562 41.8519L46.6548 54.6504L41.9676 59.3377L43.8591 61.2293L45.3339 59.7545L50.6495 65.0701L49.1748 66.5449L51.1689 68.5391L55.8562 63.8518L59.3636 67.3592L65.1153 61.6076L40.7172 37.2095Z" fill="black"/>
</g>
<path d="M50.8611 50.4441L43.2948 58.0104L45.1864 59.902L46.6676 58.4208L51.9832 63.7364L50.502 65.2176L52.4962 67.2118L60.0625 59.6455L50.8611 50.4441Z" fill="#553F7C"/>
<path d="M66.4491 60.2739L30.4387 24.2634L24.6806 30.0215L60.6911 66.0319L66.4491 60.2739Z" fill="url(#paint0_linear_1415_9920)"/>
<path d="M37.0496 30.8743L30.4387 24.2634L24.6806 30.0215L31.2915 36.6324L37.0496 30.8743Z" fill="#553F7C"/>
<path d="M12.8758 37.1069L4.96965 29.2008C2.44969 26.6808 2.45609 22.5835 4.96964 20.0699L20.4741 4.56542C22.9941 2.04546 27.0914 2.05188 29.605 4.56543L37.5111 12.4716C40.0311 14.9915 40.0247 19.0889 37.5111 21.6024L22.0066 37.1069C19.4867 39.6269 15.3893 39.6205 12.8758 37.1069ZM25.187 8.98338C25.1101 8.90643 24.9818 8.90643 24.9049 8.98338L9.40042 24.4879C9.32347 24.5648 9.32347 24.693 9.40042 24.77L17.3066 32.6761C17.3835 32.7531 17.5117 32.7531 17.5887 32.6761L33.0932 17.1716C33.1701 17.0947 33.1701 16.9665 33.0932 16.8895L25.187 8.98338Z" fill="url(#paint1_linear_1415_9920)"/>
<defs>
<linearGradient id="paint0_linear_1415_9920" x1="48.4439" y1="42.2686" x2="42.6859" y2="48.0267" gradientUnits="userSpaceOnUse">
<stop stop-color="#7454AE"/>
<stop offset="1" stop-color="#C152C5"/>
</linearGradient>
<linearGradient id="paint1_linear_1415_9920" x1="33.558" y1="8.51849" x2="8.92271" y2="33.1538" gradientUnits="userSpaceOnUse">
<stop stop-color="#7454AE"/>
<stop offset="1" stop-color="#C152C5"/>
</linearGradient>
</defs>
</svg>
