<svg width="76" height="76" viewBox="0 0 76 76" fill="none" xmlns="http://www.w3.org/2000/svg">
<path d="M18.8856 16.826C16.8126 16.8335 14.9796 18.2059 14.3929 20.1929C13.0997 24.5743 12.4261 29.362 12.5093 34.3745C12.8054 50.9169 31.5123 64.6018 38.5821 69.1824C40.1998 70.2304 42.2776 70.1883 43.8551 69.0863C50.7572 64.2525 68.9754 49.9276 68.6825 33.3773C68.5956 28.4637 67.7843 23.7852 66.3794 19.5135C65.6956 17.4217 63.613 16.1487 61.4229 16.355C54.4338 16.9955 48.2937 15.272 42.8246 11.6686C41.2289 10.6113 39.1718 10.5797 37.571 11.6267C32.328 15.0451 26.1167 16.8033 18.8888 16.8181L18.8856 16.826Z" fill="#553F7C"/>
<path d="M39.773 10.8963C39.0006 10.957 38.2463 11.1983 37.5679 11.6345C32.3249 15.0528 26.1135 16.8111 18.8857 16.8259C16.8127 16.8334 14.9797 18.2058 14.3929 20.1928C13.0998 24.5743 12.4261 29.3619 12.5094 34.3744C12.8054 50.9169 31.5123 64.6017 38.5821 69.1824C39.269 69.6249 40.0305 69.8608 40.8085 69.9209L39.7652 10.8931L39.773 10.8963Z" fill="url(#paint0_linear_1415_9928)"/>
<path d="M40.1396 15.0298C40.2306 15.0302 40.3796 15.045 40.536 15.154C46.2492 18.9202 52.5283 20.773 59.1949 20.6583C60.0502 20.6403 60.9339 20.5974 61.8067 20.5136C61.8256 20.5121 61.8444 20.5106 61.8711 20.5123C62.0908 20.5102 62.3634 20.6025 62.4345 20.832C63.7418 24.827 64.4516 29.0813 64.5314 33.4724C64.7888 48.2211 46.9567 61.8635 41.481 65.6982C41.3913 65.7621 41.2844 65.8008 41.1746 65.8019C41.0647 65.8029 40.9566 65.7773 40.8643 65.7125C35.2603 62.0818 16.952 49.0783 16.69 34.3186C16.6073 29.8444 17.1863 25.4926 18.4029 21.39C18.4683 21.1613 18.6761 21.0084 18.9147 21.0048C19.161 21.0044 19.4074 21.004 19.6569 20.9958C27.3075 20.8605 34.1051 18.8932 39.8598 15.1352C39.9495 15.0712 40.0501 15.0482 40.1631 15.0393M40.0665 10.8694C39.1955 10.8811 38.3328 11.1422 37.5678 11.6345C32.4947 14.9485 26.5063 16.6968 19.5713 16.8213C19.3406 16.828 19.1209 16.8301 18.8934 16.8291C18.8667 16.8274 18.8479 16.8289 18.8212 16.8272C16.7811 16.8663 14.9889 18.2278 14.4007 20.196C13.1075 24.5774 12.4339 29.3651 12.5171 34.3776C12.8132 50.92 31.5201 64.6049 38.5899 69.1855C39.3972 69.7134 40.3187 69.9594 41.2383 69.9402C42.158 69.9209 43.0758 69.6365 43.8551 69.0862C50.7572 64.2524 68.9753 49.9276 68.6825 33.3773C68.5956 28.4636 67.7843 23.7851 66.3794 19.5134C65.7312 17.5363 63.8445 16.2972 61.7887 16.33C61.6678 16.3357 61.5469 16.3414 61.4229 16.355C60.6474 16.4235 59.8814 16.4686 59.1203 16.4791C53.0752 16.5905 47.682 14.8689 42.8246 11.6685C41.9892 11.1201 41.0238 10.8472 40.0696 10.8616L40.0665 10.8694Z" fill="#9A73E2"/>
<path d="M53.0991 32.2749L39.3788 46.4811L32.6396 39.9828" stroke="white" stroke-width="4.1" stroke-linecap="round" stroke-linejoin="round"/>
<defs>
<linearGradient id="paint0_linear_1415_9928" x1="41.2035" y1="11.4763" x2="20.7095" y2="62.0237" gradientUnits="userSpaceOnUse">
<stop stop-color="#7454AE"/>
<stop offset="1" stop-color="#C152C5"/>
</linearGradient>
</defs>
</svg>
