<svg width="44" height="44" viewBox="0 0 44 44" fill="none" xmlns="http://www.w3.org/2000/svg">
<path d="M2 30V6C2 4.93913 2.42143 3.92172 3.17157 3.17157C3.92172 2.42143 4.93913 2 6 2H28" stroke="#FF8906" stroke-width="3" stroke-linecap="round" stroke-linejoin="round"/>
<path d="M8 26H6C4.93913 26 3.92172 26.4214 3.17157 27.1716C2.42143 27.9217 2 28.9391 2 30C2 31.0609 2.42143 32.0783 3.17157 32.8284C3.92172 33.5786 4.93913 34 6 34H8M42 34H20C18.9391 34 17.9217 34.4214 17.1716 35.1716C16.4214 35.9217 16 36.9391 16 38M16 38C16 39.0609 16.4214 40.0783 17.1716 40.8284C17.9217 41.5786 18.9391 42 20 42H42V10H20C18.9391 10 17.9217 10.4214 17.1716 11.1716C16.4214 11.9217 16 12.9391 16 14V38Z" stroke="#FF8906" stroke-width="3" stroke-linecap="round" stroke-linejoin="round"/>
</svg>
