<svg width="40" height="37" viewBox="0 0 40 37" fill="none" xmlns="http://www.w3.org/2000/svg">
<path d="M36.5 6.5H29V5C29 3.80653 28.5259 2.66193 27.682 1.81802C26.8381 0.974106 25.6935 0.5 24.5 0.5H15.5C14.3065 0.5 13.1619 0.974106 12.318 1.81802C11.4741 2.66193 11 3.80653 11 5V6.5H3.5C2.70435 6.5 1.94129 6.81607 1.37868 7.37868C0.81607 7.94129 0.5 8.70435 0.5 9.5V33.5C0.5 34.2957 0.81607 35.0587 1.37868 35.6213C1.94129 36.1839 2.70435 36.5 3.5 36.5H36.5C37.2957 36.5 38.0587 36.1839 38.6213 35.6213C39.1839 35.0587 39.5 34.2957 39.5 33.5V9.5C39.5 8.70435 39.1839 7.94129 38.6213 7.37868C38.0587 6.81607 37.2957 6.5 36.5 6.5ZM14 5C14 4.60218 14.158 4.22064 14.4393 3.93934C14.7206 3.65804 15.1022 3.5 15.5 3.5H24.5C24.8978 3.5 25.2794 3.65804 25.5607 3.93934C25.842 4.22064 26 4.60218 26 5V6.5H14V5ZM36.5 9.5V17.3019C31.4371 20.0577 25.7643 21.501 20 21.5C14.2359 21.501 8.56329 20.0584 3.5 17.3038V9.5H36.5ZM36.5 33.5H3.5V20.6825C8.63736 23.1954 14.281 24.5011 20 24.5C25.7191 24.5001 31.3627 23.1938 36.5 20.6806V33.5ZM15.5 17C15.5 16.6022 15.658 16.2206 15.9393 15.9393C16.2206 15.658 16.6022 15.5 17 15.5H23C23.3978 15.5 23.7794 15.658 24.0607 15.9393C24.342 16.2206 24.5 16.6022 24.5 17C24.5 17.3978 24.342 17.7794 24.0607 18.0607C23.7794 18.342 23.3978 18.5 23 18.5H17C16.6022 18.5 16.2206 18.342 15.9393 18.0607C15.658 17.7794 15.5 17.3978 15.5 17Z" fill="#FF8906"/>
</svg>
