<svg width="63" height="59" viewBox="0 0 63 59" fill="none" xmlns="http://www.w3.org/2000/svg">
<path d="M3.74523 30.1881C3.82446 35.3561 5.1951 40.54 7.98394 44.9153C8.60984 46.0488 9.4655 47.0317 10.2261 48.078C11.1135 49.0212 11.9216 50.0358 12.9199 50.8601C13.4111 51.2802 13.8468 51.7637 14.3856 52.1283L15.9385 53.2777C16.4614 53.6581 17.0397 53.9514 17.5864 54.3002L18.4183 54.7995C18.7035 54.9581 18.9967 55.0849 19.2898 55.2196L21.0407 56.044L22.863 56.6939C23.4651 56.9396 24.091 57.0744 24.7169 57.2329C25.3428 57.3756 25.9608 57.5817 26.5946 57.6689C27.8702 57.8512 29.1379 58.081 30.4293 58.089C31.7128 58.1762 33.0042 58.1524 34.2798 58.0335C36.8389 57.7957 39.3662 57.2012 41.7589 56.2818C44.1516 55.3465 46.4096 54.0862 48.4616 52.5484L48.5646 52.4692L48.6993 52.5009L62.493 55.9568L62.0889 56.4324L56.3211 43.6154L56.2419 43.449L56.329 43.2825C58.3018 39.5809 59.4268 35.4275 59.5932 31.2265C59.6883 27.0334 59.0148 22.7849 57.256 18.9485C55.5446 15.1122 52.9697 11.6642 49.7847 8.90581C46.5919 6.15536 42.7334 4.19755 38.6532 3.14334C34.565 2.09706 30.2312 1.95438 26.0797 2.81043C21.936 3.67441 17.9905 5.49747 14.6233 8.08147C7.84133 13.2415 3.769 21.6752 3.74523 30.1961V30.1881ZM3.74523 30.1881C3.72938 21.6673 7.7621 13.194 14.544 7.97843C17.8954 5.33895 21.841 3.45247 26.0163 2.52508C30.1995 1.61355 34.5888 1.70074 38.7483 2.71532C42.9077 3.73782 46.8612 5.67978 50.1571 8.45401C53.453 11.2203 56.1151 14.7317 57.8819 18.6632C59.7041 22.5867 60.4172 26.9462 60.3379 31.2503C60.2033 35.5622 59.0465 39.8425 56.9866 43.6392L57.0024 43.3063L62.7069 56.1549L63 56.8128L62.3028 56.6305L48.5409 53.0478L48.7785 53.0002C46.6711 54.5459 44.3497 55.7982 41.9095 56.7177C39.4613 57.6292 36.8943 58.192 34.2956 58.406C32.9963 58.5091 31.689 58.517 30.3976 58.414C29.0903 58.3981 27.8148 58.1445 26.5313 57.9463C25.8895 57.8512 25.2715 57.6372 24.6377 57.4866C24.0118 57.3201 23.378 57.1695 22.7758 56.9159L20.9536 56.2342C20.3673 55.9647 19.7889 55.6635 19.2027 55.3861C18.9174 55.2355 18.6164 55.1087 18.3311 54.9501L17.4992 54.4428C16.9526 54.0941 16.3742 53.785 15.8592 53.3966L14.3064 52.2235C13.7755 51.8509 13.3318 51.3674 12.8406 50.9473C11.8424 50.115 11.0342 49.0925 10.1469 48.1414C9.3942 47.0872 8.53853 46.1043 7.91263 44.9629C5.13964 40.5638 3.79276 35.3641 3.7373 30.1961L3.74523 30.1881Z" fill="#263238" fill-opacity="0.5"/>
<path d="M24.232 38.6285C22.792 38.6285 21.512 38.2845 20.392 37.5965C19.288 36.9085 18.416 35.9165 17.776 34.6205C17.136 33.3245 16.816 31.7485 16.816 29.8925C16.816 28.0365 17.136 26.4605 17.776 25.1645C18.416 23.8685 19.288 22.8765 20.392 22.1885C21.512 21.5005 22.792 21.1565 24.232 21.1565C25.656 21.1565 26.92 21.5005 28.024 22.1885C29.144 22.8765 30.024 23.8685 30.664 25.1645C31.304 26.4605 31.624 28.0365 31.624 29.8925C31.624 31.7485 31.304 33.3245 30.664 34.6205C30.024 35.9165 29.144 36.9085 28.024 37.5965C26.92 38.2845 25.656 38.6285 24.232 38.6285ZM24.232 34.7405C24.744 34.7405 25.192 34.5805 25.576 34.2605C25.976 33.9405 26.288 33.4285 26.512 32.7245C26.736 32.0045 26.848 31.0605 26.848 29.8925C26.848 28.7085 26.736 27.7645 26.512 27.0605C26.288 26.3565 25.976 25.8445 25.576 25.5245C25.192 25.2045 24.744 25.0445 24.232 25.0445C23.72 25.0445 23.264 25.2045 22.864 25.5245C22.48 25.8445 22.168 26.3565 21.928 27.0605C21.704 27.7645 21.592 28.7085 21.592 29.8925C21.592 31.0605 21.704 32.0045 21.928 32.7245C22.168 33.4285 22.48 33.9405 22.864 34.2605C23.264 34.5805 23.72 34.7405 24.232 34.7405ZM33.0777 35.0765V31.9805L40.6137 21.4925H45.5337L38.2137 31.9805L35.9577 31.3085H49.0857V35.0765H33.0777ZM41.9577 38.2925V35.0765L42.1017 31.3085V28.4525H46.5897V38.2925H41.9577Z" fill="url(#paint0_linear_2_1154)"/>
<defs>
<linearGradient id="paint0_linear_2_1154" x1="33" y1="15.2925" x2="33" y2="44.2925" gradientUnits="userSpaceOnUse">
<stop stop-color="#FAB336"/>
<stop offset="1" stop-color="#F46F40"/>
</linearGradient>
</defs>
</svg>
