<svg width="63" height="59" viewBox="0 0 63 59" fill="none" xmlns="http://www.w3.org/2000/svg">
<path d="M3.74523 29.8957C3.82446 35.0637 5.1951 40.2476 7.98394 44.6229C8.60984 45.7564 9.4655 46.7393 10.2261 47.7855C11.1135 48.7288 11.9216 49.7434 12.9199 50.5677C13.4111 50.9878 13.8468 51.4713 14.3856 51.8359L15.9385 52.9852C16.4614 53.3657 17.0397 53.659 17.5864 54.0077L18.4183 54.5071C18.7035 54.6656 18.9967 54.7925 19.2898 54.9272L21.0407 55.7515L22.863 56.4015C23.4651 56.6472 24.091 56.782 24.7169 56.9405C25.3428 57.0832 25.9608 57.2893 26.5946 57.3765C27.8702 57.5588 29.1379 57.7886 30.4293 57.7966C31.7128 57.8837 33.0042 57.86 34.2798 57.7411C36.8389 57.5033 39.3662 56.9088 41.7589 55.9893C44.1516 55.054 46.4096 53.7937 48.4616 52.256L48.5646 52.1768L48.6993 52.2085L62.493 55.6644L62.0889 56.1399L56.3211 43.323L56.2419 43.1565L56.329 42.9901C58.3018 39.2885 59.4268 35.135 59.5932 30.9341C59.6883 26.741 59.0148 22.4925 57.256 18.6561C55.5446 14.8197 52.9697 11.3718 49.7847 8.61339C46.5919 5.86294 42.7334 3.90513 38.6532 2.85092C34.565 1.80464 30.2312 1.66196 26.0797 2.51801C21.936 3.38199 17.9905 5.20505 14.6233 7.78905C7.84133 12.9491 3.769 21.3828 3.74523 29.9036V29.8957ZM3.74523 29.8957C3.72938 21.3749 7.7621 12.9016 14.544 7.68601C17.8954 5.04653 21.841 3.16005 26.0163 2.23266C30.1995 1.32113 34.5888 1.40832 38.7483 2.4229C42.9077 3.4454 46.8612 5.38736 50.1571 8.16159C53.453 10.9279 56.1151 14.4393 57.8819 18.3708C59.7041 22.2943 60.4172 26.6538 60.3379 30.9578C60.2033 35.2698 59.0465 39.55 56.9866 43.3468L57.0024 43.0139L62.7069 55.8625L63 56.5204L62.3028 56.3381L48.5409 52.7554L48.7785 52.7078C46.6711 54.2535 44.3497 55.5058 41.9095 56.4253C39.4613 57.3368 36.8943 57.8996 34.2956 58.1136C32.9963 58.2167 31.689 58.2246 30.3976 58.1215C29.0903 58.1057 27.8148 57.852 26.5313 57.6539C25.8895 57.5588 25.2715 57.3447 24.6377 57.1941C24.0118 57.0277 23.378 56.8771 22.7758 56.6234L20.9536 55.9418C20.3673 55.6723 19.7889 55.3711 19.2027 55.0937C18.9174 54.9431 18.6164 54.8162 18.3311 54.6577L17.4992 54.1504C16.9526 53.8017 16.3742 53.4925 15.8592 53.1041L14.3064 51.931C13.7755 51.5585 13.3318 51.075 12.8406 50.6549C11.8424 49.8226 11.0342 48.8001 10.1469 47.8489C9.3942 46.7947 8.53853 45.8119 7.91263 44.6705C5.13964 40.2713 3.79276 35.0716 3.7373 29.9036L3.74523 29.8957Z" fill="#263238" fill-opacity="0.5"/>
<path d="M28.232 38.336C26.792 38.336 25.512 37.992 24.392 37.304C23.288 36.616 22.416 35.624 21.776 34.328C21.136 33.032 20.816 31.456 20.816 29.6C20.816 27.744 21.136 26.168 21.776 24.872C22.416 23.576 23.288 22.584 24.392 21.896C25.512 21.208 26.792 20.864 28.232 20.864C29.656 20.864 30.92 21.208 32.024 21.896C33.144 22.584 34.024 23.576 34.664 24.872C35.304 26.168 35.624 27.744 35.624 29.6C35.624 31.456 35.304 33.032 34.664 34.328C34.024 35.624 33.144 36.616 32.024 37.304C30.92 37.992 29.656 38.336 28.232 38.336ZM28.232 34.448C28.744 34.448 29.192 34.288 29.576 33.968C29.976 33.648 30.288 33.136 30.512 32.432C30.736 31.712 30.848 30.768 30.848 29.6C30.848 28.416 30.736 27.472 30.512 26.768C30.288 26.064 29.976 25.552 29.576 25.232C29.192 24.912 28.744 24.752 28.232 24.752C27.72 24.752 27.264 24.912 26.864 25.232C26.48 25.552 26.168 26.064 25.928 26.768C25.704 27.472 25.592 28.416 25.592 29.6C25.592 30.768 25.704 31.712 25.928 32.432C26.168 33.136 26.48 33.648 26.864 33.968C27.264 34.288 27.72 34.448 28.232 34.448ZM39.5296 38V22.904L41.5696 24.872H36.4096V21.2H44.2816V38H39.5296Z" fill="url(#paint0_linear_2_1129)"/>
<defs>
<linearGradient id="paint0_linear_2_1129" x1="33" y1="15" x2="33" y2="44" gradientUnits="userSpaceOnUse">
<stop stop-color="#FAB336"/>
<stop offset="1" stop-color="#F46F40"/>
</linearGradient>
</defs>
</svg>
