<svg width="48" height="48" viewBox="0 0 48 48" fill="none" xmlns="http://www.w3.org/2000/svg">
<path d="M23.9995 21C21.8778 21 19.8429 20.2098 18.3427 18.8033C16.8424 17.3968 15.9995 15.4891 15.9995 13.5C15.9995 11.5109 16.8424 9.60322 18.3427 8.1967C19.8429 6.79018 21.8778 6 23.9995 6C26.1212 6 28.1561 6.79018 29.6564 8.1967C31.1567 9.60322 31.9995 11.5109 31.9995 13.5C31.9995 15.4891 31.1567 17.3968 29.6564 18.8033C28.1561 20.2098 26.1212 21 23.9995 21ZM23.9995 9C21.3435 9 19.1995 11.01 19.1995 13.5C19.1995 15.99 21.3435 18 23.9995 18C26.6555 18 28.7995 15.99 28.7995 13.5C28.7995 11.01 26.6555 9 23.9995 9Z" fill="#FF8906"/>
<path d="M43.2 33C42.304 33 41.6 32.34 41.6 31.5C41.6 30.66 42.304 30 43.2 30C44.096 30 44.8 29.34 44.8 28.5C44.8 26.5109 43.9571 24.6032 42.4569 23.1967C40.9566 21.7902 38.9217 21 36.8 21H33.6C32.704 21 32 20.34 32 19.5C32 18.66 32.704 18 33.6 18C36.256 18 38.4 15.99 38.4 13.5C38.4 11.01 36.256 9 33.6 9C32.704 9 32 8.34 32 7.5C32 6.66 32.704 6 33.6 6C35.7217 6 37.7566 6.79018 39.2569 8.1967C40.7571 9.60322 41.6 11.5109 41.6 13.5C41.6 15.36 40.896 17.04 39.68 18.36C44.448 19.56 48 23.64 48 28.5C48 30.99 45.856 33 43.2 33ZM4.8 33C2.144 33 0 30.99 0 28.5C0 23.64 3.52 19.56 8.32 18.36C7.136 17.04 6.4 15.36 6.4 13.5C6.4 11.5109 7.24285 9.60322 8.74315 8.1967C10.2434 6.79018 12.2783 6 14.4 6C15.296 6 16 6.66 16 7.5C16 8.34 15.296 9 14.4 9C11.744 9 9.6 11.01 9.6 13.5C9.6 15.99 11.744 18 14.4 18C15.296 18 16 18.66 16 19.5C16 20.34 15.296 21 14.4 21H11.2C9.07827 21 7.04344 21.7902 5.54315 23.1967C4.04285 24.6032 3.2 26.5109 3.2 28.5C3.2 29.34 3.904 30 4.8 30C5.696 30 6.4 30.66 6.4 31.5C6.4 32.34 5.696 33 4.8 33ZM33.6 42H14.4C11.744 42 9.6 39.99 9.6 37.5V34.5C9.6 28.71 14.624 24 20.8 24H27.2C33.376 24 38.4 28.71 38.4 34.5V37.5C38.4 39.99 36.256 42 33.6 42ZM20.8 27C18.6783 27 16.6434 27.7902 15.1431 29.1967C13.6429 30.6032 12.8 32.5109 12.8 34.5V37.5C12.8 38.34 13.504 39 14.4 39H33.6C34.496 39 35.2 38.34 35.2 37.5V34.5C35.2 32.5109 34.3571 30.6032 32.8569 29.1967C31.3566 27.7902 29.3217 27 27.2 27H20.8Z" fill="#FF8906"/>
</svg>
