<svg width="40" height="40" viewBox="0 0 40 40" fill="none" xmlns="http://www.w3.org/2000/svg">
<path d="M13.9985 25C14.5508 25 14.9985 25.4477 14.9985 26V37.3333C14.9985 37.8856 14.5508 38.3333 13.9985 38.3333H2.66516C2.11288 38.3333 1.66516 37.8856 1.66516 37.3333V26C1.66516 25.4477 2.11288 25 2.66516 25H13.9985ZM37.3318 25C37.8841 25 38.3318 25.4477 38.3318 26V37.3333C38.3318 37.8856 37.8841 38.3333 37.3318 38.3333H25.9985C25.4462 38.3333 24.9985 37.8856 24.9985 37.3333V26C24.9985 25.4477 25.4462 25 25.9985 25H37.3318ZM13.9985 1.66663C14.5508 1.66663 14.9985 2.11434 14.9985 2.66663V14C14.9985 14.5522 14.5508 15 13.9985 15H2.66516C2.11288 15 1.66516 14.5522 1.66516 14V2.66663C1.66516 2.11434 2.11288 1.66663 2.66516 1.66663H13.9985ZM37.3318 1.66663C37.8841 1.66663 38.3318 2.11434 38.3318 2.66663V14C38.3318 14.5522 37.8841 15 37.3318 15H25.9985C25.4462 15 24.9985 14.5522 24.9985 14V2.66663C24.9985 2.11434 25.4462 1.66663 25.9985 1.66663H37.3318Z" stroke="#FF8906" stroke-width="3"/>
</svg>
