<svg width="63" height="59" viewBox="0 0 63 59" fill="none" xmlns="http://www.w3.org/2000/svg">
<path d="M3.74523 30.1881C3.82446 35.3561 5.1951 40.5399 7.98394 44.9153C8.60984 46.0487 9.4655 47.0316 10.2261 48.0779C11.1135 49.0211 11.9216 50.0357 12.9199 50.8601C13.4111 51.2802 13.8468 51.7637 14.3856 52.1283L15.9385 53.2776C16.4614 53.6581 17.0397 53.9513 17.5864 54.3001L18.4183 54.7995C18.7035 54.958 18.9967 55.0848 19.2898 55.2196L21.0407 56.0439L22.863 56.6939C23.4651 56.9396 24.091 57.0743 24.7169 57.2329C25.3428 57.3755 25.9608 57.5816 26.5946 57.6688C27.8702 57.8511 29.1379 58.081 30.4293 58.0889C31.7128 58.1761 33.0042 58.1523 34.2798 58.0334C36.8389 57.7956 39.3662 57.2012 41.7589 56.2817C44.1516 55.3464 46.4096 54.0861 48.4616 52.5484L48.5646 52.4691L48.6993 52.5008L62.493 55.9567L62.0889 56.4323L56.3211 43.6153L56.2419 43.4489L56.329 43.2824C58.3018 39.5808 59.4268 35.4274 59.5932 31.2264C59.6883 27.0334 59.0148 22.7848 57.256 18.9485C55.5446 15.1121 52.9697 11.6641 49.7847 8.90575C46.5919 6.1553 42.7334 4.19748 38.6532 3.14328C34.565 2.097 30.2312 1.95432 26.0797 2.81037C21.936 3.67435 17.9905 5.49741 14.6233 8.08141C7.84133 13.2415 3.769 21.6751 3.74523 30.196V30.1881ZM3.74523 30.1881C3.72938 21.6672 7.7621 13.1939 14.544 7.97837C17.8954 5.33888 21.841 3.45241 26.0163 2.52502C30.1995 1.61349 34.5888 1.70068 38.7483 2.71525C42.9077 3.73776 46.8612 5.67972 50.1571 8.45395C53.453 11.2203 56.1151 14.7316 57.8819 18.6631C59.7041 22.5867 60.4172 26.9462 60.3379 31.2502C60.2033 35.5622 59.0465 39.8424 56.9866 43.6391L57.0024 43.3062L62.7069 56.1549L63 56.8128L62.3028 56.6305L48.5409 53.0477L48.7785 53.0002C46.6711 54.5458 44.3497 55.7982 41.9095 56.7176C39.4613 57.6292 36.8943 58.192 34.2956 58.406C32.9963 58.509 31.689 58.5169 30.3976 58.4139C29.0903 58.398 27.8148 58.1444 26.5313 57.9462C25.8895 57.8511 25.2715 57.6371 24.6377 57.4865C24.0118 57.3201 23.378 57.1694 22.7758 56.9158L20.9536 56.2341C20.3673 55.9646 19.7889 55.6634 19.2027 55.386C18.9174 55.2354 18.6164 55.1086 18.3311 54.9501L17.4992 54.4428C16.9526 54.094 16.3742 53.7849 15.8592 53.3965L14.3064 52.2234C13.7755 51.8509 13.3318 51.3673 12.8406 50.9472C11.8424 50.115 11.0342 49.0925 10.1469 48.1413C9.3942 47.0871 8.53853 46.1042 7.91263 44.9628C5.13964 40.5637 3.79276 35.364 3.7373 30.196L3.74523 30.1881Z" fill="#263238" fill-opacity="0.5"/>
<path d="M25.232 38.6284C23.792 38.6284 22.512 38.2844 21.392 37.5964C20.288 36.9084 19.416 35.9164 18.776 34.6204C18.136 33.3244 17.816 31.7484 17.816 29.8924C17.816 28.0364 18.136 26.4604 18.776 25.1644C19.416 23.8684 20.288 22.8764 21.392 22.1884C22.512 21.5004 23.792 21.1564 25.232 21.1564C26.656 21.1564 27.92 21.5004 29.024 22.1884C30.144 22.8764 31.024 23.8684 31.664 25.1644C32.304 26.4604 32.624 28.0364 32.624 29.8924C32.624 31.7484 32.304 33.3244 31.664 34.6204C31.024 35.9164 30.144 36.9084 29.024 37.5964C27.92 38.2844 26.656 38.6284 25.232 38.6284ZM25.232 34.7404C25.744 34.7404 26.192 34.5804 26.576 34.2604C26.976 33.9404 27.288 33.4284 27.512 32.7244C27.736 32.0044 27.848 31.0604 27.848 29.8924C27.848 28.7084 27.736 27.7644 27.512 27.0604C27.288 26.3564 26.976 25.8444 26.576 25.5244C26.192 25.2044 25.744 25.0444 25.232 25.0444C24.72 25.0444 24.264 25.2044 23.864 25.5244C23.48 25.8444 23.168 26.3564 22.928 27.0604C22.704 27.7644 22.592 28.7084 22.592 29.8924C22.592 31.0604 22.704 32.0044 22.928 32.7244C23.168 33.4284 23.48 33.9404 23.864 34.2604C24.264 34.5804 24.72 34.7404 25.232 34.7404ZM39.6273 38.6284C38.4593 38.6284 37.2913 38.4844 36.1233 38.1964C34.9713 37.9084 33.9633 37.5004 33.0993 36.9724L34.8273 33.3964C35.4993 33.8444 36.2433 34.1884 37.0593 34.4284C37.8913 34.6684 38.6993 34.7884 39.4833 34.7884C40.2993 34.7884 40.9473 34.6364 41.4273 34.3324C41.9073 34.0284 42.1473 33.5964 42.1473 33.0364C42.1473 32.5404 41.9473 32.1484 41.5473 31.8604C41.1473 31.5564 40.4913 31.4044 39.5793 31.4044H37.5873V28.4044L42.0993 23.5324L42.5553 25.1644H33.9633V21.4924H46.1073V24.4684L41.5953 29.3404L39.2673 28.0204H40.5633C42.6593 28.0204 44.2433 28.4924 45.3153 29.4364C46.4033 30.3644 46.9473 31.5644 46.9473 33.0364C46.9473 33.9964 46.6833 34.9004 46.1553 35.7484C45.6433 36.5964 44.8513 37.2924 43.7793 37.8364C42.7073 38.3644 41.3233 38.6284 39.6273 38.6284Z" fill="url(#paint0_linear_2_1146)"/>
<defs>
<linearGradient id="paint0_linear_2_1146" x1="32.5" y1="15.2924" x2="32.5" y2="44.2924" gradientUnits="userSpaceOnUse">
<stop stop-color="#FAB336"/>
<stop offset="1" stop-color="#F46F40"/>
</linearGradient>
</defs>
</svg>
