<svg width="63" height="59" viewBox="0 0 63 59" fill="none" xmlns="http://www.w3.org/2000/svg">
<path d="M3.74523 30.0907C3.82446 35.2587 5.1951 40.4425 7.98394 44.8179C8.60984 45.9513 9.4655 46.9342 10.2261 47.9805C11.1135 48.9237 11.9216 49.9383 12.9199 50.7626C13.4111 51.1827 13.8468 51.6662 14.3856 52.0309L15.9385 53.1802C16.4614 53.5607 17.0397 53.8539 17.5864 54.2027L18.4183 54.7021C18.7035 54.8606 18.9967 54.9874 19.2898 55.1222L21.0407 55.9465L22.863 56.5965C23.4651 56.8422 24.091 56.9769 24.7169 57.1355C25.3428 57.2781 25.9608 57.4842 26.5946 57.5714C27.8702 57.7537 29.1379 57.9836 30.4293 57.9915C31.7128 58.0787 33.0042 58.0549 34.2798 57.936C36.8389 57.6982 39.3662 57.1037 41.7589 56.1843C44.1516 55.249 46.4096 53.9887 48.4616 52.451L48.5646 52.3717L48.6993 52.4034L62.493 55.8593L62.0889 56.3349L56.3211 43.5179L56.2419 43.3515L56.329 43.185C58.3018 39.4834 59.4268 35.33 59.5932 31.129C59.6883 26.936 59.0148 22.6874 57.256 18.8511C55.5446 15.0147 52.9697 11.5667 49.7847 8.80834C46.5919 6.05789 42.7334 4.10007 38.6532 3.04586C34.565 1.99958 30.2312 1.85691 26.0797 2.71296C21.936 3.57693 17.9905 5.4 14.6233 7.984C7.84133 13.1441 3.769 21.5777 3.74523 30.0986V30.0907ZM3.74523 30.0907C3.72938 21.5698 7.7621 13.0965 14.544 7.88096C17.8954 5.24147 21.841 3.35499 26.0163 2.42761C30.1995 1.51608 34.5888 1.60327 38.7483 2.61784C42.9077 3.64035 46.8612 5.58231 50.1571 8.35654C53.453 11.1228 56.1151 14.6342 57.8819 18.5657C59.7041 22.4893 60.4172 26.8488 60.3379 31.1528C60.2033 35.4647 59.0465 39.745 56.9866 43.5417L57.0024 43.2088L62.7069 56.0575L63 56.7154L62.3028 56.533L48.5409 52.9503L48.7785 52.9028C46.6711 54.4484 44.3497 55.7008 41.9095 56.6202C39.4613 57.5318 36.8943 58.0945 34.2956 58.3086C32.9963 58.4116 31.689 58.4195 30.3976 58.3165C29.0903 58.3006 27.8148 58.047 26.5313 57.8488C25.8895 57.7537 25.2715 57.5397 24.6377 57.3891C24.0118 57.2226 23.378 57.072 22.7758 56.8184L20.9536 56.1367C20.3673 55.8672 19.7889 55.566 19.2027 55.2886C18.9174 55.138 18.6164 55.0112 18.3311 54.8527L17.4992 54.3454C16.9526 53.9966 16.3742 53.6875 15.8592 53.2991L14.3064 52.126C13.7755 51.7534 13.3318 51.2699 12.8406 50.8498C11.8424 50.0176 11.0342 48.9951 10.1469 48.0439C9.3942 46.9897 8.53853 46.0068 7.91263 44.8654C5.13964 40.4663 3.79276 35.2666 3.7373 30.0986L3.74523 30.0907Z" fill="#263238" fill-opacity="0.5"/>
<path d="M25.232 38.5309C23.792 38.5309 22.512 38.1869 21.392 37.4989C20.288 36.8109 19.416 35.8189 18.776 34.5229C18.136 33.2269 17.816 31.6509 17.816 29.7949C17.816 27.9389 18.136 26.3629 18.776 25.0669C19.416 23.7709 20.288 22.7789 21.392 22.0909C22.512 21.4029 23.792 21.0589 25.232 21.0589C26.656 21.0589 27.92 21.4029 29.024 22.0909C30.144 22.7789 31.024 23.7709 31.664 25.0669C32.304 26.3629 32.624 27.9389 32.624 29.7949C32.624 31.6509 32.304 33.2269 31.664 34.5229C31.024 35.8189 30.144 36.8109 29.024 37.4989C27.92 38.1869 26.656 38.5309 25.232 38.5309ZM25.232 34.6429C25.744 34.6429 26.192 34.4829 26.576 34.1629C26.976 33.8429 27.288 33.3309 27.512 32.6269C27.736 31.9069 27.848 30.9629 27.848 29.7949C27.848 28.6109 27.736 27.6669 27.512 26.9629C27.288 26.2589 26.976 25.7469 26.576 25.4269C26.192 25.1069 25.744 24.9469 25.232 24.9469C24.72 24.9469 24.264 25.1069 23.864 25.4269C23.48 25.7469 23.168 26.2589 22.928 26.9629C22.704 27.6669 22.592 28.6109 22.592 29.7949C22.592 30.9629 22.704 31.9069 22.928 32.6269C23.168 33.3309 23.48 33.8429 23.864 34.1629C24.264 34.4829 24.72 34.6429 25.232 34.6429ZM33.9856 38.1949V35.2189L40.2736 29.3389C40.7216 28.9229 41.0496 28.5549 41.2576 28.2349C41.4816 27.9149 41.6256 27.6269 41.6896 27.3709C41.7696 27.0989 41.8096 26.8509 41.8096 26.6269C41.8096 26.0829 41.6256 25.6589 41.2576 25.3549C40.9056 25.0509 40.3696 24.8989 39.6496 24.8989C39.0416 24.8989 38.4736 25.0349 37.9456 25.3069C37.4176 25.5789 36.9856 25.9869 36.6496 26.5309L33.1216 24.5629C33.7456 23.5069 34.6496 22.6589 35.8336 22.0189C37.0176 21.3789 38.4336 21.0589 40.0816 21.0589C41.3776 21.0589 42.5136 21.2669 43.4896 21.6829C44.4656 22.0989 45.2256 22.6909 45.7696 23.4589C46.3296 24.2269 46.6096 25.1309 46.6096 26.1709C46.6096 26.7149 46.5376 27.2589 46.3936 27.8029C46.2496 28.3309 45.9696 28.8989 45.5536 29.5069C45.1536 30.0989 44.5536 30.7629 43.7536 31.4989L38.7616 36.1069L37.9696 34.4269H47.0656V38.1949H33.9856Z" fill="url(#paint0_linear_2_1138)"/>
<defs>
<linearGradient id="paint0_linear_2_1138" x1="32.5" y1="15.1949" x2="32.5" y2="44.1949" gradientUnits="userSpaceOnUse">
<stop stop-color="#FAB336"/>
<stop offset="1" stop-color="#F46F40"/>
</linearGradient>
</defs>
</svg>
