<svg width="17" height="17" viewBox="0 0 17 17" fill="none" xmlns="http://www.w3.org/2000/svg">
<path d="M8.36995 15.6397C8.15745 15.6397 7.94495 15.5902 7.76787 15.491C6.44329 14.7685 4.11287 14.0035 2.6537 13.8122L2.44829 13.7839C1.52037 13.6706 0.755371 12.7993 0.755371 11.8572V3.30057C0.755371 2.74099 0.974955 2.23099 1.3787 1.86266C1.78245 1.49432 2.30662 1.31724 2.85912 1.36682C4.41745 1.48724 6.76912 2.26641 8.10079 3.10224L8.27079 3.20141C8.32037 3.22974 8.42662 3.22974 8.46912 3.20849L8.58245 3.13766C9.91412 2.30182 12.2658 1.50849 13.8312 1.37391C13.8454 1.37391 13.902 1.37391 13.9162 1.37391C14.4333 1.32432 14.9645 1.50849 15.3612 1.87682C15.765 2.24516 15.9845 2.75516 15.9845 3.31474V11.8643C15.9845 12.8135 15.2195 13.6777 14.2845 13.791L14.0508 13.8193C12.5916 14.0106 10.2541 14.7827 8.95787 15.4981C8.78787 15.5972 8.58245 15.6397 8.36995 15.6397Z" fill="#074E8C"/>
<path d="M8.5 15C8.22667 15 8 14.7733 8 14.5V4.5C8 4.22667 8.22667 4 8.5 4C8.77333 4 9 4.22667 9 4.5V14.5C9 14.78 8.77333 15 8.5 15Z" fill="white"/>
</svg>
