<svg width="20" height="20" viewBox="0 0 20 20" fill="none" xmlns="http://www.w3.org/2000/svg">
<path d="M5.8335 15.0001C4.91683 15.0001 4.17516 15.7501 4.17516 16.6667C4.17516 17.5834 4.91683 18.3334 5.8335 18.3334C6.75016 18.3334 7.50016 17.5834 7.50016 16.6667C7.50016 15.7501 6.75016 15.0001 5.8335 15.0001ZM0.833496 2.50008C0.833496 2.95842 1.2085 3.33342 1.66683 3.33342H2.50016L5.50016 9.65842L4.37516 11.6917C3.76683 12.8084 4.56683 14.1667 5.8335 14.1667H15.0002C15.4585 14.1667 15.8335 13.7917 15.8335 13.3334C15.8335 12.8751 15.4585 12.5001 15.0002 12.5001H5.8335L6.75016 10.8334H12.9585C13.5835 10.8334 14.1335 10.4917 14.4168 9.97508L17.4002 4.56675C17.4704 4.44044 17.5064 4.29798 17.5047 4.15346C17.503 4.00895 17.4635 3.86739 17.3903 3.7428C17.317 3.61821 17.2125 3.5149 17.0871 3.4431C16.9617 3.37129 16.8197 3.33349 16.6752 3.33342H4.34183L3.7835 2.14175C3.71652 1.9995 3.61041 1.87928 3.47759 1.79516C3.34476 1.71104 3.19072 1.6665 3.0335 1.66675H1.66683C1.2085 1.66675 0.833496 2.04175 0.833496 2.50008ZM14.1668 15.0001C13.2502 15.0001 12.5085 15.7501 12.5085 16.6667C12.5085 17.5834 13.2502 18.3334 14.1668 18.3334C15.0835 18.3334 15.8335 17.5834 15.8335 16.6667C15.8335 15.7501 15.0835 15.0001 14.1668 15.0001Z" fill="white" fill-opacity="0.933333"/>
</svg>
