<svg width="21" height="21" viewBox="0 0 21 21" fill="none" xmlns="http://www.w3.org/2000/svg">
<path d="M12.7703 15C12.4577 15 12.1451 14.8849 11.8984 14.6383L7.35781 10.1004C6.88073 9.62361 6.88073 8.83441 7.35781 8.3576C7.8349 7.8808 8.62456 7.8808 9.10164 8.3576L13.6422 12.8955C14.1193 13.3723 14.1193 14.1615 13.6422 14.6383C13.4119 14.8849 13.0993 15 12.7703 15Z" fill="#FE8705"/>
<path d="M8.22973 15C7.91716 15 7.60458 14.8849 7.35781 14.6383C6.88073 14.1615 6.88073 13.3723 7.35781 12.8955L11.8984 8.3576C12.3754 7.8808 13.1651 7.8808 13.6422 8.3576C14.1193 8.83441 14.1193 9.6236 13.6422 10.1004L9.10165 14.6383C8.85488 14.8849 8.5423 15 8.22973 15Z" fill="#FE8705"/>
<path d="M17.6838 5.6875C17.6225 5.6875 17.5613 5.6875 17.5 5.6875H17.2987H3.5C2.8875 5.69625 2.1875 5.69625 1.68 5.18875C1.2775 4.795 1.09375 4.1825 1.09375 3.28125C1.09375 0.875 2.8525 0.875 3.6925 0.875H17.3075C18.1475 0.875 19.9062 0.875 19.9062 3.28125C19.9062 4.19125 19.7225 4.795 19.32 5.18875C18.865 5.64375 18.2525 5.6875 17.6838 5.6875ZM3.6925 4.375H17.5088C17.9025 4.38375 18.27 4.38375 18.3925 4.26125C18.4538 4.2 18.585 3.99 18.585 3.28125C18.585 2.2925 18.34 2.1875 17.2987 2.1875H3.6925C2.65125 2.1875 2.40625 2.2925 2.40625 3.28125C2.40625 3.99 2.54625 4.2 2.59875 4.26125C2.72125 4.375 3.0975 4.375 3.4825 4.375H3.6925Z" fill="#FE8705"/>
<path d="M13.0288 19.9064H7.7525C4.62 19.9064 3.92 18.0427 3.64875 16.4239L2.415 5.66143C2.35375 5.30268 2.59875 4.97018 2.9575 4.90893C3.31625 4.84768 3.64875 5.09268 3.71 5.45143L4.94375 16.2052C5.1975 17.7539 5.7225 18.5939 7.7525 18.5939H13.0288C15.2775 18.5939 15.5313 17.8064 15.82 16.2839L17.29 5.43393C17.36 5.07518 17.7012 4.83893 18.06 4.91768C18.4187 4.98768 18.6462 5.32893 18.5762 5.68768L17.1062 16.5377C16.765 18.3139 16.1963 19.9064 13.0288 19.9064Z" fill="#FE8705"/>
</svg>
