<svg width="38" height="38" viewBox="0 0 38 38" fill="none" xmlns="http://www.w3.org/2000/svg">
<rect width="38" height="38" rx="19" fill="url(#paint0_linear_3611_1096)"/>
<path d="M18.1666 23.1667H19.8333V18.1667H18.1666V23.1667ZM19 16.5001C19.2361 16.5001 19.4341 16.4201 19.5941 16.2601C19.7541 16.1001 19.8338 15.9023 19.8333 15.6667C19.8333 15.4306 19.7533 15.2329 19.5933 15.0734C19.4333 14.914 19.2355 14.834 19 14.8334C18.7638 14.8334 18.5661 14.9134 18.4066 15.0734C18.2472 15.2334 18.1672 15.4312 18.1666 15.6667C18.1666 15.9029 18.2466 16.1009 18.4066 16.2609C18.5666 16.4209 18.7644 16.5006 19 16.5001ZM19 27.3334C17.8472 27.3334 16.7638 27.1145 15.75 26.6767C14.7361 26.239 13.8541 25.6454 13.1041 24.8959C12.3541 24.1459 11.7605 23.264 11.3233 22.2501C10.8861 21.2362 10.6672 20.1529 10.6666 19.0001C10.6666 17.8473 10.8855 16.764 11.3233 15.7501C11.7611 14.7362 12.3547 13.8542 13.1041 13.1042C13.8541 12.3542 14.7361 11.7606 15.75 11.3234C16.7638 10.8862 17.8472 10.6673 19 10.6667C20.1527 10.6667 21.2361 10.8856 22.25 11.3234C23.2638 11.7612 24.1458 12.3548 24.8958 13.1042C25.6458 13.8542 26.2397 14.7362 26.6775 15.7501C27.1152 16.764 27.3338 17.8473 27.3333 19.0001C27.3333 20.1529 27.1144 21.2362 26.6766 22.2501C26.2388 23.264 25.6452 24.1459 24.8958 24.8959C24.1458 25.6459 23.2638 26.2398 22.25 26.6776C21.2361 27.1154 20.1527 27.334 19 27.3334ZM19 25.6667C20.8611 25.6667 22.4375 25.0209 23.7291 23.7292C25.0208 22.4376 25.6666 20.8612 25.6666 19.0001C25.6666 17.139 25.0208 15.5626 23.7291 14.2709C22.4375 12.9792 20.8611 12.3334 19 12.3334C17.1388 12.3334 15.5625 12.9792 14.2708 14.2709C12.9791 15.5626 12.3333 17.139 12.3333 19.0001C12.3333 20.8612 12.9791 22.4376 14.2708 23.7292C15.5625 25.0209 17.1388 25.6667 19 25.6667Z" fill="#F9FAFC"/>
<defs>
<linearGradient id="paint0_linear_3611_1096" x1="19" y1="0" x2="19" y2="38" gradientUnits="userSpaceOnUse">
<stop stop-color="#FAB336"/>
<stop offset="1" stop-color="#F46F40"/>
</linearGradient>
</defs>
</svg>
