<svg width="40" height="40" viewBox="0 0 40 40" fill="none" xmlns="http://www.w3.org/2000/svg">
<rect width="40" height="40" rx="15" fill="#FF7700"/>
<path d="M26.2377 22.7928C26.7624 22.2681 26.8374 21.5185 26.3876 20.7689C26.0128 20.1692 25.3382 19.8694 24.5886 20.0193C24.2887 20.0942 23.9889 20.2442 23.689 20.469C21.3652 22.0432 18.2169 21.9683 15.8931 20.3941C15.7432 20.3191 15.5932 20.2442 15.4433 20.1692C14.6187 19.7944 13.7942 19.9443 13.3444 20.6939C12.8197 21.4435 12.8946 22.2681 13.5693 22.9428C13.7192 23.0927 13.8691 23.1676 13.9441 23.3176L14.0191 23.3925C15.0685 24.2171 16.3429 24.7418 17.992 24.9667L17.0175 25.9412C16.1929 26.7658 15.2934 27.6653 14.4688 28.4899C14.2439 28.7148 13.9441 29.0896 13.9441 29.6143C13.9441 30.2889 14.3189 30.9636 14.9936 31.2634C15.2184 31.4133 15.4433 31.4133 15.6682 31.4133C16.043 31.4133 16.4928 31.2634 16.7926 30.8886C17.917 29.7642 18.8166 28.8647 19.7161 27.9651C19.7911 27.8902 19.7911 27.8902 19.7911 27.8902C19.7911 27.8902 19.866 27.8902 19.866 27.9651C20.4657 28.6398 21.1404 29.2395 21.74 29.9141C22.0399 30.214 22.3397 30.5138 22.6396 30.8137C23.0144 31.1885 23.3142 31.3384 23.764 31.3384C24.4386 31.4134 25.1883 30.9636 25.4881 30.2889C25.7879 29.6892 25.638 28.9396 25.1133 28.4899C24.3637 27.7403 23.6141 26.9157 22.7895 26.1661L21.5152 24.8917C22.1898 24.8168 22.9394 24.6669 23.6141 24.367C24.7385 23.9922 25.5631 23.4675 26.2377 22.7928Z" fill="white"/>
<path d="M19.7911 20.6939C23.0144 20.6939 25.638 18.1452 25.638 14.9219C25.638 13.3477 25.0383 11.8485 23.9139 10.7241C22.7895 9.59969 21.3652 9 19.866 9C16.6427 9 14.094 11.6236 14.0191 14.772C14.0191 16.3462 14.6188 17.7704 15.7432 18.8948C16.7926 20.0942 18.2169 20.6939 19.7911 20.6939ZM18.1419 13.1978C18.5917 12.7481 19.1914 12.5232 19.7911 12.5232C21.1404 12.5232 22.1149 13.5726 22.1149 14.847C22.1149 16.1963 21.0654 17.1707 19.7911 17.1707C18.4418 17.1707 17.4673 16.1213 17.4673 14.847C17.4673 14.2473 17.6921 13.6476 18.1419 13.1978Z" fill="white"/>
<path d="M26.2377 22.7928C26.7624 22.2681 26.8374 21.5185 26.3876 20.7689C26.0128 20.1692 25.3382 19.8694 24.5886 20.0193C24.2887 20.0942 23.9889 20.2442 23.689 20.469C21.3652 22.0432 18.2169 21.9683 15.8931 20.3941C15.7432 20.3191 15.5932 20.2442 15.4433 20.1692C14.6187 19.7944 13.7942 19.9443 13.3444 20.6939C12.8197 21.4435 12.8946 22.2681 13.5693 22.9428C13.7192 23.0927 13.8691 23.1676 13.9441 23.3176L14.0191 23.3925C15.0685 24.2171 16.3429 24.7418 17.992 24.9667L17.0175 25.9412C16.1929 26.7658 15.2934 27.6653 14.4688 28.4899C14.2439 28.7148 13.9441 29.0896 13.9441 29.6143C13.9441 30.2889 14.3189 30.9636 14.9936 31.2634C15.2184 31.4133 15.4433 31.4133 15.6682 31.4133C16.043 31.4133 16.4928 31.2634 16.7926 30.8886C17.917 29.7642 18.8166 28.8647 19.7161 27.9651C19.7911 27.8902 19.7911 27.8902 19.7911 27.8902C19.7911 27.8902 19.866 27.8902 19.866 27.9651C20.4657 28.6398 21.1404 29.2395 21.74 29.9141C22.0399 30.214 22.3397 30.5138 22.6396 30.8137C23.0144 31.1885 23.3142 31.3384 23.764 31.3384C24.4386 31.4134 25.1883 30.9636 25.4881 30.2889C25.7879 29.6892 25.638 28.9396 25.1133 28.4899C24.3637 27.7403 23.6141 26.9157 22.7895 26.1661L21.5152 24.8917C22.1898 24.8168 22.9394 24.6669 23.6141 24.367C24.7385 23.9922 25.5631 23.4675 26.2377 22.7928Z" fill="white"/>
</svg>
