<svg width="38" height="38" viewBox="0 0 38 38" fill="none" xmlns="http://www.w3.org/2000/svg">
<rect width="38" height="38" rx="19" fill="url(#paint0_linear_3611_1073)"/>
<path d="M11 12.498C11 11.67 11.671 11 12.5 11H13.5C14.327 11 14.999 11.67 14.999 12.498V25.48C14.999 26.307 14.327 26.977 13.499 26.977H12.499C11.671 26.977 11 26.307 11 25.48V12.498ZM12.5 11.998C12.3674 11.998 12.2402 12.0507 12.1464 12.1444C12.0527 12.2382 12 12.3654 12 12.498V25.48C12.0003 25.6124 12.0531 25.7394 12.1468 25.8329C12.2405 25.9265 12.3676 25.979 12.5 25.979H13.5C13.6324 25.9787 13.7594 25.9259 13.8529 25.8322C13.9465 25.7385 13.999 25.6114 13.999 25.479V12.499C13.999 12.3664 13.9463 12.2392 13.8526 12.1454C13.7588 12.0517 13.6316 11.999 13.499 11.999L12.5 11.998ZM15.998 12.498C15.998 11.67 16.67 11 17.498 11H18.498C19.326 11 19.997 11.67 19.997 12.498V25.48C19.997 26.307 19.326 26.977 18.497 26.977H17.497C16.67 26.977 15.998 26.307 15.998 25.48V12.498ZM17.498 11.998C17.3654 11.998 17.2382 12.0507 17.1444 12.1444C17.0507 12.2382 16.998 12.3654 16.998 12.498V25.48C16.9983 25.6124 17.0511 25.7394 17.1448 25.8329C17.2385 25.9265 17.3656 25.979 17.498 25.979H18.498C18.6306 25.979 18.7578 25.9263 18.8516 25.8326C18.9453 25.7388 18.998 25.6116 18.998 25.479V12.499C18.998 12.3664 18.9453 12.2392 18.8516 12.1454C18.7578 12.0517 18.6306 11.999 18.498 11.999L17.498 11.998ZM24.718 15.157C24.6723 14.959 24.5869 14.7724 24.4669 14.6085C24.3469 14.4445 24.1949 14.3067 24.02 14.2032C23.8452 14.0998 23.6511 14.033 23.4496 14.0068C23.2482 13.9807 23.0435 13.9957 22.848 14.051L22.103 14.261C21.7392 14.3639 21.4278 14.6005 21.2312 14.9234C21.0346 15.2463 20.9674 15.6316 21.043 16.002L23.046 25.802C23.0869 26.0006 23.1677 26.1889 23.2834 26.3554C23.3992 26.5219 23.5474 26.6632 23.7193 26.7708C23.8912 26.8784 24.0832 26.95 24.2835 26.9813C24.4839 27.0126 24.6885 27.003 24.885 26.953L25.87 26.703C26.66 26.503 27.144 25.709 26.962 24.916L24.718 15.157ZM23.12 15.012C23.1852 14.9934 23.2534 14.9883 23.3206 14.997C23.3878 15.0056 23.4525 15.0278 23.5109 15.0622C23.5693 15.0966 23.62 15.1425 23.6601 15.1972C23.7002 15.2518 23.7287 15.314 23.744 15.38L25.987 25.14C26.0158 25.2671 25.9939 25.4003 25.9259 25.5115C25.8579 25.6226 25.7492 25.7028 25.623 25.735L24.638 25.985C24.5725 26.0017 24.5044 26.0049 24.4376 25.9945C24.3709 25.9841 24.3069 25.9603 24.2496 25.9245C24.1924 25.8887 24.1429 25.8417 24.1043 25.7863C24.0657 25.7308 24.0387 25.6681 24.025 25.602L22.022 15.802C21.997 15.6786 22.0195 15.5504 22.085 15.4429C22.1504 15.3354 22.254 15.2565 22.375 15.222L23.12 15.012Z" fill="#FAF9FF"/>
<defs>
<linearGradient id="paint0_linear_3611_1073" x1="19" y1="0" x2="19" y2="38" gradientUnits="userSpaceOnUse">
<stop stop-color="#FAB336"/>
<stop offset="1" stop-color="#F46F40"/>
</linearGradient>
</defs>
</svg>
