<svg width="21" height="20" viewBox="0 0 21 20" fill="none" xmlns="http://www.w3.org/2000/svg">
<path d="M17.047 7.43992L15.2603 18.1066C15.2323 18.2596 15.1517 18.398 15.0324 18.4979C14.913 18.5977 14.7626 18.6527 14.607 18.6533H6.39366C6.23808 18.6527 6.08761 18.5977 5.96829 18.4979C5.84897 18.398 5.76833 18.2596 5.74033 18.1066L3.95366 7.43992C3.93827 7.34499 3.9436 7.24785 3.96929 7.15517C3.99498 7.06249 4.04041 6.97647 4.10248 6.903C4.16454 6.82954 4.24177 6.77037 4.32885 6.72956C4.41594 6.68875 4.51082 6.66727 4.60699 6.66659H16.3803C16.4776 6.66533 16.574 6.68539 16.6627 6.72535C16.7514 6.76531 16.8303 6.82421 16.8939 6.8979C16.9574 6.9716 17.004 7.05831 17.0305 7.15195C17.0569 7.24558 17.0626 7.34387 17.047 7.43992ZM17.8337 4.66659C17.8337 4.8434 17.7634 5.01297 17.6384 5.13799C17.5134 5.26301 17.3438 5.33325 17.167 5.33325H3.83366C3.65685 5.33325 3.48728 5.26301 3.36225 5.13799C3.23723 5.01297 3.16699 4.8434 3.16699 4.66659C3.16699 4.48977 3.23723 4.32021 3.36225 4.19518C3.48728 4.07016 3.65685 3.99992 3.83366 3.99992H7.16699V1.99992C7.16699 1.82311 7.23723 1.65354 7.36225 1.52851C7.48728 1.40349 7.65685 1.33325 7.83366 1.33325H13.167C13.3438 1.33325 13.5134 1.40349 13.6384 1.52851C13.7634 1.65354 13.8337 1.82311 13.8337 1.99992V3.99992H17.167C17.3438 3.99992 17.5134 4.07016 17.6384 4.19518C17.7634 4.32021 17.8337 4.48977 17.8337 4.66659ZM12.5003 3.99992V2.66659H8.50033V3.99992H12.5003Z" fill="#FE8705"/>
</svg>
