<svg width="38" height="38" viewBox="0 0 38 38" fill="none" xmlns="http://www.w3.org/2000/svg">
<rect width="38" height="38" rx="19" fill="url(#paint0_linear_3611_1080)"/>
<path d="M13.5 12.25C14.0523 12.25 14.5 12.6977 14.5 13.25V13.5C14.5 14.0523 14.0523 14.5 13.5 14.5H13.25C12.6977 14.5 12.25 14.0523 12.25 13.5V13.25C12.25 12.6977 12.6977 12.25 13.25 12.25H13.5ZM12.125 11.125C11.5727 11.125 11.125 11.5727 11.125 12.125V14.625C11.125 15.1773 11.5727 15.625 12.125 15.625H14.625C15.1773 15.625 15.625 15.1773 15.625 14.625V12.125C15.625 11.5727 15.1773 11.125 14.625 11.125H12.125ZM19.125 13.9375C19.6773 13.9375 20.125 14.3852 20.125 14.9375V15.1875C20.125 15.7398 19.6773 16.1875 19.125 16.1875H18.875C18.3227 16.1875 17.875 15.7398 17.875 15.1875V14.9375C17.875 14.3852 18.3227 13.9375 18.875 13.9375H19.125ZM17.75 12.8125C17.1977 12.8125 16.75 13.2602 16.75 13.8125V16.3125C16.75 16.8648 17.1977 17.3125 17.75 17.3125H20.25C20.8023 17.3125 21.25 16.8648 21.25 16.3125V13.8125C21.25 13.2602 20.8023 12.8125 20.25 12.8125H17.75ZM13.5 19C14.0523 19 14.5 19.4477 14.5 20V20.25C14.5 20.8023 14.0523 21.25 13.5 21.25H13.25C12.6977 21.25 12.25 20.8023 12.25 20.25V20C12.25 19.4477 12.6977 19 13.25 19H13.5ZM12.125 17.875C11.5727 17.875 11.125 18.3227 11.125 18.875V21.375C11.125 21.9273 11.5727 22.375 12.125 22.375H14.625C15.1773 22.375 15.625 21.9273 15.625 21.375V18.875C15.625 18.3227 15.1773 17.875 14.625 17.875H12.125Z" fill="#F9FAFC"/>
<path d="M23.375 15.625C22.8227 15.625 22.375 16.0727 22.375 16.625V18C22.375 18.5523 21.9273 19 21.375 19H20C19.4477 19 19 19.4477 19 20V21.375C19 21.9273 18.5523 22.375 18 22.375H16.625C16.0727 22.375 15.625 22.8227 15.625 23.375V25.875C15.625 26.4273 16.0727 26.875 16.625 26.875H25.875C26.4273 26.875 26.875 26.4273 26.875 25.875V16.625C26.875 16.0727 26.4273 15.625 25.875 15.625H23.375ZM20.125 21.125C20.125 20.5727 20.5727 20.125 21.125 20.125H21.375C21.9273 20.125 22.375 20.5727 22.375 21.125V21.375C22.375 21.9273 21.9273 22.375 21.375 22.375H21.125C20.5727 22.375 20.125 21.9273 20.125 21.375V21.125ZM19 24.75C19 25.3023 18.5523 25.75 18 25.75H17.75C17.1977 25.75 16.75 25.3023 16.75 24.75V24.5C16.75 23.9477 17.1977 23.5 17.75 23.5H18C18.5523 23.5 19 23.9477 19 24.5V24.75ZM22.375 24.75C22.375 25.3023 21.9273 25.75 21.375 25.75H21.125C20.5727 25.75 20.125 25.3023 20.125 24.75V24.5C20.125 23.9477 20.5727 23.5 21.125 23.5H21.375C21.9273 23.5 22.375 23.9477 22.375 24.5V24.75ZM25.75 24.75C25.75 25.3023 25.3023 25.75 24.75 25.75H24.5C23.9477 25.75 23.5 25.3023 23.5 24.75V24.5C23.5 23.9477 23.9477 23.5 24.5 23.5H24.75C25.3023 23.5 25.75 23.9477 25.75 24.5V24.75ZM25.75 21.375C25.75 21.9273 25.3023 22.375 24.75 22.375H24.5C23.9477 22.375 23.5 21.9273 23.5 21.375V21.125C23.5 20.5727 23.9477 20.125 24.5 20.125H24.75C25.3023 20.125 25.75 20.5727 25.75 21.125V21.375ZM24.5 19C23.9477 19 23.5 18.5523 23.5 18V17.75C23.5 17.1977 23.9477 16.75 24.5 16.75H24.75C25.3023 16.75 25.75 17.1977 25.75 17.75V18C25.75 18.5523 25.3023 19 24.75 19H24.5Z" fill="#F9FAFC"/>
<defs>
<linearGradient id="paint0_linear_3611_1080" x1="19" y1="0" x2="19" y2="38" gradientUnits="userSpaceOnUse">
<stop stop-color="#FAB336"/>
<stop offset="1" stop-color="#F46F40"/>
</linearGradient>
</defs>
</svg>
