<svg width="18" height="16" viewBox="0 0 18 16" fill="none" xmlns="http://www.w3.org/2000/svg">
<path d="M13.7427 16C13.2988 16 12.7294 15.8726 12.0175 15.4979L9.51355 14.1714C9.25394 14.0365 8.75146 14.0365 8.50023 14.1714L5.98788 15.4979C4.50559 16.2848 3.63464 15.97 3.24104 15.7152C2.85581 15.4604 2.25284 14.8084 2.64644 13.3096L3.24104 11.0089C3.30803 10.7691 3.17404 10.3569 2.97305 10.177L0.896172 8.3185C-0.142268 7.38923 -0.0585229 6.59485 0.0838438 6.20515C0.226211 5.81546 0.678434 5.126 2.11885 4.90866L4.79032 4.51148C5.04156 4.474 5.40166 4.23419 5.51053 4.03185L6.99282 1.38642C7.66278 0.179859 8.5421 0 9.0027 0C9.4633 0 10.3426 0.179859 11.0126 1.38642L12.4865 4.02436C12.6037 4.2267 12.9638 4.46651 13.2151 4.50398L15.8865 4.90117C17.3353 5.1185 17.7876 5.80796 17.9216 6.19766C18.0555 6.58735 18.1393 7.38173 17.1092 8.31101L15.0324 10.177C14.8314 10.3569 14.7057 10.7616 14.7644 11.0089L15.359 13.3096C15.7442 14.8084 15.1496 15.4604 14.7644 15.7152C14.555 15.8501 14.22 16 13.7427 16Z" fill="#FE8705"/>
</svg>
