<svg width="24" height="24" viewBox="0 0 24 24" fill="none" xmlns="http://www.w3.org/2000/svg">
<path d="M5.58994 22.6999C3.24994 22.6999 1.26993 20.7199 1.26993 18.3799V12.2198C1.20993 9.30985 2.29995 6.55987 4.31995 4.48987C6.33995 2.42987 9.05994 1.29987 11.9699 1.29987C17.9299 1.29987 22.7699 6.14986 22.7699 12.1099V18.2699C22.7699 20.6499 20.83 22.5899 18.45 22.5899C16.07 22.5899 14.1299 20.6499 14.1299 18.2699V15.4599C14.1299 14.0299 15.2899 12.8699 16.7199 12.8699C18.1499 12.8699 19.3099 14.0299 19.3099 15.4599V18.4899C19.3099 18.8999 18.9699 19.2399 18.5599 19.2399C18.1499 19.2399 17.8099 18.8999 17.8099 18.4899V15.4599C17.8099 14.7799 17.2599 14.3699 16.7199 14.3699C16.0399 14.3699 15.6299 14.9199 15.6299 15.4599V18.2699C15.6299 19.7999 16.92 21.0899 18.45 21.0899C19.98 21.0899 21.2699 19.7999 21.2699 18.2699V12.1099C21.2699 6.97986 17.0999 2.79987 11.9699 2.79987C9.45994 2.79987 7.12996 3.76986 5.38996 5.53986C3.64996 7.30986 2.71993 9.67989 2.76993 12.1999V18.3699C2.76993 19.8999 4.05994 21.1899 5.58994 21.1899C7.11994 21.1899 8.40994 19.8999 8.40994 18.3699V15.5599C8.40994 14.8799 7.85995 14.4698 7.31995 14.4698C6.63995 14.4698 6.22995 15.0199 6.22995 15.5599V18.4799C6.22995 18.8899 5.88995 19.2299 5.47995 19.2299C5.06995 19.2299 4.72995 18.8899 4.72995 18.4799V15.5599C4.72995 14.1099 5.86995 12.9698 7.31995 12.9698C8.74995 12.9698 9.90994 14.1299 9.90994 15.5599V18.3699C9.90994 20.7599 7.96994 22.6999 5.58994 22.6999Z" fill="#FE8705"/>
<path d="M13.1797 11.86C12.7797 11.86 12.4197 11.6401 12.2497 11.2801L10.7997 8.39008L10.3797 9.17004C10.1497 9.60004 9.68974 9.87006 9.19974 9.87006H8.46973C8.05973 9.87006 7.71973 9.53006 7.71973 9.12006C7.71973 8.71006 8.05973 8.37006 8.46973 8.37006H9.10971L9.89972 6.91003C10.0897 6.57003 10.4397 6.39005 10.8297 6.36005C11.2197 6.36005 11.5697 6.59005 11.7497 6.93005L13.1797 9.79004L13.5197 9.10004C13.7497 8.64004 14.1997 8.36005 14.7197 8.36005H15.5297C15.9397 8.36005 16.2797 8.70005 16.2797 9.11005C16.2797 9.52005 15.9397 9.86005 15.5297 9.86005H14.8197L14.1097 11.2701C13.9297 11.6401 13.5797 11.86 13.1797 11.86Z" fill="#FE8705"/>
</svg>
