<svg width="24" height="24" viewBox="0 0 24 24" fill="none" xmlns="http://www.w3.org/2000/svg">
<path d="M11.7899 11.8801C11.2499 11.8801 10.6999 11.7801 10.2699 11.5901L4.3699 8.97006C2.8699 8.30006 2.6499 7.40006 2.6499 6.91006C2.6499 6.42006 2.8699 5.52006 4.3699 4.85006L10.2699 2.23006C11.1399 1.84006 12.4499 1.84006 13.3199 2.23006L19.2299 4.85006C20.7199 5.51006 20.9499 6.42006 20.9499 6.91006C20.9499 7.40006 20.7299 8.30006 19.2299 8.97006L13.3199 11.5901C12.8799 11.7901 12.3399 11.8801 11.7899 11.8801ZM11.7899 3.44006C11.4499 3.44006 11.1199 3.49006 10.8799 3.60006L4.9799 6.22006C4.3699 6.50006 4.1499 6.78006 4.1499 6.91006C4.1499 7.04006 4.3699 7.33006 4.9699 7.60006L10.8699 10.2201C11.3499 10.4301 12.2199 10.4301 12.6999 10.2201L18.6099 7.60006C19.2199 7.33006 19.4399 7.04006 19.4399 6.91006C19.4399 6.78006 19.2199 6.49006 18.6099 6.22006L12.7099 3.60006C12.4699 3.50006 12.1299 3.44006 11.7899 3.44006Z" fill="#FE8705"/>
<path d="M12 17.0901C11.62 17.0901 11.24 17.0101 10.88 16.8501L4.09 13.8301C3.06 13.3801 2.25 12.1301 2.25 11.0001C2.25 10.5901 2.59 10.2501 3 10.2501C3.41 10.2501 3.75 10.5901 3.75 11.0001C3.75 11.5501 4.2 12.2401 4.7 12.4701L11.49 15.4901C11.81 15.6301 12.18 15.6301 12.51 15.4901L19.3 12.4701C19.8 12.2501 20.25 11.5501 20.25 11.0001C20.25 10.5901 20.59 10.2501 21 10.2501C21.41 10.2501 21.75 10.5901 21.75 11.0001C21.75 12.1301 20.94 13.3801 19.91 13.8401L13.12 16.8601C12.76 17.0101 12.38 17.0901 12 17.0901Z" fill="#FE8705"/>
<path d="M12 22.0901C11.62 22.0901 11.24 22.0101 10.88 21.8501L4.09 18.8301C2.97 18.3301 2.25 17.2201 2.25 15.9901C2.25 15.5801 2.59 15.2401 3 15.2401C3.41 15.2401 3.75 15.5901 3.75 16.0001C3.75 16.6301 4.12 17.2101 4.7 17.4701L11.49 20.4901C11.81 20.6301 12.18 20.6301 12.51 20.4901L19.3 17.4701C19.88 17.2101 20.25 16.6401 20.25 16.0001C20.25 15.5901 20.59 15.2501 21 15.2501C21.41 15.2501 21.75 15.5901 21.75 16.0001C21.75 17.2301 21.03 18.3401 19.91 18.8401L13.12 21.8601C12.76 22.0101 12.38 22.0901 12 22.0901Z" fill="#FE8705"/>
</svg>
