<svg width="24" height="24" viewBox="0 0 24 24" fill="none" xmlns="http://www.w3.org/2000/svg">
<path d="M11.9998 22.0801C11.6998 22.0801 11.3998 22.0101 11.1498 21.8701C9.27978 20.8501 5.99976 19.7701 3.93976 19.5001L3.64978 19.4601C2.33978 19.3001 1.25977 18.0701 1.25977 16.7401V4.66005C1.25977 3.87005 1.56977 3.15008 2.13977 2.63008C2.70977 2.11008 3.44974 1.86007 4.22974 1.93007C6.41974 2.11007 9.73975 3.21008 11.6198 4.38008L11.8597 4.5201C11.9297 4.5501 12.0798 4.5601 12.1398 4.5201L12.2997 4.42006C12.9697 4.00006 13.8097 3.59005 14.7297 3.22005C14.9597 3.13005 15.2197 3.16006 15.4297 3.30006C15.6397 3.44006 15.7598 3.67006 15.7598 3.92006V6.60005L16.5898 6.05006C16.8398 5.88006 17.1697 5.88006 17.4197 6.05006L18.2498 6.60005V2.7801C18.2498 2.4201 18.5097 2.11005 18.8597 2.04005C19.1497 1.99005 19.4398 1.95007 19.6998 1.93007C19.7198 1.93007 19.7998 1.93007 19.8198 1.93007C20.5498 1.87007 21.2997 2.12009 21.8597 2.64009C22.4297 3.16009 22.7397 3.88006 22.7397 4.67006V16.7401C22.7397 18.0801 21.6598 19.3001 20.3398 19.4601L20.0098 19.5001C17.9498 19.7701 14.6498 20.8601 12.8198 21.8701C12.5998 22.0101 12.2998 22.0801 11.9998 22.0801ZM3.97974 3.41005C3.65974 3.41005 3.36977 3.52006 3.13977 3.73006C2.88977 3.96006 2.74976 4.29005 2.74976 4.66005V16.7401C2.74976 17.3301 3.25977 17.9001 3.82977 17.9801L4.12976 18.0201C6.37976 18.3201 9.82977 19.4501 11.8298 20.5501C11.9198 20.5901 12.0497 20.6001 12.0997 20.5801C14.1097 19.4701 17.5698 18.3301 19.8298 18.0301L20.1697 17.9901C20.7397 17.9201 21.2498 17.3401 21.2498 16.7501V4.68007C21.2498 4.31007 21.1097 3.99008 20.8597 3.75008C20.6097 3.52008 20.2598 3.41007 19.8998 3.43007C19.8698 3.43007 19.7798 3.43007 19.7598 3.43007V8.00008C19.7598 8.28008 19.6097 8.53005 19.3597 8.66005C19.1097 8.79005 18.8198 8.78007 18.5898 8.62007L17.0098 7.57008L15.4297 8.62007C15.1997 8.77007 14.9097 8.79005 14.6597 8.66005C14.4197 8.53005 14.2598 8.28008 14.2598 8.00008V5.07008C13.8298 5.28008 13.4397 5.49008 13.0997 5.69008L12.9398 5.79005C12.3898 6.13005 11.6098 6.13006 11.0798 5.80006L10.8398 5.6501C9.14978 4.5901 6.06974 3.57005 4.10974 3.41005C4.05974 3.41005 4.01974 3.41005 3.97974 3.41005Z" fill="#FE8705"/>
<path d="M12 21.2403C11.59 21.2403 11.25 20.9003 11.25 20.4903V5.4903C11.25 5.0803 11.59 4.7403 12 4.7403C12.41 4.7403 12.75 5.0803 12.75 5.4903V20.4903C12.75 20.9103 12.41 21.2403 12 21.2403Z" fill="#FE8705"/>
<path d="M19 8.75005C18.85 8.75005 18.71 8.71004 18.58 8.62004L17 7.57006L15.42 8.62004C15.19 8.77004 14.9 8.79002 14.65 8.66002C14.41 8.53002 14.25 8.28005 14.25 8.00005V3.92003C14.25 3.61003 14.44 3.34002 14.72 3.22002C16.1 2.67002 17.61 2.24003 18.88 2.04003C19.1 2.00003 19.32 2.07007 19.49 2.21007C19.66 2.35007 19.75 2.56008 19.75 2.78008V8.00005C19.75 8.28005 19.6 8.53002 19.35 8.66002C19.24 8.72002 19.12 8.75005 19 8.75005ZM17 5.92003C17.14 5.92003 17.29 5.96004 17.42 6.05004L18.25 6.60003V3.69005C17.45 3.87005 16.58 4.13005 15.75 4.44005V6.60003L16.58 6.05004C16.71 5.96004 16.86 5.92003 17 5.92003Z" fill="#FE8705"/>
</svg>
