<svg width="24" height="24" viewBox="0 0 24 24" fill="none" xmlns="http://www.w3.org/2000/svg">
<path d="M18.29 22.7501H5.70995C2.30995 22.7501 2.12995 20.8801 1.97995 19.3701L1.57995 14.3601C1.48995 13.3901 1.76995 12.4201 2.38995 11.6401C3.12995 10.7401 4.17995 10.2501 5.30995 10.2501H18.69C19.8 10.2501 20.85 10.7401 21.5599 11.5901L21.7299 11.8201C22.27 12.5601 22.51 13.4601 22.42 14.3701L22.02 19.3601C21.87 20.8801 21.69 22.7501 18.29 22.7501ZM5.30995 11.7501C4.63995 11.7501 3.99995 12.0501 3.57995 12.5701L3.50995 12.6401C3.18995 13.0501 3.01995 13.6301 3.07995 14.2301L3.47995 19.2401C3.61995 20.7001 3.67995 21.2501 5.70995 21.2501H18.29C20.33 21.2501 20.38 20.7001 20.52 19.2301L20.92 14.2201C20.9799 13.6301 20.8099 13.0401 20.42 12.5801L20.32 12.4601C19.8699 11.9901 19.3 11.7501 18.68 11.7501H5.30995Z" fill="#FE8705"/>
<path d="M20.5 12.2201C20.09 12.2201 19.75 11.8801 19.75 11.4701V9.68006C19.75 6.70006 19.23 6.18006 16.25 6.18006H13.7C12.57 6.18006 12.18 5.78006 11.75 5.21006L10.46 3.50006C10.02 2.92006 9.92 2.78006 9.02 2.78006H7.75C4.77 2.78006 4.25 3.30006 4.25 6.28006V11.4301C4.25 11.8401 3.91 12.1801 3.5 12.1801C3.09 12.1801 2.75 11.8401 2.75 11.4301V6.28006C2.75 2.45006 3.92 1.28006 7.75 1.28006H9.03C10.57 1.28006 11.05 1.78006 11.67 2.60006L12.95 4.30006C13.22 4.66006 13.24 4.68006 13.71 4.68006H16.26C20.09 4.68006 21.26 5.85006 21.26 9.68006V11.4701C21.25 11.8801 20.91 12.2201 20.5 12.2201Z" fill="#FE8705"/>
<path d="M14.5699 17.7501H9.42993C9.01993 17.7501 8.67993 17.4101 8.67993 17.0001C8.67993 16.5901 9.01993 16.2501 9.42993 16.2501H14.5699C14.9799 16.2501 15.3199 16.5901 15.3199 17.0001C15.3199 17.4101 14.9899 17.7501 14.5699 17.7501Z" fill="#FE8705"/>
</svg>
